G04 EAGLE Gerber RS-274X export*
G75*
%MOMM*%
%FSLAX34Y34*%
%LPD*%
%INBottom Copper*%
%IPPOS*%
%AMOC8*
5,1,8,0,0,1.08239X$1,22.5*%
G01*
%ADD10C,0.908000*%
%ADD11C,1.879600*%
%ADD12C,2.184400*%
%ADD13C,4.000000*%
%ADD14C,2.000000*%
%ADD15C,1.016000*%
%ADD16C,1.006400*%
%ADD17C,0.406400*%
%ADD18C,0.812800*%
%ADD19C,0.304800*%
%ADD20C,1.270000*%
%ADD21C,0.609600*%
%ADD22C,0.254000*%

G36*
X624845Y326962D02*
X624845Y326962D01*
X624960Y326961D01*
X625091Y326982D01*
X625223Y326993D01*
X625334Y327020D01*
X625447Y327038D01*
X625573Y327079D01*
X625702Y327111D01*
X625807Y327156D01*
X625916Y327192D01*
X626034Y327254D01*
X626156Y327306D01*
X626252Y327367D01*
X626353Y327420D01*
X626427Y327479D01*
X626572Y327571D01*
X626814Y327787D01*
X626886Y327845D01*
X656611Y357570D01*
X656685Y357657D01*
X656766Y357737D01*
X656844Y357844D01*
X656930Y357946D01*
X656989Y358044D01*
X657056Y358136D01*
X657116Y358254D01*
X657185Y358368D01*
X657227Y358474D01*
X657279Y358576D01*
X657319Y358703D01*
X657368Y358826D01*
X657393Y358938D01*
X657427Y359047D01*
X657437Y359140D01*
X657475Y359308D01*
X657493Y359632D01*
X657503Y359724D01*
X657503Y359810D01*
X658888Y363153D01*
X661447Y365712D01*
X664790Y367097D01*
X668410Y367097D01*
X671753Y365712D01*
X674312Y363153D01*
X675697Y359810D01*
X675697Y356190D01*
X674312Y352847D01*
X671753Y350288D01*
X668377Y348890D01*
X668368Y348885D01*
X668359Y348882D01*
X668146Y348771D01*
X667938Y348665D01*
X667930Y348659D01*
X667921Y348654D01*
X667890Y348629D01*
X667541Y348372D01*
X667449Y348278D01*
X667388Y348229D01*
X651314Y332155D01*
X651289Y332126D01*
X651261Y332100D01*
X651129Y331938D01*
X650994Y331779D01*
X650974Y331746D01*
X650951Y331716D01*
X650848Y331536D01*
X650740Y331356D01*
X650725Y331321D01*
X650707Y331288D01*
X650634Y331092D01*
X650557Y330898D01*
X650548Y330861D01*
X650535Y330825D01*
X650495Y330620D01*
X650450Y330417D01*
X650448Y330378D01*
X650440Y330341D01*
X650434Y330133D01*
X650422Y329924D01*
X650426Y329886D01*
X650425Y329848D01*
X650452Y329641D01*
X650474Y329433D01*
X650484Y329397D01*
X650489Y329359D01*
X650550Y329159D01*
X650605Y328958D01*
X650621Y328923D01*
X650632Y328887D01*
X650724Y328699D01*
X650811Y328509D01*
X650832Y328478D01*
X650849Y328443D01*
X650969Y328273D01*
X651086Y328100D01*
X651112Y328072D01*
X651134Y328041D01*
X651281Y327893D01*
X651424Y327740D01*
X651454Y327717D01*
X651481Y327690D01*
X651650Y327567D01*
X651815Y327440D01*
X651849Y327422D01*
X651880Y327400D01*
X652066Y327306D01*
X652250Y327207D01*
X652286Y327195D01*
X652320Y327177D01*
X652519Y327115D01*
X652717Y327047D01*
X652754Y327041D01*
X652791Y327029D01*
X652883Y327019D01*
X653203Y326964D01*
X653375Y326963D01*
X653468Y326953D01*
X935522Y326953D01*
X935598Y326959D01*
X935674Y326957D01*
X935843Y326979D01*
X936014Y326993D01*
X936088Y327011D01*
X936163Y327021D01*
X936327Y327070D01*
X936493Y327111D01*
X936562Y327141D01*
X936636Y327163D01*
X936789Y327239D01*
X936946Y327306D01*
X937010Y327347D01*
X937079Y327380D01*
X937218Y327479D01*
X937362Y327571D01*
X937419Y327622D01*
X937481Y327666D01*
X937602Y327786D01*
X937730Y327900D01*
X937778Y327959D01*
X937832Y328013D01*
X937933Y328151D01*
X938040Y328284D01*
X938077Y328350D01*
X938122Y328411D01*
X938199Y328564D01*
X938284Y328712D01*
X938310Y328784D01*
X938345Y328852D01*
X938396Y329015D01*
X938455Y329175D01*
X938470Y329250D01*
X938493Y329322D01*
X938505Y329427D01*
X938550Y329659D01*
X938557Y329895D01*
X938569Y330000D01*
X938569Y835110D01*
X938554Y835299D01*
X938546Y835489D01*
X938534Y835545D01*
X938529Y835602D01*
X938484Y835786D01*
X938445Y835972D01*
X938424Y836025D01*
X938411Y836081D01*
X938336Y836255D01*
X938267Y836432D01*
X938239Y836482D01*
X938216Y836534D01*
X938114Y836694D01*
X938018Y836858D01*
X937982Y836902D01*
X937951Y836950D01*
X937824Y837092D01*
X937703Y837238D01*
X937660Y837275D01*
X937622Y837318D01*
X937475Y837437D01*
X937331Y837562D01*
X937283Y837592D01*
X937238Y837628D01*
X937073Y837722D01*
X936912Y837822D01*
X936859Y837844D01*
X936810Y837872D01*
X936631Y837938D01*
X936456Y838011D01*
X936401Y838024D01*
X936347Y838043D01*
X936161Y838080D01*
X935976Y838123D01*
X935919Y838127D01*
X935863Y838138D01*
X935673Y838144D01*
X935484Y838157D01*
X935427Y838152D01*
X935370Y838153D01*
X935182Y838129D01*
X934993Y838111D01*
X934937Y838097D01*
X934881Y838089D01*
X934699Y838034D01*
X934515Y837986D01*
X934463Y837963D01*
X934409Y837947D01*
X934238Y837863D01*
X934064Y837786D01*
X934017Y837755D01*
X933965Y837730D01*
X933811Y837620D01*
X933652Y837516D01*
X933610Y837477D01*
X933563Y837444D01*
X933428Y837311D01*
X933288Y837182D01*
X933261Y837146D01*
X933212Y837098D01*
X932922Y836699D01*
X932901Y836659D01*
X932883Y836634D01*
X928136Y828411D01*
X921589Y821864D01*
X913571Y817235D01*
X904629Y814839D01*
X895371Y814839D01*
X886429Y817235D01*
X878411Y821864D01*
X871864Y828411D01*
X867235Y836429D01*
X864839Y845371D01*
X864839Y854629D01*
X867235Y863571D01*
X871864Y871589D01*
X878411Y878136D01*
X886634Y882883D01*
X886790Y882991D01*
X886950Y883093D01*
X886992Y883131D01*
X887040Y883163D01*
X887176Y883295D01*
X887318Y883422D01*
X887354Y883466D01*
X887395Y883506D01*
X887509Y883658D01*
X887628Y883806D01*
X887656Y883855D01*
X887690Y883901D01*
X887778Y884070D01*
X887872Y884234D01*
X887892Y884288D01*
X887918Y884338D01*
X887977Y884519D01*
X888043Y884697D01*
X888054Y884753D01*
X888072Y884807D01*
X888102Y884995D01*
X888138Y885181D01*
X888140Y885238D01*
X888149Y885294D01*
X888148Y885485D01*
X888153Y885674D01*
X888146Y885730D01*
X888146Y885788D01*
X888114Y885975D01*
X888089Y886163D01*
X888073Y886218D01*
X888063Y886274D01*
X888002Y886453D01*
X887947Y886636D01*
X887921Y886687D01*
X887903Y886741D01*
X887813Y886908D01*
X887730Y887079D01*
X887697Y887125D01*
X887670Y887175D01*
X887554Y887326D01*
X887444Y887481D01*
X887404Y887522D01*
X887369Y887567D01*
X887231Y887697D01*
X887097Y887832D01*
X887051Y887866D01*
X887010Y887905D01*
X886852Y888011D01*
X886699Y888122D01*
X886648Y888148D01*
X886600Y888180D01*
X886428Y888259D01*
X886258Y888345D01*
X886204Y888362D01*
X886152Y888386D01*
X885969Y888436D01*
X885788Y888493D01*
X885742Y888498D01*
X885676Y888516D01*
X885186Y888568D01*
X885141Y888566D01*
X885110Y888569D01*
X766791Y888569D01*
X766678Y888560D01*
X766563Y888561D01*
X766432Y888540D01*
X766300Y888529D01*
X766189Y888502D01*
X766076Y888484D01*
X765950Y888443D01*
X765821Y888411D01*
X765716Y888366D01*
X765608Y888330D01*
X765490Y888269D01*
X765367Y888216D01*
X765271Y888155D01*
X765170Y888102D01*
X765064Y888022D01*
X764951Y887951D01*
X764866Y887875D01*
X764775Y887807D01*
X764683Y887711D01*
X764584Y887622D01*
X764512Y887533D01*
X764433Y887451D01*
X764357Y887342D01*
X764274Y887238D01*
X764217Y887139D01*
X764152Y887045D01*
X764095Y886925D01*
X764030Y886810D01*
X763990Y886703D01*
X763941Y886600D01*
X763904Y886472D01*
X763858Y886347D01*
X763836Y886235D01*
X763804Y886125D01*
X763789Y885993D01*
X763763Y885863D01*
X763760Y885749D01*
X763746Y885636D01*
X763752Y885503D01*
X763748Y885370D01*
X763763Y885257D01*
X763768Y885143D01*
X763790Y885051D01*
X763812Y884881D01*
X763906Y884570D01*
X763928Y884480D01*
X764240Y883622D01*
X764471Y882314D01*
X764471Y881697D01*
X761924Y881697D01*
X761804Y882768D01*
X761798Y882774D01*
X761801Y882779D01*
X761431Y883836D01*
X761425Y883840D01*
X761427Y883846D01*
X760831Y884794D01*
X760823Y884797D01*
X760824Y884802D01*
X760032Y885594D01*
X760024Y885595D01*
X760024Y885601D01*
X759076Y886197D01*
X759067Y886196D01*
X759066Y886201D01*
X758009Y886571D01*
X758001Y886569D01*
X757998Y886574D01*
X756886Y886699D01*
X756878Y886695D01*
X756875Y886699D01*
X755762Y886574D01*
X755756Y886568D01*
X755751Y886571D01*
X754694Y886201D01*
X754690Y886195D01*
X754684Y886197D01*
X753736Y885601D01*
X753733Y885593D01*
X753728Y885594D01*
X752936Y884802D01*
X752935Y884794D01*
X752929Y884794D01*
X752333Y883846D01*
X752334Y883837D01*
X752329Y883836D01*
X751959Y882779D01*
X751961Y882771D01*
X751956Y882768D01*
X751836Y881697D01*
X749289Y881697D01*
X749289Y882314D01*
X749520Y883622D01*
X749832Y884480D01*
X749862Y884590D01*
X749902Y884697D01*
X749927Y884827D01*
X749963Y884955D01*
X749975Y885069D01*
X749997Y885181D01*
X750001Y885314D01*
X750015Y885446D01*
X750008Y885560D01*
X750012Y885674D01*
X749995Y885806D01*
X749987Y885939D01*
X749962Y886050D01*
X749948Y886163D01*
X749909Y886290D01*
X749880Y886420D01*
X749838Y886526D01*
X749805Y886636D01*
X749747Y886755D01*
X749697Y886878D01*
X749638Y886976D01*
X749588Y887079D01*
X749511Y887187D01*
X749443Y887301D01*
X749369Y887388D01*
X749303Y887481D01*
X749209Y887575D01*
X749123Y887677D01*
X749036Y887751D01*
X748956Y887832D01*
X748849Y887910D01*
X748747Y887996D01*
X748650Y888055D01*
X748557Y888122D01*
X748439Y888182D01*
X748325Y888251D01*
X748219Y888293D01*
X748117Y888345D01*
X747990Y888385D01*
X747867Y888434D01*
X747755Y888459D01*
X747646Y888493D01*
X747553Y888503D01*
X747385Y888541D01*
X747061Y888559D01*
X746969Y888569D01*
X680431Y888569D01*
X680318Y888560D01*
X680203Y888561D01*
X680072Y888540D01*
X679940Y888529D01*
X679829Y888502D01*
X679716Y888484D01*
X679590Y888443D01*
X679461Y888411D01*
X679356Y888366D01*
X679248Y888330D01*
X679130Y888269D01*
X679007Y888216D01*
X678911Y888155D01*
X678810Y888102D01*
X678704Y888022D01*
X678591Y887951D01*
X678506Y887875D01*
X678415Y887807D01*
X678323Y887711D01*
X678224Y887622D01*
X678152Y887533D01*
X678073Y887451D01*
X677997Y887342D01*
X677914Y887238D01*
X677857Y887139D01*
X677792Y887045D01*
X677735Y886925D01*
X677670Y886810D01*
X677630Y886703D01*
X677581Y886600D01*
X677544Y886472D01*
X677498Y886347D01*
X677476Y886235D01*
X677444Y886125D01*
X677429Y885993D01*
X677403Y885863D01*
X677400Y885749D01*
X677386Y885636D01*
X677392Y885503D01*
X677388Y885370D01*
X677403Y885257D01*
X677408Y885143D01*
X677430Y885051D01*
X677452Y884881D01*
X677546Y884570D01*
X677568Y884480D01*
X677880Y883622D01*
X678111Y882314D01*
X678111Y881697D01*
X675564Y881697D01*
X675444Y882768D01*
X675438Y882774D01*
X675441Y882779D01*
X675071Y883836D01*
X675065Y883840D01*
X675067Y883846D01*
X674471Y884794D01*
X674463Y884797D01*
X674464Y884802D01*
X673672Y885594D01*
X673664Y885595D01*
X673664Y885601D01*
X672716Y886197D01*
X672707Y886196D01*
X672706Y886201D01*
X671649Y886571D01*
X671641Y886569D01*
X671638Y886574D01*
X670526Y886699D01*
X670518Y886695D01*
X670515Y886699D01*
X669402Y886574D01*
X669396Y886568D01*
X669391Y886571D01*
X668334Y886201D01*
X668330Y886195D01*
X668324Y886197D01*
X667376Y885601D01*
X667373Y885593D01*
X667368Y885594D01*
X666576Y884802D01*
X666575Y884794D01*
X666569Y884794D01*
X665973Y883846D01*
X665974Y883837D01*
X665969Y883836D01*
X665599Y882779D01*
X665601Y882771D01*
X665596Y882768D01*
X665476Y881697D01*
X662929Y881697D01*
X662929Y882314D01*
X663160Y883622D01*
X663472Y884480D01*
X663502Y884590D01*
X663542Y884697D01*
X663567Y884827D01*
X663603Y884955D01*
X663615Y885069D01*
X663637Y885181D01*
X663641Y885314D01*
X663655Y885446D01*
X663648Y885560D01*
X663652Y885674D01*
X663635Y885806D01*
X663627Y885939D01*
X663602Y886050D01*
X663588Y886163D01*
X663549Y886290D01*
X663520Y886420D01*
X663478Y886526D01*
X663445Y886636D01*
X663387Y886755D01*
X663337Y886878D01*
X663278Y886976D01*
X663228Y887079D01*
X663151Y887187D01*
X663083Y887301D01*
X663009Y887388D01*
X662943Y887481D01*
X662849Y887575D01*
X662763Y887677D01*
X662676Y887751D01*
X662596Y887832D01*
X662489Y887910D01*
X662387Y887996D01*
X662290Y888055D01*
X662197Y888122D01*
X662079Y888182D01*
X661965Y888251D01*
X661859Y888293D01*
X661757Y888345D01*
X661630Y888385D01*
X661507Y888434D01*
X661395Y888459D01*
X661286Y888493D01*
X661193Y888503D01*
X661025Y888541D01*
X660701Y888559D01*
X660609Y888569D01*
X590000Y888569D01*
X589924Y888563D01*
X589848Y888565D01*
X589679Y888543D01*
X589508Y888529D01*
X589434Y888511D01*
X589359Y888501D01*
X589195Y888452D01*
X589029Y888411D01*
X588960Y888381D01*
X588887Y888359D01*
X588733Y888283D01*
X588576Y888216D01*
X588512Y888175D01*
X588443Y888142D01*
X588304Y888043D01*
X588160Y887951D01*
X588103Y887900D01*
X588041Y887856D01*
X587920Y887736D01*
X587792Y887622D01*
X587744Y887563D01*
X587690Y887509D01*
X587589Y887371D01*
X587482Y887238D01*
X587445Y887172D01*
X587400Y887111D01*
X587323Y886958D01*
X587238Y886810D01*
X587212Y886738D01*
X587177Y886670D01*
X587126Y886507D01*
X587067Y886347D01*
X587052Y886272D01*
X587029Y886200D01*
X587017Y886095D01*
X586972Y885863D01*
X586965Y885627D01*
X586953Y885522D01*
X586953Y811144D01*
X586959Y811068D01*
X586957Y810992D01*
X586979Y810823D01*
X586993Y810652D01*
X587011Y810578D01*
X587021Y810503D01*
X587070Y810339D01*
X587111Y810173D01*
X587141Y810104D01*
X587163Y810030D01*
X587239Y809877D01*
X587306Y809720D01*
X587347Y809656D01*
X587380Y809587D01*
X587479Y809448D01*
X587571Y809304D01*
X587622Y809247D01*
X587666Y809185D01*
X587786Y809064D01*
X587900Y808936D01*
X587959Y808888D01*
X588013Y808834D01*
X588151Y808733D01*
X588284Y808626D01*
X588350Y808589D01*
X588411Y808544D01*
X588564Y808467D01*
X588712Y808382D01*
X588784Y808356D01*
X588852Y808321D01*
X589015Y808270D01*
X589175Y808211D01*
X589250Y808196D01*
X589322Y808173D01*
X589427Y808161D01*
X589659Y808116D01*
X589895Y808109D01*
X590000Y808097D01*
X647213Y808097D01*
X649454Y807169D01*
X689845Y766777D01*
X689903Y766728D01*
X689956Y766672D01*
X690091Y766568D01*
X690221Y766457D01*
X690287Y766418D01*
X690347Y766372D01*
X690497Y766291D01*
X690644Y766203D01*
X690715Y766174D01*
X690782Y766138D01*
X690943Y766083D01*
X691102Y766020D01*
X691176Y766003D01*
X691248Y765978D01*
X691417Y765950D01*
X691584Y765913D01*
X691660Y765909D01*
X691735Y765896D01*
X691906Y765895D01*
X692076Y765885D01*
X692152Y765893D01*
X692228Y765893D01*
X692397Y765919D01*
X692567Y765937D01*
X692640Y765958D01*
X692715Y765969D01*
X692878Y766023D01*
X693042Y766068D01*
X693112Y766100D01*
X693184Y766124D01*
X693335Y766203D01*
X693491Y766274D01*
X693554Y766316D01*
X693622Y766352D01*
X693704Y766417D01*
X693900Y766549D01*
X694072Y766711D01*
X694155Y766777D01*
X708546Y781169D01*
X710787Y782097D01*
X782970Y782097D01*
X783083Y782106D01*
X783198Y782105D01*
X783329Y782126D01*
X783462Y782137D01*
X783572Y782164D01*
X783685Y782182D01*
X783811Y782223D01*
X783940Y782255D01*
X784045Y782300D01*
X784154Y782336D01*
X784272Y782398D01*
X784394Y782450D01*
X784490Y782511D01*
X784591Y782564D01*
X784665Y782623D01*
X784810Y782715D01*
X785052Y782931D01*
X785125Y782989D01*
X785847Y783712D01*
X789190Y785097D01*
X792810Y785097D01*
X796153Y783712D01*
X798712Y781153D01*
X800097Y777810D01*
X800097Y774190D01*
X798712Y770847D01*
X796153Y768288D01*
X794069Y767425D01*
X794001Y767390D01*
X793930Y767363D01*
X793782Y767278D01*
X793630Y767200D01*
X793569Y767155D01*
X793503Y767117D01*
X793370Y767008D01*
X793233Y766907D01*
X793180Y766852D01*
X793121Y766804D01*
X793008Y766676D01*
X792889Y766554D01*
X792845Y766491D01*
X792794Y766434D01*
X792704Y766290D01*
X792606Y766150D01*
X792573Y766081D01*
X792532Y766017D01*
X792466Y765859D01*
X792392Y765705D01*
X792370Y765632D01*
X792340Y765562D01*
X792300Y765396D01*
X792252Y765232D01*
X792243Y765156D01*
X792225Y765082D01*
X792212Y764912D01*
X792191Y764742D01*
X792194Y764666D01*
X792188Y764590D01*
X792203Y764420D01*
X792209Y764250D01*
X792224Y764175D01*
X792231Y764099D01*
X792260Y763998D01*
X792307Y763766D01*
X792391Y763545D01*
X792420Y763444D01*
X793097Y761809D01*
X793097Y758191D01*
X792361Y756414D01*
X792358Y756404D01*
X792353Y756396D01*
X792282Y756168D01*
X792209Y755944D01*
X792208Y755935D01*
X792205Y755925D01*
X792201Y755885D01*
X792136Y755456D01*
X792138Y755325D01*
X792129Y755247D01*
X792129Y738383D01*
X790891Y735395D01*
X780605Y725109D01*
X777617Y723871D01*
X703176Y723871D01*
X703100Y723865D01*
X703024Y723867D01*
X702855Y723845D01*
X702684Y723831D01*
X702610Y723813D01*
X702535Y723803D01*
X702371Y723754D01*
X702205Y723713D01*
X702136Y723683D01*
X702062Y723661D01*
X701909Y723585D01*
X701752Y723518D01*
X701688Y723477D01*
X701619Y723444D01*
X701480Y723345D01*
X701336Y723253D01*
X701279Y723202D01*
X701217Y723158D01*
X701096Y723038D01*
X700968Y722924D01*
X700920Y722865D01*
X700866Y722811D01*
X700765Y722673D01*
X700658Y722540D01*
X700621Y722474D01*
X700576Y722413D01*
X700499Y722260D01*
X700414Y722112D01*
X700388Y722040D01*
X700353Y721972D01*
X700302Y721809D01*
X700243Y721649D01*
X700228Y721574D01*
X700205Y721502D01*
X700193Y721397D01*
X700148Y721165D01*
X700141Y720929D01*
X700129Y720824D01*
X700129Y689183D01*
X698891Y686195D01*
X686308Y673613D01*
X686302Y673605D01*
X686295Y673599D01*
X686142Y673416D01*
X685989Y673237D01*
X685984Y673228D01*
X685978Y673221D01*
X685958Y673186D01*
X685734Y672814D01*
X685686Y672693D01*
X685648Y672624D01*
X684912Y670847D01*
X682353Y668288D01*
X680576Y667552D01*
X680567Y667548D01*
X680558Y667545D01*
X680348Y667435D01*
X680137Y667327D01*
X680129Y667321D01*
X680121Y667317D01*
X680089Y667292D01*
X679740Y667034D01*
X679649Y666940D01*
X679587Y666892D01*
X664805Y652109D01*
X661817Y650871D01*
X590000Y650871D01*
X589924Y650865D01*
X589848Y650867D01*
X589679Y650845D01*
X589508Y650831D01*
X589434Y650813D01*
X589359Y650803D01*
X589195Y650754D01*
X589029Y650713D01*
X588960Y650683D01*
X588887Y650661D01*
X588733Y650585D01*
X588576Y650518D01*
X588512Y650477D01*
X588443Y650444D01*
X588304Y650345D01*
X588160Y650253D01*
X588103Y650202D01*
X588041Y650158D01*
X587920Y650038D01*
X587792Y649924D01*
X587744Y649865D01*
X587690Y649811D01*
X587589Y649673D01*
X587482Y649540D01*
X587445Y649474D01*
X587400Y649413D01*
X587323Y649260D01*
X587238Y649112D01*
X587212Y649040D01*
X587177Y648972D01*
X587126Y648809D01*
X587067Y648649D01*
X587052Y648574D01*
X587029Y648502D01*
X587017Y648397D01*
X586972Y648165D01*
X586965Y647929D01*
X586953Y647824D01*
X586953Y562160D01*
X586959Y562084D01*
X586957Y562008D01*
X586979Y561839D01*
X586993Y561668D01*
X587011Y561594D01*
X587021Y561519D01*
X587070Y561355D01*
X587111Y561189D01*
X587141Y561120D01*
X587163Y561046D01*
X587239Y560893D01*
X587306Y560736D01*
X587347Y560672D01*
X587380Y560603D01*
X587479Y560464D01*
X587571Y560320D01*
X587622Y560263D01*
X587666Y560201D01*
X587786Y560080D01*
X587900Y559952D01*
X587959Y559904D01*
X588013Y559850D01*
X588151Y559749D01*
X588284Y559642D01*
X588350Y559605D01*
X588411Y559560D01*
X588564Y559483D01*
X588712Y559398D01*
X588784Y559372D01*
X588852Y559337D01*
X589015Y559286D01*
X589175Y559227D01*
X589250Y559212D01*
X589322Y559189D01*
X589427Y559177D01*
X589659Y559132D01*
X589895Y559125D01*
X590000Y559113D01*
X634415Y559113D01*
X637029Y558030D01*
X674030Y521029D01*
X675113Y518415D01*
X675113Y503014D01*
X675122Y502901D01*
X675121Y502786D01*
X675142Y502655D01*
X675153Y502522D01*
X675180Y502412D01*
X675198Y502299D01*
X675239Y502173D01*
X675271Y502044D01*
X675316Y501939D01*
X675352Y501830D01*
X675414Y501712D01*
X675466Y501590D01*
X675527Y501494D01*
X675580Y501393D01*
X675639Y501319D01*
X675651Y501300D01*
X677097Y497810D01*
X677097Y494190D01*
X675712Y490847D01*
X673153Y488288D01*
X669810Y486903D01*
X666190Y486903D01*
X662847Y488288D01*
X660288Y490847D01*
X658903Y494190D01*
X658903Y497810D01*
X660340Y501278D01*
X660373Y501333D01*
X660440Y501426D01*
X660500Y501544D01*
X660569Y501658D01*
X660611Y501764D01*
X660663Y501866D01*
X660703Y501993D01*
X660752Y502116D01*
X660777Y502227D01*
X660811Y502336D01*
X660821Y502430D01*
X660859Y502598D01*
X660877Y502922D01*
X660887Y503014D01*
X660887Y512792D01*
X660878Y512905D01*
X660879Y513020D01*
X660858Y513151D01*
X660847Y513283D01*
X660820Y513394D01*
X660802Y513507D01*
X660761Y513633D01*
X660729Y513762D01*
X660684Y513867D01*
X660648Y513976D01*
X660586Y514093D01*
X660534Y514216D01*
X660473Y514312D01*
X660420Y514413D01*
X660361Y514487D01*
X660269Y514632D01*
X660157Y514757D01*
X660131Y514794D01*
X660059Y514866D01*
X660053Y514874D01*
X659995Y514946D01*
X630946Y543995D01*
X630859Y544069D01*
X630779Y544150D01*
X630672Y544228D01*
X630570Y544314D01*
X630472Y544373D01*
X630380Y544440D01*
X630262Y544500D01*
X630148Y544569D01*
X630042Y544611D01*
X629940Y544663D01*
X629813Y544703D01*
X629690Y544752D01*
X629578Y544777D01*
X629469Y544811D01*
X629376Y544821D01*
X629208Y544859D01*
X628884Y544877D01*
X628792Y544887D01*
X590000Y544887D01*
X589924Y544881D01*
X589848Y544883D01*
X589679Y544861D01*
X589508Y544847D01*
X589434Y544829D01*
X589359Y544819D01*
X589195Y544770D01*
X589029Y544729D01*
X588960Y544699D01*
X588887Y544677D01*
X588733Y544601D01*
X588576Y544534D01*
X588512Y544493D01*
X588443Y544460D01*
X588304Y544361D01*
X588160Y544269D01*
X588103Y544218D01*
X588041Y544174D01*
X587920Y544054D01*
X587792Y543940D01*
X587744Y543881D01*
X587690Y543827D01*
X587589Y543689D01*
X587482Y543556D01*
X587445Y543490D01*
X587400Y543429D01*
X587323Y543276D01*
X587238Y543128D01*
X587212Y543056D01*
X587177Y542988D01*
X587126Y542825D01*
X587067Y542665D01*
X587052Y542590D01*
X587029Y542518D01*
X587017Y542413D01*
X586972Y542181D01*
X586965Y541945D01*
X586953Y541840D01*
X586953Y330000D01*
X586959Y329924D01*
X586957Y329848D01*
X586979Y329679D01*
X586993Y329508D01*
X587011Y329434D01*
X587021Y329359D01*
X587070Y329195D01*
X587111Y329029D01*
X587141Y328960D01*
X587163Y328887D01*
X587239Y328733D01*
X587306Y328576D01*
X587347Y328512D01*
X587380Y328443D01*
X587479Y328304D01*
X587571Y328160D01*
X587622Y328103D01*
X587666Y328041D01*
X587786Y327920D01*
X587900Y327792D01*
X587959Y327744D01*
X588013Y327690D01*
X588151Y327589D01*
X588284Y327482D01*
X588350Y327445D01*
X588411Y327400D01*
X588564Y327323D01*
X588712Y327238D01*
X588784Y327212D01*
X588852Y327177D01*
X589015Y327126D01*
X589175Y327067D01*
X589250Y327052D01*
X589322Y327029D01*
X589427Y327017D01*
X589659Y326972D01*
X589895Y326965D01*
X590000Y326953D01*
X624732Y326953D01*
X624845Y326962D01*
G37*
%LPC*%
G36*
X823352Y596837D02*
X823352Y596837D01*
X818404Y598887D01*
X814617Y602674D01*
X812567Y607622D01*
X812567Y612978D01*
X814617Y617926D01*
X817536Y620845D01*
X817585Y620903D01*
X817641Y620956D01*
X817745Y621091D01*
X817856Y621221D01*
X817895Y621286D01*
X817941Y621347D01*
X818022Y621497D01*
X818110Y621644D01*
X818138Y621715D01*
X818174Y621782D01*
X818230Y621943D01*
X818293Y622102D01*
X818310Y622176D01*
X818334Y622248D01*
X818363Y622417D01*
X818400Y622584D01*
X818404Y622660D01*
X818417Y622735D01*
X818418Y622906D01*
X818428Y623076D01*
X818420Y623152D01*
X818420Y623228D01*
X818394Y623397D01*
X818375Y623567D01*
X818355Y623640D01*
X818343Y623715D01*
X818290Y623878D01*
X818245Y624042D01*
X818213Y624112D01*
X818189Y624184D01*
X818110Y624335D01*
X818039Y624491D01*
X817997Y624554D01*
X817961Y624622D01*
X817896Y624704D01*
X817764Y624900D01*
X817602Y625072D01*
X817536Y625155D01*
X814617Y628074D01*
X812567Y633022D01*
X812567Y638378D01*
X814617Y643326D01*
X817536Y646245D01*
X817585Y646303D01*
X817641Y646356D01*
X817745Y646491D01*
X817856Y646621D01*
X817895Y646686D01*
X817941Y646747D01*
X818022Y646897D01*
X818110Y647044D01*
X818138Y647115D01*
X818174Y647182D01*
X818230Y647343D01*
X818293Y647502D01*
X818310Y647576D01*
X818334Y647648D01*
X818363Y647817D01*
X818400Y647984D01*
X818404Y648060D01*
X818417Y648135D01*
X818418Y648306D01*
X818428Y648476D01*
X818420Y648552D01*
X818420Y648628D01*
X818394Y648797D01*
X818375Y648967D01*
X818355Y649040D01*
X818343Y649115D01*
X818290Y649278D01*
X818245Y649442D01*
X818213Y649512D01*
X818189Y649584D01*
X818110Y649735D01*
X818039Y649891D01*
X817997Y649954D01*
X817961Y650022D01*
X817896Y650104D01*
X817764Y650300D01*
X817602Y650472D01*
X817536Y650555D01*
X814617Y653474D01*
X812567Y658422D01*
X812567Y663778D01*
X814617Y668726D01*
X817536Y671645D01*
X817585Y671703D01*
X817641Y671756D01*
X817745Y671891D01*
X817856Y672021D01*
X817895Y672086D01*
X817941Y672147D01*
X818022Y672297D01*
X818110Y672444D01*
X818138Y672515D01*
X818174Y672582D01*
X818230Y672743D01*
X818293Y672902D01*
X818310Y672976D01*
X818334Y673048D01*
X818363Y673217D01*
X818400Y673384D01*
X818404Y673460D01*
X818417Y673535D01*
X818418Y673706D01*
X818428Y673876D01*
X818420Y673952D01*
X818420Y674028D01*
X818394Y674197D01*
X818375Y674367D01*
X818355Y674440D01*
X818343Y674515D01*
X818290Y674678D01*
X818245Y674842D01*
X818213Y674912D01*
X818189Y674984D01*
X818110Y675135D01*
X818039Y675291D01*
X817997Y675354D01*
X817961Y675422D01*
X817896Y675504D01*
X817764Y675700D01*
X817602Y675872D01*
X817536Y675955D01*
X814617Y678874D01*
X812567Y683822D01*
X812567Y689178D01*
X814617Y694126D01*
X817536Y697045D01*
X817585Y697103D01*
X817641Y697156D01*
X817745Y697291D01*
X817856Y697421D01*
X817895Y697486D01*
X817941Y697547D01*
X818022Y697697D01*
X818110Y697844D01*
X818138Y697915D01*
X818174Y697982D01*
X818230Y698143D01*
X818293Y698302D01*
X818310Y698376D01*
X818334Y698448D01*
X818363Y698617D01*
X818400Y698784D01*
X818404Y698860D01*
X818417Y698935D01*
X818418Y699106D01*
X818428Y699276D01*
X818420Y699352D01*
X818420Y699428D01*
X818394Y699597D01*
X818375Y699767D01*
X818355Y699840D01*
X818343Y699915D01*
X818290Y700078D01*
X818245Y700242D01*
X818213Y700312D01*
X818189Y700384D01*
X818110Y700535D01*
X818039Y700691D01*
X817997Y700754D01*
X817961Y700822D01*
X817896Y700904D01*
X817764Y701100D01*
X817602Y701272D01*
X817536Y701355D01*
X814617Y704274D01*
X812567Y709222D01*
X812567Y714578D01*
X814617Y719526D01*
X818404Y723313D01*
X823352Y725363D01*
X828708Y725363D01*
X833656Y723313D01*
X837845Y719124D01*
X837903Y719075D01*
X837955Y719019D01*
X838091Y718915D01*
X838221Y718804D01*
X838287Y718765D01*
X838347Y718719D01*
X838497Y718638D01*
X838644Y718550D01*
X838714Y718522D01*
X838782Y718486D01*
X838943Y718430D01*
X839102Y718367D01*
X839176Y718350D01*
X839248Y718326D01*
X839417Y718297D01*
X839583Y718260D01*
X839660Y718256D01*
X839735Y718243D01*
X839906Y718242D01*
X840076Y718232D01*
X840152Y718240D01*
X840228Y718240D01*
X840397Y718266D01*
X840567Y718285D01*
X840640Y718305D01*
X840715Y718317D01*
X840878Y718370D01*
X841042Y718415D01*
X841112Y718447D01*
X841184Y718471D01*
X841335Y718550D01*
X841491Y718621D01*
X841554Y718663D01*
X841622Y718699D01*
X841704Y718764D01*
X841900Y718896D01*
X842073Y719058D01*
X842155Y719124D01*
X846344Y723313D01*
X851292Y725363D01*
X856648Y725363D01*
X861596Y723313D01*
X865383Y719526D01*
X867433Y714578D01*
X867433Y709222D01*
X865383Y704274D01*
X861356Y700247D01*
X861311Y700194D01*
X861261Y700148D01*
X861152Y700007D01*
X861036Y699871D01*
X861001Y699812D01*
X860959Y699758D01*
X860874Y699601D01*
X860782Y699448D01*
X860756Y699385D01*
X860724Y699324D01*
X860665Y699155D01*
X860599Y698990D01*
X860584Y698923D01*
X860561Y698858D01*
X860531Y698682D01*
X860492Y698509D01*
X860488Y698440D01*
X860476Y698372D01*
X860474Y698194D01*
X860464Y698016D01*
X860472Y697948D01*
X860471Y697879D01*
X860498Y697702D01*
X860517Y697525D01*
X860535Y697459D01*
X860545Y697391D01*
X860600Y697222D01*
X860647Y697050D01*
X860676Y696987D01*
X860697Y696922D01*
X860778Y696764D01*
X860853Y696601D01*
X860891Y696544D01*
X860923Y696483D01*
X861029Y696340D01*
X861128Y696192D01*
X861175Y696142D01*
X861216Y696087D01*
X861294Y696016D01*
X861466Y695832D01*
X861643Y695697D01*
X861720Y695627D01*
X861748Y695606D01*
X863076Y694278D01*
X864181Y692757D01*
X865034Y691083D01*
X865533Y689547D01*
X853970Y689547D01*
X853894Y689541D01*
X853818Y689544D01*
X853649Y689521D01*
X853479Y689507D01*
X853405Y689489D01*
X853329Y689479D01*
X853165Y689430D01*
X853000Y689389D01*
X852930Y689359D01*
X852857Y689337D01*
X852703Y689262D01*
X852546Y689194D01*
X852482Y689153D01*
X852414Y689120D01*
X852274Y689021D01*
X852130Y688929D01*
X852074Y688878D01*
X852011Y688834D01*
X851890Y688714D01*
X851762Y688600D01*
X851714Y688541D01*
X851660Y688487D01*
X851559Y688349D01*
X851452Y688216D01*
X851414Y688150D01*
X851369Y688088D01*
X851293Y687936D01*
X851208Y687787D01*
X851181Y687716D01*
X851147Y687648D01*
X851096Y687485D01*
X851036Y687325D01*
X851022Y687250D01*
X850999Y687177D01*
X850987Y687073D01*
X850942Y686841D01*
X850934Y686605D01*
X850923Y686500D01*
X850923Y661100D01*
X850923Y635700D01*
X850923Y610300D01*
X850923Y598737D01*
X849387Y599236D01*
X847713Y600089D01*
X846192Y601194D01*
X844864Y602522D01*
X843759Y604043D01*
X843589Y604377D01*
X843502Y604517D01*
X843423Y604663D01*
X843373Y604727D01*
X843330Y604797D01*
X843222Y604922D01*
X843120Y605052D01*
X843060Y605108D01*
X843007Y605169D01*
X842880Y605275D01*
X842759Y605388D01*
X842691Y605433D01*
X842628Y605485D01*
X842485Y605569D01*
X842348Y605660D01*
X842273Y605694D01*
X842203Y605736D01*
X842049Y605795D01*
X841898Y605863D01*
X841819Y605884D01*
X841743Y605914D01*
X841581Y605948D01*
X841421Y605991D01*
X841340Y605999D01*
X841260Y606016D01*
X841095Y606024D01*
X840931Y606040D01*
X840849Y606035D01*
X840767Y606039D01*
X840603Y606020D01*
X840438Y606009D01*
X840359Y605991D01*
X840277Y605982D01*
X840118Y605936D01*
X839957Y605899D01*
X839882Y605869D01*
X839803Y605846D01*
X839653Y605776D01*
X839500Y605713D01*
X839431Y605671D01*
X839357Y605636D01*
X839220Y605542D01*
X839079Y605456D01*
X839017Y605403D01*
X838950Y605357D01*
X838831Y605242D01*
X838705Y605134D01*
X838653Y605072D01*
X838594Y605015D01*
X838495Y604883D01*
X838388Y604756D01*
X838358Y604701D01*
X838298Y604621D01*
X838069Y604184D01*
X838064Y604169D01*
X838058Y604159D01*
X837443Y602674D01*
X833656Y598887D01*
X828708Y596837D01*
X823352Y596837D01*
G37*
%LPD*%
%LPC*%
G36*
X761927Y842353D02*
X761927Y842353D01*
X761929Y842356D01*
X761804Y843468D01*
X761798Y843474D01*
X761801Y843479D01*
X761431Y844536D01*
X761425Y844540D01*
X761427Y844546D01*
X760831Y845494D01*
X760823Y845497D01*
X760824Y845502D01*
X760032Y846294D01*
X760024Y846295D01*
X760024Y846301D01*
X759076Y846897D01*
X759067Y846896D01*
X759066Y846901D01*
X758009Y847271D01*
X758001Y847269D01*
X757998Y847274D01*
X756886Y847399D01*
X756878Y847395D01*
X756875Y847399D01*
X755762Y847274D01*
X755756Y847268D01*
X755751Y847271D01*
X754694Y846901D01*
X754690Y846895D01*
X754684Y846897D01*
X753736Y846301D01*
X753733Y846293D01*
X753728Y846294D01*
X752936Y845502D01*
X752935Y845494D01*
X752929Y845494D01*
X752333Y844546D01*
X752334Y844539D01*
X752330Y844537D01*
X752330Y844536D01*
X752329Y844536D01*
X751959Y843479D01*
X751961Y843471D01*
X751956Y843468D01*
X751831Y842356D01*
X751833Y842352D01*
X751831Y842350D01*
X751831Y831350D01*
X751833Y831347D01*
X751831Y831345D01*
X751956Y830232D01*
X751962Y830226D01*
X751959Y830221D01*
X752329Y829164D01*
X752336Y829160D01*
X752333Y829154D01*
X752929Y828206D01*
X752937Y828203D01*
X752936Y828198D01*
X753728Y827406D01*
X753736Y827405D01*
X753736Y827399D01*
X753833Y827339D01*
X753833Y824381D01*
X753660Y824444D01*
X752943Y824858D01*
X752509Y825108D01*
X751805Y825699D01*
X751492Y825962D01*
X750638Y826979D01*
X750118Y827881D01*
X750048Y827982D01*
X749986Y828089D01*
X749908Y828185D01*
X749838Y828286D01*
X749752Y828375D01*
X749673Y828471D01*
X749581Y828553D01*
X749495Y828642D01*
X749396Y828716D01*
X749304Y828798D01*
X749199Y828863D01*
X749100Y828937D01*
X748990Y828994D01*
X748886Y829060D01*
X748772Y829108D01*
X748663Y829165D01*
X748545Y829204D01*
X748431Y829252D01*
X748311Y829281D01*
X748194Y829319D01*
X748072Y829338D01*
X747952Y829367D01*
X747829Y829377D01*
X747707Y829396D01*
X747583Y829395D01*
X747460Y829404D01*
X747337Y829393D01*
X747213Y829393D01*
X747091Y829372D01*
X746968Y829361D01*
X746883Y829336D01*
X746727Y829310D01*
X746391Y829195D01*
X746313Y829172D01*
X745279Y828744D01*
X745119Y828662D01*
X744955Y828587D01*
X744899Y828549D01*
X744840Y828519D01*
X744695Y828412D01*
X744545Y828311D01*
X744497Y828266D01*
X744443Y828226D01*
X744317Y828097D01*
X744186Y827973D01*
X744145Y827921D01*
X744099Y827873D01*
X743995Y827725D01*
X743885Y827582D01*
X743854Y827523D01*
X743816Y827469D01*
X743737Y827306D01*
X743652Y827147D01*
X743631Y827084D01*
X743602Y827024D01*
X743551Y826851D01*
X743492Y826681D01*
X743481Y826615D01*
X743462Y826551D01*
X743440Y826372D01*
X743410Y826194D01*
X743409Y826127D01*
X743401Y826062D01*
X743408Y825882D01*
X743407Y825701D01*
X743417Y825635D01*
X743419Y825569D01*
X743455Y825392D01*
X743483Y825213D01*
X743504Y825150D01*
X743517Y825085D01*
X743581Y824917D01*
X743638Y824745D01*
X743668Y824686D01*
X743692Y824624D01*
X743782Y824467D01*
X743865Y824307D01*
X743898Y824266D01*
X743938Y824196D01*
X744251Y823815D01*
X744276Y823792D01*
X744291Y823774D01*
X745912Y822153D01*
X747297Y818810D01*
X747297Y815190D01*
X745912Y811847D01*
X743353Y809288D01*
X740010Y807903D01*
X736390Y807903D01*
X733047Y809288D01*
X731325Y811011D01*
X731238Y811085D01*
X731157Y811166D01*
X731050Y811244D01*
X730949Y811330D01*
X730851Y811389D01*
X730758Y811456D01*
X730640Y811516D01*
X730526Y811585D01*
X730420Y811627D01*
X730318Y811679D01*
X730191Y811719D01*
X730068Y811768D01*
X729957Y811793D01*
X729848Y811827D01*
X729754Y811837D01*
X729586Y811875D01*
X729262Y811893D01*
X729170Y811903D01*
X684030Y811903D01*
X683917Y811894D01*
X683802Y811895D01*
X683671Y811874D01*
X683538Y811863D01*
X683428Y811836D01*
X683315Y811818D01*
X683189Y811777D01*
X683060Y811745D01*
X682955Y811700D01*
X682846Y811664D01*
X682728Y811602D01*
X682606Y811550D01*
X682510Y811489D01*
X682409Y811436D01*
X682335Y811377D01*
X682190Y811285D01*
X681948Y811069D01*
X681875Y811011D01*
X681153Y810288D01*
X677810Y808903D01*
X674190Y808903D01*
X670847Y810288D01*
X668288Y812847D01*
X666903Y816190D01*
X666903Y819809D01*
X667506Y821265D01*
X667544Y821383D01*
X667591Y821497D01*
X667620Y821617D01*
X667658Y821735D01*
X667676Y821857D01*
X667704Y821977D01*
X667713Y822101D01*
X667731Y822223D01*
X667730Y822346D01*
X667738Y822469D01*
X667727Y822592D01*
X667725Y822716D01*
X667704Y822838D01*
X667692Y822960D01*
X667661Y823080D01*
X667639Y823202D01*
X667599Y823318D01*
X667567Y823438D01*
X667517Y823551D01*
X667476Y823668D01*
X667417Y823776D01*
X667367Y823889D01*
X667300Y823992D01*
X667240Y824101D01*
X667165Y824198D01*
X667097Y824301D01*
X667014Y824393D01*
X666938Y824490D01*
X666847Y824574D01*
X666764Y824665D01*
X666692Y824718D01*
X666576Y824826D01*
X666282Y825021D01*
X666215Y825070D01*
X666174Y825094D01*
X666149Y825108D01*
X665132Y825962D01*
X664278Y826979D01*
X663614Y828130D01*
X663160Y829378D01*
X662929Y830686D01*
X662929Y833803D01*
X665471Y833803D01*
X665471Y831350D01*
X665473Y831347D01*
X665471Y831345D01*
X665596Y830232D01*
X665602Y830226D01*
X665599Y830221D01*
X665969Y829164D01*
X665976Y829160D01*
X665973Y829154D01*
X666569Y828206D01*
X666577Y828203D01*
X666576Y828198D01*
X667368Y827406D01*
X667376Y827405D01*
X667376Y827399D01*
X668324Y826803D01*
X668333Y826804D01*
X668334Y826799D01*
X669391Y826429D01*
X669399Y826431D01*
X669402Y826426D01*
X670515Y826301D01*
X670522Y826305D01*
X670526Y826301D01*
X671638Y826426D01*
X671644Y826432D01*
X671649Y826429D01*
X672706Y826799D01*
X672710Y826806D01*
X672716Y826803D01*
X673664Y827399D01*
X673667Y827407D01*
X673672Y827406D01*
X674464Y828198D01*
X674465Y828206D01*
X674471Y828206D01*
X675067Y829154D01*
X675066Y829163D01*
X675071Y829164D01*
X675441Y830221D01*
X675440Y830225D01*
X675442Y830227D01*
X675440Y830230D01*
X675444Y830232D01*
X675569Y831345D01*
X675567Y831348D01*
X675569Y831350D01*
X675569Y842350D01*
X675567Y842353D01*
X675569Y842356D01*
X675444Y843468D01*
X675438Y843474D01*
X675441Y843479D01*
X675071Y844536D01*
X675065Y844540D01*
X675067Y844546D01*
X674471Y845494D01*
X674463Y845497D01*
X674464Y845502D01*
X673672Y846294D01*
X673664Y846295D01*
X673664Y846301D01*
X672716Y846897D01*
X672707Y846896D01*
X672706Y846901D01*
X671649Y847271D01*
X671641Y847269D01*
X671638Y847274D01*
X670526Y847399D01*
X670518Y847395D01*
X670515Y847399D01*
X669402Y847274D01*
X669396Y847268D01*
X669391Y847271D01*
X668334Y846901D01*
X668330Y846895D01*
X668324Y846897D01*
X667376Y846301D01*
X667373Y846293D01*
X667368Y846294D01*
X666576Y845502D01*
X666575Y845494D01*
X666569Y845494D01*
X665973Y844546D01*
X665974Y844539D01*
X665970Y844537D01*
X665970Y844536D01*
X665969Y844536D01*
X665599Y843479D01*
X665601Y843471D01*
X665596Y843468D01*
X665471Y842356D01*
X665473Y842352D01*
X665471Y842350D01*
X665471Y839897D01*
X662929Y839897D01*
X662929Y843014D01*
X663160Y844322D01*
X663614Y845570D01*
X664278Y846721D01*
X665132Y847738D01*
X666149Y848592D01*
X667300Y849256D01*
X667750Y849420D01*
X667767Y849375D01*
X667800Y849318D01*
X667826Y849257D01*
X667923Y849104D01*
X668014Y848948D01*
X668056Y848897D01*
X668091Y848841D01*
X668211Y848706D01*
X668327Y848566D01*
X668376Y848522D01*
X668420Y848474D01*
X668561Y848360D01*
X668697Y848240D01*
X668752Y848205D01*
X668803Y848164D01*
X668961Y848074D01*
X669115Y847978D01*
X669175Y847952D01*
X669232Y847920D01*
X669402Y847856D01*
X669569Y847786D01*
X669633Y847771D01*
X669695Y847748D01*
X669873Y847713D01*
X670049Y847671D01*
X670114Y847666D01*
X670179Y847653D01*
X670360Y847648D01*
X670541Y847634D01*
X670606Y847640D01*
X670672Y847638D01*
X670852Y847662D01*
X671032Y847678D01*
X671096Y847694D01*
X671161Y847702D01*
X671335Y847755D01*
X671510Y847800D01*
X671570Y847826D01*
X671633Y847845D01*
X671796Y847925D01*
X671962Y847997D01*
X672017Y848033D01*
X672076Y848062D01*
X672224Y848167D01*
X672377Y848265D01*
X672425Y848309D01*
X672479Y848347D01*
X672608Y848475D01*
X672742Y848596D01*
X672783Y848648D01*
X672830Y848694D01*
X672937Y848841D01*
X673049Y848982D01*
X673073Y849029D01*
X673120Y849093D01*
X673342Y849533D01*
X673343Y849534D01*
X673353Y849566D01*
X673364Y849587D01*
X673364Y849588D01*
X673425Y849796D01*
X673491Y850004D01*
X673494Y850028D01*
X673504Y850062D01*
X673508Y850094D01*
X673511Y850096D01*
X673616Y850140D01*
X673729Y850210D01*
X673848Y850271D01*
X673914Y850324D01*
X674036Y850399D01*
X674330Y850656D01*
X674381Y850697D01*
X677203Y853519D01*
X682132Y855561D01*
X687468Y855561D01*
X692397Y853519D01*
X696169Y849747D01*
X698211Y844818D01*
X698211Y839482D01*
X696169Y834553D01*
X692397Y830781D01*
X690413Y829959D01*
X690286Y829894D01*
X690155Y829838D01*
X690067Y829782D01*
X689974Y829734D01*
X689859Y829649D01*
X689739Y829573D01*
X689661Y829503D01*
X689577Y829441D01*
X689477Y829339D01*
X689371Y829244D01*
X689305Y829163D01*
X689233Y829088D01*
X689151Y828971D01*
X689061Y828860D01*
X689010Y828770D01*
X688950Y828684D01*
X688888Y828556D01*
X688817Y828432D01*
X688781Y828334D01*
X688736Y828239D01*
X688695Y828103D01*
X688646Y827969D01*
X688626Y827867D01*
X688596Y827766D01*
X688578Y827625D01*
X688551Y827485D01*
X688548Y827381D01*
X688535Y827277D01*
X688540Y827134D01*
X688536Y826992D01*
X688549Y826888D01*
X688553Y826784D01*
X688581Y826644D01*
X688600Y826503D01*
X688630Y826403D01*
X688651Y826300D01*
X688701Y826167D01*
X688743Y826030D01*
X688788Y825937D01*
X688825Y825839D01*
X688897Y825715D01*
X688959Y825587D01*
X689020Y825502D01*
X689072Y825412D01*
X689163Y825301D01*
X689245Y825185D01*
X689318Y825111D01*
X689385Y825030D01*
X689492Y824935D01*
X689592Y824834D01*
X689676Y824773D01*
X689754Y824703D01*
X689875Y824627D01*
X689990Y824544D01*
X690084Y824497D01*
X690172Y824441D01*
X690304Y824386D01*
X690431Y824321D01*
X690530Y824290D01*
X690627Y824249D01*
X690765Y824216D01*
X690901Y824173D01*
X690979Y824164D01*
X691106Y824134D01*
X691539Y824101D01*
X691579Y824097D01*
X731170Y824097D01*
X731283Y824106D01*
X731398Y824105D01*
X731529Y824126D01*
X731662Y824137D01*
X731772Y824164D01*
X731885Y824182D01*
X732011Y824223D01*
X732140Y824255D01*
X732245Y824300D01*
X732354Y824336D01*
X732472Y824398D01*
X732594Y824450D01*
X732690Y824511D01*
X732791Y824564D01*
X732865Y824623D01*
X732926Y824662D01*
X734555Y825336D01*
X734589Y825354D01*
X734625Y825366D01*
X734808Y825466D01*
X734994Y825561D01*
X735024Y825584D01*
X735058Y825602D01*
X735223Y825731D01*
X735391Y825854D01*
X735417Y825882D01*
X735447Y825905D01*
X735590Y826059D01*
X735735Y826207D01*
X735757Y826239D01*
X735783Y826267D01*
X735898Y826441D01*
X736018Y826612D01*
X736035Y826646D01*
X736056Y826678D01*
X736141Y826868D01*
X736232Y827056D01*
X736243Y827093D01*
X736259Y827128D01*
X736312Y827329D01*
X736371Y827529D01*
X736376Y827567D01*
X736386Y827604D01*
X736407Y827812D01*
X736433Y828019D01*
X736431Y828057D01*
X736435Y828095D01*
X736422Y828303D01*
X736414Y828512D01*
X736407Y828549D01*
X736404Y828587D01*
X736358Y828791D01*
X736317Y828995D01*
X736303Y829031D01*
X736295Y829068D01*
X736216Y829262D01*
X736142Y829457D01*
X736123Y829490D01*
X736108Y829525D01*
X735999Y829704D01*
X735895Y829884D01*
X735871Y829913D01*
X735851Y829946D01*
X735715Y830105D01*
X735583Y830266D01*
X735554Y830291D01*
X735529Y830320D01*
X735369Y830454D01*
X735213Y830592D01*
X735181Y830613D01*
X735151Y830637D01*
X735142Y830642D01*
X731231Y834553D01*
X729189Y839482D01*
X729189Y844818D01*
X731231Y849747D01*
X735003Y853519D01*
X739932Y855561D01*
X745268Y855561D01*
X750197Y853519D01*
X753019Y850697D01*
X753121Y850610D01*
X753215Y850517D01*
X753308Y850451D01*
X753395Y850377D01*
X753509Y850308D01*
X753618Y850231D01*
X753720Y850181D01*
X753818Y850122D01*
X753897Y850091D01*
X753991Y849712D01*
X753992Y849711D01*
X754023Y849639D01*
X754036Y849588D01*
X754115Y849424D01*
X754186Y849258D01*
X754221Y849202D01*
X754250Y849143D01*
X754354Y848994D01*
X754451Y848841D01*
X754495Y848793D01*
X754533Y848739D01*
X754659Y848609D01*
X754780Y848474D01*
X754831Y848432D01*
X754877Y848385D01*
X755023Y848277D01*
X755164Y848164D01*
X755221Y848131D01*
X755274Y848092D01*
X755435Y848009D01*
X755592Y847920D01*
X755654Y847897D01*
X755712Y847867D01*
X755885Y847811D01*
X756055Y847748D01*
X756119Y847735D01*
X756182Y847715D01*
X756361Y847688D01*
X756539Y847653D01*
X756605Y847651D01*
X756670Y847641D01*
X756851Y847644D01*
X757032Y847638D01*
X757097Y847647D01*
X757163Y847647D01*
X757342Y847679D01*
X757521Y847702D01*
X757584Y847721D01*
X757649Y847733D01*
X757820Y847793D01*
X757994Y847845D01*
X758053Y847874D01*
X758115Y847895D01*
X758274Y847982D01*
X758437Y848062D01*
X758490Y848100D01*
X758548Y848131D01*
X758691Y848242D01*
X758839Y848347D01*
X758886Y848393D01*
X758938Y848434D01*
X759061Y848567D01*
X759190Y848694D01*
X759229Y848747D01*
X759273Y848795D01*
X759374Y848946D01*
X759480Y849093D01*
X759510Y849151D01*
X759546Y849206D01*
X759621Y849371D01*
X759646Y849421D01*
X760100Y849256D01*
X761251Y848592D01*
X762268Y847738D01*
X763122Y846720D01*
X763786Y845570D01*
X764240Y844322D01*
X764471Y843014D01*
X764471Y839897D01*
X761929Y839897D01*
X761929Y842350D01*
X761927Y842353D01*
G37*
%LPD*%
%LPC*%
G36*
X709190Y553903D02*
X709190Y553903D01*
X705847Y555288D01*
X705125Y556011D01*
X705038Y556085D01*
X704957Y556166D01*
X704850Y556244D01*
X704749Y556330D01*
X704651Y556389D01*
X704558Y556456D01*
X704440Y556516D01*
X704326Y556585D01*
X704220Y556627D01*
X704118Y556679D01*
X703991Y556719D01*
X703868Y556768D01*
X703757Y556793D01*
X703648Y556827D01*
X703554Y556837D01*
X703386Y556875D01*
X703062Y556893D01*
X702970Y556903D01*
X681030Y556903D01*
X680917Y556894D01*
X680802Y556895D01*
X680671Y556874D01*
X680538Y556863D01*
X680428Y556836D01*
X680315Y556818D01*
X680189Y556777D01*
X680060Y556745D01*
X679955Y556700D01*
X679846Y556664D01*
X679728Y556602D01*
X679606Y556550D01*
X679510Y556489D01*
X679409Y556436D01*
X679335Y556377D01*
X679274Y556338D01*
X675810Y554903D01*
X672190Y554903D01*
X668847Y556288D01*
X666288Y558847D01*
X664903Y562190D01*
X664903Y565810D01*
X666288Y569153D01*
X668481Y571345D01*
X668530Y571403D01*
X668585Y571456D01*
X668689Y571591D01*
X668800Y571721D01*
X668839Y571787D01*
X668886Y571847D01*
X668966Y571997D01*
X669055Y572144D01*
X669083Y572215D01*
X669119Y572282D01*
X669174Y572443D01*
X669238Y572602D01*
X669254Y572676D01*
X669279Y572748D01*
X669308Y572917D01*
X669344Y573084D01*
X669349Y573160D01*
X669362Y573235D01*
X669363Y573406D01*
X669372Y573576D01*
X669364Y573652D01*
X669365Y573728D01*
X669338Y573897D01*
X669320Y574067D01*
X669300Y574140D01*
X669288Y574215D01*
X669234Y574378D01*
X669189Y574542D01*
X669158Y574612D01*
X669134Y574684D01*
X669055Y574836D01*
X668984Y574991D01*
X668941Y575054D01*
X668906Y575122D01*
X668840Y575204D01*
X668708Y575400D01*
X668546Y575572D01*
X668481Y575655D01*
X667288Y576847D01*
X665903Y580190D01*
X665903Y583810D01*
X667288Y587153D01*
X669847Y589712D01*
X673190Y591097D01*
X676810Y591097D01*
X680153Y589712D01*
X680875Y588989D01*
X680962Y588915D01*
X681043Y588834D01*
X681150Y588756D01*
X681251Y588670D01*
X681349Y588611D01*
X681442Y588544D01*
X681560Y588484D01*
X681674Y588415D01*
X681780Y588373D01*
X681882Y588321D01*
X682009Y588281D01*
X682132Y588232D01*
X682243Y588207D01*
X682352Y588173D01*
X682446Y588163D01*
X682614Y588125D01*
X682938Y588107D01*
X683030Y588097D01*
X703970Y588097D01*
X704083Y588106D01*
X704198Y588105D01*
X704329Y588126D01*
X704462Y588137D01*
X704572Y588164D01*
X704685Y588182D01*
X704811Y588223D01*
X704940Y588255D01*
X705045Y588300D01*
X705154Y588336D01*
X705272Y588398D01*
X705394Y588450D01*
X705490Y588511D01*
X705591Y588564D01*
X705665Y588623D01*
X705726Y588662D01*
X709190Y590097D01*
X712810Y590097D01*
X716153Y588712D01*
X718712Y586153D01*
X720097Y582810D01*
X720097Y579190D01*
X718712Y575847D01*
X717019Y574155D01*
X716970Y574097D01*
X716915Y574045D01*
X716811Y573909D01*
X716700Y573779D01*
X716661Y573713D01*
X716614Y573653D01*
X716534Y573503D01*
X716445Y573356D01*
X716417Y573286D01*
X716381Y573218D01*
X716326Y573057D01*
X716262Y572898D01*
X716246Y572824D01*
X716221Y572752D01*
X716192Y572583D01*
X716156Y572417D01*
X716151Y572340D01*
X716138Y572265D01*
X716137Y572095D01*
X716128Y571924D01*
X716136Y571848D01*
X716135Y571772D01*
X716162Y571603D01*
X716180Y571433D01*
X716200Y571360D01*
X716212Y571285D01*
X716266Y571122D01*
X716311Y570958D01*
X716342Y570889D01*
X716366Y570816D01*
X716445Y570664D01*
X716516Y570509D01*
X716559Y570446D01*
X716594Y570378D01*
X716660Y570296D01*
X716792Y570100D01*
X716954Y569927D01*
X717019Y569845D01*
X718712Y568153D01*
X720097Y564810D01*
X720097Y561190D01*
X718712Y557847D01*
X716153Y555288D01*
X712810Y553903D01*
X709190Y553903D01*
G37*
%LPD*%
%LPC*%
G36*
X769190Y609903D02*
X769190Y609903D01*
X765847Y611288D01*
X763288Y613847D01*
X761903Y617190D01*
X761903Y620810D01*
X763288Y624153D01*
X764773Y625637D01*
X764847Y625725D01*
X764928Y625805D01*
X765006Y625912D01*
X765092Y626013D01*
X765151Y626111D01*
X765218Y626203D01*
X765278Y626322D01*
X765347Y626436D01*
X765389Y626542D01*
X765441Y626644D01*
X765481Y626771D01*
X765530Y626894D01*
X765555Y627005D01*
X765589Y627114D01*
X765599Y627208D01*
X765637Y627376D01*
X765655Y627700D01*
X765665Y627792D01*
X765665Y648208D01*
X765656Y648321D01*
X765657Y648436D01*
X765636Y648567D01*
X765625Y648700D01*
X765598Y648810D01*
X765580Y648923D01*
X765539Y649049D01*
X765507Y649178D01*
X765462Y649283D01*
X765426Y649392D01*
X765364Y649510D01*
X765312Y649632D01*
X765251Y649728D01*
X765198Y649829D01*
X765139Y649903D01*
X765047Y650048D01*
X764831Y650290D01*
X764773Y650363D01*
X763288Y651847D01*
X761903Y655190D01*
X761903Y658810D01*
X763288Y662153D01*
X765847Y664712D01*
X769190Y666097D01*
X772810Y666097D01*
X776153Y664712D01*
X778712Y662153D01*
X780097Y658810D01*
X780097Y655190D01*
X778712Y651847D01*
X777227Y650363D01*
X777153Y650276D01*
X777072Y650195D01*
X776994Y650088D01*
X776908Y649987D01*
X776849Y649889D01*
X776782Y649796D01*
X776722Y649678D01*
X776653Y649564D01*
X776611Y649458D01*
X776559Y649356D01*
X776519Y649229D01*
X776470Y649106D01*
X776445Y648995D01*
X776411Y648886D01*
X776401Y648792D01*
X776363Y648624D01*
X776345Y648300D01*
X776335Y648208D01*
X776335Y627792D01*
X776344Y627678D01*
X776343Y627564D01*
X776364Y627433D01*
X776375Y627300D01*
X776402Y627190D01*
X776420Y627077D01*
X776461Y626950D01*
X776493Y626822D01*
X776538Y626717D01*
X776574Y626608D01*
X776636Y626490D01*
X776688Y626368D01*
X776749Y626272D01*
X776802Y626171D01*
X776861Y626097D01*
X776953Y625952D01*
X777169Y625710D01*
X777227Y625637D01*
X778712Y624153D01*
X780097Y620810D01*
X780097Y617190D01*
X778712Y613847D01*
X776153Y611288D01*
X772810Y609903D01*
X769190Y609903D01*
G37*
%LPD*%
%LPC*%
G36*
X857017Y638747D02*
X857017Y638747D01*
X857017Y658053D01*
X865533Y658053D01*
X865034Y656517D01*
X864181Y654843D01*
X863076Y653322D01*
X861748Y651994D01*
X860195Y650865D01*
X860148Y650826D01*
X860097Y650792D01*
X859961Y650665D01*
X859820Y650544D01*
X859781Y650497D01*
X859736Y650456D01*
X859622Y650309D01*
X859503Y650166D01*
X859471Y650114D01*
X859434Y650066D01*
X859345Y649903D01*
X859250Y649743D01*
X859228Y649686D01*
X859199Y649632D01*
X859137Y649457D01*
X859069Y649284D01*
X859056Y649224D01*
X859036Y649166D01*
X859004Y648983D01*
X858965Y648801D01*
X858962Y648741D01*
X858951Y648680D01*
X858949Y648494D01*
X858940Y648309D01*
X858947Y648248D01*
X858946Y648187D01*
X858974Y648003D01*
X858994Y647818D01*
X859011Y647760D01*
X859020Y647699D01*
X859077Y647522D01*
X859127Y647343D01*
X859153Y647288D01*
X859172Y647230D01*
X859257Y647064D01*
X859335Y646896D01*
X859370Y646846D01*
X859398Y646791D01*
X859508Y646642D01*
X859613Y646488D01*
X859655Y646444D01*
X859691Y646395D01*
X859768Y646324D01*
X859952Y646130D01*
X860119Y646004D01*
X860195Y645935D01*
X861748Y644806D01*
X863076Y643478D01*
X864181Y641957D01*
X865034Y640283D01*
X865533Y638747D01*
X857017Y638747D01*
G37*
%LPD*%
%LPC*%
G36*
X857017Y664147D02*
X857017Y664147D01*
X857017Y683453D01*
X865533Y683453D01*
X865034Y681917D01*
X864181Y680243D01*
X863076Y678722D01*
X861748Y677394D01*
X860195Y676265D01*
X860148Y676226D01*
X860097Y676192D01*
X859961Y676065D01*
X859820Y675944D01*
X859781Y675897D01*
X859736Y675856D01*
X859622Y675709D01*
X859503Y675566D01*
X859471Y675514D01*
X859434Y675466D01*
X859345Y675303D01*
X859250Y675143D01*
X859228Y675086D01*
X859199Y675032D01*
X859137Y674857D01*
X859069Y674684D01*
X859056Y674624D01*
X859036Y674566D01*
X859004Y674383D01*
X858965Y674201D01*
X858962Y674141D01*
X858951Y674080D01*
X858949Y673894D01*
X858940Y673709D01*
X858947Y673648D01*
X858946Y673587D01*
X858974Y673403D01*
X858994Y673218D01*
X859011Y673160D01*
X859020Y673099D01*
X859077Y672922D01*
X859127Y672743D01*
X859153Y672688D01*
X859172Y672630D01*
X859257Y672464D01*
X859335Y672296D01*
X859370Y672246D01*
X859398Y672191D01*
X859508Y672042D01*
X859613Y671888D01*
X859655Y671844D01*
X859691Y671795D01*
X859768Y671724D01*
X859952Y671530D01*
X860119Y671404D01*
X860195Y671335D01*
X861748Y670206D01*
X863076Y668878D01*
X864181Y667357D01*
X865034Y665683D01*
X865533Y664147D01*
X857017Y664147D01*
G37*
%LPD*%
%LPC*%
G36*
X857017Y613347D02*
X857017Y613347D01*
X857017Y632653D01*
X865533Y632653D01*
X865034Y631117D01*
X864181Y629443D01*
X863076Y627922D01*
X861748Y626594D01*
X860195Y625465D01*
X860148Y625426D01*
X860097Y625392D01*
X859961Y625265D01*
X859820Y625144D01*
X859781Y625097D01*
X859736Y625056D01*
X859622Y624909D01*
X859503Y624766D01*
X859471Y624714D01*
X859434Y624666D01*
X859345Y624503D01*
X859250Y624343D01*
X859228Y624286D01*
X859199Y624232D01*
X859137Y624057D01*
X859069Y623884D01*
X859056Y623824D01*
X859036Y623766D01*
X859004Y623583D01*
X858965Y623401D01*
X858962Y623341D01*
X858951Y623280D01*
X858949Y623094D01*
X858940Y622909D01*
X858947Y622848D01*
X858946Y622787D01*
X858974Y622603D01*
X858994Y622418D01*
X859011Y622360D01*
X859020Y622299D01*
X859077Y622122D01*
X859127Y621943D01*
X859153Y621888D01*
X859172Y621830D01*
X859257Y621664D01*
X859335Y621496D01*
X859370Y621446D01*
X859398Y621391D01*
X859508Y621242D01*
X859613Y621088D01*
X859655Y621044D01*
X859691Y620995D01*
X859768Y620924D01*
X859952Y620730D01*
X860119Y620604D01*
X860195Y620535D01*
X861748Y619406D01*
X863076Y618078D01*
X864181Y616557D01*
X865034Y614883D01*
X865533Y613347D01*
X857017Y613347D01*
G37*
%LPD*%
%LPC*%
G36*
X857017Y607253D02*
X857017Y607253D01*
X865533Y607253D01*
X865034Y605717D01*
X864181Y604043D01*
X863076Y602522D01*
X861748Y601194D01*
X860227Y600089D01*
X858553Y599236D01*
X857017Y598737D01*
X857017Y607253D01*
G37*
%LPD*%
%LPC*%
G36*
X759927Y827339D02*
X759927Y827339D01*
X760024Y827399D01*
X760027Y827407D01*
X760032Y827406D01*
X760824Y828198D01*
X760825Y828206D01*
X760831Y828206D01*
X761427Y829154D01*
X761426Y829163D01*
X761431Y829164D01*
X761801Y830221D01*
X761800Y830225D01*
X761802Y830227D01*
X761800Y830230D01*
X761804Y830232D01*
X761929Y831345D01*
X761927Y831348D01*
X761929Y831350D01*
X761929Y833803D01*
X764471Y833803D01*
X764471Y830686D01*
X764240Y829378D01*
X763786Y828130D01*
X763122Y826979D01*
X762463Y826195D01*
X762268Y825962D01*
X761251Y825108D01*
X760100Y824444D01*
X759927Y824381D01*
X759927Y827339D01*
G37*
%LPD*%
%LPC*%
G36*
X667166Y867835D02*
X667166Y867835D01*
X666006Y868610D01*
X665020Y869596D01*
X664245Y870756D01*
X663711Y872045D01*
X663705Y872076D01*
X663652Y872263D01*
X663605Y872452D01*
X663587Y872494D01*
X663580Y872524D01*
X663530Y872660D01*
X663160Y873678D01*
X662929Y874986D01*
X662929Y875603D01*
X665476Y875603D01*
X665596Y874532D01*
X665602Y874526D01*
X665599Y874521D01*
X665969Y873464D01*
X665976Y873460D01*
X665973Y873454D01*
X666569Y872506D01*
X666577Y872503D01*
X666576Y872498D01*
X667368Y871706D01*
X667376Y871705D01*
X667376Y871699D01*
X667473Y871639D01*
X667473Y867708D01*
X667166Y867835D01*
G37*
%LPD*%
%LPC*%
G36*
X753526Y867835D02*
X753526Y867835D01*
X752366Y868610D01*
X751380Y869596D01*
X750605Y870756D01*
X750071Y872045D01*
X750065Y872076D01*
X750012Y872263D01*
X749965Y872452D01*
X749947Y872494D01*
X749940Y872524D01*
X749910Y872606D01*
X749910Y872607D01*
X749520Y873678D01*
X749289Y874986D01*
X749289Y875603D01*
X751836Y875603D01*
X751956Y874532D01*
X751962Y874526D01*
X751959Y874521D01*
X752329Y873464D01*
X752336Y873460D01*
X752333Y873454D01*
X752929Y872506D01*
X752937Y872503D01*
X752936Y872498D01*
X753728Y871706D01*
X753736Y871705D01*
X753736Y871699D01*
X753833Y871639D01*
X753833Y867708D01*
X753526Y867835D01*
G37*
%LPD*%
%LPC*%
G36*
X673567Y871639D02*
X673567Y871639D01*
X673664Y871699D01*
X673667Y871707D01*
X673672Y871706D01*
X674464Y872498D01*
X674465Y872506D01*
X674471Y872506D01*
X675067Y873454D01*
X675066Y873463D01*
X675071Y873464D01*
X675441Y874521D01*
X675440Y874525D01*
X675442Y874527D01*
X675440Y874530D01*
X675444Y874532D01*
X675564Y875603D01*
X678111Y875603D01*
X678111Y874986D01*
X677880Y873678D01*
X677504Y872644D01*
X677460Y872525D01*
X677410Y872341D01*
X677353Y872160D01*
X677348Y872117D01*
X677335Y872076D01*
X677329Y872044D01*
X676795Y870756D01*
X676020Y869596D01*
X675034Y868610D01*
X673874Y867835D01*
X673567Y867708D01*
X673567Y871639D01*
G37*
%LPD*%
%LPC*%
G36*
X759927Y871639D02*
X759927Y871639D01*
X760024Y871699D01*
X760027Y871707D01*
X760032Y871706D01*
X760824Y872498D01*
X760825Y872506D01*
X760831Y872506D01*
X761427Y873454D01*
X761426Y873463D01*
X761431Y873464D01*
X761801Y874521D01*
X761800Y874525D01*
X761802Y874527D01*
X761800Y874530D01*
X761804Y874532D01*
X761924Y875603D01*
X764471Y875603D01*
X764471Y874986D01*
X764240Y873678D01*
X763820Y872524D01*
X763790Y872414D01*
X763750Y872307D01*
X763725Y872176D01*
X763711Y872127D01*
X763695Y872076D01*
X763689Y872045D01*
X763155Y870756D01*
X762380Y869596D01*
X761394Y868610D01*
X760234Y867835D01*
X759927Y867708D01*
X759927Y871639D01*
G37*
%LPD*%
D10*
X756880Y883190D02*
X756880Y874110D01*
X670520Y874110D02*
X670520Y883190D01*
X670520Y841390D02*
X670520Y832310D01*
X756880Y832310D02*
X756880Y841390D01*
D11*
X826030Y711900D03*
X853970Y711900D03*
X826030Y686500D03*
X853970Y686500D03*
X826030Y661100D03*
X853970Y661100D03*
X826030Y635700D03*
X853970Y635700D03*
X826030Y610300D03*
X853970Y610300D03*
D12*
X718000Y35000D03*
X693000Y85000D03*
X668000Y85000D03*
X743000Y85000D03*
X768000Y85000D03*
X556000Y35000D03*
X531000Y85000D03*
X506000Y85000D03*
X581000Y85000D03*
X606000Y85000D03*
X394000Y35000D03*
X369000Y85000D03*
X344000Y85000D03*
X419000Y85000D03*
X444000Y85000D03*
X232000Y35000D03*
X207000Y85000D03*
X182000Y85000D03*
X257000Y85000D03*
X282000Y85000D03*
D13*
X309500Y857300D03*
X360300Y857300D03*
X411100Y857300D03*
X461900Y857300D03*
D14*
X223900Y762800D02*
X203900Y762800D01*
X203900Y825800D02*
X223900Y825800D01*
X163900Y802800D02*
X163900Y782800D01*
D15*
X360300Y816300D02*
X360300Y857300D01*
X360300Y816300D02*
X349000Y805000D01*
X234700Y805000D01*
X213900Y825800D01*
X180900Y792800D02*
X163900Y792800D01*
X180900Y792800D02*
X213900Y825800D01*
X360300Y857300D02*
X411100Y857300D01*
D16*
X695900Y205800D03*
D17*
X695900Y206700D01*
D18*
X721000Y231800D01*
X721000Y331200D01*
D17*
X721500Y333700D01*
D16*
X721500Y333700D03*
X361300Y168000D03*
D18*
X453000Y168000D01*
X523000Y168000D01*
X538700Y168000D02*
X577500Y206800D01*
X694900Y206800D01*
D19*
X695900Y205800D01*
D16*
X760000Y440000D03*
X790000Y440000D03*
X790000Y410000D03*
X760000Y410000D03*
X800000Y830000D03*
X800000Y800000D03*
X730000Y620000D03*
X730000Y600000D03*
X910000Y730000D03*
X910000Y760000D03*
X910000Y700000D03*
X645000Y638000D03*
X622000Y638000D03*
X645000Y621000D03*
X622000Y621000D03*
X493000Y875000D03*
D20*
X602000Y875000D01*
X603000Y874000D01*
D16*
X508000Y875000D03*
X523000Y875000D03*
D18*
X251000Y278300D02*
X361300Y168000D01*
X251000Y278300D02*
X251000Y545000D01*
D16*
X251000Y545000D03*
X453000Y168000D03*
X523000Y168000D03*
D18*
X538700Y168000D01*
D16*
X272000Y616000D03*
D17*
X271000Y616000D01*
X251000Y636000D01*
D16*
X251000Y636000D03*
X551700Y241400D03*
D19*
X592900Y241400D01*
X614300Y262800D01*
D16*
X614300Y262800D03*
X666600Y358000D03*
D21*
X666600Y357500D01*
X620600Y311500D01*
X620600Y269100D01*
X614300Y262800D01*
D16*
X668000Y496000D03*
D21*
X668000Y517000D01*
X633000Y552000D01*
X385000Y552000D01*
X366000Y571000D01*
D16*
X366000Y571000D03*
X301000Y659500D03*
D15*
X456500Y659500D01*
X457000Y659000D01*
D16*
X457000Y659000D03*
X657000Y131000D03*
D18*
X613000Y131000D01*
X601600Y142400D01*
X601600Y179600D01*
D16*
X601600Y179600D03*
D18*
X613000Y131000D02*
X581000Y99000D01*
D19*
X581000Y97800D01*
D18*
X581000Y85000D01*
D19*
X419100Y85100D02*
X419000Y85000D01*
D18*
X419100Y85100D02*
X419100Y104000D01*
X428800Y113700D01*
X565100Y113700D01*
X581000Y97800D01*
D16*
X765600Y227700D03*
D19*
X743200Y227700D01*
X730100Y214600D01*
X730100Y186700D01*
X731000Y185800D01*
D16*
X731000Y185800D03*
D18*
X419100Y104000D02*
X409400Y113700D01*
X268300Y113700D01*
X257700Y103100D01*
X257700Y85700D01*
D19*
X257000Y85000D01*
D18*
X268300Y113700D02*
X268300Y162800D01*
X289500Y184000D01*
D16*
X289500Y184000D03*
X234900Y571900D03*
D18*
X234900Y238600D01*
X289500Y184000D01*
D16*
X784000Y760000D03*
D18*
X784000Y740000D01*
X776000Y732000D01*
X692000Y732000D01*
X673000Y751000D01*
D16*
X673000Y751000D03*
D18*
X692000Y732000D02*
X692000Y690800D01*
X677200Y676000D01*
D16*
X677200Y676000D03*
D18*
X660200Y659000D02*
X457000Y659000D01*
X660200Y659000D02*
X677200Y676000D01*
X234900Y648900D02*
X234900Y571900D01*
X234900Y648900D02*
X247000Y661000D01*
X299500Y661000D01*
X299576Y660998D01*
X299652Y660992D01*
X299727Y660983D01*
X299802Y660969D01*
X299876Y660952D01*
X299949Y660931D01*
X300021Y660907D01*
X300092Y660878D01*
X300161Y660847D01*
X300228Y660812D01*
X300293Y660773D01*
X300357Y660731D01*
X300418Y660686D01*
X300477Y660638D01*
X300533Y660587D01*
X300587Y660533D01*
X300638Y660477D01*
X300686Y660418D01*
X300731Y660357D01*
X300773Y660293D01*
X300812Y660228D01*
X300847Y660161D01*
X300878Y660092D01*
X300907Y660021D01*
X300931Y659949D01*
X300952Y659876D01*
X300969Y659802D01*
X300983Y659727D01*
X300992Y659652D01*
X300998Y659576D01*
X301000Y659500D01*
D16*
X676000Y818000D03*
D17*
X737200Y818000D01*
X738200Y817000D01*
D16*
X738200Y817000D03*
X771000Y619000D03*
D22*
X771000Y657000D01*
D16*
X771000Y657000D03*
X561000Y283000D03*
D17*
X570000Y283000D01*
X584500Y268500D01*
D16*
X584500Y268500D03*
X664000Y299000D03*
D17*
X673000Y290000D01*
X673000Y258000D01*
D16*
X673000Y258000D03*
X697000Y300000D03*
D17*
X697000Y259000D01*
D16*
X697000Y259000D03*
X791000Y776000D03*
D17*
X712000Y776000D01*
X692000Y756000D01*
D16*
X692000Y756000D03*
X537000Y773000D03*
D17*
X537000Y786000D01*
X553000Y802000D01*
X646000Y802000D01*
X692000Y756000D01*
X213900Y752900D02*
X213900Y762800D01*
X213900Y752900D02*
X159000Y698000D01*
D16*
X159000Y698000D03*
X675000Y582000D03*
D17*
X710000Y582000D01*
X711000Y581000D01*
D16*
X711000Y581000D03*
X711000Y563000D03*
D17*
X675000Y563000D01*
X674000Y564000D01*
D16*
X674000Y564000D03*
M02*
