G04 EAGLE Gerber RS-274X export*
G75*
%MOMM*%
%FSLAX34Y34*%
%LPD*%
%IN*%
%IPPOS*%
%AMOC8*
5,1,8,0,0,1.08239X$1,22.5*%
G01*
%ADD10C,0.254000*%


D10*
X0Y50000D02*
X190Y45642D01*
X760Y41318D01*
X1704Y37059D01*
X3015Y32899D01*
X4685Y28869D01*
X6699Y25000D01*
X9042Y21321D01*
X11698Y17861D01*
X14645Y14645D01*
X17861Y11698D01*
X21321Y9042D01*
X25000Y6699D01*
X28869Y4685D01*
X32899Y3015D01*
X37059Y1704D01*
X41318Y760D01*
X45642Y190D01*
X50000Y0D01*
X900000Y0D01*
X904358Y190D01*
X908682Y760D01*
X912941Y1704D01*
X917101Y3015D01*
X921131Y4685D01*
X925000Y6699D01*
X928679Y9042D01*
X932139Y11698D01*
X935355Y14645D01*
X938302Y17861D01*
X940958Y21321D01*
X943301Y25000D01*
X945315Y28869D01*
X946985Y32899D01*
X948296Y37059D01*
X949240Y41318D01*
X949810Y45642D01*
X950000Y50000D01*
X950000Y850000D01*
X949810Y854358D01*
X949240Y858682D01*
X948296Y862941D01*
X946985Y867101D01*
X945315Y871131D01*
X943301Y875000D01*
X940958Y878679D01*
X938302Y882139D01*
X935355Y885355D01*
X932139Y888302D01*
X928679Y890958D01*
X925000Y893301D01*
X921131Y895315D01*
X917101Y896985D01*
X912941Y898296D01*
X908682Y899240D01*
X904358Y899810D01*
X900000Y900000D01*
X50000Y900000D01*
X45642Y899810D01*
X41318Y899240D01*
X37059Y898296D01*
X32899Y896985D01*
X28869Y895315D01*
X25000Y893301D01*
X21321Y890958D01*
X17861Y888302D01*
X14645Y885355D01*
X11698Y882139D01*
X9042Y878679D01*
X6699Y875000D01*
X4685Y871131D01*
X3015Y867101D01*
X1704Y862941D01*
X760Y858682D01*
X190Y854358D01*
X0Y850000D01*
X0Y50000D01*
X158900Y781800D02*
X158919Y781364D01*
X158976Y780932D01*
X159070Y780506D01*
X159202Y780090D01*
X159368Y779687D01*
X159570Y779300D01*
X159804Y778932D01*
X160070Y778586D01*
X160364Y778264D01*
X160686Y777970D01*
X161032Y777704D01*
X161400Y777470D01*
X161787Y777268D01*
X162190Y777102D01*
X162606Y776970D01*
X163032Y776876D01*
X163464Y776819D01*
X163900Y776800D01*
X164336Y776819D01*
X164768Y776876D01*
X165194Y776970D01*
X165610Y777102D01*
X166013Y777268D01*
X166400Y777470D01*
X166768Y777704D01*
X167114Y777970D01*
X167436Y778264D01*
X167730Y778586D01*
X167996Y778932D01*
X168230Y779300D01*
X168432Y779687D01*
X168598Y780090D01*
X168730Y780506D01*
X168824Y780932D01*
X168881Y781364D01*
X168900Y781800D01*
X168900Y803800D01*
X168881Y804236D01*
X168824Y804668D01*
X168730Y805094D01*
X168598Y805510D01*
X168432Y805913D01*
X168230Y806300D01*
X167996Y806668D01*
X167730Y807014D01*
X167436Y807336D01*
X167114Y807630D01*
X166768Y807896D01*
X166400Y808130D01*
X166013Y808332D01*
X165610Y808498D01*
X165194Y808630D01*
X164768Y808724D01*
X164336Y808781D01*
X163900Y808800D01*
X163464Y808781D01*
X163032Y808724D01*
X162606Y808630D01*
X162190Y808498D01*
X161787Y808332D01*
X161400Y808130D01*
X161032Y807896D01*
X160686Y807630D01*
X160364Y807336D01*
X160070Y807014D01*
X159804Y806668D01*
X159570Y806300D01*
X159368Y805913D01*
X159202Y805510D01*
X159070Y805094D01*
X158976Y804668D01*
X158919Y804236D01*
X158900Y803800D01*
X158900Y781800D01*
X197900Y825800D02*
X197919Y825364D01*
X197976Y824932D01*
X198070Y824506D01*
X198202Y824090D01*
X198368Y823687D01*
X198570Y823300D01*
X198804Y822932D01*
X199070Y822586D01*
X199364Y822264D01*
X199686Y821970D01*
X200032Y821704D01*
X200400Y821470D01*
X200787Y821268D01*
X201190Y821102D01*
X201606Y820970D01*
X202032Y820876D01*
X202464Y820819D01*
X202900Y820800D01*
X224900Y820800D01*
X225336Y820819D01*
X225768Y820876D01*
X226194Y820970D01*
X226610Y821102D01*
X227013Y821268D01*
X227400Y821470D01*
X227768Y821704D01*
X228114Y821970D01*
X228436Y822264D01*
X228730Y822586D01*
X228996Y822932D01*
X229230Y823300D01*
X229432Y823687D01*
X229598Y824090D01*
X229730Y824506D01*
X229824Y824932D01*
X229881Y825364D01*
X229900Y825800D01*
X229881Y826236D01*
X229824Y826668D01*
X229730Y827094D01*
X229598Y827510D01*
X229432Y827913D01*
X229230Y828300D01*
X228996Y828668D01*
X228730Y829014D01*
X228436Y829336D01*
X228114Y829630D01*
X227768Y829896D01*
X227400Y830130D01*
X227013Y830332D01*
X226610Y830498D01*
X226194Y830630D01*
X225768Y830724D01*
X225336Y830781D01*
X224900Y830800D01*
X202900Y830800D01*
X202464Y830781D01*
X202032Y830724D01*
X201606Y830630D01*
X201190Y830498D01*
X200787Y830332D01*
X200400Y830130D01*
X200032Y829896D01*
X199686Y829630D01*
X199364Y829336D01*
X199070Y829014D01*
X198804Y828668D01*
X198570Y828300D01*
X198368Y827913D01*
X198202Y827510D01*
X198070Y827094D01*
X197976Y826668D01*
X197919Y826236D01*
X197900Y825800D01*
X197900Y762800D02*
X197919Y762364D01*
X197976Y761932D01*
X198070Y761506D01*
X198202Y761090D01*
X198368Y760687D01*
X198570Y760300D01*
X198804Y759932D01*
X199070Y759586D01*
X199364Y759264D01*
X199686Y758970D01*
X200032Y758704D01*
X200400Y758470D01*
X200787Y758268D01*
X201190Y758102D01*
X201606Y757970D01*
X202032Y757876D01*
X202464Y757819D01*
X202900Y757800D01*
X224900Y757800D01*
X225336Y757819D01*
X225768Y757876D01*
X226194Y757970D01*
X226610Y758102D01*
X227013Y758268D01*
X227400Y758470D01*
X227768Y758704D01*
X228114Y758970D01*
X228436Y759264D01*
X228730Y759586D01*
X228996Y759932D01*
X229230Y760300D01*
X229432Y760687D01*
X229598Y761090D01*
X229730Y761506D01*
X229824Y761932D01*
X229881Y762364D01*
X229900Y762800D01*
X229881Y763236D01*
X229824Y763668D01*
X229730Y764094D01*
X229598Y764510D01*
X229432Y764913D01*
X229230Y765300D01*
X228996Y765668D01*
X228730Y766014D01*
X228436Y766336D01*
X228114Y766630D01*
X227768Y766896D01*
X227400Y767130D01*
X227013Y767332D01*
X226610Y767498D01*
X226194Y767630D01*
X225768Y767724D01*
X225336Y767781D01*
X224900Y767800D01*
X202900Y767800D01*
X202464Y767781D01*
X202032Y767724D01*
X201606Y767630D01*
X201190Y767498D01*
X200787Y767332D01*
X200400Y767130D01*
X200032Y766896D01*
X199686Y766630D01*
X199364Y766336D01*
X199070Y766014D01*
X198804Y765668D01*
X198570Y765300D01*
X198368Y764913D01*
X198202Y764510D01*
X198070Y764094D01*
X197976Y763668D01*
X197919Y763236D01*
X197900Y762800D01*
X197900Y762800D02*
X229900Y762800D01*
X229881Y763236D01*
X229824Y763668D01*
X229730Y764094D01*
X229598Y764510D01*
X229432Y764913D01*
X229230Y765300D01*
X228996Y765668D01*
X228730Y766014D01*
X228436Y766336D01*
X228114Y766630D01*
X227768Y766896D01*
X227400Y767130D01*
X227013Y767332D01*
X226610Y767498D01*
X226194Y767630D01*
X225768Y767724D01*
X225336Y767781D01*
X224900Y767800D01*
X202900Y767800D01*
X202464Y767781D01*
X202032Y767724D01*
X201606Y767630D01*
X201190Y767498D01*
X200787Y767332D01*
X200400Y767130D01*
X200032Y766896D01*
X199686Y766630D01*
X199364Y766336D01*
X199070Y766014D01*
X198804Y765668D01*
X198570Y765300D01*
X198368Y764913D01*
X198202Y764510D01*
X198070Y764094D01*
X197976Y763668D01*
X197919Y763236D01*
X197900Y762800D01*
X197900Y762800D02*
X197919Y762364D01*
X197976Y761932D01*
X198070Y761506D01*
X198202Y761090D01*
X198368Y760687D01*
X198570Y760300D01*
X198804Y759932D01*
X199070Y759586D01*
X199364Y759264D01*
X199686Y758970D01*
X200032Y758704D01*
X200400Y758470D01*
X200787Y758268D01*
X201190Y758102D01*
X201606Y757970D01*
X202032Y757876D01*
X202464Y757819D01*
X202900Y757800D01*
X224900Y757800D01*
X225336Y757819D01*
X225768Y757876D01*
X226194Y757970D01*
X226610Y758102D01*
X227013Y758268D01*
X227400Y758470D01*
X227768Y758704D01*
X228114Y758970D01*
X228436Y759264D01*
X228730Y759586D01*
X228996Y759932D01*
X229230Y760300D01*
X229432Y760687D01*
X229598Y761090D01*
X229730Y761506D01*
X229824Y761932D01*
X229881Y762364D01*
X229900Y762800D01*
X197900Y762800D01*
X75000Y49299D02*
X74921Y47898D01*
X74764Y46504D01*
X74529Y45121D01*
X74217Y43753D01*
X73829Y42405D01*
X73365Y41081D01*
X72829Y39785D01*
X72220Y38521D01*
X71541Y37293D01*
X70795Y36105D01*
X69983Y34961D01*
X69108Y33864D01*
X68174Y32818D01*
X67182Y31826D01*
X66136Y30892D01*
X65039Y30017D01*
X63895Y29205D01*
X62707Y28459D01*
X61479Y27780D01*
X60215Y27171D01*
X58919Y26635D01*
X57595Y26171D01*
X56247Y25783D01*
X54879Y25471D01*
X53496Y25236D01*
X52102Y25079D01*
X50701Y25000D01*
X49299Y25000D01*
X47898Y25079D01*
X46504Y25236D01*
X45121Y25471D01*
X43753Y25783D01*
X42405Y26171D01*
X41081Y26635D01*
X39785Y27171D01*
X38521Y27780D01*
X37293Y28459D01*
X36105Y29205D01*
X34961Y30017D01*
X33864Y30892D01*
X32818Y31826D01*
X31826Y32818D01*
X30892Y33864D01*
X30017Y34961D01*
X29205Y36105D01*
X28459Y37293D01*
X27780Y38521D01*
X27171Y39785D01*
X26635Y41081D01*
X26171Y42405D01*
X25783Y43753D01*
X25471Y45121D01*
X25236Y46504D01*
X25079Y47898D01*
X25000Y49299D01*
X25000Y50701D01*
X25079Y52102D01*
X25236Y53496D01*
X25471Y54879D01*
X25783Y56247D01*
X26171Y57595D01*
X26635Y58919D01*
X27171Y60215D01*
X27780Y61479D01*
X28459Y62707D01*
X29205Y63895D01*
X30017Y65039D01*
X30892Y66136D01*
X31826Y67182D01*
X32818Y68174D01*
X33864Y69108D01*
X34961Y69983D01*
X36105Y70795D01*
X37293Y71541D01*
X38521Y72220D01*
X39785Y72829D01*
X41081Y73365D01*
X42405Y73829D01*
X43753Y74217D01*
X45121Y74529D01*
X46504Y74764D01*
X47898Y74921D01*
X49299Y75000D01*
X50701Y75000D01*
X52102Y74921D01*
X53496Y74764D01*
X54879Y74529D01*
X56247Y74217D01*
X57595Y73829D01*
X58919Y73365D01*
X60215Y72829D01*
X61479Y72220D01*
X62707Y71541D01*
X63895Y70795D01*
X65039Y69983D01*
X66136Y69108D01*
X67182Y68174D01*
X68174Y67182D01*
X69108Y66136D01*
X69983Y65039D01*
X70795Y63895D01*
X71541Y62707D01*
X72220Y61479D01*
X72829Y60215D01*
X73365Y58919D01*
X73829Y57595D01*
X74217Y56247D01*
X74529Y54879D01*
X74764Y53496D01*
X74921Y52102D01*
X75000Y50701D01*
X75000Y49299D01*
X925000Y49299D02*
X924921Y47898D01*
X924764Y46504D01*
X924529Y45121D01*
X924217Y43753D01*
X923829Y42405D01*
X923365Y41081D01*
X922829Y39785D01*
X922220Y38521D01*
X921541Y37293D01*
X920795Y36105D01*
X919983Y34961D01*
X919108Y33864D01*
X918174Y32818D01*
X917182Y31826D01*
X916136Y30892D01*
X915039Y30017D01*
X913895Y29205D01*
X912707Y28459D01*
X911479Y27780D01*
X910215Y27171D01*
X908919Y26635D01*
X907595Y26171D01*
X906247Y25783D01*
X904879Y25471D01*
X903496Y25236D01*
X902102Y25079D01*
X900701Y25000D01*
X899299Y25000D01*
X897898Y25079D01*
X896504Y25236D01*
X895121Y25471D01*
X893753Y25783D01*
X892405Y26171D01*
X891081Y26635D01*
X889785Y27171D01*
X888521Y27780D01*
X887293Y28459D01*
X886105Y29205D01*
X884961Y30017D01*
X883864Y30892D01*
X882818Y31826D01*
X881826Y32818D01*
X880892Y33864D01*
X880017Y34961D01*
X879205Y36105D01*
X878459Y37293D01*
X877780Y38521D01*
X877171Y39785D01*
X876635Y41081D01*
X876171Y42405D01*
X875783Y43753D01*
X875471Y45121D01*
X875236Y46504D01*
X875079Y47898D01*
X875000Y49299D01*
X875000Y50701D01*
X875079Y52102D01*
X875236Y53496D01*
X875471Y54879D01*
X875783Y56247D01*
X876171Y57595D01*
X876635Y58919D01*
X877171Y60215D01*
X877780Y61479D01*
X878459Y62707D01*
X879205Y63895D01*
X880017Y65039D01*
X880892Y66136D01*
X881826Y67182D01*
X882818Y68174D01*
X883864Y69108D01*
X884961Y69983D01*
X886105Y70795D01*
X887293Y71541D01*
X888521Y72220D01*
X889785Y72829D01*
X891081Y73365D01*
X892405Y73829D01*
X893753Y74217D01*
X895121Y74529D01*
X896504Y74764D01*
X897898Y74921D01*
X899299Y75000D01*
X900701Y75000D01*
X902102Y74921D01*
X903496Y74764D01*
X904879Y74529D01*
X906247Y74217D01*
X907595Y73829D01*
X908919Y73365D01*
X910215Y72829D01*
X911479Y72220D01*
X912707Y71541D01*
X913895Y70795D01*
X915039Y69983D01*
X916136Y69108D01*
X917182Y68174D01*
X918174Y67182D01*
X919108Y66136D01*
X919983Y65039D01*
X920795Y63895D01*
X921541Y62707D01*
X922220Y61479D01*
X922829Y60215D01*
X923365Y58919D01*
X923829Y57595D01*
X924217Y56247D01*
X924529Y54879D01*
X924764Y53496D01*
X924921Y52102D01*
X925000Y50701D01*
X925000Y49299D01*
X925000Y849299D02*
X924921Y847898D01*
X924764Y846504D01*
X924529Y845121D01*
X924217Y843753D01*
X923829Y842405D01*
X923365Y841081D01*
X922829Y839785D01*
X922220Y838521D01*
X921541Y837293D01*
X920795Y836105D01*
X919983Y834961D01*
X919108Y833864D01*
X918174Y832818D01*
X917182Y831826D01*
X916136Y830892D01*
X915039Y830017D01*
X913895Y829205D01*
X912707Y828459D01*
X911479Y827780D01*
X910215Y827171D01*
X908919Y826635D01*
X907595Y826171D01*
X906247Y825783D01*
X904879Y825471D01*
X903496Y825236D01*
X902102Y825079D01*
X900701Y825000D01*
X899299Y825000D01*
X897898Y825079D01*
X896504Y825236D01*
X895121Y825471D01*
X893753Y825783D01*
X892405Y826171D01*
X891081Y826635D01*
X889785Y827171D01*
X888521Y827780D01*
X887293Y828459D01*
X886105Y829205D01*
X884961Y830017D01*
X883864Y830892D01*
X882818Y831826D01*
X881826Y832818D01*
X880892Y833864D01*
X880017Y834961D01*
X879205Y836105D01*
X878459Y837293D01*
X877780Y838521D01*
X877171Y839785D01*
X876635Y841081D01*
X876171Y842405D01*
X875783Y843753D01*
X875471Y845121D01*
X875236Y846504D01*
X875079Y847898D01*
X875000Y849299D01*
X875000Y850701D01*
X875079Y852102D01*
X875236Y853496D01*
X875471Y854879D01*
X875783Y856247D01*
X876171Y857595D01*
X876635Y858919D01*
X877171Y860215D01*
X877780Y861479D01*
X878459Y862707D01*
X879205Y863895D01*
X880017Y865039D01*
X880892Y866136D01*
X881826Y867182D01*
X882818Y868174D01*
X883864Y869108D01*
X884961Y869983D01*
X886105Y870795D01*
X887293Y871541D01*
X888521Y872220D01*
X889785Y872829D01*
X891081Y873365D01*
X892405Y873829D01*
X893753Y874217D01*
X895121Y874529D01*
X896504Y874764D01*
X897898Y874921D01*
X899299Y875000D01*
X900701Y875000D01*
X902102Y874921D01*
X903496Y874764D01*
X904879Y874529D01*
X906247Y874217D01*
X907595Y873829D01*
X908919Y873365D01*
X910215Y872829D01*
X911479Y872220D01*
X912707Y871541D01*
X913895Y870795D01*
X915039Y869983D01*
X916136Y869108D01*
X917182Y868174D01*
X918174Y867182D01*
X919108Y866136D01*
X919983Y865039D01*
X920795Y863895D01*
X921541Y862707D01*
X922220Y861479D01*
X922829Y860215D01*
X923365Y858919D01*
X923829Y857595D01*
X924217Y856247D01*
X924529Y854879D01*
X924764Y853496D01*
X924921Y852102D01*
X925000Y850701D01*
X925000Y849299D01*
X75000Y849299D02*
X74921Y847898D01*
X74764Y846504D01*
X74529Y845121D01*
X74217Y843753D01*
X73829Y842405D01*
X73365Y841081D01*
X72829Y839785D01*
X72220Y838521D01*
X71541Y837293D01*
X70795Y836105D01*
X69983Y834961D01*
X69108Y833864D01*
X68174Y832818D01*
X67182Y831826D01*
X66136Y830892D01*
X65039Y830017D01*
X63895Y829205D01*
X62707Y828459D01*
X61479Y827780D01*
X60215Y827171D01*
X58919Y826635D01*
X57595Y826171D01*
X56247Y825783D01*
X54879Y825471D01*
X53496Y825236D01*
X52102Y825079D01*
X50701Y825000D01*
X49299Y825000D01*
X47898Y825079D01*
X46504Y825236D01*
X45121Y825471D01*
X43753Y825783D01*
X42405Y826171D01*
X41081Y826635D01*
X39785Y827171D01*
X38521Y827780D01*
X37293Y828459D01*
X36105Y829205D01*
X34961Y830017D01*
X33864Y830892D01*
X32818Y831826D01*
X31826Y832818D01*
X30892Y833864D01*
X30017Y834961D01*
X29205Y836105D01*
X28459Y837293D01*
X27780Y838521D01*
X27171Y839785D01*
X26635Y841081D01*
X26171Y842405D01*
X25783Y843753D01*
X25471Y845121D01*
X25236Y846504D01*
X25079Y847898D01*
X25000Y849299D01*
X25000Y850701D01*
X25079Y852102D01*
X25236Y853496D01*
X25471Y854879D01*
X25783Y856247D01*
X26171Y857595D01*
X26635Y858919D01*
X27171Y860215D01*
X27780Y861479D01*
X28459Y862707D01*
X29205Y863895D01*
X30017Y865039D01*
X30892Y866136D01*
X31826Y867182D01*
X32818Y868174D01*
X33864Y869108D01*
X34961Y869983D01*
X36105Y870795D01*
X37293Y871541D01*
X38521Y872220D01*
X39785Y872829D01*
X41081Y873365D01*
X42405Y873829D01*
X43753Y874217D01*
X45121Y874529D01*
X46504Y874764D01*
X47898Y874921D01*
X49299Y875000D01*
X50701Y875000D01*
X52102Y874921D01*
X53496Y874764D01*
X54879Y874529D01*
X56247Y874217D01*
X57595Y873829D01*
X58919Y873365D01*
X60215Y872829D01*
X61479Y872220D01*
X62707Y871541D01*
X63895Y870795D01*
X65039Y869983D01*
X66136Y869108D01*
X67182Y868174D01*
X68174Y867182D01*
X69108Y866136D01*
X69983Y865039D01*
X70795Y863895D01*
X71541Y862707D01*
X72220Y861479D01*
X72829Y860215D01*
X73365Y858919D01*
X73829Y857595D01*
X74217Y856247D01*
X74529Y854879D01*
X74764Y853496D01*
X74921Y852102D01*
X75000Y850701D01*
X75000Y849299D01*
X739350Y842363D02*
X739406Y842785D01*
X739516Y843197D01*
X739679Y843591D01*
X739892Y843959D01*
X740151Y844297D01*
X740453Y844599D01*
X740791Y844858D01*
X741159Y845071D01*
X741553Y845234D01*
X741965Y845344D01*
X742387Y845400D01*
X742813Y845400D01*
X743235Y845344D01*
X743647Y845234D01*
X744041Y845071D01*
X744409Y844858D01*
X744747Y844599D01*
X745049Y844297D01*
X745308Y843959D01*
X745521Y843591D01*
X745684Y843197D01*
X745794Y842785D01*
X745850Y842363D01*
X745850Y841937D01*
X745794Y841515D01*
X745684Y841103D01*
X745521Y840709D01*
X745308Y840341D01*
X745049Y840003D01*
X744747Y839701D01*
X744409Y839442D01*
X744041Y839229D01*
X743647Y839066D01*
X743235Y838956D01*
X742813Y838900D01*
X742387Y838900D01*
X741965Y838956D01*
X741553Y839066D01*
X741159Y839229D01*
X740791Y839442D01*
X740453Y839701D01*
X740151Y840003D01*
X739892Y840341D01*
X739679Y840709D01*
X739516Y841103D01*
X739406Y841515D01*
X739350Y841937D01*
X739350Y842363D01*
X681550Y842363D02*
X681606Y842785D01*
X681716Y843197D01*
X681879Y843591D01*
X682092Y843959D01*
X682351Y844297D01*
X682653Y844599D01*
X682991Y844858D01*
X683359Y845071D01*
X683753Y845234D01*
X684165Y845344D01*
X684587Y845400D01*
X685013Y845400D01*
X685435Y845344D01*
X685847Y845234D01*
X686241Y845071D01*
X686609Y844858D01*
X686947Y844599D01*
X687249Y844297D01*
X687508Y843959D01*
X687721Y843591D01*
X687884Y843197D01*
X687994Y842785D01*
X688050Y842363D01*
X688050Y841937D01*
X687994Y841515D01*
X687884Y841103D01*
X687721Y840709D01*
X687508Y840341D01*
X687249Y840003D01*
X686947Y839701D01*
X686609Y839442D01*
X686241Y839229D01*
X685847Y839066D01*
X685435Y838956D01*
X685013Y838900D01*
X684587Y838900D01*
X684165Y838956D01*
X683753Y839066D01*
X683359Y839229D01*
X682991Y839442D01*
X682653Y839701D01*
X682351Y840003D01*
X682092Y840341D01*
X681879Y840709D01*
X681716Y841103D01*
X681606Y841515D01*
X681550Y841937D01*
X681550Y842363D01*
X668337Y41000D02*
X669007Y40925D01*
X669664Y40775D01*
X670300Y40552D01*
X670907Y40260D01*
X671478Y39901D01*
X672004Y39481D01*
X672481Y39004D01*
X672901Y38478D01*
X673260Y37907D01*
X673552Y37300D01*
X673775Y36664D01*
X673925Y36007D01*
X674000Y35337D01*
X674000Y34663D01*
X673925Y33993D01*
X673775Y33336D01*
X673552Y32700D01*
X673260Y32093D01*
X672901Y31523D01*
X672481Y30996D01*
X672004Y30519D01*
X671478Y30099D01*
X670907Y29740D01*
X670300Y29448D01*
X669664Y29225D01*
X669007Y29075D01*
X668337Y29000D01*
X667663Y29000D01*
X666993Y29075D01*
X666336Y29225D01*
X665700Y29448D01*
X665093Y29740D01*
X664523Y30099D01*
X663996Y30519D01*
X663519Y30996D01*
X663099Y31523D01*
X662740Y32093D01*
X662448Y32700D01*
X662225Y33336D01*
X662075Y33993D01*
X662000Y34663D01*
X662000Y35337D01*
X662075Y36007D01*
X662225Y36664D01*
X662448Y37300D01*
X662740Y37907D01*
X663099Y38478D01*
X663519Y39004D01*
X663996Y39481D01*
X664523Y39901D01*
X665093Y40260D01*
X665700Y40552D01*
X666336Y40775D01*
X666993Y40925D01*
X667663Y41000D01*
X668337Y41000D01*
X668337Y16000D02*
X669007Y15925D01*
X669664Y15775D01*
X670300Y15552D01*
X670907Y15260D01*
X671478Y14901D01*
X672004Y14481D01*
X672481Y14004D01*
X672901Y13478D01*
X673260Y12907D01*
X673552Y12300D01*
X673775Y11664D01*
X673925Y11007D01*
X674000Y10337D01*
X674000Y9663D01*
X673925Y8993D01*
X673775Y8336D01*
X673552Y7700D01*
X673260Y7093D01*
X672901Y6523D01*
X672481Y5996D01*
X672004Y5519D01*
X671478Y5099D01*
X670907Y4740D01*
X670300Y4448D01*
X669664Y4225D01*
X669007Y4075D01*
X668337Y4000D01*
X667663Y4000D01*
X666993Y4075D01*
X666336Y4225D01*
X665700Y4448D01*
X665093Y4740D01*
X664523Y5099D01*
X663996Y5519D01*
X663519Y5996D01*
X663099Y6523D01*
X662740Y7093D01*
X662448Y7700D01*
X662225Y8336D01*
X662075Y8993D01*
X662000Y9663D01*
X662000Y10337D01*
X662075Y11007D01*
X662225Y11664D01*
X662448Y12300D01*
X662740Y12907D01*
X663099Y13478D01*
X663519Y14004D01*
X663996Y14481D01*
X664523Y14901D01*
X665093Y15260D01*
X665700Y15552D01*
X666336Y15775D01*
X666993Y15925D01*
X667663Y16000D01*
X668337Y16000D01*
X768337Y16000D02*
X769007Y15925D01*
X769664Y15775D01*
X770300Y15552D01*
X770907Y15260D01*
X771478Y14901D01*
X772004Y14481D01*
X772481Y14004D01*
X772901Y13478D01*
X773260Y12907D01*
X773552Y12300D01*
X773775Y11664D01*
X773925Y11007D01*
X774000Y10337D01*
X774000Y9663D01*
X773925Y8993D01*
X773775Y8336D01*
X773552Y7700D01*
X773260Y7093D01*
X772901Y6523D01*
X772481Y5996D01*
X772004Y5519D01*
X771478Y5099D01*
X770907Y4740D01*
X770300Y4448D01*
X769664Y4225D01*
X769007Y4075D01*
X768337Y4000D01*
X767663Y4000D01*
X766993Y4075D01*
X766336Y4225D01*
X765700Y4448D01*
X765093Y4740D01*
X764523Y5099D01*
X763996Y5519D01*
X763519Y5996D01*
X763099Y6523D01*
X762740Y7093D01*
X762448Y7700D01*
X762225Y8336D01*
X762075Y8993D01*
X762000Y9663D01*
X762000Y10337D01*
X762075Y11007D01*
X762225Y11664D01*
X762448Y12300D01*
X762740Y12907D01*
X763099Y13478D01*
X763519Y14004D01*
X763996Y14481D01*
X764523Y14901D01*
X765093Y15260D01*
X765700Y15552D01*
X766336Y15775D01*
X766993Y15925D01*
X767663Y16000D01*
X768337Y16000D01*
X768337Y41000D02*
X769007Y40925D01*
X769664Y40775D01*
X770300Y40552D01*
X770907Y40260D01*
X771478Y39901D01*
X772004Y39481D01*
X772481Y39004D01*
X772901Y38478D01*
X773260Y37907D01*
X773552Y37300D01*
X773775Y36664D01*
X773925Y36007D01*
X774000Y35337D01*
X774000Y34663D01*
X773925Y33993D01*
X773775Y33336D01*
X773552Y32700D01*
X773260Y32093D01*
X772901Y31523D01*
X772481Y30996D01*
X772004Y30519D01*
X771478Y30099D01*
X770907Y29740D01*
X770300Y29448D01*
X769664Y29225D01*
X769007Y29075D01*
X768337Y29000D01*
X767663Y29000D01*
X766993Y29075D01*
X766336Y29225D01*
X765700Y29448D01*
X765093Y29740D01*
X764523Y30099D01*
X763996Y30519D01*
X763519Y30996D01*
X763099Y31523D01*
X762740Y32093D01*
X762448Y32700D01*
X762225Y33336D01*
X762075Y33993D01*
X762000Y34663D01*
X762000Y35337D01*
X762075Y36007D01*
X762225Y36664D01*
X762448Y37300D01*
X762740Y37907D01*
X763099Y38478D01*
X763519Y39004D01*
X763996Y39481D01*
X764523Y39901D01*
X765093Y40260D01*
X765700Y40552D01*
X766336Y40775D01*
X766993Y40925D01*
X767663Y41000D01*
X768337Y41000D01*
X718337Y91000D02*
X719007Y90925D01*
X719664Y90775D01*
X720300Y90552D01*
X720907Y90260D01*
X721478Y89901D01*
X722004Y89481D01*
X722481Y89004D01*
X722901Y88478D01*
X723260Y87907D01*
X723552Y87300D01*
X723775Y86664D01*
X723925Y86007D01*
X724000Y85337D01*
X724000Y84663D01*
X723925Y83993D01*
X723775Y83336D01*
X723552Y82700D01*
X723260Y82093D01*
X722901Y81523D01*
X722481Y80996D01*
X722004Y80519D01*
X721478Y80099D01*
X720907Y79740D01*
X720300Y79448D01*
X719664Y79225D01*
X719007Y79075D01*
X718337Y79000D01*
X717663Y79000D01*
X716993Y79075D01*
X716336Y79225D01*
X715700Y79448D01*
X715093Y79740D01*
X714523Y80099D01*
X713996Y80519D01*
X713519Y80996D01*
X713099Y81523D01*
X712740Y82093D01*
X712448Y82700D01*
X712225Y83336D01*
X712075Y83993D01*
X712000Y84663D01*
X712000Y85337D01*
X712075Y86007D01*
X712225Y86664D01*
X712448Y87300D01*
X712740Y87907D01*
X713099Y88478D01*
X713519Y89004D01*
X713996Y89481D01*
X714523Y89901D01*
X715093Y90260D01*
X715700Y90552D01*
X716336Y90775D01*
X716993Y90925D01*
X717663Y91000D01*
X718337Y91000D01*
X506337Y41000D02*
X507007Y40925D01*
X507664Y40775D01*
X508300Y40552D01*
X508907Y40260D01*
X509478Y39901D01*
X510004Y39481D01*
X510481Y39004D01*
X510901Y38478D01*
X511260Y37907D01*
X511552Y37300D01*
X511775Y36664D01*
X511925Y36007D01*
X512000Y35337D01*
X512000Y34663D01*
X511925Y33993D01*
X511775Y33336D01*
X511552Y32700D01*
X511260Y32093D01*
X510901Y31523D01*
X510481Y30996D01*
X510004Y30519D01*
X509478Y30099D01*
X508907Y29740D01*
X508300Y29448D01*
X507664Y29225D01*
X507007Y29075D01*
X506337Y29000D01*
X505663Y29000D01*
X504993Y29075D01*
X504336Y29225D01*
X503700Y29448D01*
X503093Y29740D01*
X502523Y30099D01*
X501996Y30519D01*
X501519Y30996D01*
X501099Y31523D01*
X500740Y32093D01*
X500448Y32700D01*
X500225Y33336D01*
X500075Y33993D01*
X500000Y34663D01*
X500000Y35337D01*
X500075Y36007D01*
X500225Y36664D01*
X500448Y37300D01*
X500740Y37907D01*
X501099Y38478D01*
X501519Y39004D01*
X501996Y39481D01*
X502523Y39901D01*
X503093Y40260D01*
X503700Y40552D01*
X504336Y40775D01*
X504993Y40925D01*
X505663Y41000D01*
X506337Y41000D01*
X506337Y16000D02*
X507007Y15925D01*
X507664Y15775D01*
X508300Y15552D01*
X508907Y15260D01*
X509478Y14901D01*
X510004Y14481D01*
X510481Y14004D01*
X510901Y13478D01*
X511260Y12907D01*
X511552Y12300D01*
X511775Y11664D01*
X511925Y11007D01*
X512000Y10337D01*
X512000Y9663D01*
X511925Y8993D01*
X511775Y8336D01*
X511552Y7700D01*
X511260Y7093D01*
X510901Y6523D01*
X510481Y5996D01*
X510004Y5519D01*
X509478Y5099D01*
X508907Y4740D01*
X508300Y4448D01*
X507664Y4225D01*
X507007Y4075D01*
X506337Y4000D01*
X505663Y4000D01*
X504993Y4075D01*
X504336Y4225D01*
X503700Y4448D01*
X503093Y4740D01*
X502523Y5099D01*
X501996Y5519D01*
X501519Y5996D01*
X501099Y6523D01*
X500740Y7093D01*
X500448Y7700D01*
X500225Y8336D01*
X500075Y8993D01*
X500000Y9663D01*
X500000Y10337D01*
X500075Y11007D01*
X500225Y11664D01*
X500448Y12300D01*
X500740Y12907D01*
X501099Y13478D01*
X501519Y14004D01*
X501996Y14481D01*
X502523Y14901D01*
X503093Y15260D01*
X503700Y15552D01*
X504336Y15775D01*
X504993Y15925D01*
X505663Y16000D01*
X506337Y16000D01*
X606337Y16000D02*
X607007Y15925D01*
X607664Y15775D01*
X608300Y15552D01*
X608907Y15260D01*
X609478Y14901D01*
X610004Y14481D01*
X610481Y14004D01*
X610901Y13478D01*
X611260Y12907D01*
X611552Y12300D01*
X611775Y11664D01*
X611925Y11007D01*
X612000Y10337D01*
X612000Y9663D01*
X611925Y8993D01*
X611775Y8336D01*
X611552Y7700D01*
X611260Y7093D01*
X610901Y6523D01*
X610481Y5996D01*
X610004Y5519D01*
X609478Y5099D01*
X608907Y4740D01*
X608300Y4448D01*
X607664Y4225D01*
X607007Y4075D01*
X606337Y4000D01*
X605663Y4000D01*
X604993Y4075D01*
X604336Y4225D01*
X603700Y4448D01*
X603093Y4740D01*
X602523Y5099D01*
X601996Y5519D01*
X601519Y5996D01*
X601099Y6523D01*
X600740Y7093D01*
X600448Y7700D01*
X600225Y8336D01*
X600075Y8993D01*
X600000Y9663D01*
X600000Y10337D01*
X600075Y11007D01*
X600225Y11664D01*
X600448Y12300D01*
X600740Y12907D01*
X601099Y13478D01*
X601519Y14004D01*
X601996Y14481D01*
X602523Y14901D01*
X603093Y15260D01*
X603700Y15552D01*
X604336Y15775D01*
X604993Y15925D01*
X605663Y16000D01*
X606337Y16000D01*
X606337Y41000D02*
X607007Y40925D01*
X607664Y40775D01*
X608300Y40552D01*
X608907Y40260D01*
X609478Y39901D01*
X610004Y39481D01*
X610481Y39004D01*
X610901Y38478D01*
X611260Y37907D01*
X611552Y37300D01*
X611775Y36664D01*
X611925Y36007D01*
X612000Y35337D01*
X612000Y34663D01*
X611925Y33993D01*
X611775Y33336D01*
X611552Y32700D01*
X611260Y32093D01*
X610901Y31523D01*
X610481Y30996D01*
X610004Y30519D01*
X609478Y30099D01*
X608907Y29740D01*
X608300Y29448D01*
X607664Y29225D01*
X607007Y29075D01*
X606337Y29000D01*
X605663Y29000D01*
X604993Y29075D01*
X604336Y29225D01*
X603700Y29448D01*
X603093Y29740D01*
X602523Y30099D01*
X601996Y30519D01*
X601519Y30996D01*
X601099Y31523D01*
X600740Y32093D01*
X600448Y32700D01*
X600225Y33336D01*
X600075Y33993D01*
X600000Y34663D01*
X600000Y35337D01*
X600075Y36007D01*
X600225Y36664D01*
X600448Y37300D01*
X600740Y37907D01*
X601099Y38478D01*
X601519Y39004D01*
X601996Y39481D01*
X602523Y39901D01*
X603093Y40260D01*
X603700Y40552D01*
X604336Y40775D01*
X604993Y40925D01*
X605663Y41000D01*
X606337Y41000D01*
X556337Y91000D02*
X557007Y90925D01*
X557664Y90775D01*
X558300Y90552D01*
X558907Y90260D01*
X559478Y89901D01*
X560004Y89481D01*
X560481Y89004D01*
X560901Y88478D01*
X561260Y87907D01*
X561552Y87300D01*
X561775Y86664D01*
X561925Y86007D01*
X562000Y85337D01*
X562000Y84663D01*
X561925Y83993D01*
X561775Y83336D01*
X561552Y82700D01*
X561260Y82093D01*
X560901Y81523D01*
X560481Y80996D01*
X560004Y80519D01*
X559478Y80099D01*
X558907Y79740D01*
X558300Y79448D01*
X557664Y79225D01*
X557007Y79075D01*
X556337Y79000D01*
X555663Y79000D01*
X554993Y79075D01*
X554336Y79225D01*
X553700Y79448D01*
X553093Y79740D01*
X552523Y80099D01*
X551996Y80519D01*
X551519Y80996D01*
X551099Y81523D01*
X550740Y82093D01*
X550448Y82700D01*
X550225Y83336D01*
X550075Y83993D01*
X550000Y84663D01*
X550000Y85337D01*
X550075Y86007D01*
X550225Y86664D01*
X550448Y87300D01*
X550740Y87907D01*
X551099Y88478D01*
X551519Y89004D01*
X551996Y89481D01*
X552523Y89901D01*
X553093Y90260D01*
X553700Y90552D01*
X554336Y90775D01*
X554993Y90925D01*
X555663Y91000D01*
X556337Y91000D01*
X344337Y41000D02*
X345007Y40925D01*
X345664Y40775D01*
X346300Y40552D01*
X346907Y40260D01*
X347478Y39901D01*
X348004Y39481D01*
X348481Y39004D01*
X348901Y38478D01*
X349260Y37907D01*
X349552Y37300D01*
X349775Y36664D01*
X349925Y36007D01*
X350000Y35337D01*
X350000Y34663D01*
X349925Y33993D01*
X349775Y33336D01*
X349552Y32700D01*
X349260Y32093D01*
X348901Y31523D01*
X348481Y30996D01*
X348004Y30519D01*
X347478Y30099D01*
X346907Y29740D01*
X346300Y29448D01*
X345664Y29225D01*
X345007Y29075D01*
X344337Y29000D01*
X343663Y29000D01*
X342993Y29075D01*
X342336Y29225D01*
X341700Y29448D01*
X341093Y29740D01*
X340523Y30099D01*
X339996Y30519D01*
X339519Y30996D01*
X339099Y31523D01*
X338740Y32093D01*
X338448Y32700D01*
X338225Y33336D01*
X338075Y33993D01*
X338000Y34663D01*
X338000Y35337D01*
X338075Y36007D01*
X338225Y36664D01*
X338448Y37300D01*
X338740Y37907D01*
X339099Y38478D01*
X339519Y39004D01*
X339996Y39481D01*
X340523Y39901D01*
X341093Y40260D01*
X341700Y40552D01*
X342336Y40775D01*
X342993Y40925D01*
X343663Y41000D01*
X344337Y41000D01*
X344337Y16000D02*
X345007Y15925D01*
X345664Y15775D01*
X346300Y15552D01*
X346907Y15260D01*
X347478Y14901D01*
X348004Y14481D01*
X348481Y14004D01*
X348901Y13478D01*
X349260Y12907D01*
X349552Y12300D01*
X349775Y11664D01*
X349925Y11007D01*
X350000Y10337D01*
X350000Y9663D01*
X349925Y8993D01*
X349775Y8336D01*
X349552Y7700D01*
X349260Y7093D01*
X348901Y6523D01*
X348481Y5996D01*
X348004Y5519D01*
X347478Y5099D01*
X346907Y4740D01*
X346300Y4448D01*
X345664Y4225D01*
X345007Y4075D01*
X344337Y4000D01*
X343663Y4000D01*
X342993Y4075D01*
X342336Y4225D01*
X341700Y4448D01*
X341093Y4740D01*
X340523Y5099D01*
X339996Y5519D01*
X339519Y5996D01*
X339099Y6523D01*
X338740Y7093D01*
X338448Y7700D01*
X338225Y8336D01*
X338075Y8993D01*
X338000Y9663D01*
X338000Y10337D01*
X338075Y11007D01*
X338225Y11664D01*
X338448Y12300D01*
X338740Y12907D01*
X339099Y13478D01*
X339519Y14004D01*
X339996Y14481D01*
X340523Y14901D01*
X341093Y15260D01*
X341700Y15552D01*
X342336Y15775D01*
X342993Y15925D01*
X343663Y16000D01*
X344337Y16000D01*
X444337Y16000D02*
X445007Y15925D01*
X445664Y15775D01*
X446300Y15552D01*
X446907Y15260D01*
X447478Y14901D01*
X448004Y14481D01*
X448481Y14004D01*
X448901Y13478D01*
X449260Y12907D01*
X449552Y12300D01*
X449775Y11664D01*
X449925Y11007D01*
X450000Y10337D01*
X450000Y9663D01*
X449925Y8993D01*
X449775Y8336D01*
X449552Y7700D01*
X449260Y7093D01*
X448901Y6523D01*
X448481Y5996D01*
X448004Y5519D01*
X447478Y5099D01*
X446907Y4740D01*
X446300Y4448D01*
X445664Y4225D01*
X445007Y4075D01*
X444337Y4000D01*
X443663Y4000D01*
X442993Y4075D01*
X442336Y4225D01*
X441700Y4448D01*
X441093Y4740D01*
X440523Y5099D01*
X439996Y5519D01*
X439519Y5996D01*
X439099Y6523D01*
X438740Y7093D01*
X438448Y7700D01*
X438225Y8336D01*
X438075Y8993D01*
X438000Y9663D01*
X438000Y10337D01*
X438075Y11007D01*
X438225Y11664D01*
X438448Y12300D01*
X438740Y12907D01*
X439099Y13478D01*
X439519Y14004D01*
X439996Y14481D01*
X440523Y14901D01*
X441093Y15260D01*
X441700Y15552D01*
X442336Y15775D01*
X442993Y15925D01*
X443663Y16000D01*
X444337Y16000D01*
X444337Y41000D02*
X445007Y40925D01*
X445664Y40775D01*
X446300Y40552D01*
X446907Y40260D01*
X447478Y39901D01*
X448004Y39481D01*
X448481Y39004D01*
X448901Y38478D01*
X449260Y37907D01*
X449552Y37300D01*
X449775Y36664D01*
X449925Y36007D01*
X450000Y35337D01*
X450000Y34663D01*
X449925Y33993D01*
X449775Y33336D01*
X449552Y32700D01*
X449260Y32093D01*
X448901Y31523D01*
X448481Y30996D01*
X448004Y30519D01*
X447478Y30099D01*
X446907Y29740D01*
X446300Y29448D01*
X445664Y29225D01*
X445007Y29075D01*
X444337Y29000D01*
X443663Y29000D01*
X442993Y29075D01*
X442336Y29225D01*
X441700Y29448D01*
X441093Y29740D01*
X440523Y30099D01*
X439996Y30519D01*
X439519Y30996D01*
X439099Y31523D01*
X438740Y32093D01*
X438448Y32700D01*
X438225Y33336D01*
X438075Y33993D01*
X438000Y34663D01*
X438000Y35337D01*
X438075Y36007D01*
X438225Y36664D01*
X438448Y37300D01*
X438740Y37907D01*
X439099Y38478D01*
X439519Y39004D01*
X439996Y39481D01*
X440523Y39901D01*
X441093Y40260D01*
X441700Y40552D01*
X442336Y40775D01*
X442993Y40925D01*
X443663Y41000D01*
X444337Y41000D01*
X394337Y91000D02*
X395007Y90925D01*
X395664Y90775D01*
X396300Y90552D01*
X396907Y90260D01*
X397478Y89901D01*
X398004Y89481D01*
X398481Y89004D01*
X398901Y88478D01*
X399260Y87907D01*
X399552Y87300D01*
X399775Y86664D01*
X399925Y86007D01*
X400000Y85337D01*
X400000Y84663D01*
X399925Y83993D01*
X399775Y83336D01*
X399552Y82700D01*
X399260Y82093D01*
X398901Y81523D01*
X398481Y80996D01*
X398004Y80519D01*
X397478Y80099D01*
X396907Y79740D01*
X396300Y79448D01*
X395664Y79225D01*
X395007Y79075D01*
X394337Y79000D01*
X393663Y79000D01*
X392993Y79075D01*
X392336Y79225D01*
X391700Y79448D01*
X391093Y79740D01*
X390523Y80099D01*
X389996Y80519D01*
X389519Y80996D01*
X389099Y81523D01*
X388740Y82093D01*
X388448Y82700D01*
X388225Y83336D01*
X388075Y83993D01*
X388000Y84663D01*
X388000Y85337D01*
X388075Y86007D01*
X388225Y86664D01*
X388448Y87300D01*
X388740Y87907D01*
X389099Y88478D01*
X389519Y89004D01*
X389996Y89481D01*
X390523Y89901D01*
X391093Y90260D01*
X391700Y90552D01*
X392336Y90775D01*
X392993Y90925D01*
X393663Y91000D01*
X394337Y91000D01*
X182337Y41000D02*
X183007Y40925D01*
X183664Y40775D01*
X184300Y40552D01*
X184907Y40260D01*
X185478Y39901D01*
X186004Y39481D01*
X186481Y39004D01*
X186901Y38478D01*
X187260Y37907D01*
X187552Y37300D01*
X187775Y36664D01*
X187925Y36007D01*
X188000Y35337D01*
X188000Y34663D01*
X187925Y33993D01*
X187775Y33336D01*
X187552Y32700D01*
X187260Y32093D01*
X186901Y31523D01*
X186481Y30996D01*
X186004Y30519D01*
X185478Y30099D01*
X184907Y29740D01*
X184300Y29448D01*
X183664Y29225D01*
X183007Y29075D01*
X182337Y29000D01*
X181663Y29000D01*
X180993Y29075D01*
X180336Y29225D01*
X179700Y29448D01*
X179093Y29740D01*
X178523Y30099D01*
X177996Y30519D01*
X177519Y30996D01*
X177099Y31523D01*
X176740Y32093D01*
X176448Y32700D01*
X176225Y33336D01*
X176075Y33993D01*
X176000Y34663D01*
X176000Y35337D01*
X176075Y36007D01*
X176225Y36664D01*
X176448Y37300D01*
X176740Y37907D01*
X177099Y38478D01*
X177519Y39004D01*
X177996Y39481D01*
X178523Y39901D01*
X179093Y40260D01*
X179700Y40552D01*
X180336Y40775D01*
X180993Y40925D01*
X181663Y41000D01*
X182337Y41000D01*
X182337Y16000D02*
X183007Y15925D01*
X183664Y15775D01*
X184300Y15552D01*
X184907Y15260D01*
X185478Y14901D01*
X186004Y14481D01*
X186481Y14004D01*
X186901Y13478D01*
X187260Y12907D01*
X187552Y12300D01*
X187775Y11664D01*
X187925Y11007D01*
X188000Y10337D01*
X188000Y9663D01*
X187925Y8993D01*
X187775Y8336D01*
X187552Y7700D01*
X187260Y7093D01*
X186901Y6523D01*
X186481Y5996D01*
X186004Y5519D01*
X185478Y5099D01*
X184907Y4740D01*
X184300Y4448D01*
X183664Y4225D01*
X183007Y4075D01*
X182337Y4000D01*
X181663Y4000D01*
X180993Y4075D01*
X180336Y4225D01*
X179700Y4448D01*
X179093Y4740D01*
X178523Y5099D01*
X177996Y5519D01*
X177519Y5996D01*
X177099Y6523D01*
X176740Y7093D01*
X176448Y7700D01*
X176225Y8336D01*
X176075Y8993D01*
X176000Y9663D01*
X176000Y10337D01*
X176075Y11007D01*
X176225Y11664D01*
X176448Y12300D01*
X176740Y12907D01*
X177099Y13478D01*
X177519Y14004D01*
X177996Y14481D01*
X178523Y14901D01*
X179093Y15260D01*
X179700Y15552D01*
X180336Y15775D01*
X180993Y15925D01*
X181663Y16000D01*
X182337Y16000D01*
X282337Y16000D02*
X283007Y15925D01*
X283664Y15775D01*
X284300Y15552D01*
X284907Y15260D01*
X285478Y14901D01*
X286004Y14481D01*
X286481Y14004D01*
X286901Y13478D01*
X287260Y12907D01*
X287552Y12300D01*
X287775Y11664D01*
X287925Y11007D01*
X288000Y10337D01*
X288000Y9663D01*
X287925Y8993D01*
X287775Y8336D01*
X287552Y7700D01*
X287260Y7093D01*
X286901Y6523D01*
X286481Y5996D01*
X286004Y5519D01*
X285478Y5099D01*
X284907Y4740D01*
X284300Y4448D01*
X283664Y4225D01*
X283007Y4075D01*
X282337Y4000D01*
X281663Y4000D01*
X280993Y4075D01*
X280336Y4225D01*
X279700Y4448D01*
X279093Y4740D01*
X278523Y5099D01*
X277996Y5519D01*
X277519Y5996D01*
X277099Y6523D01*
X276740Y7093D01*
X276448Y7700D01*
X276225Y8336D01*
X276075Y8993D01*
X276000Y9663D01*
X276000Y10337D01*
X276075Y11007D01*
X276225Y11664D01*
X276448Y12300D01*
X276740Y12907D01*
X277099Y13478D01*
X277519Y14004D01*
X277996Y14481D01*
X278523Y14901D01*
X279093Y15260D01*
X279700Y15552D01*
X280336Y15775D01*
X280993Y15925D01*
X281663Y16000D01*
X282337Y16000D01*
X282337Y41000D02*
X283007Y40925D01*
X283664Y40775D01*
X284300Y40552D01*
X284907Y40260D01*
X285478Y39901D01*
X286004Y39481D01*
X286481Y39004D01*
X286901Y38478D01*
X287260Y37907D01*
X287552Y37300D01*
X287775Y36664D01*
X287925Y36007D01*
X288000Y35337D01*
X288000Y34663D01*
X287925Y33993D01*
X287775Y33336D01*
X287552Y32700D01*
X287260Y32093D01*
X286901Y31523D01*
X286481Y30996D01*
X286004Y30519D01*
X285478Y30099D01*
X284907Y29740D01*
X284300Y29448D01*
X283664Y29225D01*
X283007Y29075D01*
X282337Y29000D01*
X281663Y29000D01*
X280993Y29075D01*
X280336Y29225D01*
X279700Y29448D01*
X279093Y29740D01*
X278523Y30099D01*
X277996Y30519D01*
X277519Y30996D01*
X277099Y31523D01*
X276740Y32093D01*
X276448Y32700D01*
X276225Y33336D01*
X276075Y33993D01*
X276000Y34663D01*
X276000Y35337D01*
X276075Y36007D01*
X276225Y36664D01*
X276448Y37300D01*
X276740Y37907D01*
X277099Y38478D01*
X277519Y39004D01*
X277996Y39481D01*
X278523Y39901D01*
X279093Y40260D01*
X279700Y40552D01*
X280336Y40775D01*
X280993Y40925D01*
X281663Y41000D01*
X282337Y41000D01*
X232337Y91000D02*
X233007Y90925D01*
X233664Y90775D01*
X234300Y90552D01*
X234907Y90260D01*
X235478Y89901D01*
X236004Y89481D01*
X236481Y89004D01*
X236901Y88478D01*
X237260Y87907D01*
X237552Y87300D01*
X237775Y86664D01*
X237925Y86007D01*
X238000Y85337D01*
X238000Y84663D01*
X237925Y83993D01*
X237775Y83336D01*
X237552Y82700D01*
X237260Y82093D01*
X236901Y81523D01*
X236481Y80996D01*
X236004Y80519D01*
X235478Y80099D01*
X234907Y79740D01*
X234300Y79448D01*
X233664Y79225D01*
X233007Y79075D01*
X232337Y79000D01*
X231663Y79000D01*
X230993Y79075D01*
X230336Y79225D01*
X229700Y79448D01*
X229093Y79740D01*
X228523Y80099D01*
X227996Y80519D01*
X227519Y80996D01*
X227099Y81523D01*
X226740Y82093D01*
X226448Y82700D01*
X226225Y83336D01*
X226075Y83993D01*
X226000Y84663D01*
X226000Y85337D01*
X226075Y86007D01*
X226225Y86664D01*
X226448Y87300D01*
X226740Y87907D01*
X227099Y88478D01*
X227519Y89004D01*
X227996Y89481D01*
X228523Y89901D01*
X229093Y90260D01*
X229700Y90552D01*
X230336Y90775D01*
X230993Y90925D01*
X231663Y91000D01*
X232337Y91000D01*
M02*
