G04 EAGLE Gerber RS-274X export*
G75*
%MOMM*%
%FSLAX34Y34*%
%LPD*%
%INSilkscreen Top*%
%IPPOS*%
%AMOC8*
5,1,8,0,0,1.08239X$1,22.5*%
G01*
%ADD10C,0.304800*%
%ADD11C,0.076200*%
%ADD12C,0.127000*%
%ADD13C,0.152400*%
%ADD14C,0.203200*%
%ADD15C,0.400000*%

G36*
X225370Y620605D02*
X225370Y620605D01*
X225372Y620607D01*
X225373Y620606D01*
X226044Y620841D01*
X226045Y620842D01*
X226046Y620842D01*
X226648Y621220D01*
X226649Y621222D01*
X226651Y621222D01*
X227153Y621724D01*
X227153Y621726D01*
X227155Y621727D01*
X227533Y622329D01*
X227533Y622330D01*
X227534Y622331D01*
X227769Y623002D01*
X227769Y623004D01*
X227770Y623005D01*
X227849Y623711D01*
X227849Y623712D01*
X227848Y623713D01*
X227849Y623714D01*
X227770Y624420D01*
X227768Y624422D01*
X227769Y624423D01*
X227534Y625094D01*
X227533Y625095D01*
X227533Y625096D01*
X227155Y625698D01*
X227153Y625699D01*
X227153Y625701D01*
X226651Y626203D01*
X226649Y626203D01*
X226648Y626205D01*
X226046Y626583D01*
X226045Y626583D01*
X226044Y626584D01*
X225373Y626819D01*
X225371Y626819D01*
X225370Y626820D01*
X224664Y626899D01*
X224662Y626898D01*
X224661Y626899D01*
X223955Y626820D01*
X223953Y626818D01*
X223952Y626819D01*
X223281Y626584D01*
X223280Y626583D01*
X223279Y626583D01*
X222677Y626205D01*
X222676Y626203D01*
X222674Y626203D01*
X222172Y625701D01*
X222172Y625699D01*
X222170Y625698D01*
X221792Y625096D01*
X221792Y625095D01*
X221791Y625094D01*
X221556Y624423D01*
X221557Y624421D01*
X221555Y624420D01*
X221476Y623714D01*
X221477Y623712D01*
X221476Y623711D01*
X221555Y623005D01*
X221557Y623003D01*
X221556Y623002D01*
X221791Y622331D01*
X221792Y622330D01*
X221792Y622329D01*
X222170Y621727D01*
X222172Y621726D01*
X222172Y621724D01*
X222674Y621222D01*
X222676Y621222D01*
X222677Y621220D01*
X223279Y620842D01*
X223280Y620842D01*
X223281Y620841D01*
X223952Y620606D01*
X223954Y620607D01*
X223955Y620605D01*
X224661Y620526D01*
X224663Y620527D01*
X224664Y620526D01*
X225370Y620605D01*
G37*
D10*
X30000Y130000D02*
X150000Y130000D01*
X150000Y250000D01*
X30000Y250000D01*
X30000Y130000D01*
D11*
X744381Y681610D02*
X744381Y687753D01*
X744381Y681610D02*
X745610Y680381D01*
X748067Y680381D01*
X749296Y681610D01*
X749296Y687753D01*
X751865Y680381D02*
X756780Y680381D01*
X751865Y680381D02*
X756780Y685296D01*
X756780Y686525D01*
X755551Y687753D01*
X753094Y687753D01*
X751865Y686525D01*
D12*
X36442Y270973D02*
X33858Y268389D01*
X33858Y263220D01*
X36442Y260635D01*
X46780Y260635D01*
X49365Y263220D01*
X49365Y268389D01*
X46780Y270973D01*
X33858Y278656D02*
X33858Y283825D01*
X33858Y278656D02*
X36442Y276071D01*
X46780Y276071D01*
X49365Y278656D01*
X49365Y283825D01*
X46780Y286409D01*
X36442Y286409D01*
X33858Y283825D01*
X33858Y291507D02*
X49365Y291507D01*
X39027Y296676D02*
X33858Y291507D01*
X39027Y296676D02*
X33858Y301845D01*
X49365Y301845D01*
X49365Y306943D02*
X49365Y312112D01*
X49365Y309528D02*
X33858Y309528D01*
X33858Y312112D02*
X33858Y306943D01*
X33858Y317234D02*
X49365Y317234D01*
X49365Y327572D02*
X33858Y317234D01*
X33858Y327572D02*
X49365Y327572D01*
X33858Y332670D02*
X33858Y343008D01*
X33858Y332670D02*
X49365Y332670D01*
X49365Y343008D01*
X41611Y337839D02*
X41611Y332670D01*
X33858Y348106D02*
X49365Y348106D01*
X33858Y348106D02*
X33858Y355860D01*
X36442Y358444D01*
X41611Y358444D01*
X44196Y355860D01*
X44196Y348106D01*
X44196Y353275D02*
X49365Y358444D01*
X59027Y260635D02*
X69365Y260635D01*
X59027Y260635D02*
X53858Y265804D01*
X59027Y270973D01*
X69365Y270973D01*
X61611Y270973D02*
X61611Y260635D01*
X53858Y276071D02*
X69365Y276071D01*
X59027Y281240D02*
X53858Y276071D01*
X59027Y281240D02*
X53858Y286409D01*
X69365Y286409D01*
X69365Y291507D02*
X53858Y291507D01*
X53858Y299261D01*
X56442Y301845D01*
X61611Y301845D01*
X64196Y299261D01*
X64196Y291507D01*
X53858Y306943D02*
X53858Y317281D01*
X53858Y306943D02*
X69365Y306943D01*
X69365Y317281D01*
X61611Y312112D02*
X61611Y306943D01*
X53858Y322379D02*
X69365Y322379D01*
X53858Y322379D02*
X53858Y330133D01*
X56442Y332717D01*
X61611Y332717D01*
X64196Y330133D01*
X64196Y322379D01*
X64196Y327548D02*
X69365Y332717D01*
X89365Y265804D02*
X79027Y260635D01*
X79027Y270973D02*
X89365Y265804D01*
X79027Y276071D02*
X73858Y281240D01*
X89365Y281240D01*
X89365Y276071D02*
X89365Y286409D01*
X89365Y291507D02*
X86780Y291507D01*
X86780Y294092D01*
X89365Y294092D01*
X89365Y291507D01*
X86780Y299225D02*
X76442Y299225D01*
X73858Y301810D01*
X73858Y306979D01*
X76442Y309563D01*
X86780Y309563D01*
X89365Y306979D01*
X89365Y301810D01*
X86780Y299225D01*
X76442Y309563D01*
D13*
X909338Y511478D02*
X915948Y511478D01*
X909338Y511478D02*
X909338Y514783D01*
X910440Y515884D01*
X912643Y515884D01*
X913745Y514783D01*
X913745Y511478D01*
X913745Y513681D02*
X915948Y515884D01*
X911542Y518962D02*
X909338Y521165D01*
X915948Y521165D01*
X915948Y518962D02*
X915948Y523368D01*
X916148Y471878D02*
X909538Y471878D01*
X909538Y475183D01*
X910640Y476284D01*
X912843Y476284D01*
X913945Y475183D01*
X913945Y471878D01*
X913945Y474081D02*
X916148Y476284D01*
X916148Y479362D02*
X916148Y483768D01*
X916148Y479362D02*
X911742Y483768D01*
X910640Y483768D01*
X909538Y482667D01*
X909538Y480464D01*
X910640Y479362D01*
D12*
X708000Y519600D02*
X708000Y359600D01*
X878000Y359600D01*
X878000Y519600D01*
X708000Y519600D01*
X736200Y735500D02*
X740200Y735500D01*
X740200Y731500D01*
X740200Y689500D02*
X740200Y685500D01*
X736200Y685500D01*
X694200Y685500D02*
X690200Y685500D01*
X690200Y689500D01*
X690200Y731500D02*
X694200Y735500D01*
X687362Y737679D02*
X687364Y737742D01*
X687370Y737804D01*
X687380Y737866D01*
X687393Y737928D01*
X687411Y737988D01*
X687432Y738047D01*
X687457Y738105D01*
X687486Y738161D01*
X687518Y738215D01*
X687553Y738267D01*
X687591Y738316D01*
X687633Y738364D01*
X687677Y738408D01*
X687725Y738450D01*
X687774Y738488D01*
X687826Y738523D01*
X687880Y738555D01*
X687936Y738584D01*
X687994Y738609D01*
X688053Y738630D01*
X688113Y738648D01*
X688175Y738661D01*
X688237Y738671D01*
X688299Y738677D01*
X688362Y738679D01*
X688425Y738677D01*
X688487Y738671D01*
X688549Y738661D01*
X688611Y738648D01*
X688671Y738630D01*
X688730Y738609D01*
X688788Y738584D01*
X688844Y738555D01*
X688898Y738523D01*
X688950Y738488D01*
X688999Y738450D01*
X689047Y738408D01*
X689091Y738364D01*
X689133Y738316D01*
X689171Y738267D01*
X689206Y738215D01*
X689238Y738161D01*
X689267Y738105D01*
X689292Y738047D01*
X689313Y737988D01*
X689331Y737928D01*
X689344Y737866D01*
X689354Y737804D01*
X689360Y737742D01*
X689362Y737679D01*
X689360Y737616D01*
X689354Y737554D01*
X689344Y737492D01*
X689331Y737430D01*
X689313Y737370D01*
X689292Y737311D01*
X689267Y737253D01*
X689238Y737197D01*
X689206Y737143D01*
X689171Y737091D01*
X689133Y737042D01*
X689091Y736994D01*
X689047Y736950D01*
X688999Y736908D01*
X688950Y736870D01*
X688898Y736835D01*
X688844Y736803D01*
X688788Y736774D01*
X688730Y736749D01*
X688671Y736728D01*
X688611Y736710D01*
X688549Y736697D01*
X688487Y736687D01*
X688425Y736681D01*
X688362Y736679D01*
X688299Y736681D01*
X688237Y736687D01*
X688175Y736697D01*
X688113Y736710D01*
X688053Y736728D01*
X687994Y736749D01*
X687936Y736774D01*
X687880Y736803D01*
X687826Y736835D01*
X687774Y736870D01*
X687725Y736908D01*
X687677Y736950D01*
X687633Y736994D01*
X687591Y737042D01*
X687553Y737091D01*
X687518Y737143D01*
X687486Y737197D01*
X687457Y737253D01*
X687432Y737311D01*
X687411Y737370D01*
X687393Y737430D01*
X687380Y737492D01*
X687370Y737554D01*
X687364Y737616D01*
X687362Y737679D01*
D14*
X656400Y714900D02*
X656400Y702900D01*
X642400Y682900D02*
X636400Y682900D01*
X622400Y702900D02*
X622400Y714900D01*
X636400Y734900D02*
X642400Y734900D01*
D13*
X661706Y702178D02*
X662808Y702178D01*
X665011Y704381D01*
X662808Y706584D01*
X661706Y706584D01*
X665011Y704381D02*
X668316Y704381D01*
X663910Y709662D02*
X661706Y711865D01*
X668316Y711865D01*
X668316Y709662D02*
X668316Y714068D01*
X596356Y725878D02*
X589746Y725878D01*
X589746Y729183D01*
X590848Y730284D01*
X593051Y730284D01*
X594153Y729183D01*
X594153Y725878D01*
X594153Y728081D02*
X596356Y730284D01*
X590848Y733362D02*
X589746Y734464D01*
X589746Y736667D01*
X590848Y737768D01*
X591950Y737768D01*
X593051Y736667D01*
X593051Y735565D01*
X593051Y736667D02*
X594153Y737768D01*
X595254Y737768D01*
X596356Y736667D01*
X596356Y734464D01*
X595254Y733362D01*
X633683Y770354D02*
X634784Y769252D01*
X633683Y770354D02*
X631479Y770354D01*
X630378Y769252D01*
X630378Y764846D01*
X631479Y763744D01*
X633683Y763744D01*
X634784Y764846D01*
X637862Y768150D02*
X640065Y770354D01*
X640065Y763744D01*
X637862Y763744D02*
X642268Y763744D01*
X590648Y693784D02*
X589546Y692683D01*
X589546Y690479D01*
X590648Y689378D01*
X595054Y689378D01*
X596156Y690479D01*
X596156Y692683D01*
X595054Y693784D01*
X596156Y696862D02*
X596156Y701268D01*
X596156Y696862D02*
X591750Y701268D01*
X590648Y701268D01*
X589546Y700167D01*
X589546Y697964D01*
X590648Y696862D01*
X755278Y742444D02*
X755278Y749054D01*
X758583Y749054D01*
X759684Y747952D01*
X759684Y745749D01*
X758583Y744647D01*
X755278Y744647D01*
X757481Y744647D02*
X759684Y742444D01*
X766067Y742444D02*
X766067Y749054D01*
X762762Y745749D01*
X767168Y745749D01*
X728084Y747860D02*
X726983Y748962D01*
X724779Y748962D01*
X723678Y747860D01*
X723678Y743454D01*
X724779Y742352D01*
X726983Y742352D01*
X728084Y743454D01*
X731162Y747860D02*
X732264Y748962D01*
X734467Y748962D01*
X735568Y747860D01*
X735568Y746758D01*
X734467Y745657D01*
X733365Y745657D01*
X734467Y745657D02*
X735568Y744555D01*
X735568Y743454D01*
X734467Y742352D01*
X732264Y742352D01*
X731162Y743454D01*
D14*
X756900Y849700D02*
X756900Y867700D01*
X670500Y867700D02*
X670500Y849700D01*
D11*
X770554Y889197D02*
X771783Y890426D01*
X771783Y891654D01*
X770554Y892883D01*
X764411Y892883D01*
X764411Y891654D02*
X764411Y894112D01*
X766868Y896681D02*
X764411Y899138D01*
X771783Y899138D01*
X771783Y896681D02*
X771783Y901596D01*
D13*
X674878Y776654D02*
X674878Y770044D01*
X674878Y776654D02*
X678183Y776654D01*
X679284Y775552D01*
X679284Y773349D01*
X678183Y772247D01*
X674878Y772247D01*
X677081Y772247D02*
X679284Y770044D01*
X682362Y776654D02*
X686768Y776654D01*
X682362Y776654D02*
X682362Y773349D01*
X684565Y774450D01*
X685667Y774450D01*
X686768Y773349D01*
X686768Y771146D01*
X685667Y770044D01*
X683464Y770044D01*
X682362Y771146D01*
X691878Y769944D02*
X691878Y776554D01*
X695183Y776554D01*
X696284Y775452D01*
X696284Y773249D01*
X695183Y772147D01*
X691878Y772147D01*
X694081Y772147D02*
X696284Y769944D01*
X701565Y775452D02*
X703768Y776554D01*
X701565Y775452D02*
X699362Y773249D01*
X699362Y771046D01*
X700464Y769944D01*
X702667Y769944D01*
X703768Y771046D01*
X703768Y772147D01*
X702667Y773249D01*
X699362Y773249D01*
X739278Y776152D02*
X739278Y769542D01*
X739278Y776152D02*
X743684Y776152D01*
X741481Y772847D02*
X739278Y772847D01*
X746762Y773948D02*
X748965Y776152D01*
X748965Y769542D01*
X746762Y769542D02*
X751168Y769542D01*
X656678Y770244D02*
X656678Y776854D01*
X659983Y776854D01*
X661084Y775752D01*
X661084Y773549D01*
X659983Y772447D01*
X656678Y772447D01*
X658881Y772447D02*
X661084Y770244D01*
X664162Y771346D02*
X665264Y770244D01*
X667467Y770244D01*
X668568Y771346D01*
X668568Y775752D01*
X667467Y776854D01*
X665264Y776854D01*
X664162Y775752D01*
X664162Y774650D01*
X665264Y773549D01*
X668568Y773549D01*
D14*
X812250Y718250D02*
X812250Y705550D01*
X885000Y762100D02*
X885000Y560100D01*
X795000Y560100D02*
X795000Y639100D01*
X795000Y683100D01*
X795000Y762100D01*
X884000Y762100D01*
X885000Y560100D02*
X795000Y560100D01*
X795000Y683100D02*
X810000Y683100D01*
X810000Y639100D01*
X795000Y639100D01*
D13*
X897626Y564852D02*
X898728Y565954D01*
X898728Y567055D01*
X897626Y568157D01*
X892118Y568157D01*
X892118Y569258D02*
X892118Y567055D01*
X898728Y572336D02*
X898728Y576743D01*
X894322Y576743D02*
X898728Y572336D01*
X894322Y576743D02*
X893220Y576743D01*
X892118Y575641D01*
X892118Y573438D01*
X893220Y572336D01*
D14*
X281634Y583490D02*
X281634Y616510D01*
X347166Y616510D01*
X347166Y583490D01*
X281634Y583490D01*
D11*
X282460Y561068D02*
X288603Y561068D01*
X289832Y562296D01*
X289832Y564754D01*
X288603Y565983D01*
X282460Y565983D01*
X283688Y568552D02*
X282460Y569781D01*
X282460Y572238D01*
X283688Y573467D01*
X284917Y573467D01*
X286146Y572238D01*
X286146Y571009D01*
X286146Y572238D02*
X287375Y573467D01*
X288603Y573467D01*
X289832Y572238D01*
X289832Y569781D01*
X288603Y568552D01*
D13*
X672938Y464983D02*
X674040Y466084D01*
X672938Y464983D02*
X672938Y462779D01*
X674040Y461678D01*
X678446Y461678D01*
X679548Y462779D01*
X679548Y464983D01*
X678446Y466084D01*
X679548Y472467D02*
X672938Y472467D01*
X676243Y469162D01*
X676243Y473568D01*
X673840Y414684D02*
X672738Y413583D01*
X672738Y411379D01*
X673840Y410278D01*
X678246Y410278D01*
X679348Y411379D01*
X679348Y413583D01*
X678246Y414684D01*
X672738Y417762D02*
X672738Y422168D01*
X672738Y417762D02*
X676043Y417762D01*
X674942Y419965D01*
X674942Y421067D01*
X676043Y422168D01*
X678246Y422168D01*
X679348Y421067D01*
X679348Y418864D01*
X678246Y417762D01*
X382748Y619684D02*
X381646Y618583D01*
X381646Y616379D01*
X382748Y615278D01*
X387154Y615278D01*
X388256Y616379D01*
X388256Y618583D01*
X387154Y619684D01*
X382748Y624965D02*
X381646Y627168D01*
X382748Y624965D02*
X384951Y622762D01*
X387154Y622762D01*
X388256Y623864D01*
X388256Y626067D01*
X387154Y627168D01*
X386053Y627168D01*
X384951Y626067D01*
X384951Y622762D01*
D14*
X424700Y682300D02*
X447700Y682300D01*
X424700Y682300D02*
X424700Y730300D01*
X441700Y747300D01*
X447700Y747300D01*
X466700Y747300D02*
X472700Y747300D01*
X489700Y730300D01*
X489700Y682300D01*
X466700Y682300D01*
X447700Y685300D02*
X446982Y685541D01*
X446269Y685800D01*
X445564Y686076D01*
X444865Y686369D01*
X444173Y686679D01*
X443490Y687006D01*
X442814Y687349D01*
X442147Y687709D01*
X441489Y688085D01*
X440841Y688477D01*
X440202Y688885D01*
X439574Y689308D01*
X438956Y689747D01*
X438349Y690200D01*
X437753Y690669D01*
X437169Y691151D01*
X436597Y691648D01*
X436037Y692159D01*
X435490Y692683D01*
X434955Y693220D01*
X434434Y693771D01*
X433927Y694334D01*
X433434Y694909D01*
X432954Y695496D01*
X432490Y696094D01*
X432040Y696704D01*
X431605Y697325D01*
X431185Y697956D01*
X430781Y698597D01*
X430393Y699247D01*
X430021Y699908D01*
X429665Y700576D01*
X429325Y701254D01*
X429002Y701940D01*
X428696Y702633D01*
X428407Y703333D01*
X428136Y704041D01*
X427881Y704754D01*
X427644Y705474D01*
X427425Y706200D01*
X427224Y706930D01*
X427040Y707665D01*
X426875Y708405D01*
X426728Y709148D01*
X426599Y709895D01*
X426488Y710645D01*
X426395Y711397D01*
X426321Y712151D01*
X426266Y712907D01*
X426229Y713664D01*
X426210Y714421D01*
X426210Y715179D01*
X426229Y715936D01*
X426266Y716693D01*
X426321Y717449D01*
X426395Y718203D01*
X426488Y718955D01*
X426599Y719705D01*
X426728Y720452D01*
X426875Y721195D01*
X427040Y721935D01*
X427224Y722670D01*
X427425Y723400D01*
X427644Y724126D01*
X427881Y724846D01*
X428136Y725559D01*
X428407Y726267D01*
X428696Y726967D01*
X429002Y727660D01*
X429325Y728346D01*
X429665Y729024D01*
X430021Y729692D01*
X430393Y730353D01*
X430781Y731003D01*
X431185Y731644D01*
X431605Y732275D01*
X432040Y732896D01*
X432490Y733506D01*
X432954Y734104D01*
X433434Y734691D01*
X433927Y735266D01*
X434434Y735829D01*
X434955Y736380D01*
X435490Y736917D01*
X436037Y737441D01*
X436597Y737952D01*
X437169Y738449D01*
X437753Y738931D01*
X438349Y739400D01*
X438956Y739853D01*
X439574Y740292D01*
X440202Y740715D01*
X440841Y741123D01*
X441489Y741515D01*
X442147Y741891D01*
X442814Y742251D01*
X443490Y742594D01*
X444173Y742921D01*
X444865Y743231D01*
X445564Y743524D01*
X446269Y743800D01*
X446982Y744059D01*
X447700Y744300D01*
X466700Y744300D02*
X467418Y744059D01*
X468131Y743800D01*
X468836Y743524D01*
X469535Y743231D01*
X470227Y742921D01*
X470910Y742594D01*
X471586Y742251D01*
X472253Y741891D01*
X472911Y741515D01*
X473559Y741123D01*
X474198Y740715D01*
X474826Y740292D01*
X475444Y739853D01*
X476051Y739400D01*
X476647Y738931D01*
X477231Y738449D01*
X477803Y737952D01*
X478363Y737441D01*
X478910Y736917D01*
X479445Y736380D01*
X479966Y735829D01*
X480473Y735266D01*
X480966Y734691D01*
X481446Y734104D01*
X481910Y733506D01*
X482360Y732896D01*
X482795Y732275D01*
X483215Y731644D01*
X483619Y731003D01*
X484007Y730353D01*
X484379Y729692D01*
X484735Y729024D01*
X485075Y728346D01*
X485398Y727660D01*
X485704Y726967D01*
X485993Y726267D01*
X486264Y725559D01*
X486519Y724846D01*
X486756Y724126D01*
X486975Y723400D01*
X487176Y722670D01*
X487360Y721935D01*
X487525Y721195D01*
X487672Y720452D01*
X487801Y719705D01*
X487912Y718955D01*
X488005Y718203D01*
X488079Y717449D01*
X488134Y716693D01*
X488171Y715936D01*
X488190Y715179D01*
X488190Y714421D01*
X488171Y713664D01*
X488134Y712907D01*
X488079Y712151D01*
X488005Y711397D01*
X487912Y710645D01*
X487801Y709895D01*
X487672Y709148D01*
X487525Y708405D01*
X487360Y707665D01*
X487176Y706930D01*
X486975Y706200D01*
X486756Y705474D01*
X486519Y704754D01*
X486264Y704041D01*
X485993Y703333D01*
X485704Y702633D01*
X485398Y701940D01*
X485075Y701254D01*
X484735Y700576D01*
X484379Y699908D01*
X484007Y699247D01*
X483619Y698597D01*
X483215Y697956D01*
X482795Y697325D01*
X482360Y696704D01*
X481910Y696094D01*
X481446Y695496D01*
X480966Y694909D01*
X480473Y694334D01*
X479966Y693771D01*
X479445Y693220D01*
X478910Y692683D01*
X478363Y692159D01*
X477803Y691648D01*
X477231Y691151D01*
X476647Y690669D01*
X476051Y690200D01*
X475444Y689747D01*
X474826Y689308D01*
X474198Y688885D01*
X473559Y688477D01*
X472911Y688085D01*
X472253Y687709D01*
X471586Y687349D01*
X470910Y687006D01*
X470227Y686679D01*
X469535Y686369D01*
X468836Y686076D01*
X468131Y685800D01*
X467418Y685541D01*
X466700Y685300D01*
D13*
X414640Y708742D02*
X413538Y707641D01*
X413538Y705437D01*
X414640Y704336D01*
X419046Y704336D01*
X420148Y705437D01*
X420148Y707641D01*
X419046Y708742D01*
X415742Y711820D02*
X413538Y714023D01*
X420148Y714023D01*
X420148Y711820D02*
X420148Y716226D01*
X420148Y719304D02*
X420148Y723711D01*
X415742Y723711D02*
X420148Y719304D01*
X415742Y723711D02*
X414640Y723711D01*
X413538Y722609D01*
X413538Y720406D01*
X414640Y719304D01*
D14*
X658000Y110000D02*
X778000Y110000D01*
X658000Y70000D02*
X658000Y0D01*
X658000Y100000D02*
X658000Y110000D01*
X658000Y0D02*
X778000Y0D01*
X778000Y70000D01*
X778000Y100000D02*
X778000Y110000D01*
D12*
X697045Y23740D02*
X696240Y22935D01*
X697045Y23740D02*
X697045Y24545D01*
X696240Y25350D01*
X692215Y25350D01*
X692215Y24545D02*
X692215Y26155D01*
X693020Y28548D02*
X692215Y29353D01*
X692215Y30963D01*
X693020Y31768D01*
X693825Y31768D01*
X694630Y30963D01*
X694630Y30158D01*
X694630Y30963D02*
X695435Y31768D01*
X696240Y31768D01*
X697045Y30963D01*
X697045Y29353D01*
X696240Y28548D01*
D14*
X650500Y167750D02*
X622500Y167750D01*
X622500Y139250D02*
X650500Y139250D01*
D15*
X654500Y138500D03*
D13*
X629778Y133694D02*
X629778Y128186D01*
X630879Y127084D01*
X633083Y127084D01*
X634184Y128186D01*
X634184Y133694D01*
X637262Y133694D02*
X641668Y133694D01*
X637262Y133694D02*
X637262Y130389D01*
X639465Y131490D01*
X640567Y131490D01*
X641668Y130389D01*
X641668Y128186D01*
X640567Y127084D01*
X638364Y127084D01*
X637262Y128186D01*
D14*
X616000Y110000D02*
X496000Y110000D01*
X496000Y70000D02*
X496000Y0D01*
X496000Y100000D02*
X496000Y110000D01*
X496000Y0D02*
X616000Y0D01*
X616000Y70000D01*
X616000Y100000D02*
X616000Y110000D01*
D12*
X535045Y23740D02*
X534240Y22935D01*
X535045Y23740D02*
X535045Y24545D01*
X534240Y25350D01*
X530215Y25350D01*
X530215Y24545D02*
X530215Y26155D01*
X530215Y30963D02*
X535045Y30963D01*
X532630Y28548D02*
X530215Y30963D01*
X532630Y31768D02*
X532630Y28548D01*
D14*
X602000Y208000D02*
X608000Y208000D01*
X608000Y216000D01*
X586000Y208000D02*
X580000Y208000D01*
X580000Y216000D01*
D13*
X612368Y208278D02*
X616774Y208278D01*
X612368Y208278D02*
X611266Y209379D01*
X611266Y211583D01*
X612368Y212684D01*
X616774Y212684D01*
X617876Y211583D01*
X617876Y209379D01*
X616774Y208278D01*
X615673Y210481D02*
X617876Y212684D01*
X617876Y215762D02*
X617876Y220168D01*
X617876Y215762D02*
X613470Y220168D01*
X612368Y220168D01*
X611266Y219067D01*
X611266Y216864D01*
X612368Y215762D01*
X581536Y253244D02*
X581536Y259854D01*
X584841Y259854D01*
X585942Y258752D01*
X585942Y256549D01*
X584841Y255447D01*
X581536Y255447D01*
X583739Y255447D02*
X585942Y253244D01*
X589020Y257650D02*
X591223Y259854D01*
X591223Y253244D01*
X589020Y253244D02*
X593426Y253244D01*
X596504Y253244D02*
X600910Y253244D01*
X596504Y253244D02*
X600910Y257650D01*
X600910Y258752D01*
X599809Y259854D01*
X597606Y259854D01*
X596504Y258752D01*
X577256Y169536D02*
X570646Y169536D01*
X570646Y172841D01*
X571748Y173942D01*
X573951Y173942D01*
X575053Y172841D01*
X575053Y169536D01*
X575053Y171739D02*
X577256Y173942D01*
X572850Y177020D02*
X570646Y179223D01*
X577256Y179223D01*
X577256Y177020D02*
X577256Y181426D01*
X571748Y184504D02*
X570646Y185606D01*
X570646Y187809D01*
X571748Y188910D01*
X572850Y188910D01*
X573951Y187809D01*
X573951Y186707D01*
X573951Y187809D02*
X575053Y188910D01*
X576154Y188910D01*
X577256Y187809D01*
X577256Y185606D01*
X576154Y184504D01*
D14*
X644500Y207500D02*
X650500Y207500D01*
X650500Y215500D01*
X628500Y207500D02*
X622500Y207500D01*
X622500Y215500D01*
D13*
X654868Y207778D02*
X659274Y207778D01*
X654868Y207778D02*
X653766Y208879D01*
X653766Y211083D01*
X654868Y212184D01*
X659274Y212184D01*
X660376Y211083D01*
X660376Y208879D01*
X659274Y207778D01*
X658173Y209981D02*
X660376Y212184D01*
X655970Y215262D02*
X653766Y217465D01*
X660376Y217465D01*
X660376Y215262D02*
X660376Y219668D01*
X590256Y170036D02*
X583646Y170036D01*
X583646Y173341D01*
X584748Y174442D01*
X586951Y174442D01*
X588053Y173341D01*
X588053Y170036D01*
X588053Y172239D02*
X590256Y174442D01*
X585850Y177520D02*
X583646Y179723D01*
X590256Y179723D01*
X590256Y177520D02*
X590256Y181926D01*
X590256Y188309D02*
X583646Y188309D01*
X586951Y185004D01*
X586951Y189410D01*
X626536Y253744D02*
X626536Y260354D01*
X629841Y260354D01*
X630942Y259252D01*
X630942Y257049D01*
X629841Y255947D01*
X626536Y255947D01*
X628739Y255947D02*
X630942Y253744D01*
X634020Y258150D02*
X636223Y260354D01*
X636223Y253744D01*
X634020Y253744D02*
X638426Y253744D01*
X641504Y260354D02*
X645910Y260354D01*
X641504Y260354D02*
X641504Y257049D01*
X643707Y258150D01*
X644809Y258150D01*
X645910Y257049D01*
X645910Y254846D01*
X644809Y253744D01*
X642606Y253744D01*
X641504Y254846D01*
D14*
X454000Y110000D02*
X334000Y110000D01*
X334000Y70000D02*
X334000Y0D01*
X334000Y100000D02*
X334000Y110000D01*
X334000Y0D02*
X454000Y0D01*
X454000Y70000D01*
X454000Y100000D02*
X454000Y110000D01*
D12*
X373045Y23740D02*
X372240Y22935D01*
X373045Y23740D02*
X373045Y24545D01*
X372240Y25350D01*
X368215Y25350D01*
X368215Y24545D02*
X368215Y26155D01*
X368215Y28548D02*
X368215Y31768D01*
X368215Y28548D02*
X370630Y28548D01*
X369825Y30158D01*
X369825Y30963D01*
X370630Y31768D01*
X372240Y31768D01*
X373045Y30963D01*
X373045Y29353D01*
X372240Y28548D01*
D14*
X327300Y168350D02*
X299300Y168350D01*
X299300Y139850D02*
X327300Y139850D01*
D15*
X331300Y139100D03*
D13*
X306578Y134294D02*
X306578Y128786D01*
X307679Y127684D01*
X309883Y127684D01*
X310984Y128786D01*
X310984Y134294D01*
X316265Y133192D02*
X318468Y134294D01*
X316265Y133192D02*
X314062Y130989D01*
X314062Y128786D01*
X315164Y127684D01*
X317367Y127684D01*
X318468Y128786D01*
X318468Y129887D01*
X317367Y130989D01*
X314062Y130989D01*
D14*
X292000Y110000D02*
X172000Y110000D01*
X172000Y70000D02*
X172000Y0D01*
X172000Y100000D02*
X172000Y110000D01*
X172000Y0D02*
X292000Y0D01*
X292000Y70000D01*
X292000Y100000D02*
X292000Y110000D01*
D12*
X211045Y23740D02*
X210240Y22935D01*
X211045Y23740D02*
X211045Y24545D01*
X210240Y25350D01*
X206215Y25350D01*
X206215Y24545D02*
X206215Y26155D01*
X207020Y30158D02*
X206215Y31768D01*
X207020Y30158D02*
X208630Y28548D01*
X210240Y28548D01*
X211045Y29353D01*
X211045Y30963D01*
X210240Y31768D01*
X209435Y31768D01*
X208630Y30963D01*
X208630Y28548D01*
D14*
X278500Y208500D02*
X284500Y208500D01*
X284500Y216500D01*
X262500Y208500D02*
X256500Y208500D01*
X256500Y216500D01*
D13*
X247274Y207778D02*
X242868Y207778D01*
X241766Y208879D01*
X241766Y211083D01*
X242868Y212184D01*
X247274Y212184D01*
X248376Y211083D01*
X248376Y208879D01*
X247274Y207778D01*
X246173Y209981D02*
X248376Y212184D01*
X242868Y215262D02*
X241766Y216364D01*
X241766Y218567D01*
X242868Y219668D01*
X243970Y219668D01*
X245071Y218567D01*
X245071Y217465D01*
X245071Y218567D02*
X246173Y219668D01*
X247274Y219668D01*
X248376Y218567D01*
X248376Y216364D01*
X247274Y215262D01*
X259536Y253244D02*
X259536Y259854D01*
X262841Y259854D01*
X263942Y258752D01*
X263942Y256549D01*
X262841Y255447D01*
X259536Y255447D01*
X261739Y255447D02*
X263942Y253244D01*
X267020Y257650D02*
X269223Y259854D01*
X269223Y253244D01*
X267020Y253244D02*
X271426Y253244D01*
X276707Y258752D02*
X278910Y259854D01*
X276707Y258752D02*
X274504Y256549D01*
X274504Y254346D01*
X275606Y253244D01*
X277809Y253244D01*
X278910Y254346D01*
X278910Y255447D01*
X277809Y256549D01*
X274504Y256549D01*
X259256Y170036D02*
X252646Y170036D01*
X252646Y173341D01*
X253748Y174442D01*
X255951Y174442D01*
X257053Y173341D01*
X257053Y170036D01*
X257053Y172239D02*
X259256Y174442D01*
X254850Y177520D02*
X252646Y179723D01*
X259256Y179723D01*
X259256Y177520D02*
X259256Y181926D01*
X252646Y185004D02*
X252646Y189410D01*
X253748Y189410D01*
X258154Y185004D01*
X259256Y185004D01*
D14*
X320500Y209000D02*
X326500Y209000D01*
X326500Y217000D01*
X304500Y209000D02*
X298500Y209000D01*
X298500Y217000D01*
D13*
X334368Y209278D02*
X338774Y209278D01*
X334368Y209278D02*
X333266Y210379D01*
X333266Y212583D01*
X334368Y213684D01*
X338774Y213684D01*
X339876Y212583D01*
X339876Y210379D01*
X338774Y209278D01*
X337673Y211481D02*
X339876Y213684D01*
X339876Y220067D02*
X333266Y220067D01*
X336571Y216762D01*
X336571Y221168D01*
X276256Y169536D02*
X269646Y169536D01*
X269646Y172841D01*
X270748Y173942D01*
X272951Y173942D01*
X274053Y172841D01*
X274053Y169536D01*
X274053Y171739D02*
X276256Y173942D01*
X271850Y177020D02*
X269646Y179223D01*
X276256Y179223D01*
X276256Y177020D02*
X276256Y181426D01*
X270748Y184504D02*
X269646Y185606D01*
X269646Y187809D01*
X270748Y188910D01*
X271850Y188910D01*
X272951Y187809D01*
X274053Y188910D01*
X275154Y188910D01*
X276256Y187809D01*
X276256Y185606D01*
X275154Y184504D01*
X274053Y184504D01*
X272951Y185606D01*
X271850Y184504D01*
X270748Y184504D01*
X272951Y185606D02*
X272951Y187809D01*
X302036Y252744D02*
X302036Y259354D01*
X305341Y259354D01*
X306442Y258252D01*
X306442Y256049D01*
X305341Y254947D01*
X302036Y254947D01*
X304239Y254947D02*
X306442Y252744D01*
X309520Y257150D02*
X311723Y259354D01*
X311723Y252744D01*
X309520Y252744D02*
X313926Y252744D01*
X317004Y253846D02*
X318106Y252744D01*
X320309Y252744D01*
X321410Y253846D01*
X321410Y258252D01*
X320309Y259354D01*
X318106Y259354D01*
X317004Y258252D01*
X317004Y257150D01*
X318106Y256049D01*
X321410Y256049D01*
D14*
X816000Y267000D02*
X822000Y267000D01*
X822000Y275000D01*
X800000Y267000D02*
X794000Y267000D01*
X794000Y275000D01*
D13*
X786774Y267278D02*
X782368Y267278D01*
X781266Y268379D01*
X781266Y270583D01*
X782368Y271684D01*
X786774Y271684D01*
X787876Y270583D01*
X787876Y268379D01*
X786774Y267278D01*
X785673Y269481D02*
X787876Y271684D01*
X781266Y274762D02*
X781266Y279168D01*
X781266Y274762D02*
X784571Y274762D01*
X783470Y276965D01*
X783470Y278067D01*
X784571Y279168D01*
X786774Y279168D01*
X787876Y278067D01*
X787876Y275864D01*
X786774Y274762D01*
X797536Y310744D02*
X797536Y317354D01*
X800841Y317354D01*
X801942Y316252D01*
X801942Y314049D01*
X800841Y312947D01*
X797536Y312947D01*
X799739Y312947D02*
X801942Y310744D01*
X805020Y310744D02*
X809426Y310744D01*
X805020Y310744D02*
X809426Y315150D01*
X809426Y316252D01*
X808325Y317354D01*
X806122Y317354D01*
X805020Y316252D01*
X812504Y316252D02*
X812504Y311846D01*
X812504Y316252D02*
X813606Y317354D01*
X815809Y317354D01*
X816910Y316252D01*
X816910Y311846D01*
X815809Y310744D01*
X813606Y310744D01*
X812504Y311846D01*
X816910Y316252D01*
X795348Y225536D02*
X788738Y225536D01*
X788738Y228841D01*
X789840Y229942D01*
X792043Y229942D01*
X793145Y228841D01*
X793145Y225536D01*
X793145Y227739D02*
X795348Y229942D01*
X795348Y233020D02*
X795348Y237426D01*
X795348Y233020D02*
X790942Y237426D01*
X789840Y237426D01*
X788738Y236325D01*
X788738Y234122D01*
X789840Y233020D01*
X790942Y240504D02*
X788738Y242707D01*
X795348Y242707D01*
X795348Y240504D02*
X795348Y244911D01*
D14*
X857100Y266700D02*
X863100Y266700D01*
X863100Y274700D01*
X841100Y266700D02*
X835100Y266700D01*
X835100Y274700D01*
D13*
X869468Y266978D02*
X873874Y266978D01*
X869468Y266978D02*
X868366Y268079D01*
X868366Y270283D01*
X869468Y271384D01*
X873874Y271384D01*
X874976Y270283D01*
X874976Y268079D01*
X873874Y266978D01*
X872773Y269181D02*
X874976Y271384D01*
X869468Y276665D02*
X868366Y278868D01*
X869468Y276665D02*
X871671Y274462D01*
X873874Y274462D01*
X874976Y275564D01*
X874976Y277767D01*
X873874Y278868D01*
X872773Y278868D01*
X871671Y277767D01*
X871671Y274462D01*
X836348Y225536D02*
X829738Y225536D01*
X829738Y228841D01*
X830840Y229942D01*
X833043Y229942D01*
X834145Y228841D01*
X834145Y225536D01*
X834145Y227739D02*
X836348Y229942D01*
X836348Y233020D02*
X836348Y237426D01*
X836348Y233020D02*
X831942Y237426D01*
X830840Y237426D01*
X829738Y236325D01*
X829738Y234122D01*
X830840Y233020D01*
X836348Y240504D02*
X836348Y244911D01*
X831942Y244911D02*
X836348Y240504D01*
X831942Y244911D02*
X830840Y244911D01*
X829738Y243809D01*
X829738Y241606D01*
X830840Y240504D01*
X838536Y310744D02*
X838536Y317354D01*
X841841Y317354D01*
X842942Y316252D01*
X842942Y314049D01*
X841841Y312947D01*
X838536Y312947D01*
X840739Y312947D02*
X842942Y310744D01*
X846020Y310744D02*
X850426Y310744D01*
X846020Y310744D02*
X850426Y315150D01*
X850426Y316252D01*
X849325Y317354D01*
X847122Y317354D01*
X846020Y316252D01*
X853504Y316252D02*
X854606Y317354D01*
X856809Y317354D01*
X857910Y316252D01*
X857910Y315150D01*
X856809Y314049D01*
X855707Y314049D01*
X856809Y314049D02*
X857910Y312947D01*
X857910Y311846D01*
X856809Y310744D01*
X854606Y310744D01*
X853504Y311846D01*
D14*
X260600Y607900D02*
X260600Y613900D01*
X252600Y613900D01*
X260600Y591900D02*
X260600Y585900D01*
X252600Y585900D01*
D13*
X246878Y579680D02*
X246878Y575274D01*
X246878Y579680D02*
X247979Y580782D01*
X250183Y580782D01*
X251284Y579680D01*
X251284Y575274D01*
X250183Y574172D01*
X247979Y574172D01*
X246878Y575274D01*
X249081Y576375D02*
X251284Y574172D01*
X254362Y580782D02*
X258768Y580782D01*
X258768Y579680D01*
X254362Y575274D01*
X254362Y574172D01*
D14*
X217868Y580437D02*
X171132Y580437D01*
X167322Y615553D02*
X167306Y615666D01*
X167295Y615780D01*
X167288Y615894D01*
X167284Y616008D01*
X167285Y616123D01*
X167289Y616237D01*
X167297Y616351D01*
X167309Y616465D01*
X167325Y616578D01*
X167345Y616690D01*
X167369Y616802D01*
X167396Y616913D01*
X167428Y617023D01*
X167463Y617132D01*
X167501Y617240D01*
X167544Y617346D01*
X167590Y617450D01*
X167639Y617554D01*
X167692Y617655D01*
X167748Y617754D01*
X167808Y617852D01*
X167871Y617947D01*
X167938Y618040D01*
X168007Y618131D01*
X168079Y618219D01*
X168155Y618305D01*
X168233Y618389D01*
X168314Y618469D01*
X168398Y618547D01*
X168485Y618622D01*
X168574Y618693D01*
X168665Y618762D01*
X168759Y618828D01*
X168854Y618890D01*
X168952Y618949D01*
X169052Y619005D01*
X169154Y619057D01*
X169257Y619106D01*
X169362Y619151D01*
X169469Y619192D01*
X169577Y619230D01*
X169686Y619265D01*
X169796Y619295D01*
X169907Y619322D01*
X170019Y619344D01*
X170132Y619363D01*
X217868Y580437D02*
X217998Y580454D01*
X218127Y580475D01*
X218256Y580500D01*
X218384Y580528D01*
X218511Y580561D01*
X218637Y580597D01*
X218762Y580638D01*
X218885Y580682D01*
X219007Y580729D01*
X219128Y580781D01*
X219247Y580835D01*
X219364Y580894D01*
X219479Y580956D01*
X219593Y581021D01*
X219705Y581090D01*
X219814Y581163D01*
X219921Y581238D01*
X220026Y581317D01*
X220128Y581399D01*
X220228Y581484D01*
X220325Y581571D01*
X220420Y581662D01*
X220512Y581756D01*
X220601Y581852D01*
X220687Y581951D01*
X220769Y582052D01*
X220849Y582156D01*
X220926Y582263D01*
X220999Y582371D01*
X221069Y582482D01*
X221136Y582595D01*
X221199Y582710D01*
X221259Y582826D01*
X221315Y582945D01*
X221368Y583065D01*
X221417Y583186D01*
X221462Y583309D01*
X221504Y583434D01*
X221542Y583559D01*
X221575Y583686D01*
X221606Y583813D01*
X221632Y583942D01*
X221654Y584071D01*
X221673Y584201D01*
X221687Y584331D01*
X221698Y584462D01*
X221704Y584593D01*
X221707Y584724D01*
X221706Y584855D01*
X221700Y584986D01*
X221691Y585116D01*
X221678Y585247D01*
X171132Y580437D02*
X171010Y580439D01*
X170888Y580445D01*
X170766Y580455D01*
X170645Y580468D01*
X170524Y580486D01*
X170404Y580507D01*
X170284Y580532D01*
X170165Y580561D01*
X170048Y580594D01*
X169931Y580631D01*
X169816Y580671D01*
X169702Y580715D01*
X169590Y580763D01*
X169479Y580814D01*
X169370Y580869D01*
X169262Y580927D01*
X169157Y580989D01*
X169053Y581054D01*
X168952Y581122D01*
X168853Y581193D01*
X168756Y581268D01*
X168662Y581346D01*
X168570Y581426D01*
X168481Y581510D01*
X168395Y581596D01*
X168311Y581685D01*
X168231Y581777D01*
X168153Y581871D01*
X168078Y581968D01*
X168007Y582067D01*
X167939Y582168D01*
X167874Y582272D01*
X167812Y582377D01*
X167754Y582485D01*
X167699Y582594D01*
X167648Y582705D01*
X167600Y582817D01*
X167556Y582931D01*
X167516Y583046D01*
X167479Y583163D01*
X167446Y583280D01*
X167417Y583399D01*
X167392Y583519D01*
X167371Y583639D01*
X167353Y583760D01*
X167340Y583881D01*
X167330Y584003D01*
X167324Y584125D01*
X167322Y584247D01*
X217867Y619363D02*
X217981Y619378D01*
X218095Y619390D01*
X218209Y619397D01*
X218323Y619401D01*
X218437Y619400D01*
X218552Y619396D01*
X218666Y619388D01*
X218779Y619376D01*
X218892Y619360D01*
X219005Y619340D01*
X219117Y619316D01*
X219228Y619289D01*
X219338Y619258D01*
X219447Y619223D01*
X219554Y619184D01*
X219661Y619142D01*
X219765Y619096D01*
X219868Y619046D01*
X219970Y618993D01*
X220069Y618937D01*
X220167Y618877D01*
X220262Y618814D01*
X220355Y618748D01*
X220446Y618678D01*
X220534Y618606D01*
X220620Y618530D01*
X220703Y618452D01*
X220784Y618371D01*
X220862Y618287D01*
X220936Y618201D01*
X221008Y618112D01*
X221077Y618020D01*
X221143Y617927D01*
X221205Y617831D01*
X221264Y617733D01*
X221320Y617633D01*
X221372Y617531D01*
X221420Y617428D01*
X221466Y617323D01*
X221507Y617216D01*
X221545Y617108D01*
X221579Y616999D01*
X221609Y616889D01*
X221636Y616778D01*
X221659Y616666D01*
X221678Y616553D01*
X217868Y619363D02*
X170132Y619363D01*
X167322Y615553D02*
X167322Y584247D01*
X221170Y593804D02*
X221012Y593806D01*
X220853Y593812D01*
X220695Y593822D01*
X220538Y593836D01*
X220380Y593853D01*
X220224Y593875D01*
X220067Y593900D01*
X219912Y593930D01*
X219757Y593963D01*
X219603Y594000D01*
X219450Y594041D01*
X219298Y594086D01*
X219148Y594135D01*
X218998Y594187D01*
X218850Y594243D01*
X218703Y594303D01*
X218558Y594366D01*
X218415Y594433D01*
X218273Y594503D01*
X218133Y594577D01*
X217995Y594655D01*
X217859Y594736D01*
X217725Y594820D01*
X217593Y594907D01*
X217463Y594998D01*
X217336Y595092D01*
X217211Y595189D01*
X217088Y595290D01*
X216968Y595393D01*
X216851Y595499D01*
X216736Y595608D01*
X216624Y595720D01*
X216515Y595835D01*
X216409Y595952D01*
X216306Y596072D01*
X216205Y596195D01*
X216108Y596320D01*
X216014Y596447D01*
X215923Y596577D01*
X215836Y596709D01*
X215752Y596843D01*
X215671Y596979D01*
X215593Y597117D01*
X215519Y597257D01*
X215449Y597399D01*
X215382Y597542D01*
X215319Y597687D01*
X215259Y597834D01*
X215203Y597982D01*
X215151Y598132D01*
X215102Y598282D01*
X215057Y598434D01*
X215016Y598587D01*
X214979Y598741D01*
X214946Y598896D01*
X214916Y599051D01*
X214891Y599208D01*
X214869Y599364D01*
X214852Y599522D01*
X214838Y599679D01*
X214828Y599837D01*
X214822Y599996D01*
X214820Y600154D01*
X214822Y600312D01*
X214828Y600471D01*
X214838Y600629D01*
X214852Y600786D01*
X214869Y600944D01*
X214891Y601100D01*
X214916Y601257D01*
X214946Y601412D01*
X214979Y601567D01*
X215016Y601721D01*
X215057Y601874D01*
X215102Y602026D01*
X215151Y602176D01*
X215203Y602326D01*
X215259Y602474D01*
X215319Y602621D01*
X215382Y602766D01*
X215449Y602909D01*
X215519Y603051D01*
X215593Y603191D01*
X215671Y603329D01*
X215752Y603465D01*
X215836Y603599D01*
X215923Y603731D01*
X216014Y603861D01*
X216108Y603988D01*
X216205Y604113D01*
X216306Y604236D01*
X216409Y604356D01*
X216515Y604473D01*
X216624Y604588D01*
X216736Y604700D01*
X216851Y604809D01*
X216968Y604915D01*
X217088Y605018D01*
X217211Y605119D01*
X217336Y605216D01*
X217463Y605310D01*
X217593Y605401D01*
X217725Y605488D01*
X217859Y605572D01*
X217995Y605653D01*
X218133Y605731D01*
X218273Y605805D01*
X218415Y605875D01*
X218558Y605942D01*
X218703Y606005D01*
X218850Y606065D01*
X218998Y606121D01*
X219148Y606173D01*
X219298Y606222D01*
X219450Y606267D01*
X219603Y606308D01*
X219757Y606345D01*
X219912Y606378D01*
X220067Y606408D01*
X220224Y606433D01*
X220380Y606455D01*
X220538Y606472D01*
X220695Y606486D01*
X220853Y606496D01*
X221012Y606502D01*
X221170Y606504D01*
X221678Y593804D02*
X221678Y585374D01*
X221678Y606504D02*
X221678Y616553D01*
D13*
X232616Y592886D02*
X232616Y590683D01*
X232616Y591785D02*
X226006Y591785D01*
X226006Y592886D02*
X226006Y590683D01*
X226006Y598977D02*
X227108Y600079D01*
X226006Y598977D02*
X226006Y596774D01*
X227108Y595673D01*
X231514Y595673D01*
X232616Y596774D01*
X232616Y598977D01*
X231514Y600079D01*
X228210Y603157D02*
X226006Y605360D01*
X232616Y605360D01*
X232616Y603157D02*
X232616Y607563D01*
X196536Y663744D02*
X196536Y670354D01*
X199841Y670354D01*
X200942Y669252D01*
X200942Y667049D01*
X199841Y665947D01*
X196536Y665947D01*
X198739Y665947D02*
X200942Y663744D01*
X204020Y663744D02*
X208426Y663744D01*
X204020Y663744D02*
X208426Y668150D01*
X208426Y669252D01*
X207325Y670354D01*
X205122Y670354D01*
X204020Y669252D01*
X214809Y670354D02*
X214809Y663744D01*
X211504Y667049D02*
X214809Y670354D01*
X215910Y667049D02*
X211504Y667049D01*
X196536Y653354D02*
X196536Y646744D01*
X196536Y653354D02*
X199841Y653354D01*
X200942Y652252D01*
X200942Y650049D01*
X199841Y648947D01*
X196536Y648947D01*
X198739Y648947D02*
X200942Y646744D01*
X204020Y646744D02*
X208426Y646744D01*
X204020Y646744D02*
X208426Y651150D01*
X208426Y652252D01*
X207325Y653354D01*
X205122Y653354D01*
X204020Y652252D01*
X211504Y653354D02*
X215910Y653354D01*
X211504Y653354D02*
X211504Y650049D01*
X213707Y651150D01*
X214809Y651150D01*
X215910Y650049D01*
X215910Y647846D01*
X214809Y646744D01*
X212606Y646744D01*
X211504Y647846D01*
D14*
X424934Y616710D02*
X424934Y583690D01*
X424934Y616710D02*
X490466Y616710D01*
X490466Y583690D01*
X424934Y583690D01*
D11*
X425260Y562368D02*
X431403Y562368D01*
X432632Y563596D01*
X432632Y566054D01*
X431403Y567283D01*
X425260Y567283D01*
X425260Y573538D02*
X432632Y573538D01*
X428946Y569852D02*
X425260Y573538D01*
X428946Y574767D02*
X428946Y569852D01*
D13*
X688041Y659162D02*
X689142Y658060D01*
X688041Y659162D02*
X685837Y659162D01*
X684736Y658060D01*
X684736Y653654D01*
X685837Y652552D01*
X688041Y652552D01*
X689142Y653654D01*
X692220Y656958D02*
X694423Y659162D01*
X694423Y652552D01*
X692220Y652552D02*
X696626Y652552D01*
X699704Y659162D02*
X704111Y659162D01*
X704111Y658060D01*
X699704Y653654D01*
X699704Y652552D01*
X333341Y185354D02*
X334442Y184252D01*
X333341Y185354D02*
X331137Y185354D01*
X330036Y184252D01*
X330036Y179846D01*
X331137Y178744D01*
X333341Y178744D01*
X334442Y179846D01*
X337520Y183150D02*
X339723Y185354D01*
X339723Y178744D01*
X337520Y178744D02*
X341926Y178744D01*
X345004Y184252D02*
X346106Y185354D01*
X348309Y185354D01*
X349410Y184252D01*
X349410Y183150D01*
X348309Y182049D01*
X349410Y180947D01*
X349410Y179846D01*
X348309Y178744D01*
X346106Y178744D01*
X345004Y179846D01*
X345004Y180947D01*
X346106Y182049D01*
X345004Y183150D01*
X345004Y184252D01*
X346106Y182049D02*
X348309Y182049D01*
X658341Y183354D02*
X659442Y182252D01*
X658341Y183354D02*
X656137Y183354D01*
X655036Y182252D01*
X655036Y177846D01*
X656137Y176744D01*
X658341Y176744D01*
X659442Y177846D01*
X662520Y181150D02*
X664723Y183354D01*
X664723Y176744D01*
X662520Y176744D02*
X666926Y176744D01*
X670004Y177846D02*
X671106Y176744D01*
X673309Y176744D01*
X674410Y177846D01*
X674410Y182252D01*
X673309Y183354D01*
X671106Y183354D01*
X670004Y182252D01*
X670004Y181150D01*
X671106Y180049D01*
X674410Y180049D01*
X367238Y692841D02*
X368340Y693942D01*
X367238Y692841D02*
X367238Y690637D01*
X368340Y689536D01*
X372746Y689536D01*
X373848Y690637D01*
X373848Y692841D01*
X372746Y693942D01*
X373848Y697020D02*
X373848Y701426D01*
X373848Y697020D02*
X369442Y701426D01*
X368340Y701426D01*
X367238Y700325D01*
X367238Y698122D01*
X368340Y697020D01*
X368340Y704504D02*
X372746Y704504D01*
X368340Y704504D02*
X367238Y705606D01*
X367238Y707809D01*
X368340Y708911D01*
X372746Y708911D01*
X373848Y707809D01*
X373848Y705606D01*
X372746Y704504D01*
X368340Y708911D01*
D14*
X304500Y682500D02*
X281500Y682500D01*
X281500Y730500D01*
X298500Y747500D01*
X304500Y747500D01*
X323500Y747500D02*
X329500Y747500D01*
X346500Y730500D01*
X346500Y682500D01*
X323500Y682500D01*
X304500Y685500D02*
X303782Y685741D01*
X303069Y686000D01*
X302364Y686276D01*
X301665Y686569D01*
X300973Y686879D01*
X300290Y687206D01*
X299614Y687549D01*
X298947Y687909D01*
X298289Y688285D01*
X297641Y688677D01*
X297002Y689085D01*
X296374Y689508D01*
X295756Y689947D01*
X295149Y690400D01*
X294553Y690869D01*
X293969Y691351D01*
X293397Y691848D01*
X292837Y692359D01*
X292290Y692883D01*
X291755Y693420D01*
X291234Y693971D01*
X290727Y694534D01*
X290234Y695109D01*
X289754Y695696D01*
X289290Y696294D01*
X288840Y696904D01*
X288405Y697525D01*
X287985Y698156D01*
X287581Y698797D01*
X287193Y699447D01*
X286821Y700108D01*
X286465Y700776D01*
X286125Y701454D01*
X285802Y702140D01*
X285496Y702833D01*
X285207Y703533D01*
X284936Y704241D01*
X284681Y704954D01*
X284444Y705674D01*
X284225Y706400D01*
X284024Y707130D01*
X283840Y707865D01*
X283675Y708605D01*
X283528Y709348D01*
X283399Y710095D01*
X283288Y710845D01*
X283195Y711597D01*
X283121Y712351D01*
X283066Y713107D01*
X283029Y713864D01*
X283010Y714621D01*
X283010Y715379D01*
X283029Y716136D01*
X283066Y716893D01*
X283121Y717649D01*
X283195Y718403D01*
X283288Y719155D01*
X283399Y719905D01*
X283528Y720652D01*
X283675Y721395D01*
X283840Y722135D01*
X284024Y722870D01*
X284225Y723600D01*
X284444Y724326D01*
X284681Y725046D01*
X284936Y725759D01*
X285207Y726467D01*
X285496Y727167D01*
X285802Y727860D01*
X286125Y728546D01*
X286465Y729224D01*
X286821Y729892D01*
X287193Y730553D01*
X287581Y731203D01*
X287985Y731844D01*
X288405Y732475D01*
X288840Y733096D01*
X289290Y733706D01*
X289754Y734304D01*
X290234Y734891D01*
X290727Y735466D01*
X291234Y736029D01*
X291755Y736580D01*
X292290Y737117D01*
X292837Y737641D01*
X293397Y738152D01*
X293969Y738649D01*
X294553Y739131D01*
X295149Y739600D01*
X295756Y740053D01*
X296374Y740492D01*
X297002Y740915D01*
X297641Y741323D01*
X298289Y741715D01*
X298947Y742091D01*
X299614Y742451D01*
X300290Y742794D01*
X300973Y743121D01*
X301665Y743431D01*
X302364Y743724D01*
X303069Y744000D01*
X303782Y744259D01*
X304500Y744500D01*
X323500Y744500D02*
X324218Y744259D01*
X324931Y744000D01*
X325636Y743724D01*
X326335Y743431D01*
X327027Y743121D01*
X327710Y742794D01*
X328386Y742451D01*
X329053Y742091D01*
X329711Y741715D01*
X330359Y741323D01*
X330998Y740915D01*
X331626Y740492D01*
X332244Y740053D01*
X332851Y739600D01*
X333447Y739131D01*
X334031Y738649D01*
X334603Y738152D01*
X335163Y737641D01*
X335710Y737117D01*
X336245Y736580D01*
X336766Y736029D01*
X337273Y735466D01*
X337766Y734891D01*
X338246Y734304D01*
X338710Y733706D01*
X339160Y733096D01*
X339595Y732475D01*
X340015Y731844D01*
X340419Y731203D01*
X340807Y730553D01*
X341179Y729892D01*
X341535Y729224D01*
X341875Y728546D01*
X342198Y727860D01*
X342504Y727167D01*
X342793Y726467D01*
X343064Y725759D01*
X343319Y725046D01*
X343556Y724326D01*
X343775Y723600D01*
X343976Y722870D01*
X344160Y722135D01*
X344325Y721395D01*
X344472Y720652D01*
X344601Y719905D01*
X344712Y719155D01*
X344805Y718403D01*
X344879Y717649D01*
X344934Y716893D01*
X344971Y716136D01*
X344990Y715379D01*
X344990Y714621D01*
X344971Y713864D01*
X344934Y713107D01*
X344879Y712351D01*
X344805Y711597D01*
X344712Y710845D01*
X344601Y710095D01*
X344472Y709348D01*
X344325Y708605D01*
X344160Y707865D01*
X343976Y707130D01*
X343775Y706400D01*
X343556Y705674D01*
X343319Y704954D01*
X343064Y704241D01*
X342793Y703533D01*
X342504Y702833D01*
X342198Y702140D01*
X341875Y701454D01*
X341535Y700776D01*
X341179Y700108D01*
X340807Y699447D01*
X340419Y698797D01*
X340015Y698156D01*
X339595Y697525D01*
X339160Y696904D01*
X338710Y696294D01*
X338246Y695696D01*
X337766Y695109D01*
X337273Y694534D01*
X336766Y693971D01*
X336245Y693420D01*
X335710Y692883D01*
X335163Y692359D01*
X334603Y691848D01*
X334031Y691351D01*
X333447Y690869D01*
X332851Y690400D01*
X332244Y689947D01*
X331626Y689508D01*
X330998Y689085D01*
X330359Y688677D01*
X329711Y688285D01*
X329053Y687909D01*
X328386Y687549D01*
X327710Y687206D01*
X327027Y686879D01*
X326335Y686569D01*
X325636Y686276D01*
X324931Y686000D01*
X324218Y685741D01*
X323500Y685500D01*
D13*
X271440Y708942D02*
X270338Y707841D01*
X270338Y705637D01*
X271440Y704536D01*
X275846Y704536D01*
X276948Y705637D01*
X276948Y707841D01*
X275846Y708942D01*
X276948Y712020D02*
X276948Y716426D01*
X276948Y712020D02*
X272542Y716426D01*
X271440Y716426D01*
X270338Y715325D01*
X270338Y713122D01*
X271440Y712020D01*
X271440Y719504D02*
X270338Y720606D01*
X270338Y722809D01*
X271440Y723911D01*
X272542Y723911D01*
X273643Y722809D01*
X273643Y721707D01*
X273643Y722809D02*
X274745Y723911D01*
X275846Y723911D01*
X276948Y722809D01*
X276948Y720606D01*
X275846Y719504D01*
D12*
X245700Y899800D02*
X525700Y899800D01*
X525700Y842300D01*
X498200Y814800D02*
X273200Y814800D01*
X245700Y842300D02*
X245700Y899800D01*
X245700Y842300D02*
X273200Y814800D01*
X498200Y814800D02*
X525700Y842300D01*
D11*
X242447Y867041D02*
X241218Y865813D01*
X242447Y867041D02*
X242447Y868270D01*
X241218Y869499D01*
X235075Y869499D01*
X235075Y868270D02*
X235075Y870728D01*
X235075Y873297D02*
X235075Y878212D01*
X236303Y878212D01*
X241218Y873297D01*
X242447Y873297D01*
D14*
X191400Y763800D02*
X146400Y763800D01*
X231400Y773800D02*
X231400Y816800D01*
X231400Y835700D02*
X231400Y869800D01*
X146400Y869800D02*
X146400Y763800D01*
X146400Y869800D02*
X231400Y869800D01*
X146900Y869800D02*
X146400Y869800D01*
D13*
X141656Y867043D02*
X140554Y865942D01*
X141656Y867043D02*
X141656Y868145D01*
X140554Y869247D01*
X135046Y869247D01*
X135046Y870348D02*
X135046Y868145D01*
X136148Y873426D02*
X135046Y874527D01*
X135046Y876731D01*
X136148Y877832D01*
X137250Y877832D01*
X138351Y876731D01*
X139453Y877832D01*
X140554Y877832D01*
X141656Y876731D01*
X141656Y874527D01*
X140554Y873426D01*
X139453Y873426D01*
X138351Y874527D01*
X137250Y873426D01*
X136148Y873426D01*
X138351Y874527D02*
X138351Y876731D01*
D14*
X592238Y818625D02*
X601763Y818625D01*
D12*
X592022Y814019D02*
X592022Y809189D01*
X594437Y809189D01*
X595242Y809994D01*
X595242Y813214D01*
X594437Y814019D01*
X592022Y814019D01*
X597635Y813214D02*
X598440Y814019D01*
X600050Y814019D01*
X600855Y813214D01*
X600855Y812409D01*
X600050Y811604D01*
X599245Y811604D01*
X600050Y811604D02*
X600855Y810799D01*
X600855Y809994D01*
X600050Y809189D01*
X598440Y809189D01*
X597635Y809994D01*
D14*
X563263Y818625D02*
X553738Y818625D01*
D12*
X553022Y814019D02*
X553022Y809189D01*
X555437Y809189D01*
X556242Y809994D01*
X556242Y813214D01*
X555437Y814019D01*
X553022Y814019D01*
X561050Y814019D02*
X561050Y809189D01*
X558635Y811604D02*
X561050Y814019D01*
X561855Y811604D02*
X558635Y811604D01*
X589215Y852649D02*
X589215Y857479D01*
X591630Y857479D01*
X592435Y856674D01*
X592435Y855064D01*
X591630Y854259D01*
X589215Y854259D01*
X590825Y854259D02*
X592435Y852649D01*
X594828Y852649D02*
X598048Y852649D01*
X594828Y852649D02*
X598048Y855869D01*
X598048Y856674D01*
X597243Y857479D01*
X595633Y857479D01*
X594828Y856674D01*
X602052Y856674D02*
X603662Y857479D01*
X602052Y856674D02*
X600442Y855064D01*
X600442Y853454D01*
X601247Y852649D01*
X602857Y852649D01*
X603662Y853454D01*
X603662Y854259D01*
X602857Y855064D01*
X600442Y855064D01*
X551215Y852649D02*
X551215Y857479D01*
X553630Y857479D01*
X554435Y856674D01*
X554435Y855064D01*
X553630Y854259D01*
X551215Y854259D01*
X552825Y854259D02*
X554435Y852649D01*
X556828Y852649D02*
X560048Y852649D01*
X556828Y852649D02*
X560048Y855869D01*
X560048Y856674D01*
X559243Y857479D01*
X557633Y857479D01*
X556828Y856674D01*
X562442Y857479D02*
X565662Y857479D01*
X565662Y856674D01*
X562442Y853454D01*
X562442Y852649D01*
X627215Y852649D02*
X627215Y857479D01*
X629630Y857479D01*
X630435Y856674D01*
X630435Y855064D01*
X629630Y854259D01*
X627215Y854259D01*
X628825Y854259D02*
X630435Y852649D01*
X632828Y852649D02*
X636048Y852649D01*
X632828Y852649D02*
X636048Y855869D01*
X636048Y856674D01*
X635243Y857479D01*
X633633Y857479D01*
X632828Y856674D01*
X638442Y856674D02*
X639247Y857479D01*
X640857Y857479D01*
X641662Y856674D01*
X641662Y855869D01*
X640857Y855064D01*
X641662Y854259D01*
X641662Y853454D01*
X640857Y852649D01*
X639247Y852649D01*
X638442Y853454D01*
X638442Y854259D01*
X639247Y855064D01*
X638442Y855869D01*
X638442Y856674D01*
X639247Y855064D02*
X640857Y855064D01*
D14*
X639763Y818625D02*
X630238Y818625D01*
D12*
X630022Y814019D02*
X630022Y809189D01*
X632437Y809189D01*
X633242Y809994D01*
X633242Y813214D01*
X632437Y814019D01*
X630022Y814019D01*
X635635Y814019D02*
X638855Y814019D01*
X635635Y814019D02*
X635635Y811604D01*
X637245Y812409D01*
X638050Y812409D01*
X638855Y811604D01*
X638855Y809994D01*
X638050Y809189D01*
X636440Y809189D01*
X635635Y809994D01*
D13*
X688583Y634262D02*
X689684Y633160D01*
X688583Y634262D02*
X686379Y634262D01*
X685278Y633160D01*
X685278Y628754D01*
X686379Y627652D01*
X688583Y627652D01*
X689684Y628754D01*
X692762Y634262D02*
X697168Y634262D01*
X697168Y633160D01*
X692762Y628754D01*
X692762Y627652D01*
X392748Y136684D02*
X391646Y135583D01*
X391646Y133379D01*
X392748Y132278D01*
X397154Y132278D01*
X398256Y133379D01*
X398256Y135583D01*
X397154Y136684D01*
X392748Y139762D02*
X391646Y140864D01*
X391646Y143067D01*
X392748Y144168D01*
X393850Y144168D01*
X394951Y143067D01*
X396053Y144168D01*
X397154Y144168D01*
X398256Y143067D01*
X398256Y140864D01*
X397154Y139762D01*
X396053Y139762D01*
X394951Y140864D01*
X393850Y139762D01*
X392748Y139762D01*
X394951Y140864D02*
X394951Y143067D01*
X464646Y135583D02*
X465748Y136684D01*
X464646Y135583D02*
X464646Y133379D01*
X465748Y132278D01*
X470154Y132278D01*
X471256Y133379D01*
X471256Y135583D01*
X470154Y136684D01*
X470154Y139762D02*
X471256Y140864D01*
X471256Y143067D01*
X470154Y144168D01*
X465748Y144168D01*
X464646Y143067D01*
X464646Y140864D01*
X465748Y139762D01*
X466850Y139762D01*
X467951Y140864D01*
X467951Y144168D01*
X534646Y131841D02*
X535748Y132942D01*
X534646Y131841D02*
X534646Y129637D01*
X535748Y128536D01*
X540154Y128536D01*
X541256Y129637D01*
X541256Y131841D01*
X540154Y132942D01*
X536850Y136020D02*
X534646Y138223D01*
X541256Y138223D01*
X541256Y136020D02*
X541256Y140426D01*
X540154Y143504D02*
X535748Y143504D01*
X534646Y144606D01*
X534646Y146809D01*
X535748Y147910D01*
X540154Y147910D01*
X541256Y146809D01*
X541256Y144606D01*
X540154Y143504D01*
X535748Y147910D01*
X859942Y782252D02*
X858841Y783354D01*
X856637Y783354D01*
X855536Y782252D01*
X855536Y777846D01*
X856637Y776744D01*
X858841Y776744D01*
X859942Y777846D01*
X863020Y781150D02*
X865223Y783354D01*
X865223Y776744D01*
X863020Y776744D02*
X867426Y776744D01*
X870504Y781150D02*
X872707Y783354D01*
X872707Y776744D01*
X870504Y776744D02*
X874910Y776744D01*
X679840Y159942D02*
X678738Y158841D01*
X678738Y156637D01*
X679840Y155536D01*
X684246Y155536D01*
X685348Y156637D01*
X685348Y158841D01*
X684246Y159942D01*
X680942Y163020D02*
X678738Y165223D01*
X685348Y165223D01*
X685348Y163020D02*
X685348Y167426D01*
X679840Y170504D02*
X678738Y171606D01*
X678738Y173809D01*
X679840Y174911D01*
X680942Y174911D01*
X682043Y173809D01*
X682043Y172707D01*
X682043Y173809D02*
X683145Y174911D01*
X684246Y174911D01*
X685348Y173809D01*
X685348Y171606D01*
X684246Y170504D01*
M02*
