G04 EAGLE Gerber RS-274X export*
G75*
%MOMM*%
%FSLAX34Y34*%
%LPD*%
%INSoldermask Bottom*%
%IPPOS*%
%AMOC8*
5,1,8,0,0,1.08239X$1,22.5*%
G01*
%ADD10C,5.203200*%
%ADD11C,0.853200*%
%ADD12C,2.082800*%
%ADD13C,2.387600*%
%ADD14C,1.403200*%
%ADD15C,4.203200*%
%ADD16C,2.203200*%
%ADD17C,1.209600*%


D10*
X50000Y50000D03*
X900000Y50000D03*
X900000Y850000D03*
X50000Y850000D03*
D11*
X742600Y842150D03*
X684800Y842150D03*
D12*
X826030Y711900D03*
X853970Y711900D03*
X826030Y686500D03*
X853970Y686500D03*
X826030Y661100D03*
X853970Y661100D03*
X826030Y635700D03*
X853970Y635700D03*
X826030Y610300D03*
X853970Y610300D03*
D13*
X718000Y35000D03*
X693000Y85000D03*
X668000Y85000D03*
X743000Y85000D03*
X768000Y85000D03*
D14*
X668000Y35000D03*
X668000Y10000D03*
X768000Y10000D03*
X768000Y35000D03*
X718000Y85000D03*
D13*
X556000Y35000D03*
X531000Y85000D03*
X506000Y85000D03*
X581000Y85000D03*
X606000Y85000D03*
D14*
X506000Y35000D03*
X506000Y10000D03*
X606000Y10000D03*
X606000Y35000D03*
X556000Y85000D03*
D13*
X394000Y35000D03*
X369000Y85000D03*
X344000Y85000D03*
X419000Y85000D03*
X444000Y85000D03*
D14*
X344000Y35000D03*
X344000Y10000D03*
X444000Y10000D03*
X444000Y35000D03*
X394000Y85000D03*
D13*
X232000Y35000D03*
X207000Y85000D03*
X182000Y85000D03*
X257000Y85000D03*
X282000Y85000D03*
D14*
X182000Y35000D03*
X182000Y10000D03*
X282000Y10000D03*
X282000Y35000D03*
X232000Y85000D03*
D15*
X309500Y857300D03*
X360300Y857300D03*
X411100Y857300D03*
X461900Y857300D03*
D16*
X223900Y762800D02*
X203900Y762800D01*
X203900Y825800D02*
X223900Y825800D01*
X163900Y802800D02*
X163900Y782800D01*
D17*
X695900Y205800D03*
X721500Y333700D03*
X361300Y168000D03*
X760000Y440000D03*
X790000Y440000D03*
X790000Y410000D03*
X760000Y410000D03*
X800000Y830000D03*
X800000Y800000D03*
X730000Y620000D03*
X730000Y600000D03*
X910000Y730000D03*
X910000Y760000D03*
X910000Y700000D03*
X645000Y638000D03*
X622000Y638000D03*
X645000Y621000D03*
X622000Y621000D03*
X493000Y875000D03*
X508000Y875000D03*
X523000Y875000D03*
X251000Y545000D03*
X453000Y168000D03*
X523000Y168000D03*
X272000Y616000D03*
X251000Y636000D03*
X551700Y241400D03*
X614300Y262800D03*
X666600Y358000D03*
X668000Y496000D03*
X366000Y571000D03*
X301000Y659500D03*
X457000Y659000D03*
X657000Y131000D03*
X601600Y179600D03*
X765600Y227700D03*
X731000Y185800D03*
X289500Y184000D03*
X234900Y571900D03*
X784000Y760000D03*
X673000Y751000D03*
X677200Y676000D03*
X676000Y818000D03*
X738200Y817000D03*
X771000Y619000D03*
X771000Y657000D03*
X561000Y283000D03*
X584500Y268500D03*
X664000Y299000D03*
X673000Y258000D03*
X697000Y300000D03*
X697000Y259000D03*
X791000Y776000D03*
X692000Y756000D03*
X537000Y773000D03*
X159000Y698000D03*
X675000Y582000D03*
X711000Y581000D03*
X711000Y563000D03*
X674000Y564000D03*
M02*
