G04 EAGLE Gerber RS-274X export*
G75*
%MOMM*%
%FSLAX34Y34*%
%LPD*%
%INSolderpaste Top*%
%IPPOS*%
%AMOC8*
5,1,8,0,0,1.08239X$1,22.5*%
G01*
%ADD10R,1.200000X0.800000*%
%ADD11R,1.100000X2.600000*%
%ADD12R,0.800000X0.284600*%
%ADD13R,0.284600X0.800000*%
%ADD14R,1.300000X1.300000*%
%ADD15R,1.100000X1.900000*%
%ADD16R,0.800000X1.200000*%
%ADD17R,0.300000X1.000000*%
%ADD18R,0.600000X1.000000*%
%ADD19R,1.676400X2.895600*%
%ADD20R,1.219200X2.235200*%
%ADD21R,3.600000X2.200000*%
%ADD22R,1.400000X3.000000*%
%ADD23R,0.875000X0.250000*%
%ADD24R,0.800000X0.900000*%
%ADD25R,0.900000X0.800000*%
%ADD26R,0.600000X1.200000*%
%ADD27C,0.300000*%

G36*
X670704Y826155D02*
X670704Y826155D01*
X670707Y826151D01*
X671815Y826321D01*
X671821Y826327D01*
X671826Y826324D01*
X672868Y826736D01*
X672872Y826743D01*
X672877Y826741D01*
X673802Y827375D01*
X673804Y827383D01*
X673810Y827382D01*
X674570Y828206D01*
X674571Y828214D01*
X674577Y828214D01*
X675134Y829186D01*
X675134Y829190D01*
X675135Y829191D01*
X675133Y829193D01*
X675133Y829194D01*
X675139Y829196D01*
X675466Y830268D01*
X675465Y830273D01*
X675467Y830274D01*
X675465Y830277D01*
X675468Y830279D01*
X675549Y831396D01*
X675548Y831399D01*
X675549Y831400D01*
X675549Y843400D01*
X675544Y843407D01*
X675548Y843411D01*
X675329Y844355D01*
X675323Y844361D01*
X675325Y844366D01*
X674902Y845238D01*
X674894Y845241D01*
X674896Y845247D01*
X674289Y846003D01*
X674281Y846005D01*
X674281Y846011D01*
X673521Y846612D01*
X673512Y846612D01*
X673511Y846618D01*
X672636Y847036D01*
X672628Y847034D01*
X672626Y847039D01*
X671680Y847252D01*
X671673Y847248D01*
X671669Y847253D01*
X670700Y847249D01*
X670699Y847249D01*
X669631Y847230D01*
X669630Y847230D01*
X669624Y847226D01*
X669620Y847229D01*
X668583Y846973D01*
X668578Y846966D01*
X668572Y846969D01*
X667618Y846488D01*
X667615Y846481D01*
X667609Y846482D01*
X666786Y845801D01*
X666784Y845793D01*
X666778Y845793D01*
X666127Y844946D01*
X666127Y844938D01*
X666121Y844937D01*
X665674Y843966D01*
X665676Y843958D01*
X665671Y843956D01*
X665452Y842910D01*
X665455Y842903D01*
X665451Y842900D01*
X665451Y830900D01*
X665454Y830895D01*
X665451Y830892D01*
X665631Y829797D01*
X665637Y829791D01*
X665634Y829786D01*
X666053Y828758D01*
X666060Y828754D01*
X666058Y828749D01*
X666696Y827840D01*
X666703Y827838D01*
X666703Y827832D01*
X667526Y827088D01*
X667534Y827087D01*
X667535Y827081D01*
X668503Y826539D01*
X668512Y826540D01*
X668514Y826534D01*
X669578Y826221D01*
X669586Y826224D01*
X669589Y826219D01*
X670697Y826151D01*
X670704Y826155D01*
G37*
G36*
X757202Y826154D02*
X757202Y826154D01*
X757206Y826151D01*
X758251Y826269D01*
X758257Y826275D01*
X758262Y826271D01*
X759256Y826619D01*
X759260Y826626D01*
X759265Y826624D01*
X760157Y827184D01*
X760160Y827191D01*
X760165Y827191D01*
X760909Y827935D01*
X760911Y827943D01*
X760916Y827943D01*
X761476Y828835D01*
X761476Y828842D01*
X761477Y828843D01*
X761481Y828844D01*
X761829Y829838D01*
X761826Y829846D01*
X761831Y829849D01*
X761949Y830895D01*
X761947Y830898D01*
X761949Y830900D01*
X761949Y842900D01*
X761946Y842905D01*
X761949Y842908D01*
X761791Y843904D01*
X761785Y843910D01*
X761788Y843915D01*
X761413Y844851D01*
X761406Y844855D01*
X761408Y844861D01*
X760834Y845690D01*
X760826Y845693D01*
X760827Y845698D01*
X760083Y846379D01*
X760074Y846380D01*
X760074Y846386D01*
X759197Y846884D01*
X759189Y846883D01*
X759186Y846888D01*
X758221Y847179D01*
X758213Y847176D01*
X758210Y847181D01*
X757203Y847249D01*
X757201Y847248D01*
X757200Y847249D01*
X756119Y847240D01*
X756112Y847235D01*
X756108Y847239D01*
X755056Y846990D01*
X755051Y846983D01*
X755046Y846986D01*
X754076Y846509D01*
X754073Y846501D01*
X754067Y846503D01*
X753228Y845822D01*
X753226Y845814D01*
X753220Y845814D01*
X752554Y844964D01*
X752553Y844955D01*
X752548Y844954D01*
X752087Y843977D01*
X752089Y843969D01*
X752084Y843966D01*
X751852Y842911D01*
X751855Y842903D01*
X751851Y842900D01*
X751851Y830900D01*
X751855Y830895D01*
X751851Y830892D01*
X752044Y829786D01*
X752050Y829781D01*
X752047Y829776D01*
X752480Y828741D01*
X752487Y828737D01*
X752485Y828732D01*
X753138Y827819D01*
X753146Y827817D01*
X753145Y827811D01*
X753984Y827067D01*
X753993Y827066D01*
X753993Y827061D01*
X754977Y826522D01*
X754985Y826523D01*
X754987Y826518D01*
X756066Y826211D01*
X756074Y826214D01*
X756077Y826209D01*
X757197Y826151D01*
X757202Y826154D01*
G37*
G36*
X670704Y870656D02*
X670704Y870656D01*
X670709Y870652D01*
X671846Y870859D01*
X671852Y870865D01*
X671857Y870862D01*
X672919Y871317D01*
X672923Y871324D01*
X672929Y871322D01*
X673864Y872002D01*
X673866Y872010D01*
X673872Y872009D01*
X674632Y872880D01*
X674632Y872888D01*
X674638Y872889D01*
X675185Y873908D01*
X675184Y873916D01*
X675189Y873918D01*
X675195Y873937D01*
X675208Y873986D01*
X675222Y874036D01*
X675235Y874085D01*
X675249Y874134D01*
X675262Y874183D01*
X675263Y874183D01*
X675262Y874183D01*
X675276Y874233D01*
X675290Y874282D01*
X675303Y874331D01*
X675317Y874380D01*
X675330Y874430D01*
X675344Y874479D01*
X675357Y874528D01*
X675371Y874577D01*
X675385Y874627D01*
X675398Y874676D01*
X675412Y874725D01*
X675496Y875032D01*
X675493Y875040D01*
X675498Y875043D01*
X675549Y876198D01*
X675548Y876199D01*
X675549Y876200D01*
X675549Y882200D01*
X675545Y882206D01*
X675548Y882209D01*
X675336Y883290D01*
X675330Y883295D01*
X675333Y883300D01*
X674886Y884306D01*
X674879Y884310D01*
X674881Y884316D01*
X674221Y885197D01*
X674213Y885200D01*
X674213Y885205D01*
X673374Y885918D01*
X673366Y885918D01*
X673365Y885924D01*
X672388Y886432D01*
X672380Y886431D01*
X672378Y886436D01*
X671313Y886714D01*
X671305Y886711D01*
X671302Y886715D01*
X670202Y886749D01*
X670196Y886746D01*
X670193Y886749D01*
X669118Y886594D01*
X669112Y886588D01*
X669107Y886591D01*
X668093Y886201D01*
X668089Y886194D01*
X668083Y886196D01*
X667181Y885589D01*
X667179Y885581D01*
X667173Y885582D01*
X666429Y884790D01*
X666428Y884782D01*
X666422Y884782D01*
X665873Y883844D01*
X665874Y883836D01*
X665868Y883834D01*
X665541Y882798D01*
X665544Y882790D01*
X665539Y882787D01*
X665451Y881704D01*
X665453Y881701D01*
X665451Y881700D01*
X665451Y875700D01*
X665454Y875696D01*
X665451Y875694D01*
X665601Y874561D01*
X665607Y874555D01*
X665604Y874550D01*
X666002Y873480D01*
X666009Y873476D01*
X666007Y873470D01*
X666634Y872515D01*
X666642Y872512D01*
X666641Y872507D01*
X667464Y871715D01*
X667472Y871714D01*
X667473Y871708D01*
X668452Y871119D01*
X668460Y871120D01*
X668462Y871115D01*
X669547Y870759D01*
X669555Y870762D01*
X669558Y870757D01*
X670695Y870651D01*
X670704Y870656D01*
G37*
G36*
X757842Y870757D02*
X757842Y870757D01*
X757848Y870762D01*
X757853Y870759D01*
X758938Y871115D01*
X758943Y871122D01*
X758948Y871119D01*
X759927Y871708D01*
X759930Y871716D01*
X759936Y871715D01*
X760759Y872507D01*
X760760Y872515D01*
X760766Y872515D01*
X761393Y873470D01*
X761392Y873478D01*
X761398Y873480D01*
X761796Y874550D01*
X761794Y874558D01*
X761799Y874561D01*
X761949Y875694D01*
X761946Y875698D01*
X761949Y875700D01*
X761949Y881700D01*
X761946Y881704D01*
X761949Y881706D01*
X761799Y882839D01*
X761793Y882845D01*
X761796Y882850D01*
X761398Y883920D01*
X761391Y883924D01*
X761393Y883930D01*
X760766Y884885D01*
X760758Y884888D01*
X760759Y884893D01*
X759936Y885685D01*
X759928Y885686D01*
X759927Y885692D01*
X758948Y886281D01*
X758940Y886280D01*
X758938Y886285D01*
X757853Y886641D01*
X757845Y886639D01*
X757842Y886643D01*
X756705Y886749D01*
X756698Y886745D01*
X756694Y886749D01*
X755606Y886604D01*
X755600Y886598D01*
X755595Y886601D01*
X754567Y886218D01*
X754562Y886211D01*
X754557Y886213D01*
X753640Y885610D01*
X753637Y885602D01*
X753631Y885603D01*
X752871Y884811D01*
X752870Y884803D01*
X752864Y884802D01*
X752300Y883861D01*
X752301Y883853D01*
X752295Y883851D01*
X751954Y882808D01*
X751956Y882800D01*
X751952Y882797D01*
X751851Y881705D01*
X751853Y881702D01*
X751851Y881700D01*
X751851Y875700D01*
X751853Y875697D01*
X751851Y875696D01*
X751952Y874603D01*
X751957Y874597D01*
X751954Y874592D01*
X752295Y873549D01*
X752302Y873544D01*
X752300Y873539D01*
X752864Y872598D01*
X752872Y872595D01*
X752871Y872589D01*
X753631Y871797D01*
X753639Y871796D01*
X753640Y871790D01*
X754557Y871188D01*
X754565Y871188D01*
X754567Y871183D01*
X755595Y870799D01*
X755603Y870801D01*
X755606Y870796D01*
X756694Y870651D01*
X756701Y870655D01*
X756705Y870651D01*
X757842Y870757D01*
G37*
D10*
X897600Y509200D03*
X897600Y527200D03*
X897800Y469600D03*
X897800Y487600D03*
D11*
X723000Y519600D03*
X743000Y519600D03*
X763000Y519600D03*
X783000Y519600D03*
X803000Y519600D03*
X823000Y519600D03*
X843000Y519600D03*
X863000Y519600D03*
X723000Y359600D03*
X743000Y359600D03*
X763000Y359600D03*
X783000Y359600D03*
X803000Y359600D03*
X823000Y359600D03*
X843000Y359600D03*
X863000Y359600D03*
D12*
X690200Y728000D03*
X690200Y723000D03*
X690200Y718000D03*
X690200Y713000D03*
X690200Y708000D03*
X690200Y703000D03*
X690200Y698000D03*
X690200Y693000D03*
D13*
X697700Y685500D03*
X702700Y685500D03*
X707700Y685500D03*
X712700Y685500D03*
X717700Y685500D03*
X722700Y685500D03*
X727700Y685500D03*
X732700Y685500D03*
D12*
X740200Y693000D03*
X740200Y698000D03*
X740200Y703000D03*
X740200Y708000D03*
X740200Y713000D03*
X740200Y718000D03*
X740200Y723000D03*
X740200Y728000D03*
D13*
X732700Y735500D03*
X727700Y735500D03*
X722700Y735500D03*
X717700Y735500D03*
X712700Y735500D03*
X707700Y735500D03*
X702700Y735500D03*
X697700Y735500D03*
D14*
X723200Y718500D03*
X723200Y702500D03*
X707200Y718500D03*
X707200Y702500D03*
D15*
X627900Y727400D03*
X650900Y690400D03*
X650900Y727400D03*
X627900Y690400D03*
D10*
X607600Y741600D03*
X607600Y723600D03*
D16*
X646600Y751500D03*
X628600Y751500D03*
D10*
X607600Y687400D03*
X607600Y705400D03*
D16*
X771000Y759700D03*
X753000Y759700D03*
X721400Y759700D03*
X739400Y759700D03*
D17*
X706200Y831100D03*
X711200Y831100D03*
D18*
X681450Y831100D03*
X689200Y831100D03*
D17*
X696200Y831100D03*
X701200Y831100D03*
X721200Y831100D03*
X716200Y831100D03*
D18*
X745950Y831100D03*
X738200Y831100D03*
D17*
X731200Y831100D03*
X726200Y831100D03*
D10*
X680700Y803600D03*
X680700Y785600D03*
X698800Y803600D03*
X698800Y785600D03*
D19*
X722124Y794000D03*
X769876Y794000D03*
D10*
X662500Y785600D03*
X662500Y803600D03*
D20*
X337514Y630988D03*
X314400Y630988D03*
X291286Y630988D03*
D21*
X314400Y569010D03*
D10*
X689200Y459400D03*
X689200Y477400D03*
X689000Y408000D03*
X689000Y426000D03*
X368000Y631000D03*
X368000Y613000D03*
D22*
X457200Y738800D03*
X457200Y690800D03*
D23*
X657125Y143500D03*
X657125Y148500D03*
X657125Y153500D03*
X657125Y158500D03*
X657125Y163500D03*
X615875Y163500D03*
X615875Y158500D03*
X615875Y153500D03*
X615875Y148500D03*
X615875Y143500D03*
D24*
X603500Y225000D03*
X584500Y225000D03*
X594000Y204000D03*
D16*
X602500Y242500D03*
X584500Y242500D03*
D10*
X577000Y161500D03*
X577000Y143500D03*
D24*
X646000Y224500D03*
X627000Y224500D03*
X636500Y203500D03*
D10*
X594500Y161500D03*
X594500Y143500D03*
D16*
X646000Y242500D03*
X628000Y242500D03*
D23*
X333925Y144100D03*
X333925Y149100D03*
X333925Y154100D03*
X333925Y159100D03*
X333925Y164100D03*
X292675Y164100D03*
X292675Y159100D03*
X292675Y154100D03*
X292675Y149100D03*
X292675Y144100D03*
D24*
X280000Y225500D03*
X261000Y225500D03*
X270500Y204500D03*
D16*
X278500Y242500D03*
X260500Y242500D03*
D10*
X255000Y163000D03*
X255000Y145000D03*
D24*
X322000Y226000D03*
X303000Y226000D03*
X312500Y205000D03*
D10*
X272000Y163000D03*
X272000Y145000D03*
D16*
X321000Y242500D03*
X303000Y242500D03*
D24*
X817500Y284000D03*
X798500Y284000D03*
X808000Y263000D03*
D16*
X817000Y300000D03*
X799000Y300000D03*
D10*
X808000Y227000D03*
X808000Y245000D03*
D24*
X858600Y283700D03*
X839600Y283700D03*
X849100Y262700D03*
D10*
X849000Y227000D03*
X849000Y245000D03*
D16*
X858000Y300000D03*
X840000Y300000D03*
D25*
X243600Y609400D03*
X243600Y590400D03*
X264600Y599900D03*
D26*
X213550Y627900D03*
X200850Y627900D03*
X188150Y627900D03*
X175450Y627900D03*
X175450Y571900D03*
X188150Y571900D03*
X200850Y571900D03*
X213550Y571900D03*
D16*
X188000Y668000D03*
X170000Y668000D03*
X170000Y650000D03*
X188000Y650000D03*
D20*
X480814Y631188D03*
X457700Y631188D03*
X434586Y631188D03*
D21*
X457700Y569210D03*
D16*
X659200Y655900D03*
X677200Y655900D03*
X321500Y184000D03*
X303500Y184000D03*
X645500Y181500D03*
X627500Y181500D03*
D10*
X386500Y691000D03*
X386500Y709000D03*
D22*
X314000Y739000D03*
X314000Y691000D03*
D27*
X593500Y829230D02*
X600500Y829230D01*
X600500Y822230D01*
X593500Y822230D01*
X593500Y829230D01*
X593500Y825080D02*
X600500Y825080D01*
X600500Y827930D02*
X593500Y827930D01*
X593500Y846770D02*
X600500Y846770D01*
X600500Y839770D01*
X593500Y839770D01*
X593500Y846770D01*
X593500Y842620D02*
X600500Y842620D01*
X600500Y845470D02*
X593500Y845470D01*
X562000Y829230D02*
X555000Y829230D01*
X562000Y829230D02*
X562000Y822230D01*
X555000Y822230D01*
X555000Y829230D01*
X555000Y825080D02*
X562000Y825080D01*
X562000Y827930D02*
X555000Y827930D01*
X555000Y846770D02*
X562000Y846770D01*
X562000Y839770D01*
X555000Y839770D01*
X555000Y846770D01*
X555000Y842620D02*
X562000Y842620D01*
X562000Y845470D02*
X555000Y845470D01*
D10*
X597000Y884000D03*
X597000Y866000D03*
X558500Y884000D03*
X558500Y866000D03*
X635000Y866000D03*
X635000Y884000D03*
D27*
X631500Y829230D02*
X638500Y829230D01*
X638500Y822230D01*
X631500Y822230D01*
X631500Y829230D01*
X631500Y825080D02*
X638500Y825080D01*
X638500Y827930D02*
X631500Y827930D01*
X631500Y846770D02*
X638500Y846770D01*
X638500Y839770D01*
X631500Y839770D01*
X631500Y846770D01*
X631500Y842620D02*
X638500Y842620D01*
X638500Y845470D02*
X631500Y845470D01*
D16*
X659000Y631000D03*
X677000Y631000D03*
D10*
X379000Y148000D03*
X379000Y130000D03*
X453000Y148000D03*
X453000Y130000D03*
X523000Y148000D03*
X523000Y130000D03*
D16*
X847000Y781000D03*
X829000Y781000D03*
D10*
X698000Y157000D03*
X698000Y175000D03*
M02*
