G04 EAGLE Gerber RS-274X export*
G75*
%MOMM*%
%FSLAX34Y34*%
%LPD*%
%INSoldermask Top*%
%IPPOS*%
%AMOC8*
5,1,8,0,0,1.08239X$1,22.5*%
G01*
%ADD10C,5.203200*%
%ADD11R,2.082800X0.050800*%
%ADD12R,2.032000X0.050800*%
%ADD13R,1.981200X0.050800*%
%ADD14R,0.152400X0.050800*%
%ADD15R,1.930400X0.050800*%
%ADD16R,0.355600X0.050800*%
%ADD17R,0.304800X0.050800*%
%ADD18R,0.508000X0.050800*%
%ADD19R,0.457200X0.050800*%
%ADD20R,0.711200X0.050800*%
%ADD21R,0.762000X0.050800*%
%ADD22R,0.812800X0.050800*%
%ADD23R,1.879600X0.050800*%
%ADD24R,1.828800X0.050800*%
%ADD25R,0.050800X0.050800*%
%ADD26R,0.203200X0.050800*%
%ADD27R,0.863600X0.050800*%
%ADD28R,0.609600X0.050800*%
%ADD29R,1.778000X0.050800*%
%ADD30R,0.965200X0.050800*%
%ADD31R,1.727200X0.050800*%
%ADD32R,1.117600X0.050800*%
%ADD33R,0.914400X0.050800*%
%ADD34R,1.219200X0.050800*%
%ADD35R,1.371600X0.050800*%
%ADD36R,1.473200X0.050800*%
%ADD37R,1.625600X0.050800*%
%ADD38R,1.676400X0.050800*%
%ADD39R,1.016000X0.050800*%
%ADD40R,1.066800X0.050800*%
%ADD41R,4.165600X0.050800*%
%ADD42R,2.133600X0.050800*%
%ADD43R,2.184400X0.050800*%
%ADD44R,2.235200X0.050800*%
%ADD45R,0.660400X0.050800*%
%ADD46R,0.558800X0.050800*%
%ADD47R,1.574800X0.050800*%
%ADD48R,1.524000X0.050800*%
%ADD49R,1.422400X0.050800*%
%ADD50R,0.406400X0.050800*%
%ADD51R,1.320800X0.050800*%
%ADD52R,1.270000X0.050800*%
%ADD53R,0.254000X0.050800*%
%ADD54R,1.168400X0.050800*%
%ADD55R,11.582400X0.050800*%
%ADD56R,5.588000X0.050800*%
%ADD57R,5.486400X0.050800*%
%ADD58R,5.384800X0.050800*%
%ADD59R,5.334000X0.050800*%
%ADD60R,5.232400X0.050800*%
%ADD61R,5.181600X0.050800*%
%ADD62R,5.130800X0.050800*%
%ADD63R,5.080000X0.050800*%
%ADD64R,5.029200X0.050800*%
%ADD65R,4.978400X0.050800*%
%ADD66R,4.927600X0.050800*%
%ADD67R,4.876800X0.050800*%
%ADD68R,4.826000X0.050800*%
%ADD69R,4.775200X0.050800*%
%ADD70R,4.724400X0.050800*%
%ADD71R,4.673600X0.050800*%
%ADD72R,2.336800X0.050800*%
%ADD73R,2.286000X0.050800*%
%ADD74R,2.540000X0.050800*%
%ADD75R,2.489200X0.050800*%
%ADD76R,2.692400X0.050800*%
%ADD77R,2.641600X0.050800*%
%ADD78R,2.997200X0.050800*%
%ADD79R,2.895600X0.050800*%
%ADD80R,3.098800X0.050800*%
%ADD81R,3.048000X0.050800*%
%ADD82R,3.302000X0.050800*%
%ADD83R,3.251200X0.050800*%
%ADD84R,2.590800X0.050800*%
%ADD85R,2.844800X0.050800*%
%ADD86R,3.200400X0.050800*%
%ADD87R,3.149600X0.050800*%
%ADD88R,3.352800X0.050800*%
%ADD89R,3.403600X0.050800*%
%ADD90R,2.743200X0.050800*%
%ADD91R,3.454400X0.050800*%
%ADD92R,3.505200X0.050800*%
%ADD93R,2.438400X0.050800*%
%ADD94R,3.556000X0.050800*%
%ADD95R,3.606800X0.050800*%
%ADD96R,3.657600X0.050800*%
%ADD97R,3.708400X0.050800*%
%ADD98R,3.810000X0.050800*%
%ADD99R,3.860800X0.050800*%
%ADD100R,3.759200X0.050800*%
%ADD101R,3.911600X0.050800*%
%ADD102R,3.962400X0.050800*%
%ADD103R,4.064000X0.050800*%
%ADD104R,4.114800X0.050800*%
%ADD105R,4.419600X0.050800*%
%ADD106R,9.956800X0.050800*%
%ADD107R,9.906000X0.050800*%
%ADD108R,9.855200X0.050800*%
%ADD109R,9.753600X0.050800*%
%ADD110R,9.652000X0.050800*%
%ADD111R,9.550400X0.050800*%
%ADD112R,9.448800X0.050800*%
%ADD113R,9.347200X0.050800*%
%ADD114R,9.296400X0.050800*%
%ADD115R,9.245600X0.050800*%
%ADD116R,9.144000X0.050800*%
%ADD117R,9.093200X0.050800*%
%ADD118R,9.042400X0.050800*%
%ADD119R,7.518400X0.050800*%
%ADD120R,7.416800X0.050800*%
%ADD121R,7.264400X0.050800*%
%ADD122R,7.112000X0.050800*%
%ADD123R,6.959600X0.050800*%
%ADD124R,6.858000X0.050800*%
%ADD125R,6.705600X0.050800*%
%ADD126R,6.502400X0.050800*%
%ADD127R,6.299200X0.050800*%
%ADD128R,6.146800X0.050800*%
%ADD129R,5.892800X0.050800*%
%ADD130R,5.689600X0.050800*%
%ADD131C,0.279400*%
%ADD132R,1.403200X1.003200*%
%ADD133R,1.303200X2.803200*%
%ADD134R,1.003200X0.487800*%
%ADD135R,0.487800X1.003200*%
%ADD136R,3.353200X3.353200*%
%ADD137R,1.303200X2.103200*%
%ADD138R,1.003200X1.403200*%
%ADD139R,0.503200X1.203200*%
%ADD140R,0.803200X1.203200*%
%ADD141C,0.853200*%
%ADD142R,1.879600X3.098800*%
%ADD143C,2.082800*%
%ADD144R,1.422400X2.438400*%
%ADD145R,3.803200X2.403200*%
%ADD146R,1.603200X3.203200*%
%ADD147C,2.387600*%
%ADD148C,1.403200*%
%ADD149R,1.100000X0.400000*%
%ADD150R,1.003200X1.103200*%
%ADD151R,1.103200X1.003200*%
%ADD152R,0.803200X1.403200*%
%ADD153C,4.203200*%
%ADD154C,2.203200*%
%ADD155C,0.505344*%
%ADD156C,1.209600*%

G36*
X671634Y825368D02*
X671634Y825368D01*
X671639Y825373D01*
X671643Y825369D01*
X672740Y825656D01*
X672744Y825662D01*
X672749Y825659D01*
X673768Y826154D01*
X673771Y826160D01*
X673776Y826159D01*
X674679Y826843D01*
X674681Y826850D01*
X674686Y826850D01*
X675439Y827697D01*
X675439Y827704D01*
X675444Y827705D01*
X676017Y828682D01*
X676016Y828685D01*
X676017Y828686D01*
X676016Y828687D01*
X676016Y828689D01*
X676021Y828691D01*
X676392Y829762D01*
X676390Y829767D01*
X676393Y829769D01*
X676392Y829770D01*
X676394Y829771D01*
X676549Y830893D01*
X676546Y830898D01*
X676549Y830900D01*
X676549Y842900D01*
X676546Y842905D01*
X676549Y842908D01*
X676344Y844175D01*
X676338Y844181D01*
X676341Y844186D01*
X675859Y845375D01*
X675852Y845379D01*
X675854Y845385D01*
X675120Y846438D01*
X675112Y846440D01*
X675113Y846446D01*
X674163Y847309D01*
X674154Y847310D01*
X674154Y847315D01*
X673035Y847945D01*
X673027Y847944D01*
X673025Y847950D01*
X671795Y848315D01*
X671787Y848312D01*
X671784Y848317D01*
X670503Y848399D01*
X670497Y848399D01*
X669216Y848317D01*
X669210Y848311D01*
X669205Y848315D01*
X667975Y847950D01*
X667970Y847943D01*
X667965Y847945D01*
X666846Y847315D01*
X666843Y847308D01*
X666837Y847309D01*
X665887Y846446D01*
X665886Y846438D01*
X665880Y846438D01*
X665146Y845385D01*
X665146Y845377D01*
X665141Y845375D01*
X664659Y844186D01*
X664661Y844180D01*
X664657Y844177D01*
X664658Y844176D01*
X664656Y844175D01*
X664451Y842908D01*
X664454Y842903D01*
X664451Y842900D01*
X664451Y830900D01*
X664454Y830896D01*
X664451Y830893D01*
X664606Y829771D01*
X664611Y829766D01*
X664608Y829762D01*
X664979Y828691D01*
X664985Y828687D01*
X664983Y828682D01*
X665556Y827705D01*
X665562Y827702D01*
X665561Y827697D01*
X666314Y826850D01*
X666321Y826848D01*
X666321Y826843D01*
X667224Y826159D01*
X667231Y826159D01*
X667232Y826154D01*
X668251Y825659D01*
X668258Y825661D01*
X668260Y825656D01*
X669357Y825369D01*
X669363Y825372D01*
X669366Y825368D01*
X670497Y825301D01*
X670501Y825303D01*
X670503Y825301D01*
X671634Y825368D01*
G37*
G36*
X758034Y825368D02*
X758034Y825368D01*
X758039Y825373D01*
X758043Y825369D01*
X759140Y825656D01*
X759144Y825662D01*
X759149Y825659D01*
X760168Y826154D01*
X760171Y826160D01*
X760176Y826159D01*
X761079Y826843D01*
X761081Y826850D01*
X761086Y826850D01*
X761839Y827697D01*
X761839Y827704D01*
X761844Y827705D01*
X762417Y828682D01*
X762416Y828685D01*
X762417Y828686D01*
X762416Y828687D01*
X762416Y828689D01*
X762421Y828691D01*
X762792Y829762D01*
X762790Y829767D01*
X762793Y829769D01*
X762792Y829770D01*
X762794Y829771D01*
X762949Y830893D01*
X762946Y830898D01*
X762949Y830900D01*
X762949Y842900D01*
X762946Y842905D01*
X762949Y842908D01*
X762744Y844175D01*
X762738Y844181D01*
X762741Y844186D01*
X762259Y845375D01*
X762252Y845379D01*
X762254Y845385D01*
X761520Y846438D01*
X761512Y846440D01*
X761513Y846446D01*
X760563Y847309D01*
X760554Y847310D01*
X760554Y847315D01*
X759435Y847945D01*
X759427Y847944D01*
X759425Y847950D01*
X758195Y848315D01*
X758187Y848312D01*
X758184Y848317D01*
X756903Y848399D01*
X756897Y848399D01*
X755616Y848317D01*
X755610Y848311D01*
X755605Y848315D01*
X754375Y847950D01*
X754370Y847943D01*
X754365Y847945D01*
X753246Y847315D01*
X753243Y847308D01*
X753237Y847309D01*
X752287Y846446D01*
X752286Y846438D01*
X752280Y846438D01*
X751546Y845385D01*
X751546Y845377D01*
X751541Y845375D01*
X751059Y844186D01*
X751061Y844180D01*
X751057Y844177D01*
X751058Y844176D01*
X751056Y844175D01*
X750851Y842908D01*
X750854Y842903D01*
X750851Y842900D01*
X750851Y830900D01*
X750854Y830896D01*
X750851Y830893D01*
X751006Y829771D01*
X751011Y829766D01*
X751008Y829762D01*
X751379Y828691D01*
X751385Y828687D01*
X751383Y828682D01*
X751956Y827705D01*
X751962Y827702D01*
X751961Y827697D01*
X752714Y826850D01*
X752721Y826848D01*
X752721Y826843D01*
X753624Y826159D01*
X753631Y826159D01*
X753632Y826154D01*
X754651Y825659D01*
X754658Y825661D01*
X754660Y825656D01*
X755757Y825369D01*
X755763Y825372D01*
X755766Y825368D01*
X756897Y825301D01*
X756901Y825303D01*
X756903Y825301D01*
X758034Y825368D01*
G37*
G36*
X756902Y869605D02*
X756902Y869605D01*
X756906Y869601D01*
X758246Y869758D01*
X758252Y869763D01*
X758257Y869760D01*
X759528Y870211D01*
X759533Y870218D01*
X759538Y870216D01*
X760677Y870938D01*
X760680Y870946D01*
X760686Y870945D01*
X761636Y871903D01*
X761637Y871911D01*
X761643Y871912D01*
X762356Y873057D01*
X762355Y873066D01*
X762361Y873067D01*
X762801Y874343D01*
X762799Y874350D01*
X762803Y874353D01*
X762949Y875695D01*
X762947Y875698D01*
X762949Y875700D01*
X762949Y881700D01*
X762947Y881704D01*
X762949Y881706D01*
X762794Y883035D01*
X762788Y883041D01*
X762791Y883045D01*
X762344Y884306D01*
X762337Y884311D01*
X762339Y884316D01*
X761622Y885446D01*
X761615Y885449D01*
X761616Y885455D01*
X760666Y886397D01*
X760657Y886398D01*
X760657Y886404D01*
X759521Y887111D01*
X759513Y887110D01*
X759511Y887116D01*
X758246Y887552D01*
X758238Y887550D01*
X758236Y887555D01*
X756905Y887699D01*
X756899Y887695D01*
X756895Y887699D01*
X755729Y887589D01*
X755724Y887584D01*
X755720Y887587D01*
X754597Y887252D01*
X754593Y887246D01*
X754589Y887248D01*
X753553Y886700D01*
X753550Y886694D01*
X753545Y886695D01*
X752637Y885956D01*
X752635Y885949D01*
X752630Y885949D01*
X751883Y885047D01*
X751883Y885040D01*
X751878Y885039D01*
X751321Y884008D01*
X751322Y884001D01*
X751317Y883999D01*
X750973Y882880D01*
X750975Y882873D01*
X750971Y882870D01*
X750851Y881705D01*
X750853Y881702D01*
X750851Y881700D01*
X750851Y875700D01*
X750853Y875697D01*
X750851Y875695D01*
X750962Y874519D01*
X750967Y874514D01*
X750964Y874510D01*
X751302Y873378D01*
X751308Y873374D01*
X751306Y873369D01*
X751858Y872325D01*
X751865Y872322D01*
X751863Y872317D01*
X752609Y871401D01*
X752616Y871400D01*
X752616Y871394D01*
X753526Y870641D01*
X753533Y870641D01*
X753534Y870636D01*
X754573Y870075D01*
X754580Y870076D01*
X754582Y870071D01*
X755711Y869724D01*
X755717Y869726D01*
X755720Y869722D01*
X756895Y869601D01*
X756902Y869605D01*
G37*
G36*
X670502Y869605D02*
X670502Y869605D01*
X670506Y869601D01*
X671846Y869758D01*
X671852Y869763D01*
X671857Y869760D01*
X673128Y870211D01*
X673133Y870218D01*
X673138Y870216D01*
X674277Y870938D01*
X674280Y870946D01*
X674286Y870945D01*
X675236Y871903D01*
X675237Y871911D01*
X675243Y871912D01*
X675956Y873057D01*
X675955Y873066D01*
X675961Y873067D01*
X676401Y874343D01*
X676399Y874350D01*
X676403Y874353D01*
X676549Y875695D01*
X676547Y875698D01*
X676549Y875700D01*
X676549Y881700D01*
X676547Y881704D01*
X676549Y881706D01*
X676394Y883035D01*
X676388Y883041D01*
X676391Y883045D01*
X675944Y884306D01*
X675937Y884311D01*
X675939Y884316D01*
X675222Y885446D01*
X675215Y885449D01*
X675216Y885455D01*
X674266Y886397D01*
X674257Y886398D01*
X674257Y886404D01*
X673121Y887111D01*
X673113Y887110D01*
X673111Y887116D01*
X671846Y887552D01*
X671838Y887550D01*
X671836Y887555D01*
X670505Y887699D01*
X670499Y887695D01*
X670495Y887699D01*
X669329Y887589D01*
X669324Y887584D01*
X669320Y887587D01*
X668197Y887252D01*
X668193Y887246D01*
X668189Y887248D01*
X667153Y886700D01*
X667150Y886694D01*
X667145Y886695D01*
X666237Y885956D01*
X666235Y885949D01*
X666230Y885949D01*
X665483Y885047D01*
X665483Y885040D01*
X665478Y885039D01*
X664921Y884008D01*
X664922Y884001D01*
X664917Y883999D01*
X664573Y882880D01*
X664575Y882873D01*
X664571Y882870D01*
X664451Y881705D01*
X664453Y881702D01*
X664451Y881700D01*
X664451Y875700D01*
X664453Y875697D01*
X664451Y875695D01*
X664562Y874519D01*
X664567Y874514D01*
X664564Y874510D01*
X664902Y873378D01*
X664908Y873374D01*
X664906Y873369D01*
X665458Y872325D01*
X665465Y872322D01*
X665463Y872317D01*
X666209Y871401D01*
X666216Y871400D01*
X666216Y871394D01*
X667126Y870641D01*
X667133Y870641D01*
X667134Y870636D01*
X668173Y870075D01*
X668180Y870076D01*
X668182Y870071D01*
X669311Y869724D01*
X669317Y869726D01*
X669320Y869722D01*
X670495Y869601D01*
X670502Y869605D01*
G37*
D10*
X50000Y50000D03*
X900000Y50000D03*
X900000Y850000D03*
X50000Y850000D03*
D11*
X471372Y376944D03*
D12*
X471626Y377452D03*
X471626Y377960D03*
X471626Y378468D03*
X471626Y378976D03*
X471626Y379484D03*
X471626Y379992D03*
D13*
X471372Y380500D03*
D14*
X457148Y381008D03*
D15*
X471626Y381008D03*
D14*
X485596Y381008D03*
D16*
X456132Y381516D03*
D15*
X471626Y381516D03*
D17*
X486358Y381516D03*
D18*
X455370Y382024D03*
D15*
X471626Y382024D03*
D19*
X487120Y382024D03*
D20*
X454354Y382532D03*
D15*
X471626Y382532D03*
D20*
X488390Y382532D03*
D21*
X454100Y383040D03*
D15*
X471626Y383040D03*
D20*
X488390Y383040D03*
D21*
X454100Y383548D03*
D15*
X471626Y383548D03*
D21*
X488136Y383548D03*
D22*
X454354Y384056D03*
D23*
X471372Y384056D03*
D21*
X488136Y384056D03*
D22*
X454354Y384564D03*
D24*
X471626Y384564D03*
D21*
X488136Y384564D03*
D25*
X445972Y385072D03*
D22*
X454354Y385072D03*
D24*
X471626Y385072D03*
D21*
X488136Y385072D03*
D25*
X496772Y385072D03*
D26*
X445210Y385580D03*
D22*
X454354Y385580D03*
D24*
X471626Y385580D03*
D21*
X488136Y385580D03*
D26*
X497534Y385580D03*
D16*
X444448Y386088D03*
D22*
X454354Y386088D03*
D24*
X471626Y386088D03*
D21*
X488136Y386088D03*
D17*
X498042Y386088D03*
D19*
X443940Y386596D03*
D27*
X454608Y386596D03*
D24*
X471626Y386596D03*
D22*
X487882Y386596D03*
D19*
X498804Y386596D03*
D28*
X443178Y387104D03*
D27*
X454608Y387104D03*
D24*
X471626Y387104D03*
D22*
X487882Y387104D03*
D28*
X499566Y387104D03*
D20*
X442670Y387612D03*
D27*
X454608Y387612D03*
D29*
X471372Y387612D03*
D22*
X487882Y387612D03*
D20*
X500074Y387612D03*
D27*
X441908Y388120D03*
X454608Y388120D03*
D29*
X471372Y388120D03*
D22*
X487882Y388120D03*
D27*
X500836Y388120D03*
D30*
X441400Y388628D03*
D27*
X454608Y388628D03*
D31*
X471626Y388628D03*
D22*
X487882Y388628D03*
D30*
X501344Y388628D03*
D32*
X440638Y389136D03*
D33*
X454862Y389136D03*
D31*
X471626Y389136D03*
D22*
X487882Y389136D03*
D32*
X502106Y389136D03*
D34*
X440130Y389644D03*
D33*
X454862Y389644D03*
D31*
X471626Y389644D03*
D22*
X487882Y389644D03*
D34*
X502614Y389644D03*
D35*
X439368Y390152D03*
D33*
X454862Y390152D03*
D31*
X471626Y390152D03*
D22*
X487882Y390152D03*
D35*
X503376Y390152D03*
D36*
X438860Y390660D03*
D33*
X454862Y390660D03*
D31*
X471626Y390660D03*
D27*
X487628Y390660D03*
D36*
X503884Y390660D03*
D37*
X438098Y391168D03*
D33*
X454862Y391168D03*
D38*
X471372Y391168D03*
D27*
X487628Y391168D03*
D37*
X504646Y391168D03*
D31*
X437590Y391676D03*
D30*
X455116Y391676D03*
D38*
X471372Y391676D03*
D27*
X487628Y391676D03*
D31*
X505154Y391676D03*
D23*
X436828Y392184D03*
D30*
X455116Y392184D03*
D25*
X464260Y392184D03*
D27*
X487628Y392184D03*
D23*
X505916Y392184D03*
D13*
X436320Y392692D03*
D30*
X455116Y392692D03*
D27*
X487628Y392692D03*
D13*
X506424Y392692D03*
D11*
X435812Y393200D03*
D30*
X455116Y393200D03*
D27*
X487628Y393200D03*
D11*
X506932Y393200D03*
X435812Y393708D03*
D30*
X455116Y393708D03*
D27*
X487628Y393708D03*
D11*
X506932Y393708D03*
X435812Y394216D03*
D30*
X455116Y394216D03*
D27*
X487628Y394216D03*
D11*
X506932Y394216D03*
X435812Y394724D03*
D39*
X455370Y394724D03*
D33*
X487374Y394724D03*
D11*
X506932Y394724D03*
X435812Y395232D03*
D39*
X455370Y395232D03*
D33*
X487374Y395232D03*
D11*
X506932Y395232D03*
X435812Y395740D03*
D39*
X455370Y395740D03*
D33*
X487374Y395740D03*
D11*
X506932Y395740D03*
X435812Y396248D03*
D40*
X455624Y396248D03*
D33*
X487374Y396248D03*
D11*
X506932Y396248D03*
X435812Y396756D03*
D41*
X471118Y396756D03*
D11*
X506932Y396756D03*
X435812Y397264D03*
D41*
X471118Y397264D03*
D11*
X506932Y397264D03*
D42*
X435558Y397772D03*
D41*
X471118Y397772D03*
D11*
X506932Y397772D03*
D42*
X435558Y398280D03*
D41*
X471118Y398280D03*
D11*
X506932Y398280D03*
D42*
X435558Y398788D03*
D41*
X471118Y398788D03*
D11*
X506932Y398788D03*
D42*
X435558Y399296D03*
D41*
X471118Y399296D03*
D11*
X506932Y399296D03*
D42*
X435558Y399804D03*
D41*
X471118Y399804D03*
D11*
X506932Y399804D03*
D42*
X435558Y400312D03*
D41*
X471118Y400312D03*
D11*
X506932Y400312D03*
D42*
X435558Y400820D03*
D41*
X471118Y400820D03*
D11*
X506932Y400820D03*
D42*
X435558Y401328D03*
D32*
X455878Y401328D03*
D39*
X486866Y401328D03*
D11*
X506932Y401328D03*
D42*
X435558Y401836D03*
D32*
X455878Y401836D03*
D39*
X486866Y401836D03*
D42*
X507186Y401836D03*
X435558Y402344D03*
D32*
X455878Y402344D03*
D39*
X486866Y402344D03*
D42*
X507186Y402344D03*
X435558Y402852D03*
D32*
X455878Y402852D03*
D39*
X486866Y402852D03*
D42*
X507186Y402852D03*
X435558Y403360D03*
D32*
X455878Y403360D03*
D39*
X486866Y403360D03*
D42*
X507186Y403360D03*
X435558Y403868D03*
D32*
X455878Y403868D03*
D39*
X486866Y403868D03*
D42*
X507186Y403868D03*
X435558Y404376D03*
D32*
X455878Y404376D03*
D39*
X486866Y404376D03*
D42*
X507186Y404376D03*
X435558Y404884D03*
D32*
X455878Y404884D03*
D39*
X486866Y404884D03*
D42*
X507186Y404884D03*
X435558Y405392D03*
D32*
X455878Y405392D03*
D34*
X471626Y405392D03*
D39*
X486866Y405392D03*
D42*
X507186Y405392D03*
X435558Y405900D03*
D32*
X455878Y405900D03*
D34*
X471626Y405900D03*
D39*
X486866Y405900D03*
D42*
X507186Y405900D03*
D43*
X435304Y406408D03*
D32*
X455878Y406408D03*
D34*
X471626Y406408D03*
D39*
X486866Y406408D03*
D42*
X507186Y406408D03*
D43*
X435304Y406916D03*
D32*
X455878Y406916D03*
D34*
X471626Y406916D03*
D39*
X486866Y406916D03*
D42*
X507186Y406916D03*
D43*
X435304Y407424D03*
D32*
X455878Y407424D03*
D34*
X471626Y407424D03*
D39*
X486866Y407424D03*
D42*
X507186Y407424D03*
D43*
X435304Y407932D03*
D32*
X455878Y407932D03*
D34*
X471626Y407932D03*
D39*
X486866Y407932D03*
D42*
X507186Y407932D03*
D43*
X435304Y408440D03*
D32*
X455878Y408440D03*
D34*
X471626Y408440D03*
D39*
X486866Y408440D03*
D42*
X507186Y408440D03*
D43*
X435304Y408948D03*
D32*
X455878Y408948D03*
D34*
X471626Y408948D03*
D39*
X486866Y408948D03*
D42*
X507186Y408948D03*
D43*
X435304Y409456D03*
D32*
X455878Y409456D03*
D34*
X471626Y409456D03*
D39*
X486866Y409456D03*
D42*
X507186Y409456D03*
D43*
X435304Y409964D03*
D32*
X455878Y409964D03*
D34*
X471626Y409964D03*
D39*
X486866Y409964D03*
D42*
X507186Y409964D03*
D43*
X435304Y410472D03*
D32*
X455878Y410472D03*
D34*
X471626Y410472D03*
D39*
X486866Y410472D03*
D43*
X507440Y410472D03*
X435304Y410980D03*
D32*
X455878Y410980D03*
D34*
X471626Y410980D03*
D39*
X486866Y410980D03*
D43*
X507440Y410980D03*
X435304Y411488D03*
D32*
X455878Y411488D03*
D34*
X471626Y411488D03*
D39*
X486866Y411488D03*
D43*
X507440Y411488D03*
X435304Y411996D03*
D32*
X455878Y411996D03*
D34*
X471626Y411996D03*
D39*
X486866Y411996D03*
D43*
X507440Y411996D03*
X435304Y412504D03*
D32*
X455878Y412504D03*
D34*
X471626Y412504D03*
D39*
X486866Y412504D03*
D43*
X507440Y412504D03*
X435304Y413012D03*
D32*
X455878Y413012D03*
D34*
X471626Y413012D03*
D39*
X486866Y413012D03*
D43*
X507440Y413012D03*
X435304Y413520D03*
D32*
X455878Y413520D03*
D34*
X471626Y413520D03*
D39*
X486866Y413520D03*
D43*
X507440Y413520D03*
X435304Y414028D03*
D32*
X455878Y414028D03*
D34*
X471626Y414028D03*
D39*
X486866Y414028D03*
D43*
X507440Y414028D03*
X435304Y414536D03*
D32*
X455878Y414536D03*
D34*
X471626Y414536D03*
D39*
X486866Y414536D03*
D43*
X507440Y414536D03*
D44*
X435050Y415044D03*
D32*
X455878Y415044D03*
D34*
X471626Y415044D03*
D39*
X486866Y415044D03*
D43*
X507440Y415044D03*
D44*
X435050Y415552D03*
D32*
X455878Y415552D03*
D34*
X471626Y415552D03*
D39*
X486866Y415552D03*
D43*
X507440Y415552D03*
D44*
X435050Y416060D03*
D32*
X455878Y416060D03*
D34*
X471626Y416060D03*
D39*
X486866Y416060D03*
D43*
X507440Y416060D03*
D44*
X435050Y416568D03*
D32*
X455878Y416568D03*
D34*
X471626Y416568D03*
D39*
X486866Y416568D03*
D43*
X507440Y416568D03*
D44*
X435050Y417076D03*
D32*
X455878Y417076D03*
D34*
X471626Y417076D03*
D39*
X486866Y417076D03*
D43*
X507440Y417076D03*
D44*
X435050Y417584D03*
D32*
X455878Y417584D03*
D34*
X471626Y417584D03*
D39*
X486866Y417584D03*
D43*
X507440Y417584D03*
D44*
X435050Y418092D03*
D32*
X455878Y418092D03*
D34*
X471626Y418092D03*
D39*
X486866Y418092D03*
D43*
X507440Y418092D03*
D44*
X435050Y418600D03*
D32*
X455878Y418600D03*
D34*
X471626Y418600D03*
D39*
X486866Y418600D03*
D43*
X507440Y418600D03*
D44*
X435050Y419108D03*
D32*
X455878Y419108D03*
D34*
X471626Y419108D03*
D39*
X486866Y419108D03*
D44*
X507694Y419108D03*
X435050Y419616D03*
D32*
X455878Y419616D03*
D34*
X471626Y419616D03*
D39*
X486866Y419616D03*
D44*
X507694Y419616D03*
X435050Y420124D03*
D32*
X455878Y420124D03*
D34*
X471626Y420124D03*
D39*
X486866Y420124D03*
D44*
X507694Y420124D03*
X435050Y420632D03*
D32*
X455878Y420632D03*
D34*
X471626Y420632D03*
D39*
X486866Y420632D03*
D44*
X507694Y420632D03*
D42*
X434542Y421140D03*
D39*
X456386Y421140D03*
D34*
X471626Y421140D03*
D30*
X486612Y421140D03*
D43*
X507948Y421140D03*
D11*
X434288Y421648D03*
D30*
X456640Y421648D03*
D34*
X471626Y421648D03*
D27*
X486104Y421648D03*
D11*
X508456Y421648D03*
D13*
X433780Y422156D03*
D27*
X457148Y422156D03*
D34*
X471626Y422156D03*
D22*
X485850Y422156D03*
D13*
X508964Y422156D03*
D23*
X433272Y422664D03*
D22*
X457402Y422664D03*
D34*
X471626Y422664D03*
D21*
X485596Y422664D03*
D23*
X509472Y422664D03*
D29*
X432764Y423172D03*
D20*
X457910Y423172D03*
D34*
X471626Y423172D03*
D45*
X485088Y423172D03*
D29*
X509980Y423172D03*
D31*
X432002Y423680D03*
D45*
X458164Y423680D03*
D34*
X471626Y423680D03*
D28*
X484834Y423680D03*
D38*
X510488Y423680D03*
D37*
X431494Y424188D03*
D46*
X458672Y424188D03*
D34*
X471626Y424188D03*
D18*
X484326Y424188D03*
D47*
X510996Y424188D03*
D48*
X430986Y424696D03*
D18*
X458926Y424696D03*
D34*
X471626Y424696D03*
D19*
X484072Y424696D03*
D48*
X511250Y424696D03*
D49*
X430478Y425204D03*
D50*
X459434Y425204D03*
D34*
X471626Y425204D03*
D16*
X483564Y425204D03*
D49*
X511758Y425204D03*
D35*
X430224Y425712D03*
D16*
X459688Y425712D03*
D34*
X471626Y425712D03*
D17*
X483310Y425712D03*
D51*
X512266Y425712D03*
D52*
X429716Y426220D03*
D53*
X460196Y426220D03*
D34*
X471626Y426220D03*
D53*
X483056Y426220D03*
D34*
X512774Y426220D03*
D54*
X429208Y426728D03*
D14*
X460704Y426728D03*
D34*
X471626Y426728D03*
D14*
X482548Y426728D03*
D32*
X513282Y426728D03*
D40*
X428700Y427236D03*
D25*
X460704Y427236D03*
D34*
X471626Y427236D03*
D25*
X482548Y427236D03*
D40*
X514044Y427236D03*
D39*
X428446Y427744D03*
D34*
X471626Y427744D03*
D39*
X514298Y427744D03*
D30*
X428192Y428252D03*
D34*
X471626Y428252D03*
D39*
X514298Y428252D03*
D30*
X428192Y428760D03*
D34*
X471626Y428760D03*
D30*
X514552Y428760D03*
X428192Y429268D03*
D34*
X471626Y429268D03*
D30*
X514552Y429268D03*
X428192Y429776D03*
D34*
X471626Y429776D03*
D30*
X514552Y429776D03*
D33*
X427938Y430284D03*
D34*
X471626Y430284D03*
D30*
X514552Y430284D03*
D33*
X427938Y430792D03*
D34*
X471626Y430792D03*
D30*
X514552Y430792D03*
D33*
X427938Y431300D03*
D34*
X471626Y431300D03*
D33*
X514806Y431300D03*
X427938Y431808D03*
D34*
X471626Y431808D03*
D33*
X514806Y431808D03*
D30*
X427684Y432316D03*
D34*
X471626Y432316D03*
D33*
X514806Y432316D03*
X427430Y432824D03*
D34*
X471626Y432824D03*
D33*
X514806Y432824D03*
X427430Y433332D03*
D34*
X471626Y433332D03*
D33*
X514806Y433332D03*
X427430Y433840D03*
D34*
X471626Y433840D03*
D27*
X515060Y433840D03*
D33*
X427430Y434348D03*
D34*
X471626Y434348D03*
D27*
X515060Y434348D03*
D33*
X427430Y434856D03*
D34*
X471626Y434856D03*
D27*
X515060Y434856D03*
X427176Y435364D03*
D34*
X471626Y435364D03*
D27*
X515060Y435364D03*
X427176Y435872D03*
D34*
X471626Y435872D03*
D22*
X515314Y435872D03*
D27*
X427176Y436380D03*
D34*
X471626Y436380D03*
D27*
X515568Y436380D03*
D22*
X426922Y436888D03*
D34*
X471626Y436888D03*
D27*
X515568Y436888D03*
D22*
X426922Y437396D03*
D52*
X471880Y437396D03*
D27*
X515568Y437396D03*
D55*
X470610Y439428D03*
X470610Y439936D03*
X470610Y440444D03*
X470610Y440952D03*
X470610Y441460D03*
X470610Y441968D03*
X470610Y442476D03*
X470610Y442984D03*
X470610Y443492D03*
X470610Y444000D03*
X470610Y444508D03*
X470610Y445016D03*
X470610Y445524D03*
X470610Y446032D03*
X470610Y446540D03*
X470610Y447048D03*
X470610Y447556D03*
X470610Y448064D03*
X470610Y448572D03*
X470610Y449080D03*
X470610Y449588D03*
D56*
X440638Y450096D03*
D57*
X501090Y450096D03*
D58*
X439622Y450604D03*
D59*
X501852Y450604D03*
D60*
X438860Y451112D03*
D61*
X502614Y451112D03*
D62*
X438352Y451620D03*
D63*
X503122Y451620D03*
D64*
X437844Y452128D03*
D65*
X503630Y452128D03*
X437590Y452636D03*
D66*
X503884Y452636D03*
X437336Y453144D03*
D67*
X504138Y453144D03*
X437082Y453652D03*
D68*
X504392Y453652D03*
X436828Y454160D03*
D69*
X504646Y454160D03*
X436574Y454668D03*
D70*
X504900Y454668D03*
X436320Y455176D03*
D71*
X505154Y455176D03*
D42*
X448766Y455684D03*
X492962Y455684D03*
D72*
X447242Y456192D03*
D73*
X494232Y456192D03*
D74*
X446226Y456700D03*
D75*
X495248Y456700D03*
D76*
X444956Y457208D03*
D77*
X496518Y457208D03*
D78*
X443432Y457716D03*
D79*
X497788Y457716D03*
D80*
X442416Y458224D03*
D81*
X498550Y458224D03*
D82*
X441400Y458732D03*
D83*
X499566Y458732D03*
D77*
X436066Y459240D03*
D21*
X454100Y459240D03*
X487120Y459240D03*
D84*
X504900Y459240D03*
D85*
X435050Y459748D03*
D20*
X453846Y459748D03*
X487374Y459748D03*
D78*
X506932Y459748D03*
D81*
X434034Y460256D03*
D20*
X453846Y460256D03*
X487374Y460256D03*
D78*
X506932Y460256D03*
D86*
X433272Y460764D03*
D20*
X453846Y460764D03*
X487374Y460764D03*
D86*
X507948Y460764D03*
D87*
X432510Y461272D03*
D45*
X453592Y461272D03*
X487628Y461272D03*
D86*
X508964Y461272D03*
D87*
X432510Y461780D03*
D45*
X453592Y461780D03*
X487628Y461780D03*
D86*
X508964Y461780D03*
D87*
X432510Y462288D03*
D45*
X453592Y462288D03*
X487628Y462288D03*
D86*
X508964Y462288D03*
D87*
X432510Y462796D03*
D45*
X453592Y462796D03*
X487628Y462796D03*
D86*
X508964Y462796D03*
D87*
X432510Y463304D03*
D45*
X453592Y463304D03*
X487628Y463304D03*
D86*
X508964Y463304D03*
D87*
X432510Y463812D03*
D45*
X453592Y463812D03*
X487628Y463812D03*
D86*
X508964Y463812D03*
D87*
X432510Y464320D03*
D45*
X453592Y464320D03*
X487628Y464320D03*
D86*
X508964Y464320D03*
D87*
X432510Y464828D03*
D45*
X453592Y464828D03*
X487628Y464828D03*
D86*
X508964Y464828D03*
D87*
X432510Y465336D03*
D45*
X453592Y465336D03*
X487628Y465336D03*
D86*
X508964Y465336D03*
D87*
X432510Y465844D03*
D45*
X453592Y465844D03*
X487628Y465844D03*
D86*
X508964Y465844D03*
D87*
X432510Y466352D03*
D45*
X453592Y466352D03*
X487628Y466352D03*
D86*
X508964Y466352D03*
D87*
X432510Y466860D03*
D20*
X453846Y466860D03*
X487374Y466860D03*
D86*
X508964Y466860D03*
D87*
X432510Y467368D03*
D20*
X453846Y467368D03*
X487374Y467368D03*
D86*
X508964Y467368D03*
D87*
X432510Y467876D03*
D20*
X453846Y467876D03*
X487374Y467876D03*
D86*
X508964Y467876D03*
D87*
X432510Y468384D03*
D21*
X454100Y468384D03*
X487120Y468384D03*
D86*
X508964Y468384D03*
D87*
X432510Y468892D03*
D20*
X454354Y468892D03*
X486866Y468892D03*
D86*
X508964Y468892D03*
D87*
X432510Y469400D03*
D20*
X454354Y469400D03*
X486866Y469400D03*
D86*
X508964Y469400D03*
D87*
X432510Y469908D03*
D21*
X454608Y469908D03*
X486612Y469908D03*
D86*
X508964Y469908D03*
D87*
X432510Y470416D03*
D20*
X454862Y470416D03*
X486358Y470416D03*
D86*
X508964Y470416D03*
D87*
X432510Y470924D03*
D21*
X455116Y470924D03*
X486104Y470924D03*
D86*
X508964Y470924D03*
D87*
X432510Y471432D03*
D20*
X455370Y471432D03*
X485850Y471432D03*
D86*
X508964Y471432D03*
D87*
X432510Y471940D03*
D21*
X455624Y471940D03*
X485596Y471940D03*
D86*
X508964Y471940D03*
D87*
X432510Y472448D03*
D21*
X456132Y472448D03*
X485088Y472448D03*
D86*
X508964Y472448D03*
D87*
X432510Y472956D03*
D22*
X456386Y472956D03*
X484834Y472956D03*
D86*
X508964Y472956D03*
X432764Y473464D03*
D22*
X456894Y473464D03*
X484326Y473464D03*
D83*
X508710Y473464D03*
D86*
X432764Y473972D03*
D22*
X457402Y473972D03*
X483818Y473972D03*
D83*
X508710Y473972D03*
D86*
X432764Y474480D03*
D27*
X457656Y474480D03*
X483564Y474480D03*
D83*
X508710Y474480D03*
X433018Y474988D03*
D27*
X458164Y474988D03*
X483056Y474988D03*
D82*
X508456Y474988D03*
D83*
X433018Y475496D03*
D33*
X458926Y475496D03*
X482294Y475496D03*
D82*
X508456Y475496D03*
X433272Y476004D03*
D39*
X459434Y476004D03*
X481786Y476004D03*
D88*
X508202Y476004D03*
D82*
X433272Y476512D03*
D39*
X459942Y476512D03*
X481278Y476512D03*
D88*
X508202Y476512D03*
D82*
X433780Y477020D03*
D32*
X460958Y477020D03*
X480262Y477020D03*
D89*
X507948Y477020D03*
D82*
X433780Y477528D03*
D34*
X461974Y477528D03*
X479246Y477528D03*
D88*
X507694Y477528D03*
X434034Y478036D03*
D85*
X470610Y478036D03*
D89*
X507440Y478036D03*
D82*
X434288Y478544D03*
D90*
X470610Y478544D03*
D89*
X507440Y478544D03*
D88*
X434542Y479052D03*
D77*
X470610Y479052D03*
D91*
X507186Y479052D03*
D89*
X434796Y479560D03*
D74*
X470610Y479560D03*
D92*
X506932Y479560D03*
D88*
X435050Y480068D03*
D93*
X470610Y480068D03*
D91*
X506678Y480068D03*
X435558Y480576D03*
D72*
X470610Y480576D03*
D94*
X506170Y480576D03*
D91*
X435558Y481084D03*
D12*
X470610Y481084D03*
D94*
X506170Y481084D03*
D91*
X436066Y481592D03*
D12*
X470610Y481592D03*
D95*
X505916Y481592D03*
D92*
X436320Y482100D03*
D31*
X470610Y482100D03*
D95*
X505408Y482100D03*
D94*
X436574Y482608D03*
D51*
X470610Y482608D03*
D96*
X505154Y482608D03*
D94*
X437082Y483116D03*
D51*
X470610Y483116D03*
D97*
X504900Y483116D03*
D95*
X437336Y483624D03*
D51*
X470610Y483624D03*
D97*
X504392Y483624D03*
X437844Y484132D03*
D98*
X503884Y484132D03*
D97*
X438352Y484640D03*
D99*
X503630Y484640D03*
D100*
X438606Y485148D03*
D99*
X503122Y485148D03*
D100*
X439114Y485656D03*
D101*
X502868Y485656D03*
D99*
X439622Y486164D03*
D102*
X502106Y486164D03*
D101*
X439876Y486672D03*
D103*
X501598Y486672D03*
D102*
X440638Y487180D03*
D103*
X501090Y487180D03*
X441146Y487688D03*
D41*
X500582Y487688D03*
D104*
X441908Y488196D03*
D105*
X498804Y488196D03*
D106*
X471118Y488704D03*
D107*
X471372Y489212D03*
D108*
X471118Y489720D03*
D109*
X471118Y490228D03*
X471118Y490736D03*
D110*
X471118Y491244D03*
X471118Y491752D03*
D111*
X471118Y492260D03*
D112*
X471118Y492768D03*
X471118Y493276D03*
D113*
X471118Y493784D03*
D114*
X470864Y494292D03*
D115*
X471118Y494800D03*
D116*
X471118Y495308D03*
D117*
X470864Y495816D03*
D118*
X471118Y496324D03*
D46*
X429208Y496832D03*
D119*
X470610Y496832D03*
D20*
X512266Y496832D03*
D18*
X429462Y497340D03*
D120*
X471118Y497340D03*
D45*
X512012Y497340D03*
D46*
X429716Y497848D03*
D121*
X470864Y497848D03*
D45*
X511504Y497848D03*
D46*
X430224Y498356D03*
D122*
X470610Y498356D03*
D28*
X511250Y498356D03*
D46*
X430224Y498864D03*
D123*
X470864Y498864D03*
D46*
X510996Y498864D03*
X430732Y499372D03*
D124*
X470864Y499372D03*
D28*
X510742Y499372D03*
D46*
X431240Y499880D03*
D125*
X471118Y499880D03*
D46*
X510488Y499880D03*
X431748Y500388D03*
D126*
X471118Y500388D03*
D46*
X509980Y500388D03*
D18*
X432002Y500896D03*
D127*
X471118Y500896D03*
D46*
X509472Y500896D03*
D18*
X432510Y501404D03*
D128*
X470864Y501404D03*
D18*
X509218Y501404D03*
X433018Y501912D03*
D129*
X470610Y501912D03*
D18*
X508710Y501912D03*
X433526Y502420D03*
D130*
X470610Y502420D03*
D18*
X508202Y502420D03*
X434034Y502928D03*
D58*
X471118Y502928D03*
D18*
X507694Y502928D03*
D46*
X434288Y503436D03*
D62*
X471372Y503436D03*
D18*
X507186Y503436D03*
D46*
X434796Y503944D03*
D40*
X452576Y503944D03*
D73*
X470864Y503944D03*
D54*
X489660Y503944D03*
D18*
X506678Y503944D03*
D46*
X435304Y504452D03*
D22*
X453846Y504452D03*
D73*
X470864Y504452D03*
D27*
X488644Y504452D03*
D46*
X505916Y504452D03*
D28*
X436066Y504960D03*
D18*
X454862Y504960D03*
D73*
X470864Y504960D03*
D28*
X487374Y504960D03*
D46*
X505408Y504960D03*
D28*
X436574Y505468D03*
D19*
X454608Y505468D03*
D73*
X470864Y505468D03*
D19*
X487120Y505468D03*
D28*
X504646Y505468D03*
D45*
X437336Y505976D03*
D18*
X454354Y505976D03*
D73*
X470864Y505976D03*
D50*
X486866Y505976D03*
D28*
X504138Y505976D03*
X438098Y506484D03*
D19*
X454100Y506484D03*
D73*
X470864Y506484D03*
D50*
X487374Y506484D03*
D45*
X503376Y506484D03*
D28*
X438606Y506992D03*
D19*
X453592Y506992D03*
D73*
X470864Y506992D03*
D50*
X487374Y506992D03*
D45*
X502868Y506992D03*
X439368Y507500D03*
D19*
X453592Y507500D03*
D73*
X470864Y507500D03*
D50*
X487882Y507500D03*
D45*
X501852Y507500D03*
X439876Y508008D03*
D19*
X453084Y508008D03*
D73*
X470864Y508008D03*
D50*
X487882Y508008D03*
D45*
X501344Y508008D03*
D20*
X440638Y508516D03*
D19*
X452576Y508516D03*
D73*
X470864Y508516D03*
D50*
X488390Y508516D03*
D20*
X500582Y508516D03*
D45*
X441400Y509024D03*
D19*
X452576Y509024D03*
D73*
X470864Y509024D03*
D50*
X488390Y509024D03*
D45*
X499820Y509024D03*
D20*
X442162Y509532D03*
D19*
X452068Y509532D03*
D73*
X470864Y509532D03*
D50*
X488898Y509532D03*
D45*
X499312Y509532D03*
D20*
X442670Y510040D03*
D50*
X451814Y510040D03*
D73*
X470864Y510040D03*
D50*
X488898Y510040D03*
D45*
X498296Y510040D03*
D20*
X443686Y510548D03*
D50*
X451306Y510548D03*
D73*
X470864Y510548D03*
D50*
X489406Y510548D03*
D20*
X498042Y510548D03*
X444194Y511056D03*
D50*
X451306Y511056D03*
D73*
X470864Y511056D03*
D50*
X489406Y511056D03*
D45*
X496772Y511056D03*
X444956Y511564D03*
D50*
X450798Y511564D03*
D73*
X470864Y511564D03*
D50*
X489914Y511564D03*
D28*
X496010Y511564D03*
D39*
X447242Y512072D03*
D73*
X470864Y512072D03*
D32*
X493470Y512072D03*
D33*
X447750Y512580D03*
D73*
X470864Y512580D03*
D33*
X492962Y512580D03*
D21*
X448004Y513088D03*
D73*
X470864Y513088D03*
D21*
X492708Y513088D03*
D28*
X448258Y513596D03*
D73*
X470864Y513596D03*
D45*
X492200Y513596D03*
D19*
X449020Y514104D03*
D73*
X470864Y514104D03*
D45*
X492200Y514104D03*
D53*
X449528Y514612D03*
D73*
X470864Y514612D03*
D16*
X491184Y514612D03*
D73*
X470864Y515120D03*
X470864Y515628D03*
X470864Y516136D03*
X470864Y516644D03*
X470864Y517152D03*
X470864Y517660D03*
D50*
X461466Y518168D03*
D16*
X480516Y518168D03*
D50*
X461466Y518676D03*
D16*
X480516Y518676D03*
D50*
X461466Y519184D03*
D16*
X480516Y519184D03*
D50*
X461466Y519692D03*
D16*
X480516Y519692D03*
D50*
X461466Y520200D03*
D16*
X480516Y520200D03*
D73*
X470864Y520708D03*
X470864Y521216D03*
X470864Y521724D03*
X470864Y522232D03*
X470864Y522740D03*
X470864Y523248D03*
D131*
X391397Y347921D02*
X391397Y331397D01*
X396905Y342413D02*
X391397Y347921D01*
X396905Y342413D02*
X402413Y347921D01*
X402413Y331397D01*
X409172Y331397D02*
X414680Y331397D01*
X411926Y331397D02*
X411926Y347921D01*
X409172Y347921D02*
X414680Y347921D01*
X421022Y347921D02*
X421022Y331397D01*
X432038Y331397D02*
X421022Y347921D01*
X432038Y347921D02*
X432038Y331397D01*
X438797Y347921D02*
X449813Y347921D01*
X438797Y347921D02*
X438797Y331397D01*
X449813Y331397D01*
X444305Y339659D02*
X438797Y339659D01*
X456571Y331397D02*
X456571Y347921D01*
X464833Y347921D01*
X467588Y345167D01*
X467588Y339659D01*
X464833Y336905D01*
X456571Y336905D01*
X462079Y336905D02*
X467588Y331397D01*
X492121Y331397D02*
X492121Y347921D01*
X500383Y347921D01*
X503137Y345167D01*
X503137Y339659D01*
X500383Y336905D01*
X492121Y336905D01*
X509896Y334151D02*
X509896Y347921D01*
X509896Y334151D02*
X512650Y331397D01*
X518158Y331397D01*
X520912Y334151D01*
X520912Y347921D01*
X527671Y347921D02*
X527671Y331397D01*
X538687Y331397D02*
X527671Y347921D01*
X538687Y347921D02*
X538687Y331397D01*
X545446Y331397D02*
X545446Y347921D01*
X545446Y336905D02*
X556462Y347921D01*
X548200Y339659D02*
X556462Y331397D01*
D132*
X897600Y509200D03*
X897600Y527200D03*
X897800Y469600D03*
X897800Y487600D03*
D133*
X723000Y519600D03*
X743000Y519600D03*
X763000Y519600D03*
X783000Y519600D03*
X803000Y519600D03*
X823000Y519600D03*
X843000Y519600D03*
X863000Y519600D03*
X723000Y359600D03*
X743000Y359600D03*
X763000Y359600D03*
X783000Y359600D03*
X803000Y359600D03*
X823000Y359600D03*
X843000Y359600D03*
X863000Y359600D03*
D134*
X690200Y728000D03*
X690200Y723000D03*
X690200Y718000D03*
X690200Y713000D03*
X690200Y708000D03*
X690200Y703000D03*
X690200Y698000D03*
X690200Y693000D03*
D135*
X697700Y685500D03*
X702700Y685500D03*
X707700Y685500D03*
X712700Y685500D03*
X717700Y685500D03*
X722700Y685500D03*
X727700Y685500D03*
X732700Y685500D03*
D134*
X740200Y693000D03*
X740200Y698000D03*
X740200Y703000D03*
X740200Y708000D03*
X740200Y713000D03*
X740200Y718000D03*
X740200Y723000D03*
X740200Y728000D03*
D135*
X732700Y735500D03*
X727700Y735500D03*
X722700Y735500D03*
X717700Y735500D03*
X712700Y735500D03*
X707700Y735500D03*
X702700Y735500D03*
X697700Y735500D03*
D136*
X715200Y710500D03*
D137*
X627900Y727400D03*
X650900Y690400D03*
X650900Y727400D03*
X627900Y690400D03*
D132*
X607600Y741600D03*
X607600Y723600D03*
D138*
X646600Y751500D03*
X628600Y751500D03*
D132*
X607600Y687400D03*
X607600Y705400D03*
D138*
X771000Y759700D03*
X753000Y759700D03*
X721400Y759700D03*
X739400Y759700D03*
D139*
X706200Y831100D03*
X711200Y831100D03*
D140*
X681450Y831100D03*
X689200Y831100D03*
D139*
X696200Y831100D03*
X701200Y831100D03*
X721200Y831100D03*
X716200Y831100D03*
D140*
X745950Y831100D03*
X738200Y831100D03*
D139*
X731200Y831100D03*
X726200Y831100D03*
D141*
X742600Y842150D03*
X684800Y842150D03*
D132*
X680700Y803600D03*
X680700Y785600D03*
X698800Y803600D03*
X698800Y785600D03*
D142*
X722124Y794000D03*
X769876Y794000D03*
D132*
X662500Y785600D03*
X662500Y803600D03*
D143*
X826030Y711900D03*
X853970Y711900D03*
X826030Y686500D03*
X853970Y686500D03*
X826030Y661100D03*
X853970Y661100D03*
X826030Y635700D03*
X853970Y635700D03*
X826030Y610300D03*
X853970Y610300D03*
D144*
X337514Y630988D03*
X314400Y630988D03*
X291286Y630988D03*
D145*
X314400Y569010D03*
D132*
X689200Y459400D03*
X689200Y477400D03*
X689000Y408000D03*
X689000Y426000D03*
X368000Y631000D03*
X368000Y613000D03*
D146*
X457200Y738800D03*
X457200Y690800D03*
D147*
X718000Y35000D03*
X693000Y85000D03*
X668000Y85000D03*
X743000Y85000D03*
X768000Y85000D03*
D148*
X668000Y35000D03*
X668000Y10000D03*
X768000Y10000D03*
X768000Y35000D03*
X718000Y85000D03*
D149*
X657000Y143500D03*
X657000Y148500D03*
X657000Y153500D03*
X657000Y158500D03*
X657000Y163500D03*
X616000Y163500D03*
X616000Y158500D03*
X616000Y153500D03*
X616000Y148500D03*
X616000Y143500D03*
D147*
X556000Y35000D03*
X531000Y85000D03*
X506000Y85000D03*
X581000Y85000D03*
X606000Y85000D03*
D148*
X506000Y35000D03*
X506000Y10000D03*
X606000Y10000D03*
X606000Y35000D03*
X556000Y85000D03*
D150*
X603500Y225000D03*
X584500Y225000D03*
X594000Y204000D03*
D138*
X602500Y242500D03*
X584500Y242500D03*
D132*
X577000Y161500D03*
X577000Y143500D03*
D150*
X646000Y224500D03*
X627000Y224500D03*
X636500Y203500D03*
D132*
X594500Y161500D03*
X594500Y143500D03*
D138*
X646000Y242500D03*
X628000Y242500D03*
D147*
X394000Y35000D03*
X369000Y85000D03*
X344000Y85000D03*
X419000Y85000D03*
X444000Y85000D03*
D148*
X344000Y35000D03*
X344000Y10000D03*
X444000Y10000D03*
X444000Y35000D03*
X394000Y85000D03*
D149*
X333800Y144100D03*
X333800Y149100D03*
X333800Y154100D03*
X333800Y159100D03*
X333800Y164100D03*
X292800Y164100D03*
X292800Y159100D03*
X292800Y154100D03*
X292800Y149100D03*
X292800Y144100D03*
D147*
X232000Y35000D03*
X207000Y85000D03*
X182000Y85000D03*
X257000Y85000D03*
X282000Y85000D03*
D148*
X182000Y35000D03*
X182000Y10000D03*
X282000Y10000D03*
X282000Y35000D03*
X232000Y85000D03*
D150*
X280000Y225500D03*
X261000Y225500D03*
X270500Y204500D03*
D138*
X278500Y242500D03*
X260500Y242500D03*
D132*
X255000Y163000D03*
X255000Y145000D03*
D150*
X322000Y226000D03*
X303000Y226000D03*
X312500Y205000D03*
D132*
X272000Y163000D03*
X272000Y145000D03*
D138*
X321000Y242500D03*
X303000Y242500D03*
D150*
X817500Y284000D03*
X798500Y284000D03*
X808000Y263000D03*
D138*
X817000Y300000D03*
X799000Y300000D03*
D132*
X808000Y227000D03*
X808000Y245000D03*
D150*
X858600Y283700D03*
X839600Y283700D03*
X849100Y262700D03*
D132*
X849000Y227000D03*
X849000Y245000D03*
D138*
X858000Y300000D03*
X840000Y300000D03*
D151*
X243600Y609400D03*
X243600Y590400D03*
X264600Y599900D03*
D152*
X213550Y627900D03*
X200850Y627900D03*
X188150Y627900D03*
X175450Y627900D03*
X175450Y571900D03*
X188150Y571900D03*
X200850Y571900D03*
X213550Y571900D03*
D138*
X188000Y668000D03*
X170000Y668000D03*
X170000Y650000D03*
X188000Y650000D03*
D144*
X480814Y631188D03*
X457700Y631188D03*
X434586Y631188D03*
D145*
X457700Y569210D03*
D138*
X659200Y655900D03*
X677200Y655900D03*
X321500Y184000D03*
X303500Y184000D03*
X645500Y181500D03*
X627500Y181500D03*
D132*
X386500Y691000D03*
X386500Y709000D03*
D146*
X314000Y739000D03*
X314000Y691000D03*
D153*
X309500Y857300D03*
X360300Y857300D03*
X411100Y857300D03*
X461900Y857300D03*
D154*
X223900Y762800D02*
X203900Y762800D01*
X203900Y825800D02*
X223900Y825800D01*
X163900Y802800D02*
X163900Y782800D01*
D155*
X593510Y829220D02*
X600490Y829220D01*
X600490Y822240D01*
X593510Y822240D01*
X593510Y829220D01*
X593510Y827040D02*
X600490Y827040D01*
X600490Y846760D02*
X593510Y846760D01*
X600490Y846760D02*
X600490Y839780D01*
X593510Y839780D01*
X593510Y846760D01*
X593510Y844580D02*
X600490Y844580D01*
X561990Y829220D02*
X555010Y829220D01*
X561990Y829220D02*
X561990Y822240D01*
X555010Y822240D01*
X555010Y829220D01*
X555010Y827040D02*
X561990Y827040D01*
X561990Y846760D02*
X555010Y846760D01*
X561990Y846760D02*
X561990Y839780D01*
X555010Y839780D01*
X555010Y846760D01*
X555010Y844580D02*
X561990Y844580D01*
D132*
X597000Y884000D03*
X597000Y866000D03*
X558500Y884000D03*
X558500Y866000D03*
X635000Y866000D03*
X635000Y884000D03*
D155*
X631510Y829220D02*
X638490Y829220D01*
X638490Y822240D01*
X631510Y822240D01*
X631510Y829220D01*
X631510Y827040D02*
X638490Y827040D01*
X638490Y846760D02*
X631510Y846760D01*
X638490Y846760D02*
X638490Y839780D01*
X631510Y839780D01*
X631510Y846760D01*
X631510Y844580D02*
X638490Y844580D01*
D138*
X659000Y631000D03*
X677000Y631000D03*
D132*
X379000Y148000D03*
X379000Y130000D03*
X453000Y148000D03*
X453000Y130000D03*
X523000Y148000D03*
X523000Y130000D03*
D138*
X847000Y781000D03*
X829000Y781000D03*
D132*
X698000Y157000D03*
X698000Y175000D03*
D156*
X695900Y205800D03*
X721500Y333700D03*
X361300Y168000D03*
X760000Y440000D03*
X790000Y440000D03*
X790000Y410000D03*
X760000Y410000D03*
X800000Y830000D03*
X800000Y800000D03*
X730000Y620000D03*
X730000Y600000D03*
X910000Y730000D03*
X910000Y760000D03*
X910000Y700000D03*
X645000Y638000D03*
X622000Y638000D03*
X645000Y621000D03*
X622000Y621000D03*
X493000Y875000D03*
X508000Y875000D03*
X523000Y875000D03*
X251000Y545000D03*
X453000Y168000D03*
X523000Y168000D03*
X272000Y616000D03*
X251000Y636000D03*
X551700Y241400D03*
X614300Y262800D03*
X666600Y358000D03*
X668000Y496000D03*
X366000Y571000D03*
X301000Y659500D03*
X457000Y659000D03*
X657000Y131000D03*
X601600Y179600D03*
X765600Y227700D03*
X731000Y185800D03*
X289500Y184000D03*
X234900Y571900D03*
X784000Y760000D03*
X673000Y751000D03*
X677200Y676000D03*
X676000Y818000D03*
X738200Y817000D03*
X771000Y619000D03*
X771000Y657000D03*
X561000Y283000D03*
X584500Y268500D03*
X664000Y299000D03*
X673000Y258000D03*
X697000Y300000D03*
X697000Y259000D03*
X791000Y776000D03*
X692000Y756000D03*
X537000Y773000D03*
X159000Y698000D03*
X675000Y582000D03*
X711000Y581000D03*
X711000Y563000D03*
X674000Y564000D03*
M02*
