<svg version="1.1" xmlns="http://www.w3.org/2000/svg" xmlns:xlink="http://www.w3.org/1999/xlink" stroke-linecap="round" stroke-linejoin="round" stroke-width="0" fill-rule="evenodd" clip-rule="evenodd" id="aOTqfRFW83wUjpNuqvNO_bottom" viewBox="-92000 0 92000 87000" width="92mm" height="87mm" class="w-100 h-100"><defs><style>.aOTqfRFW83wUjpNuqvNO_fr4 {color: #666666;}
.aOTqfRFW83wUjpNuqvNO_cu {color: #cccccc;}
.aOTqfRFW83wUjpNuqvNO_cf {color: #cc9933;}
.aOTqfRFW83wUjpNuqvNO_sm {color: #000000; opacity: 0.75;}
.aOTqfRFW83wUjpNuqvNO_ss {color: #ffffff;}
.aOTqfRFW83wUjpNuqvNO_sp {color: #999999;}
.aOTqfRFW83wUjpNuqvNO_out {color: #000000;}</style><circle cx="0" cy="0" r="1851.6" id="I7QlpIheeP6iMEZn_Eij_pad-10"/><circle cx="0" cy="0" r="1193.8" id="I7QlpIheeP6iMEZn_Eij_pad-11"/><circle cx="0" cy="0" r="701.6" id="I7QlpIheeP6iMEZn_Eij_pad-12"/><circle cx="0" cy="0" r="2101.6" id="I7QlpIheeP6iMEZn_Eij_pad-13"/><circle cx="0" cy="0" r="1041.4" id="I7QlpIheeP6iMEZn_Eij_pad-15"/><circle cx="0" cy="0" r="551.6" id="I7QlpIheeP6iMEZn_Eij_pad-16"/><circle cx="0" cy="0" r="479.8" id="I7QlpIheeP6iMEZn_Eij_pad-17"/><circle cx="0" cy="0" r="454.8" id="I7QlpIheeP6iMEZn_Eij_pad-18"/><circle cx="0" cy="0" r="1092.2" id="tzUIFj68AjwlRNRCBJ6p_pad-10"/><circle cx="0" cy="0" r="2000" id="tzUIFj68AjwlRNRCBJ6p_pad-11"/><circle cx="0" cy="0" r="939.8" id="tzUIFj68AjwlRNRCBJ6p_pad-13"/><circle cx="0" cy="0" r="378.2" id="tzUIFj68AjwlRNRCBJ6p_pad-14"/><circle cx="0" cy="0" r="353.2" id="tzUIFj68AjwlRNRCBJ6p_pad-17"/><g id="aOTqfRFW83wUjpNuqvNO_bottom_soldermask"><use xlink:href="#I7QlpIheeP6iMEZn_Eij_pad-10" x="-88500" y="3500"/><use xlink:href="#I7QlpIheeP6iMEZn_Eij_pad-10" x="-3500" y="3500"/><use xlink:href="#I7QlpIheeP6iMEZn_Eij_pad-10" x="-3500" y="83500"/><use xlink:href="#I7QlpIheeP6iMEZn_Eij_pad-10" x="-88500" y="83500"/><use xlink:href="#I7QlpIheeP6iMEZn_Eij_pad-11" x="-21700" y="3500"/><use xlink:href="#I7QlpIheeP6iMEZn_Eij_pad-11" x="-24200" y="8500"/><use xlink:href="#I7QlpIheeP6iMEZn_Eij_pad-11" x="-26700" y="8500"/><use xlink:href="#I7QlpIheeP6iMEZn_Eij_pad-11" x="-19200" y="8500"/><use xlink:href="#I7QlpIheeP6iMEZn_Eij_pad-11" x="-16700" y="8500"/><use xlink:href="#I7QlpIheeP6iMEZn_Eij_pad-12" x="-26700" y="3500"/><use xlink:href="#I7QlpIheeP6iMEZn_Eij_pad-12" x="-26700" y="1000"/><use xlink:href="#I7QlpIheeP6iMEZn_Eij_pad-12" x="-16700" y="1000"/><use xlink:href="#I7QlpIheeP6iMEZn_Eij_pad-12" x="-16700" y="3500"/><use xlink:href="#I7QlpIheeP6iMEZn_Eij_pad-12" x="-21700" y="8500"/><use xlink:href="#I7QlpIheeP6iMEZn_Eij_pad-11" x="-37900" y="3500"/><use xlink:href="#I7QlpIheeP6iMEZn_Eij_pad-11" x="-40400" y="8500"/><use xlink:href="#I7QlpIheeP6iMEZn_Eij_pad-11" x="-42900" y="8500"/><use xlink:href="#I7QlpIheeP6iMEZn_Eij_pad-11" x="-35400" y="8500"/><use xlink:href="#I7QlpIheeP6iMEZn_Eij_pad-11" x="-32900" y="8500"/><use xlink:href="#I7QlpIheeP6iMEZn_Eij_pad-12" x="-42900" y="3500"/><use xlink:href="#I7QlpIheeP6iMEZn_Eij_pad-12" x="-42900" y="1000"/><use xlink:href="#I7QlpIheeP6iMEZn_Eij_pad-12" x="-32900" y="1000"/><use xlink:href="#I7QlpIheeP6iMEZn_Eij_pad-12" x="-32900" y="3500"/><use xlink:href="#I7QlpIheeP6iMEZn_Eij_pad-12" x="-37900" y="8500"/><use xlink:href="#I7QlpIheeP6iMEZn_Eij_pad-11" x="-54100" y="3500"/><use xlink:href="#I7QlpIheeP6iMEZn_Eij_pad-11" x="-56600" y="8500"/><use xlink:href="#I7QlpIheeP6iMEZn_Eij_pad-11" x="-59100" y="8500"/><use xlink:href="#I7QlpIheeP6iMEZn_Eij_pad-11" x="-51600" y="8500"/><use xlink:href="#I7QlpIheeP6iMEZn_Eij_pad-11" x="-49100" y="8500"/><use xlink:href="#I7QlpIheeP6iMEZn_Eij_pad-12" x="-59100" y="3500"/><use xlink:href="#I7QlpIheeP6iMEZn_Eij_pad-12" x="-59100" y="1000"/><use xlink:href="#I7QlpIheeP6iMEZn_Eij_pad-12" x="-49100" y="1000"/><use xlink:href="#I7QlpIheeP6iMEZn_Eij_pad-12" x="-49100" y="3500"/><use xlink:href="#I7QlpIheeP6iMEZn_Eij_pad-12" x="-54100" y="8500"/><use xlink:href="#I7QlpIheeP6iMEZn_Eij_pad-11" x="-70300" y="3500"/><use xlink:href="#I7QlpIheeP6iMEZn_Eij_pad-11" x="-72800" y="8500"/><use xlink:href="#I7QlpIheeP6iMEZn_Eij_pad-11" x="-75300" y="8500"/><use xlink:href="#I7QlpIheeP6iMEZn_Eij_pad-11" x="-67800" y="8500"/><use xlink:href="#I7QlpIheeP6iMEZn_Eij_pad-11" x="-65300" y="8500"/><use xlink:href="#I7QlpIheeP6iMEZn_Eij_pad-12" x="-75300" y="3500"/><use xlink:href="#I7QlpIheeP6iMEZn_Eij_pad-12" x="-75300" y="1000"/><use xlink:href="#I7QlpIheeP6iMEZn_Eij_pad-12" x="-65300" y="1000"/><use xlink:href="#I7QlpIheeP6iMEZn_Eij_pad-12" x="-65300" y="3500"/><use xlink:href="#I7QlpIheeP6iMEZn_Eij_pad-12" x="-70300" y="8500"/><use xlink:href="#I7QlpIheeP6iMEZn_Eij_pad-13" x="-65550" y="82730"/><use xlink:href="#I7QlpIheeP6iMEZn_Eij_pad-13" x="-60470" y="82730"/><use xlink:href="#I7QlpIheeP6iMEZn_Eij_pad-13" x="-55390" y="82730"/><use xlink:href="#I7QlpIheeP6iMEZn_Eij_pad-13" x="-50310" y="82730"/><path d="M -73510 73280 -75510 73280 M -75510 79580 -73510 79580 M -79510 77280 -79510 75280" fill="none" stroke-width="2203.2"/><use xlink:href="#I7QlpIheeP6iMEZn_Eij_pad-15" x="-22140" y="81230"/><use xlink:href="#I7QlpIheeP6iMEZn_Eij_pad-15" x="-22140" y="83770"/><use xlink:href="#I7QlpIheeP6iMEZn_Eij_pad-15" x="-19600" y="81230"/><use xlink:href="#I7QlpIheeP6iMEZn_Eij_pad-15" x="-19600" y="83770"/><use xlink:href="#I7QlpIheeP6iMEZn_Eij_pad-15" x="-17060" y="81230"/><use xlink:href="#I7QlpIheeP6iMEZn_Eij_pad-15" x="-17060" y="83770"/><use xlink:href="#I7QlpIheeP6iMEZn_Eij_pad-16" x="-42500" y="83000"/><use xlink:href="#I7QlpIheeP6iMEZn_Eij_pad-16" x="-39500" y="83000"/><use xlink:href="#I7QlpIheeP6iMEZn_Eij_pad-17" x="-28300" y="32900"/><use xlink:href="#I7QlpIheeP6iMEZn_Eij_pad-17" x="-27200" y="24200"/><use xlink:href="#I7QlpIheeP6iMEZn_Eij_pad-17" x="-31000" y="41000"/><use xlink:href="#I7QlpIheeP6iMEZn_Eij_pad-17" x="-58000" y="60000"/><use xlink:href="#I7QlpIheeP6iMEZn_Eij_pad-17" x="-58000" y="25000"/><use xlink:href="#I7QlpIheeP6iMEZn_Eij_pad-17" x="-54500" y="65200"/><use xlink:href="#I7QlpIheeP6iMEZn_Eij_pad-17" x="-37000" y="58300"/><use xlink:href="#I7QlpIheeP6iMEZn_Eij_pad-17" x="-22300" y="28000"/><use xlink:href="#I7QlpIheeP6iMEZn_Eij_pad-17" x="-13900" y="26100"/><use xlink:href="#I7QlpIheeP6iMEZn_Eij_pad-18" x="-52450" y="58250"/><use xlink:href="#I7QlpIheeP6iMEZn_Eij_pad-17" x="-37400" y="20800"/><use xlink:href="#I7QlpIheeP6iMEZn_Eij_pad-17" x="-22800" y="18600"/><use xlink:href="#I7QlpIheeP6iMEZn_Eij_pad-17" x="-33800" y="23900"/><use xlink:href="#I7QlpIheeP6iMEZn_Eij_pad-17" x="-17300" y="73600"/><use xlink:href="#I7QlpIheeP6iMEZn_Eij_pad-17" x="-37600" y="65000"/><use xlink:href="#I7QlpIheeP6iMEZn_Eij_pad-17" x="-14150" y="32150"/><use xlink:href="#I7QlpIheeP6iMEZn_Eij_pad-17" x="-14200" y="61500"/><use xlink:href="#I7QlpIheeP6iMEZn_Eij_pad-17" x="-16400" y="32200"/><use xlink:href="#I7QlpIheeP6iMEZn_Eij_pad-17" x="-16500" y="68800"/><use xlink:href="#I7QlpIheeP6iMEZn_Eij_pad-17" x="-56500" y="17100"/><use xlink:href="#I7QlpIheeP6iMEZn_Eij_pad-17" x="-65800" y="17100"/><use xlink:href="#I7QlpIheeP6iMEZn_Eij_pad-17" x="-22900" y="14100"/><use xlink:href="#I7QlpIheeP6iMEZn_Eij_pad-17" x="-36700" y="15100"/><use xlink:href="#I7QlpIheeP6iMEZn_Eij_pad-17" x="-67600" y="20500"/><use xlink:href="#I7QlpIheeP6iMEZn_Eij_pad-17" x="-56550" y="19150"/><use xlink:href="#I7QlpIheeP6iMEZn_Eij_pad-17" x="-23600" y="60000"/><use xlink:href="#I7QlpIheeP6iMEZn_Eij_pad-17" x="-22300" y="32800"/><use xlink:href="#I7QlpIheeP6iMEZn_Eij_pad-17" x="-40200" y="53000"/><use xlink:href="#I7QlpIheeP6iMEZn_Eij_pad-17" x="-20300" y="53700"/><use xlink:href="#I7QlpIheeP6iMEZn_Eij_pad-17" x="-40300" y="54800"/><use xlink:href="#I7QlpIheeP6iMEZn_Eij_pad-17" x="-22300" y="55200"/><use xlink:href="#I7QlpIheeP6iMEZn_Eij_pad-17" x="-40200" y="51400"/><use xlink:href="#I7QlpIheeP6iMEZn_Eij_pad-17" x="-24300" y="53700"/></g><g id="aOTqfRFW83wUjpNuqvNO_bottom_silkscreen"><path d="M -22775 79814 -21505 79814" fill="none" stroke-width="203.2"/></g><g id="aOTqfRFW83wUjpNuqvNO_bottom_copper"><use xlink:href="#tzUIFj68AjwlRNRCBJ6p_pad-10" x="-21700" y="3500"/><use xlink:href="#tzUIFj68AjwlRNRCBJ6p_pad-10" x="-24200" y="8500"/><use xlink:href="#tzUIFj68AjwlRNRCBJ6p_pad-10" x="-26700" y="8500"/><use xlink:href="#tzUIFj68AjwlRNRCBJ6p_pad-10" x="-19200" y="8500"/><use xlink:href="#tzUIFj68AjwlRNRCBJ6p_pad-10" x="-16700" y="8500"/><use xlink:href="#tzUIFj68AjwlRNRCBJ6p_pad-10" x="-37900" y="3500"/><use xlink:href="#tzUIFj68AjwlRNRCBJ6p_pad-10" x="-40400" y="8500"/><use xlink:href="#tzUIFj68AjwlRNRCBJ6p_pad-10" x="-42900" y="8500"/><use xlink:href="#tzUIFj68AjwlRNRCBJ6p_pad-10" x="-35400" y="8500"/><use xlink:href="#tzUIFj68AjwlRNRCBJ6p_pad-10" x="-32900" y="8500"/><use xlink:href="#tzUIFj68AjwlRNRCBJ6p_pad-10" x="-54100" y="3500"/><use xlink:href="#tzUIFj68AjwlRNRCBJ6p_pad-10" x="-56600" y="8500"/><use xlink:href="#tzUIFj68AjwlRNRCBJ6p_pad-10" x="-59100" y="8500"/><use xlink:href="#tzUIFj68AjwlRNRCBJ6p_pad-10" x="-51600" y="8500"/><use xlink:href="#tzUIFj68AjwlRNRCBJ6p_pad-10" x="-49100" y="8500"/><use xlink:href="#tzUIFj68AjwlRNRCBJ6p_pad-10" x="-70300" y="3500"/><use xlink:href="#tzUIFj68AjwlRNRCBJ6p_pad-10" x="-72800" y="8500"/><use xlink:href="#tzUIFj68AjwlRNRCBJ6p_pad-10" x="-75300" y="8500"/><use xlink:href="#tzUIFj68AjwlRNRCBJ6p_pad-10" x="-67800" y="8500"/><use xlink:href="#tzUIFj68AjwlRNRCBJ6p_pad-10" x="-65300" y="8500"/><use xlink:href="#tzUIFj68AjwlRNRCBJ6p_pad-11" x="-65550" y="82730"/><use xlink:href="#tzUIFj68AjwlRNRCBJ6p_pad-11" x="-60470" y="82730"/><use xlink:href="#tzUIFj68AjwlRNRCBJ6p_pad-11" x="-55390" y="82730"/><use xlink:href="#tzUIFj68AjwlRNRCBJ6p_pad-11" x="-50310" y="82730"/><path d="M -73510 73280 -75510 73280 M -75510 79580 -73510 79580 M -79510 77280 -79510 75280" fill="none" stroke-width="2000"/><use xlink:href="#tzUIFj68AjwlRNRCBJ6p_pad-13" x="-22140" y="81230"/><use xlink:href="#tzUIFj68AjwlRNRCBJ6p_pad-13" x="-22140" y="83770"/><use xlink:href="#tzUIFj68AjwlRNRCBJ6p_pad-13" x="-19600" y="81230"/><use xlink:href="#tzUIFj68AjwlRNRCBJ6p_pad-13" x="-19600" y="83770"/><use xlink:href="#tzUIFj68AjwlRNRCBJ6p_pad-13" x="-17060" y="81230"/><use xlink:href="#tzUIFj68AjwlRNRCBJ6p_pad-13" x="-17060" y="83770"/><use xlink:href="#tzUIFj68AjwlRNRCBJ6p_pad-14" x="-28300" y="32900"/><path d="M -28300 32900 -28300 25300 -27200 24200" fill="none" stroke-width="1016"/><use xlink:href="#tzUIFj68AjwlRNRCBJ6p_pad-14" x="-27200" y="24200"/><use xlink:href="#tzUIFj68AjwlRNRCBJ6p_pad-14" x="-31000" y="41000"/><path d="M -31000 41000 -53000 41000 M -58000 46000 -58000 60000" fill="none" stroke-width="1016"/><use xlink:href="#tzUIFj68AjwlRNRCBJ6p_pad-14" x="-58000" y="60000"/><path d="M -58000 46000 -53000 41000 M -58000 46000 -58000 25000" fill="none" stroke-width="1016"/><use xlink:href="#tzUIFj68AjwlRNRCBJ6p_pad-14" x="-58000" y="25000"/><use xlink:href="#tzUIFj68AjwlRNRCBJ6p_pad-14" x="-54500" y="65200"/><path d="M -54500 65200 -54500 60300 -52450 58250 -52400 58200 -37100 58200 -37000 58300" fill="none" stroke-width="609.6"/><use xlink:href="#tzUIFj68AjwlRNRCBJ6p_pad-14" x="-37000" y="58300"/><use xlink:href="#tzUIFj68AjwlRNRCBJ6p_pad-14" x="-22300" y="28000"/><path d="M -22300 28000 -20400 26100 -13900 26100" fill="none" stroke-width="609.6"/><use xlink:href="#tzUIFj68AjwlRNRCBJ6p_pad-14" x="-13900" y="26100"/><use xlink:href="#tzUIFj68AjwlRNRCBJ6p_pad-17" x="-52450" y="58250"/><use xlink:href="#tzUIFj68AjwlRNRCBJ6p_pad-14" x="-37400" y="20800"/><path d="M -37400 20800 -33800 20800 -25000 20800 -22800 18600" fill="none" stroke-width="609.6"/><use xlink:href="#tzUIFj68AjwlRNRCBJ6p_pad-14" x="-22800" y="18600"/><use xlink:href="#tzUIFj68AjwlRNRCBJ6p_pad-14" x="-33800" y="23900"/><path d="M -33800 23900 -33800 20800" fill="none" stroke-width="609.6"/><use xlink:href="#tzUIFj68AjwlRNRCBJ6p_pad-14" x="-17300" y="73600"/><path d="M -17300 73600 -33000 73600 -34300 72300 -34300 66700 -36000 65000 -37600 65000" fill="none" stroke-width="508"/><use xlink:href="#tzUIFj68AjwlRNRCBJ6p_pad-14" x="-37600" y="65000"/><use xlink:href="#tzUIFj68AjwlRNRCBJ6p_pad-14" x="-14150" y="32150"/><path d="M -14150 32150 -14150 61450 -14200 61500" fill="none" stroke-width="304.8"/><use xlink:href="#tzUIFj68AjwlRNRCBJ6p_pad-14" x="-14200" y="61500"/><use xlink:href="#tzUIFj68AjwlRNRCBJ6p_pad-14" x="-16400" y="32200"/><path d="M -16400 32200 -16400 68800 -16500 68800" fill="none" stroke-width="304.8"/><use xlink:href="#tzUIFj68AjwlRNRCBJ6p_pad-14" x="-16500" y="68800"/><use xlink:href="#tzUIFj68AjwlRNRCBJ6p_pad-14" x="-56500" y="17100"/><path d="M -56500 17100 -65800 17100" fill="none" stroke-width="254"/><use xlink:href="#tzUIFj68AjwlRNRCBJ6p_pad-14" x="-65800" y="17100"/><use xlink:href="#tzUIFj68AjwlRNRCBJ6p_pad-14" x="-22900" y="14100"/><path d="M -22900 14100 -35700 14100 -36700 15100" fill="none" stroke-width="254"/><use xlink:href="#tzUIFj68AjwlRNRCBJ6p_pad-14" x="-36700" y="15100"/><use xlink:href="#tzUIFj68AjwlRNRCBJ6p_pad-14" x="-67600" y="20500"/><path d="M -67600 20500 -67600 22300 -66600 23300 -60800 23300 -56600 19100 -56550 19150" fill="none" stroke-width="254"/><use xlink:href="#tzUIFj68AjwlRNRCBJ6p_pad-14" x="-56550" y="19150"/><use xlink:href="#tzUIFj68AjwlRNRCBJ6p_pad-14" x="-23600" y="60000"/><path d="M -23600 60000 -18700 55100 -18700 36400 -22300 32800" fill="none" stroke-width="304.8"/><use xlink:href="#tzUIFj68AjwlRNRCBJ6p_pad-14" x="-22300" y="32800"/><use xlink:href="#tzUIFj68AjwlRNRCBJ6p_pad-14" x="-40200" y="53000"/><path d="M -40200 53000 -38400 54800 M -23500 54800 -22400 53700 -20300 53700" fill="none" stroke-width="304.8"/><use xlink:href="#tzUIFj68AjwlRNRCBJ6p_pad-14" x="-20300" y="53700"/><path d="M -23500 54800 -38400 54800" fill="none" stroke-width="304.8"/><use xlink:href="#tzUIFj68AjwlRNRCBJ6p_pad-14" x="-40300" y="54800"/><path d="M -39200 55900 -23000 55900 M -39200 55900 -40300 54800 M -23000 55900 -22300 55200" fill="none" stroke-width="304.8"/><use xlink:href="#tzUIFj68AjwlRNRCBJ6p_pad-14" x="-22300" y="55200"/><use xlink:href="#tzUIFj68AjwlRNRCBJ6p_pad-14" x="-40200" y="51400"/><path d="M -40200 51400 -37900 53700 -24300 53700" fill="none" stroke-width="304.8"/><use xlink:href="#tzUIFj68AjwlRNRCBJ6p_pad-14" x="-24300" y="53700"/></g><clipPath id="aOTqfRFW83wUjpNuqvNO_bottom_outline"><path d="M -92000 3500 -91986.7 3195 -91946.8 2892.2 -91880.7 2594.1 -91788.9 2302.9 -91672.1 2020.8 -91531.1 1750 -91367 1492.5 -91181.2 1250.2 -90974.9 1025.1 -90749.8 818.8 -90507.5 633 -90250 468.9 -89979.2 327.9 -89697.1 211.1 -89405.9 119.3 -89107.8 53.2 -88805 13.3 -88500 0 -3500 0 -3195 13.3 -2892.2 53.2 -2594.1 119.3 -2302.9 211.1 -2020.8 327.9 -1750 468.9 -1492.5 633 -1250.2 818.8 -1025.1 1025.1 -818.8 1250.2 -633 1492.5 -468.9 1750 -327.9 2020.8 -211.1 2302.9 -119.3 2594.1 -53.2 2892.2 -13.3 3195 0 3500 0 21500 -12500 34000 -12500 53000 0 65500 0 83500 -13.3 83805 -53.2 84107.8 -119.3 84405.9 -211.1 84697.1 -327.9 84979.2 -468.9 85250 -633 85507.5 -818.8 85749.8 -1025.1 85974.9 -1250.2 86181.2 -1492.5 86367 -1750 86531.1 -2020.8 86672.1 -2302.9 86788.9 -2594.1 86880.7 -2892.2 86946.8 -3195 86986.7 -3500 87000 -88500 87000 -88805 86986.7 -89107.8 86946.8 -89405.9 86880.7 -89697.1 86788.9 -89979.2 86672.1 -90250 86531.1 -90507.5 86367 -90749.8 86181.2 -90974.9 85974.9 -91181.2 85749.8 -91367 85507.5 -91531.1 85250 -91672.1 84979.2 -91788.9 84697.1 -91880.7 84405.9 -91946.8 84107.8 -91986.7 83805 -92000 83500 -92000 3500 M -80010 75180 -80008.1 75136.4 -80002.4 75093.2 -79993 75050.6 -79979.8 75009 -79963.2 74968.7 -79943 74930 -79919.6 74893.2 -79893 74858.6 -79863.6 74826.4 -79831.4 74797 -79796.8 74770.4 -79760 74747 -79721.3 74726.8 -79681 74710.2 -79639.4 74697 -79596.8 74687.6 -79553.6 74681.9 -79510 74680 -79466.4 74681.9 -79423.2 74687.6 -79380.6 74697 -79339 74710.2 -79298.7 74726.8 -79260 74747 -79223.2 74770.4 -79188.6 74797 -79156.4 74826.4 -79127 74858.6 -79100.4 74893.2 -79077 74930 -79056.8 74968.7 -79040.2 75009 -79027 75050.6 -79017.6 75093.2 -79011.9 75136.4 -79010 75180 -79010 77380 -79011.9 77423.6 -79017.6 77466.8 -79027 77509.4 -79040.2 77551 -79056.8 77591.3 -79077 77630 -79100.4 77666.8 -79127 77701.4 -79156.4 77733.6 -79188.6 77763 -79223.2 77789.6 -79260 77813 -79298.7 77833.2 -79339 77849.8 -79380.6 77863 -79423.2 77872.4 -79466.4 77878.1 -79510 77880 -79553.6 77878.1 -79596.8 77872.4 -79639.4 77863 -79681 77849.8 -79721.3 77833.2 -79760 77813 -79796.8 77789.6 -79831.4 77763 -79863.6 77733.6 -79893 77701.4 -79919.6 77666.8 -79943 77630 -79963.2 77591.3 -79979.8 77551 -79993 77509.4 -80002.4 77466.8 -80008.1 77423.6 -80010 77380 -80010 75180 M -76110 79580 -76108.1 79536.4 -76102.4 79493.2 -76093 79450.6 -76079.8 79409 -76063.2 79368.7 -76043 79330 -76019.6 79293.2 -75993 79258.6 -75963.6 79226.4 -75931.4 79197 -75896.8 79170.4 -75860 79147 -75821.3 79126.8 -75781 79110.2 -75739.4 79097 -75696.8 79087.6 -75653.6 79081.9 -75610 79080 -73410 79080 -73366.4 79081.9 -73323.2 79087.6 -73280.6 79097 -73239 79110.2 -73198.7 79126.8 -73160 79147 -73123.2 79170.4 -73088.6 79197 -73056.4 79226.4 -73027 79258.6 -73000.4 79293.2 -72977 79330 -72956.8 79368.7 -72940.2 79409 -72927 79450.6 -72917.6 79493.2 -72911.9 79536.4 -72910 79580 -72911.9 79623.6 -72917.6 79666.8 -72927 79709.4 -72940.2 79751 -72956.8 79791.3 -72977 79830 -73000.4 79866.8 -73027 79901.4 -73056.4 79933.6 -73088.6 79963 -73123.2 79989.6 -73160 80013 -73198.7 80033.2 -73239 80049.8 -73280.6 80063 -73323.2 80072.4 -73366.4 80078.1 -73410 80080 -75610 80080 -75653.6 80078.1 -75696.8 80072.4 -75739.4 80063 -75781 80049.8 -75821.3 80033.2 -75860 80013 -75896.8 79989.6 -75931.4 79963 -75963.6 79933.6 -75993 79901.4 -76019.6 79866.8 -76043 79830 -76063.2 79791.3 -76079.8 79751 -76093 79709.4 -76102.4 79666.8 -76108.1 79623.6 -76110 79580 M -76110 73280 -76108.1 73236.4 -76102.4 73193.2 -76093 73150.6 -76079.8 73109 -76063.2 73068.7 -76043 73030 -76019.6 72993.2 -75993 72958.6 -75963.6 72926.4 -75931.4 72897 -75896.8 72870.4 -75860 72847 -75821.3 72826.8 -75781 72810.2 -75739.4 72797 -75696.8 72787.6 -75653.6 72781.9 -75610 72780 -73410 72780 -73366.4 72781.9 -73323.2 72787.6 -73280.6 72797 -73239 72810.2 -73198.7 72826.8 -73160 72847 -73123.2 72870.4 -73088.6 72897 -73056.4 72926.4 -73027 72958.6 -73000.4 72993.2 -72977 73030 -72956.8 73068.7 -72940.2 73109 -72927 73150.6 -72917.6 73193.2 -72911.9 73236.4 -72910 73280 -76110 73280 -76108.1 73323.6 -76102.4 73366.8 -76093 73409.4 -76079.8 73451 -76063.2 73491.3 -76043 73530 -76019.6 73566.8 -75993 73601.4 -75963.6 73633.6 -75931.4 73663 -75896.8 73689.6 -75860 73713 -75821.3 73733.2 -75781 73749.8 -75739.4 73763 -75696.8 73772.4 -75653.6 73778.1 -75610 73780 -73410 73780 -73366.4 73778.1 -73323.2 73772.4 -73280.6 73763 -73239 73749.8 -73198.7 73733.2 -73160 73713 -73123.2 73689.6 -73088.6 73663 -73056.4 73633.6 -73027 73601.4 -73000.4 73566.8 -72977 73530 -72956.8 73491.3 -72940.2 73451 -72927 73409.4 -72917.6 73366.8 -72911.9 73323.6 -72910 73280 M -86750 3442.7 -86757.5 3328.4 -86772.5 3214.8 -86794.8 3102.4 -86824.5 2991.7 -86861.3 2883.2 -86905.1 2777.4 -86955.8 2674.6 -87013.1 2575.4 -87076.8 2480.1 -87146.5 2389.2 -87222.1 2303.1 -87303.1 2222.1 -87389.2 2146.5 -87480.1 2076.8 -87575.4 2013.1 -87674.6 1955.8 -87777.4 1905.1 -87883.2 1861.3 -87991.7 1824.5 -88102.4 1794.8 -88214.8 1772.5 -88328.4 1757.5 -88442.7 1750 -88557.3 1750 -88671.6 1757.5 -88785.2 1772.5 -88897.6 1794.8 -89008.3 1824.5 -89116.8 1861.3 -89222.6 1905.1 -89325.4 1955.8 -89424.6 2013.1 -89519.9 2076.8 -89610.8 2146.5 -89696.9 2222.1 -89777.9 2303.1 -89853.5 2389.2 -89923.2 2480.1 -89986.9 2575.4 -90044.2 2674.6 -90094.9 2777.4 -90138.7 2883.2 -90175.5 2991.7 -90205.2 3102.4 -90227.6 3214.8 -90242.5 3328.4 -90250 3442.7 -90250 3557.3 -90242.5 3671.6 -90227.6 3785.2 -90205.2 3897.6 -90175.5 4008.3 -90138.7 4116.8 -90094.9 4222.6 -90044.2 4325.4 -89986.9 4424.6 -89923.2 4519.9 -89853.5 4610.8 -89777.9 4696.9 -89696.9 4777.9 -89610.8 4853.5 -89519.9 4923.2 -89424.6 4986.9 -89325.4 5044.2 -89222.6 5094.9 -89116.8 5138.7 -89008.3 5175.5 -88897.6 5205.2 -88785.2 5227.6 -88671.6 5242.5 -88557.3 5250 -88442.7 5250 -88328.4 5242.5 -88214.8 5227.6 -88102.4 5205.2 -87991.7 5175.5 -87883.2 5138.7 -87777.4 5094.9 -87674.6 5044.2 -87575.4 4986.9 -87480.1 4923.2 -87389.2 4853.5 -87303.1 4777.9 -87222.1 4696.9 -87146.5 4610.8 -87076.8 4519.9 -87013.1 4424.6 -86955.8 4325.4 -86905.1 4222.6 -86861.3 4116.8 -86824.5 4008.3 -86794.8 3897.6 -86772.5 3785.2 -86757.5 3671.6 -86750 3557.3 -86750 3442.7 M -1750 3442.7 -1757.5 3328.4 -1772.5 3214.8 -1794.8 3102.4 -1824.5 2991.7 -1861.3 2883.2 -1905.1 2777.4 -1955.8 2674.6 -2013.1 2575.4 -2076.8 2480.1 -2146.5 2389.2 -2222.1 2303.1 -2303.1 2222.1 -2389.2 2146.5 -2480.1 2076.8 -2575.4 2013.1 -2674.6 1955.8 -2777.4 1905.1 -2883.2 1861.3 -2991.7 1824.5 -3102.4 1794.8 -3214.8 1772.5 -3328.4 1757.5 -3442.7 1750 -3557.3 1750 -3671.6 1757.5 -3785.2 1772.5 -3897.6 1794.8 -4008.3 1824.5 -4116.8 1861.3 -4222.6 1905.1 -4325.4 1955.8 -4424.6 2013.1 -4519.9 2076.8 -4610.8 2146.5 -4696.9 2222.1 -4777.9 2303.1 -4853.5 2389.2 -4923.2 2480.1 -4986.9 2575.4 -5044.2 2674.6 -5094.9 2777.4 -5138.7 2883.2 -5175.5 2991.7 -5205.2 3102.4 -5227.6 3214.8 -5242.5 3328.4 -5250 3442.7 -5250 3557.3 -5242.5 3671.6 -5227.6 3785.2 -5205.2 3897.6 -5175.5 4008.3 -5138.7 4116.8 -5094.9 4222.6 -5044.2 4325.4 -4986.9 4424.6 -4923.2 4519.9 -4853.5 4610.8 -4777.9 4696.9 -4696.9 4777.9 -4610.8 4853.5 -4519.9 4923.2 -4424.6 4986.9 -4325.4 5044.2 -4222.6 5094.9 -4116.8 5138.7 -4008.3 5175.5 -3897.6 5205.2 -3785.2 5227.6 -3671.6 5242.5 -3557.3 5250 -3442.7 5250 -3328.4 5242.5 -3214.8 5227.6 -3102.4 5205.2 -2991.7 5175.5 -2883.2 5138.7 -2777.4 5094.9 -2674.6 5044.2 -2575.4 4986.9 -2480.1 4923.2 -2389.2 4853.5 -2303.1 4777.9 -2222.1 4696.9 -2146.5 4610.8 -2076.8 4519.9 -2013.1 4424.6 -1955.8 4325.4 -1905.1 4222.6 -1861.3 4116.8 -1824.5 4008.3 -1794.8 3897.6 -1772.5 3785.2 -1757.5 3671.6 -1750 3557.3 -1750 3442.7 M -1750 83442.7 -1757.5 83328.4 -1772.5 83214.8 -1794.8 83102.4 -1824.5 82991.7 -1861.3 82883.2 -1905.1 82777.4 -1955.8 82674.6 -2013.1 82575.4 -2076.8 82480.1 -2146.5 82389.2 -2222.1 82303.1 -2303.1 82222.1 -2389.2 82146.5 -2480.1 82076.8 -2575.4 82013.1 -2674.6 81955.8 -2777.4 81905.1 -2883.2 81861.3 -2991.7 81824.5 -3102.4 81794.8 -3214.8 81772.5 -3328.4 81757.5 -3442.7 81750 -3557.3 81750 -3671.6 81757.5 -3785.2 81772.5 -3897.6 81794.8 -4008.3 81824.5 -4116.8 81861.3 -4222.6 81905.1 -4325.4 81955.8 -4424.6 82013.1 -4519.9 82076.8 -4610.8 82146.5 -4696.9 82222.1 -4777.9 82303.1 -4853.5 82389.2 -4923.2 82480.1 -4986.9 82575.4 -5044.2 82674.6 -5094.9 82777.4 -5138.7 82883.2 -5175.5 82991.7 -5205.2 83102.4 -5227.6 83214.8 -5242.5 83328.4 -5250 83442.7 -5250 83557.3 -5242.5 83671.6 -5227.6 83785.2 -5205.2 83897.6 -5175.5 84008.3 -5138.7 84116.8 -5094.9 84222.6 -5044.2 84325.4 -4986.9 84424.6 -4923.2 84519.9 -4853.5 84610.8 -4777.9 84696.9 -4696.9 84777.9 -4610.8 84853.5 -4519.9 84923.2 -4424.6 84986.9 -4325.4 85044.2 -4222.6 85094.9 -4116.8 85138.7 -4008.3 85175.5 -3897.6 85205.2 -3785.2 85227.6 -3671.6 85242.5 -3557.3 85250 -3442.7 85250 -3328.4 85242.5 -3214.8 85227.6 -3102.4 85205.2 -2991.7 85175.5 -2883.2 85138.7 -2777.4 85094.9 -2674.6 85044.2 -2575.4 84986.9 -2480.1 84923.2 -2389.2 84853.5 -2303.1 84777.9 -2222.1 84696.9 -2146.5 84610.8 -2076.8 84519.9 -2013.1 84424.6 -1955.8 84325.4 -1905.1 84222.6 -1861.3 84116.8 -1824.5 84008.3 -1794.8 83897.6 -1772.5 83785.2 -1757.5 83671.6 -1750 83557.3 -1750 83442.7 M -86750 83442.7 -86757.5 83328.4 -86772.5 83214.8 -86794.8 83102.4 -86824.5 82991.7 -86861.3 82883.2 -86905.1 82777.4 -86955.8 82674.6 -87013.1 82575.4 -87076.8 82480.1 -87146.5 82389.2 -87222.1 82303.1 -87303.1 82222.1 -87389.2 82146.5 -87480.1 82076.8 -87575.4 82013.1 -87674.6 81955.8 -87777.4 81905.1 -87883.2 81861.3 -87991.7 81824.5 -88102.4 81794.8 -88214.8 81772.5 -88328.4 81757.5 -88442.7 81750 -88557.3 81750 -88671.6 81757.5 -88785.2 81772.5 -88897.6 81794.8 -89008.3 81824.5 -89116.8 81861.3 -89222.6 81905.1 -89325.4 81955.8 -89424.6 82013.1 -89519.9 82076.8 -89610.8 82146.5 -89696.9 82222.1 -89777.9 82303.1 -89853.5 82389.2 -89923.2 82480.1 -89986.9 82575.4 -90044.2 82674.6 -90094.9 82777.4 -90138.7 82883.2 -90175.5 82991.7 -90205.2 83102.4 -90227.6 83214.8 -90242.5 83328.4 -90250 83442.7 -90250 83557.3 -90242.5 83671.6 -90227.6 83785.2 -90205.2 83897.6 -90175.5 84008.3 -90138.7 84116.8 -90094.9 84222.6 -90044.2 84325.4 -89986.9 84424.6 -89923.2 84519.9 -89853.5 84610.8 -89777.9 84696.9 -89696.9 84777.9 -89610.8 84853.5 -89519.9 84923.2 -89424.6 84986.9 -89325.4 85044.2 -89222.6 85094.9 -89116.8 85138.7 -89008.3 85175.5 -88897.6 85205.2 -88785.2 85227.6 -88671.6 85242.5 -88557.3 85250 -88442.7 85250 -88328.4 85242.5 -88214.8 85227.6 -88102.4 85205.2 -87991.7 85175.5 -87883.2 85138.7 -87777.4 85094.9 -87674.6 85044.2 -87575.4 84986.9 -87480.1 84923.2 -87389.2 84853.5 -87303.1 84777.9 -87222.1 84696.9 -87146.5 84610.8 -87076.8 84519.9 -87013.1 84424.6 -86955.8 84325.4 -86905.1 84222.6 -86861.3 84116.8 -86824.5 84008.3 -86794.8 83897.6 -86772.5 83785.2 -86757.5 83671.6 -86750 83557.3 -86750 83442.7 M -26666.3 4100 -26599.3 4092.5 -26533.6 4077.5 -26470 4055.2 -26409.3 4026 -26352.3 3990.1 -26299.6 3948.1 -26251.9 3900.4 -26209.9 3847.8 -26174 3790.7 -26144.8 3730 -26122.5 3666.4 -26107.5 3600.7 -26100 3533.7 -26100 3466.3 -26107.5 3399.3 -26122.5 3333.6 -26144.8 3270 -26174 3209.3 -26209.9 3152.3 -26251.9 3099.6 -26299.6 3051.9 -26352.3 3009.9 -26409.3 2974 -26470 2944.8 -26533.6 2922.5 -26599.3 2907.5 -26666.3 2900 -26733.7 2900 -26800.7 2907.5 -26866.4 2922.5 -26930 2944.8 -26990.7 2974 -27047.8 3009.9 -27100.4 3051.9 -27148.1 3099.6 -27190.1 3152.3 -27226 3209.3 -27255.2 3270 -27277.5 3333.6 -27292.5 3399.3 -27300 3466.3 -27300 3533.7 -27292.5 3600.7 -27277.5 3666.4 -27255.2 3730 -27226 3790.7 -27190.1 3847.8 -27148.1 3900.4 -27100.4 3948.1 -27047.8 3990.1 -26990.7 4026 -26930 4055.2 -26866.4 4077.5 -26800.7 4092.5 -26733.7 4100 -26666.3 4100 M -26666.3 1600 -26599.3 1592.5 -26533.6 1577.5 -26470 1555.2 -26409.3 1526 -26352.3 1490.1 -26299.6 1448.1 -26251.9 1400.4 -26209.9 1347.8 -26174 1290.7 -26144.8 1230 -26122.5 1166.4 -26107.5 1100.7 -26100 1033.7 -26100 966.3 -26107.5 899.3 -26122.5 833.6 -26144.8 770 -26174 709.3 -26209.9 652.3 -26251.9 599.6 -26299.6 551.9 -26352.3 509.9 -26409.3 474 -26470 444.8 -26533.6 422.5 -26599.3 407.5 -26666.3 400 -26733.7 400 -26800.7 407.5 -26866.4 422.5 -26930 444.8 -26990.7 474 -27047.8 509.9 -27100.4 551.9 -27148.1 599.6 -27190.1 652.3 -27226 709.3 -27255.2 770 -27277.5 833.6 -27292.5 899.3 -27300 966.3 -27300 1033.7 -27292.5 1100.7 -27277.5 1166.4 -27255.2 1230 -27226 1290.7 -27190.1 1347.8 -27148.1 1400.4 -27100.4 1448.1 -27047.8 1490.1 -26990.7 1526 -26930 1555.2 -26866.4 1577.5 -26800.7 1592.5 -26733.7 1600 -26666.3 1600 M -16666.3 1600 -16599.3 1592.5 -16533.6 1577.5 -16470 1555.2 -16409.3 1526 -16352.3 1490.1 -16299.6 1448.1 -16251.9 1400.4 -16209.9 1347.8 -16174 1290.7 -16144.8 1230 -16122.5 1166.4 -16107.5 1100.7 -16100 1033.7 -16100 966.3 -16107.5 899.3 -16122.5 833.6 -16144.8 770 -16174 709.3 -16209.9 652.3 -16251.9 599.6 -16299.6 551.9 -16352.3 509.9 -16409.3 474 -16470 444.8 -16533.6 422.5 -16599.3 407.5 -16666.3 400 -16733.7 400 -16800.7 407.5 -16866.4 422.5 -16930 444.8 -16990.7 474 -17047.8 509.9 -17100.4 551.9 -17148.1 599.6 -17190.1 652.3 -17226 709.3 -17255.2 770 -17277.5 833.6 -17292.5 899.3 -17300 966.3 -17300 1033.7 -17292.5 1100.7 -17277.5 1166.4 -17255.2 1230 -17226 1290.7 -17190.1 1347.8 -17148.1 1400.4 -17100.4 1448.1 -17047.8 1490.1 -16990.7 1526 -16930 1555.2 -16866.4 1577.5 -16800.7 1592.5 -16733.7 1600 -16666.3 1600 M -16666.3 4100 -16599.3 4092.5 -16533.6 4077.5 -16470 4055.2 -16409.3 4026 -16352.3 3990.1 -16299.6 3948.1 -16251.9 3900.4 -16209.9 3847.8 -16174 3790.7 -16144.8 3730 -16122.5 3666.4 -16107.5 3600.7 -16100 3533.7 -16100 3466.3 -16107.5 3399.3 -16122.5 3333.6 -16144.8 3270 -16174 3209.3 -16209.9 3152.3 -16251.9 3099.6 -16299.6 3051.9 -16352.3 3009.9 -16409.3 2974 -16470 2944.8 -16533.6 2922.5 -16599.3 2907.5 -16666.3 2900 -16733.7 2900 -16800.7 2907.5 -16866.4 2922.5 -16930 2944.8 -16990.7 2974 -17047.8 3009.9 -17100.4 3051.9 -17148.1 3099.6 -17190.1 3152.3 -17226 3209.3 -17255.2 3270 -17277.5 3333.6 -17292.5 3399.3 -17300 3466.3 -17300 3533.7 -17292.5 3600.7 -17277.5 3666.4 -17255.2 3730 -17226 3790.7 -17190.1 3847.8 -17148.1 3900.4 -17100.4 3948.1 -17047.8 3990.1 -16990.7 4026 -16930 4055.2 -16866.4 4077.5 -16800.7 4092.5 -16733.7 4100 -16666.3 4100 M -21666.3 9100 -21599.3 9092.5 -21533.6 9077.5 -21470 9055.2 -21409.3 9026 -21352.3 8990.1 -21299.6 8948.1 -21251.9 8900.4 -21209.9 8847.8 -21174 8790.7 -21144.8 8730 -21122.5 8666.4 -21107.5 8600.7 -21100 8533.7 -21100 8466.3 -21107.5 8399.3 -21122.5 8333.6 -21144.8 8270 -21174 8209.3 -21209.9 8152.3 -21251.9 8099.6 -21299.6 8051.9 -21352.3 8009.9 -21409.3 7974 -21470 7944.8 -21533.6 7922.5 -21599.3 7907.5 -21666.3 7900 -21733.7 7900 -21800.7 7907.5 -21866.4 7922.5 -21930 7944.8 -21990.7 7974 -22047.8 8009.9 -22100.4 8051.9 -22148.1 8099.6 -22190.1 8152.3 -22226 8209.3 -22255.2 8270 -22277.5 8333.6 -22292.5 8399.3 -22300 8466.3 -22300 8533.7 -22292.5 8600.7 -22277.5 8666.4 -22255.2 8730 -22226 8790.7 -22190.1 8847.8 -22148.1 8900.4 -22100.4 8948.1 -22047.8 8990.1 -21990.7 9026 -21930 9055.2 -21866.4 9077.5 -21800.7 9092.5 -21733.7 9100 -21666.3 9100 M -42866.3 4100 -42799.3 4092.5 -42733.6 4077.5 -42670 4055.2 -42609.3 4026 -42552.3 3990.1 -42499.6 3948.1 -42451.9 3900.4 -42409.9 3847.8 -42374 3790.7 -42344.8 3730 -42322.5 3666.4 -42307.5 3600.7 -42300 3533.7 -42300 3466.3 -42307.5 3399.3 -42322.5 3333.6 -42344.8 3270 -42374 3209.3 -42409.9 3152.3 -42451.9 3099.6 -42499.6 3051.9 -42552.3 3009.9 -42609.3 2974 -42670 2944.8 -42733.6 2922.5 -42799.3 2907.5 -42866.3 2900 -42933.7 2900 -43000.7 2907.5 -43066.4 2922.5 -43130 2944.8 -43190.7 2974 -43247.8 3009.9 -43300.4 3051.9 -43348.1 3099.6 -43390.1 3152.3 -43426 3209.3 -43455.2 3270 -43477.5 3333.6 -43492.5 3399.3 -43500 3466.3 -43500 3533.7 -43492.5 3600.7 -43477.5 3666.4 -43455.2 3730 -43426 3790.7 -43390.1 3847.8 -43348.1 3900.4 -43300.4 3948.1 -43247.8 3990.1 -43190.7 4026 -43130 4055.2 -43066.4 4077.5 -43000.7 4092.5 -42933.7 4100 -42866.3 4100 M -42866.3 1600 -42799.3 1592.5 -42733.6 1577.5 -42670 1555.2 -42609.3 1526 -42552.3 1490.1 -42499.6 1448.1 -42451.9 1400.4 -42409.9 1347.8 -42374 1290.7 -42344.8 1230 -42322.5 1166.4 -42307.5 1100.7 -42300 1033.7 -42300 966.3 -42307.5 899.3 -42322.5 833.6 -42344.8 770 -42374 709.3 -42409.9 652.3 -42451.9 599.6 -42499.6 551.9 -42552.3 509.9 -42609.3 474 -42670 444.8 -42733.6 422.5 -42799.3 407.5 -42866.3 400 -42933.7 400 -43000.7 407.5 -43066.4 422.5 -43130 444.8 -43190.7 474 -43247.8 509.9 -43300.4 551.9 -43348.1 599.6 -43390.1 652.3 -43426 709.3 -43455.2 770 -43477.5 833.6 -43492.5 899.3 -43500 966.3 -43500 1033.7 -43492.5 1100.7 -43477.5 1166.4 -43455.2 1230 -43426 1290.7 -43390.1 1347.8 -43348.1 1400.4 -43300.4 1448.1 -43247.8 1490.1 -43190.7 1526 -43130 1555.2 -43066.4 1577.5 -43000.7 1592.5 -42933.7 1600 -42866.3 1600 M -32866.3 1600 -32799.3 1592.5 -32733.6 1577.5 -32670 1555.2 -32609.3 1526 -32552.3 1490.1 -32499.6 1448.1 -32451.9 1400.4 -32409.9 1347.8 -32374 1290.7 -32344.8 1230 -32322.5 1166.4 -32307.5 1100.7 -32300 1033.7 -32300 966.3 -32307.5 899.3 -32322.5 833.6 -32344.8 770 -32374 709.3 -32409.9 652.3 -32451.9 599.6 -32499.6 551.9 -32552.3 509.9 -32609.3 474 -32670 444.8 -32733.6 422.5 -32799.3 407.5 -32866.3 400 -32933.7 400 -33000.7 407.5 -33066.4 422.5 -33130 444.8 -33190.7 474 -33247.8 509.9 -33300.4 551.9 -33348.1 599.6 -33390.1 652.3 -33426 709.3 -33455.2 770 -33477.5 833.6 -33492.5 899.3 -33500 966.3 -33500 1033.7 -33492.5 1100.7 -33477.5 1166.4 -33455.2 1230 -33426 1290.7 -33390.1 1347.8 -33348.1 1400.4 -33300.4 1448.1 -33247.8 1490.1 -33190.7 1526 -33130 1555.2 -33066.4 1577.5 -33000.7 1592.5 -32933.7 1600 -32866.3 1600 M -32866.3 4100 -32799.3 4092.5 -32733.6 4077.5 -32670 4055.2 -32609.3 4026 -32552.3 3990.1 -32499.6 3948.1 -32451.9 3900.4 -32409.9 3847.8 -32374 3790.7 -32344.8 3730 -32322.5 3666.4 -32307.5 3600.7 -32300 3533.7 -32300 3466.3 -32307.5 3399.3 -32322.5 3333.6 -32344.8 3270 -32374 3209.3 -32409.9 3152.3 -32451.9 3099.6 -32499.6 3051.9 -32552.3 3009.9 -32609.3 2974 -32670 2944.8 -32733.6 2922.5 -32799.3 2907.5 -32866.3 2900 -32933.7 2900 -33000.7 2907.5 -33066.4 2922.5 -33130 2944.8 -33190.7 2974 -33247.8 3009.9 -33300.4 3051.9 -33348.1 3099.6 -33390.1 3152.3 -33426 3209.3 -33455.2 3270 -33477.5 3333.6 -33492.5 3399.3 -33500 3466.3 -33500 3533.7 -33492.5 3600.7 -33477.5 3666.4 -33455.2 3730 -33426 3790.7 -33390.1 3847.8 -33348.1 3900.4 -33300.4 3948.1 -33247.8 3990.1 -33190.7 4026 -33130 4055.2 -33066.4 4077.5 -33000.7 4092.5 -32933.7 4100 -32866.3 4100 M -37866.3 9100 -37799.3 9092.5 -37733.6 9077.5 -37670 9055.2 -37609.3 9026 -37552.3 8990.1 -37499.6 8948.1 -37451.9 8900.4 -37409.9 8847.8 -37374 8790.7 -37344.8 8730 -37322.5 8666.4 -37307.5 8600.7 -37300 8533.7 -37300 8466.3 -37307.5 8399.3 -37322.5 8333.6 -37344.8 8270 -37374 8209.3 -37409.9 8152.3 -37451.9 8099.6 -37499.6 8051.9 -37552.3 8009.9 -37609.3 7974 -37670 7944.8 -37733.6 7922.5 -37799.3 7907.5 -37866.3 7900 -37933.7 7900 -38000.7 7907.5 -38066.4 7922.5 -38130 7944.8 -38190.7 7974 -38247.8 8009.9 -38300.4 8051.9 -38348.1 8099.6 -38390.1 8152.3 -38426 8209.3 -38455.2 8270 -38477.5 8333.6 -38492.5 8399.3 -38500 8466.3 -38500 8533.7 -38492.5 8600.7 -38477.5 8666.4 -38455.2 8730 -38426 8790.7 -38390.1 8847.8 -38348.1 8900.4 -38300.4 8948.1 -38247.8 8990.1 -38190.7 9026 -38130 9055.2 -38066.4 9077.5 -38000.7 9092.5 -37933.7 9100 -37866.3 9100 M -59066.3 4100 -58999.3 4092.5 -58933.6 4077.5 -58870 4055.2 -58809.3 4026 -58752.3 3990.1 -58699.6 3948.1 -58651.9 3900.4 -58609.9 3847.8 -58574 3790.7 -58544.8 3730 -58522.5 3666.4 -58507.5 3600.7 -58500 3533.7 -58500 3466.3 -58507.5 3399.3 -58522.5 3333.6 -58544.8 3270 -58574 3209.3 -58609.9 3152.3 -58651.9 3099.6 -58699.6 3051.9 -58752.3 3009.9 -58809.3 2974 -58870 2944.8 -58933.6 2922.5 -58999.3 2907.5 -59066.3 2900 -59133.7 2900 -59200.7 2907.5 -59266.4 2922.5 -59330 2944.8 -59390.7 2974 -59447.8 3009.9 -59500.4 3051.9 -59548.1 3099.6 -59590.1 3152.3 -59626 3209.3 -59655.2 3270 -59677.5 3333.6 -59692.5 3399.3 -59700 3466.3 -59700 3533.7 -59692.5 3600.7 -59677.5 3666.4 -59655.2 3730 -59626 3790.7 -59590.1 3847.8 -59548.1 3900.4 -59500.4 3948.1 -59447.8 3990.1 -59390.7 4026 -59330 4055.2 -59266.4 4077.5 -59200.7 4092.5 -59133.7 4100 -59066.3 4100 M -59066.3 1600 -58999.3 1592.5 -58933.6 1577.5 -58870 1555.2 -58809.3 1526 -58752.3 1490.1 -58699.6 1448.1 -58651.9 1400.4 -58609.9 1347.8 -58574 1290.7 -58544.8 1230 -58522.5 1166.4 -58507.5 1100.7 -58500 1033.7 -58500 966.3 -58507.5 899.3 -58522.5 833.6 -58544.8 770 -58574 709.3 -58609.9 652.3 -58651.9 599.6 -58699.6 551.9 -58752.3 509.9 -58809.3 474 -58870 444.8 -58933.6 422.5 -58999.3 407.5 -59066.3 400 -59133.7 400 -59200.7 407.5 -59266.4 422.5 -59330 444.8 -59390.7 474 -59447.8 509.9 -59500.4 551.9 -59548.1 599.6 -59590.1 652.3 -59626 709.3 -59655.2 770 -59677.5 833.6 -59692.5 899.3 -59700 966.3 -59700 1033.7 -59692.5 1100.7 -59677.5 1166.4 -59655.2 1230 -59626 1290.7 -59590.1 1347.8 -59548.1 1400.4 -59500.4 1448.1 -59447.8 1490.1 -59390.7 1526 -59330 1555.2 -59266.4 1577.5 -59200.7 1592.5 -59133.7 1600 -59066.3 1600 M -49066.3 1600 -48999.3 1592.5 -48933.6 1577.5 -48870 1555.2 -48809.3 1526 -48752.3 1490.1 -48699.6 1448.1 -48651.9 1400.4 -48609.9 1347.8 -48574 1290.7 -48544.8 1230 -48522.5 1166.4 -48507.5 1100.7 -48500 1033.7 -48500 966.3 -48507.5 899.3 -48522.5 833.6 -48544.8 770 -48574 709.3 -48609.9 652.3 -48651.9 599.6 -48699.6 551.9 -48752.3 509.9 -48809.3 474 -48870 444.8 -48933.6 422.5 -48999.3 407.5 -49066.3 400 -49133.7 400 -49200.7 407.5 -49266.4 422.5 -49330 444.8 -49390.7 474 -49447.8 509.9 -49500.4 551.9 -49548.1 599.6 -49590.1 652.3 -49626 709.3 -49655.2 770 -49677.5 833.6 -49692.5 899.3 -49700 966.3 -49700 1033.7 -49692.5 1100.7 -49677.5 1166.4 -49655.2 1230 -49626 1290.7 -49590.1 1347.8 -49548.1 1400.4 -49500.4 1448.1 -49447.8 1490.1 -49390.7 1526 -49330 1555.2 -49266.4 1577.5 -49200.7 1592.5 -49133.7 1600 -49066.3 1600 M -49066.3 4100 -48999.3 4092.5 -48933.6 4077.5 -48870 4055.2 -48809.3 4026 -48752.3 3990.1 -48699.6 3948.1 -48651.9 3900.4 -48609.9 3847.8 -48574 3790.7 -48544.8 3730 -48522.5 3666.4 -48507.5 3600.7 -48500 3533.7 -48500 3466.3 -48507.5 3399.3 -48522.5 3333.6 -48544.8 3270 -48574 3209.3 -48609.9 3152.3 -48651.9 3099.6 -48699.6 3051.9 -48752.3 3009.9 -48809.3 2974 -48870 2944.8 -48933.6 2922.5 -48999.3 2907.5 -49066.3 2900 -49133.7 2900 -49200.7 2907.5 -49266.4 2922.5 -49330 2944.8 -49390.7 2974 -49447.8 3009.9 -49500.4 3051.9 -49548.1 3099.6 -49590.1 3152.3 -49626 3209.3 -49655.2 3270 -49677.5 3333.6 -49692.5 3399.3 -49700 3466.3 -49700 3533.7 -49692.5 3600.7 -49677.5 3666.4 -49655.2 3730 -49626 3790.7 -49590.1 3847.8 -49548.1 3900.4 -49500.4 3948.1 -49447.8 3990.1 -49390.7 4026 -49330 4055.2 -49266.4 4077.5 -49200.7 4092.5 -49133.7 4100 -49066.3 4100 M -54066.3 9100 -53999.3 9092.5 -53933.6 9077.5 -53870 9055.2 -53809.3 9026 -53752.3 8990.1 -53699.6 8948.1 -53651.9 8900.4 -53609.9 8847.8 -53574 8790.7 -53544.8 8730 -53522.5 8666.4 -53507.5 8600.7 -53500 8533.7 -53500 8466.3 -53507.5 8399.3 -53522.5 8333.6 -53544.8 8270 -53574 8209.3 -53609.9 8152.3 -53651.9 8099.6 -53699.6 8051.9 -53752.3 8009.9 -53809.3 7974 -53870 7944.8 -53933.6 7922.5 -53999.3 7907.5 -54066.3 7900 -54133.7 7900 -54200.7 7907.5 -54266.4 7922.5 -54330 7944.8 -54390.7 7974 -54447.8 8009.9 -54500.4 8051.9 -54548.1 8099.6 -54590.1 8152.3 -54626 8209.3 -54655.2 8270 -54677.5 8333.6 -54692.5 8399.3 -54700 8466.3 -54700 8533.7 -54692.5 8600.7 -54677.5 8666.4 -54655.2 8730 -54626 8790.7 -54590.1 8847.8 -54548.1 8900.4 -54500.4 8948.1 -54447.8 8990.1 -54390.7 9026 -54330 9055.2 -54266.4 9077.5 -54200.7 9092.5 -54133.7 9100 -54066.3 9100 M -75266.3 4100 -75199.3 4092.5 -75133.6 4077.5 -75070 4055.2 -75009.3 4026 -74952.3 3990.1 -74899.6 3948.1 -74851.9 3900.4 -74809.9 3847.8 -74774 3790.7 -74744.8 3730 -74722.5 3666.4 -74707.5 3600.7 -74700 3533.7 -74700 3466.3 -74707.5 3399.3 -74722.5 3333.6 -74744.8 3270 -74774 3209.3 -74809.9 3152.3 -74851.9 3099.6 -74899.6 3051.9 -74952.3 3009.9 -75009.3 2974 -75070 2944.8 -75133.6 2922.5 -75199.3 2907.5 -75266.3 2900 -75333.7 2900 -75400.7 2907.5 -75466.4 2922.5 -75530 2944.8 -75590.7 2974 -75647.8 3009.9 -75700.4 3051.9 -75748.1 3099.6 -75790.1 3152.3 -75826 3209.3 -75855.2 3270 -75877.5 3333.6 -75892.5 3399.3 -75900 3466.3 -75900 3533.7 -75892.5 3600.7 -75877.5 3666.4 -75855.2 3730 -75826 3790.7 -75790.1 3847.8 -75748.1 3900.4 -75700.4 3948.1 -75647.8 3990.1 -75590.7 4026 -75530 4055.2 -75466.4 4077.5 -75400.7 4092.5 -75333.7 4100 -75266.3 4100 M -75266.3 1600 -75199.3 1592.5 -75133.6 1577.5 -75070 1555.2 -75009.3 1526 -74952.3 1490.1 -74899.6 1448.1 -74851.9 1400.4 -74809.9 1347.8 -74774 1290.7 -74744.8 1230 -74722.5 1166.4 -74707.5 1100.7 -74700 1033.7 -74700 966.3 -74707.5 899.3 -74722.5 833.6 -74744.8 770 -74774 709.3 -74809.9 652.3 -74851.9 599.6 -74899.6 551.9 -74952.3 509.9 -75009.3 474 -75070 444.8 -75133.6 422.5 -75199.3 407.5 -75266.3 400 -75333.7 400 -75400.7 407.5 -75466.4 422.5 -75530 444.8 -75590.7 474 -75647.8 509.9 -75700.4 551.9 -75748.1 599.6 -75790.1 652.3 -75826 709.3 -75855.2 770 -75877.5 833.6 -75892.5 899.3 -75900 966.3 -75900 1033.7 -75892.5 1100.7 -75877.5 1166.4 -75855.2 1230 -75826 1290.7 -75790.1 1347.8 -75748.1 1400.4 -75700.4 1448.1 -75647.8 1490.1 -75590.7 1526 -75530 1555.2 -75466.4 1577.5 -75400.7 1592.5 -75333.7 1600 -75266.3 1600 M -65266.3 1600 -65199.3 1592.5 -65133.6 1577.5 -65070 1555.2 -65009.3 1526 -64952.3 1490.1 -64899.6 1448.1 -64851.9 1400.4 -64809.9 1347.8 -64774 1290.7 -64744.8 1230 -64722.5 1166.4 -64707.5 1100.7 -64700 1033.7 -64700 966.3 -64707.5 899.3 -64722.5 833.6 -64744.8 770 -64774 709.3 -64809.9 652.3 -64851.9 599.6 -64899.6 551.9 -64952.3 509.9 -65009.3 474 -65070 444.8 -65133.6 422.5 -65199.3 407.5 -65266.3 400 -65333.7 400 -65400.7 407.5 -65466.4 422.5 -65530 444.8 -65590.7 474 -65647.8 509.9 -65700.4 551.9 -65748.1 599.6 -65790.1 652.3 -65826 709.3 -65855.2 770 -65877.5 833.6 -65892.5 899.3 -65900 966.3 -65900 1033.7 -65892.5 1100.7 -65877.5 1166.4 -65855.2 1230 -65826 1290.7 -65790.1 1347.8 -65748.1 1400.4 -65700.4 1448.1 -65647.8 1490.1 -65590.7 1526 -65530 1555.2 -65466.4 1577.5 -65400.7 1592.5 -65333.7 1600 -65266.3 1600 M -65266.3 4100 -65199.3 4092.5 -65133.6 4077.5 -65070 4055.2 -65009.3 4026 -64952.3 3990.1 -64899.6 3948.1 -64851.9 3900.4 -64809.9 3847.8 -64774 3790.7 -64744.8 3730 -64722.5 3666.4 -64707.5 3600.7 -64700 3533.7 -64700 3466.3 -64707.5 3399.3 -64722.5 3333.6 -64744.8 3270 -64774 3209.3 -64809.9 3152.3 -64851.9 3099.6 -64899.6 3051.9 -64952.3 3009.9 -65009.3 2974 -65070 2944.8 -65133.6 2922.5 -65199.3 2907.5 -65266.3 2900 -65333.7 2900 -65400.7 2907.5 -65466.4 2922.5 -65530 2944.8 -65590.7 2974 -65647.8 3009.9 -65700.4 3051.9 -65748.1 3099.6 -65790.1 3152.3 -65826 3209.3 -65855.2 3270 -65877.5 3333.6 -65892.5 3399.3 -65900 3466.3 -65900 3533.7 -65892.5 3600.7 -65877.5 3666.4 -65855.2 3730 -65826 3790.7 -65790.1 3847.8 -65748.1 3900.4 -65700.4 3948.1 -65647.8 3990.1 -65590.7 4026 -65530 4055.2 -65466.4 4077.5 -65400.7 4092.5 -65333.7 4100 -65266.3 4100 M -70266.3 9100 -70199.3 9092.5 -70133.6 9077.5 -70070 9055.2 -70009.3 9026 -69952.3 8990.1 -69899.6 8948.1 -69851.9 8900.4 -69809.9 8847.8 -69774 8790.7 -69744.8 8730 -69722.5 8666.4 -69707.5 8600.7 -69700 8533.7 -69700 8466.3 -69707.5 8399.3 -69722.5 8333.6 -69744.8 8270 -69774 8209.3 -69809.9 8152.3 -69851.9 8099.6 -69899.6 8051.9 -69952.3 8009.9 -70009.3 7974 -70070 7944.8 -70133.6 7922.5 -70199.3 7907.5 -70266.3 7900 -70333.7 7900 -70400.7 7907.5 -70466.4 7922.5 -70530 7944.8 -70590.7 7974 -70647.8 8009.9 -70700.4 8051.9 -70748.1 8099.6 -70790.1 8152.3 -70826 8209.3 -70855.2 8270 -70877.5 8333.6 -70892.5 8399.3 -70900 8466.3 -70900 8533.7 -70892.5 8600.7 -70877.5 8666.4 -70855.2 8730 -70826 8790.7 -70790.1 8847.8 -70748.1 8900.4 -70700.4 8948.1 -70647.8 8990.1 -70590.7 9026 -70530 9055.2 -70466.4 9077.5 -70400.7 9092.5 -70333.7 9100 -70266.3 9100 M -42050 82970.5 -42057.7 82912 -42073 82855 -42095.5 82800.5 -42125 82749.5 -42160.9 82702.7 -42202.7 82660.9 -42249.5 82625 -42300.5 82595.5 -42355 82573 -42412 82557.7 -42470.5 82550 -42529.5 82550 -42588 82557.7 -42645 82573 -42699.5 82595.5 -42750.5 82625 -42797.3 82660.9 -42839.1 82702.7 -42875 82749.5 -42904.5 82800.5 -42927 82855 -42942.3 82912 -42950 82970.5 -42950 83029.5 -42942.3 83088 -42927 83145 -42904.5 83199.5 -42875 83250.5 -42839.1 83297.3 -42797.3 83339.1 -42750.5 83375 -42699.5 83404.5 -42645 83427 -42588 83442.3 -42529.5 83450 -42470.5 83450 -42412 83442.3 -42355 83427 -42300.5 83404.5 -42249.5 83375 -42202.7 83339.1 -42160.9 83297.3 -42125 83250.5 -42095.5 83199.5 -42073 83145 -42057.7 83088 -42050 83029.5 -42050 82970.5 M -39050 82970.5 -39057.7 82912 -39073 82855 -39095.5 82800.5 -39125 82749.5 -39160.9 82702.7 -39202.7 82660.9 -39249.5 82625 -39300.5 82595.5 -39355 82573 -39412 82557.7 -39470.5 82550 -39529.5 82550 -39588 82557.7 -39645 82573 -39699.5 82595.5 -39750.5 82625 -39797.3 82660.9 -39839.1 82702.7 -39875 82749.5 -39904.5 82800.5 -39927 82855 -39942.3 82912 -39950 82970.5 -39950 83029.5 -39942.3 83088 -39927 83145 -39904.5 83199.5 -39875 83250.5 -39839.1 83297.3 -39797.3 83339.1 -39750.5 83375 -39699.5 83404.5 -39645 83427 -39588 83442.3 -39529.5 83450 -39470.5 83450 -39412 83442.3 -39355 83427 -39300.5 83404.5 -39249.5 83375 -39202.7 83339.1 -39160.9 83297.3 -39125 83250.5 -39095.5 83199.5 -39073 83145 -39057.7 83088 -39050 83029.5 -39050 82970.5" fill="none" stroke-width="254"/></clipPath><mask id="aOTqfRFW83wUjpNuqvNO_bottom_mech-mask"><g fill="#000" stroke="#000"><rect x="-92000" y="0" width="92000" height="87000" fill="#fff"/></g></mask><mask id="aOTqfRFW83wUjpNuqvNO_bottom_cf-mask"><g fill="#fff" stroke="#fff"><use xlink:href="#aOTqfRFW83wUjpNuqvNO_bottom_soldermask"/></g></mask><mask id="aOTqfRFW83wUjpNuqvNO_bottom_sm-mask"><g fill="#000" stroke="#000"><rect x="-92000" y="0" width="92000" height="87000" fill="#fff"/><use xlink:href="#aOTqfRFW83wUjpNuqvNO_bottom_soldermask"/></g></mask></defs><g transform="translate(0,87000) scale(1,-1)"><g mask="url(#aOTqfRFW83wUjpNuqvNO_bottom_mech-mask)" clip-path="url(#aOTqfRFW83wUjpNuqvNO_bottom_outline)" transform="translate(-92000,0) scale(-1,1)"><rect x="-92000" y="0" width="92000" height="87000" fill="currentColor" class="aOTqfRFW83wUjpNuqvNO_fr4"/><use xlink:href="#aOTqfRFW83wUjpNuqvNO_bottom_copper" fill="currentColor" stroke="currentColor" class="aOTqfRFW83wUjpNuqvNO_cu"/><use xlink:href="#aOTqfRFW83wUjpNuqvNO_bottom_copper" fill="currentColor" stroke="currentColor" class="aOTqfRFW83wUjpNuqvNO_cf" mask="url(#aOTqfRFW83wUjpNuqvNO_bottom_cf-mask)"/><g mask="url(#aOTqfRFW83wUjpNuqvNO_bottom_sm-mask)"><rect x="-92000" y="0" width="92000" height="87000" fill="currentColor" class="aOTqfRFW83wUjpNuqvNO_sm"/><use xlink:href="#aOTqfRFW83wUjpNuqvNO_bottom_silkscreen" fill="currentColor" stroke="currentColor" class="aOTqfRFW83wUjpNuqvNO_ss"/></g></g></g></svg>