G04 EAGLE Gerber RS-274X export*
G75*
%MOMM*%
%FSLAX34Y34*%
%LPD*%
%INBottom Copper*%
%IPPOS*%
%AMOC8*
5,1,8,0,0,1.08239X$1,22.5*%
G01*
%ADD10C,2.184400*%
%ADD11C,4.000000*%
%ADD12C,2.000000*%
%ADD13C,1.879600*%
%ADD14C,0.756400*%
%ADD15C,1.016000*%
%ADD16C,0.609600*%
%ADD17C,0.706400*%
%ADD18C,0.508000*%
%ADD19C,0.304800*%
%ADD20C,0.254000*%


D10*
X-217000Y35000D03*
X-242000Y85000D03*
X-267000Y85000D03*
X-192000Y85000D03*
X-167000Y85000D03*
X-379000Y35000D03*
X-404000Y85000D03*
X-429000Y85000D03*
X-354000Y85000D03*
X-329000Y85000D03*
X-541000Y35000D03*
X-566000Y85000D03*
X-591000Y85000D03*
X-516000Y85000D03*
X-491000Y85000D03*
X-703000Y35000D03*
X-728000Y85000D03*
X-753000Y85000D03*
X-678000Y85000D03*
X-653000Y85000D03*
D11*
X-655500Y827300D03*
X-604700Y827300D03*
X-553900Y827300D03*
X-503100Y827300D03*
D12*
X-735100Y732800D02*
X-755100Y732800D01*
X-755100Y795800D02*
X-735100Y795800D01*
X-795100Y772800D02*
X-795100Y752800D01*
D13*
X-221400Y812300D03*
X-221400Y837700D03*
X-196000Y812300D03*
X-196000Y837700D03*
X-170600Y812300D03*
X-170600Y837700D03*
D14*
X-283000Y329000D03*
D15*
X-283000Y253000D01*
X-272000Y242000D01*
D14*
X-272000Y242000D03*
X-310000Y410000D03*
D15*
X-530000Y410000D01*
X-580000Y460000D02*
X-580000Y600000D01*
D14*
X-580000Y600000D03*
D15*
X-580000Y460000D02*
X-530000Y410000D01*
X-580000Y460000D02*
X-580000Y250000D01*
D14*
X-580000Y250000D03*
X-545000Y652000D03*
D16*
X-545000Y603000D01*
X-524500Y582500D01*
X-524000Y582000D01*
X-371000Y582000D01*
X-370000Y583000D01*
D14*
X-370000Y583000D03*
X-223000Y280000D03*
D16*
X-204000Y261000D01*
X-139000Y261000D01*
D14*
X-139000Y261000D03*
D17*
X-524500Y582500D03*
D14*
X-374000Y208000D03*
D16*
X-338000Y208000D01*
X-250000Y208000D01*
X-228000Y186000D01*
D14*
X-228000Y186000D03*
X-338000Y239000D03*
D16*
X-338000Y208000D01*
D14*
X-173000Y736000D03*
D18*
X-330000Y736000D01*
X-343000Y723000D01*
X-343000Y667000D01*
X-360000Y650000D01*
X-376000Y650000D01*
D14*
X-376000Y650000D03*
X-141500Y321500D03*
D19*
X-141500Y614500D01*
X-142000Y615000D01*
D14*
X-142000Y615000D03*
X-164000Y322000D03*
D19*
X-164000Y688000D01*
X-165000Y688000D01*
D14*
X-165000Y688000D03*
X-565000Y171000D03*
D20*
X-658000Y171000D01*
D14*
X-658000Y171000D03*
X-229000Y141000D03*
D20*
X-357000Y141000D01*
X-367000Y151000D01*
D14*
X-367000Y151000D03*
X-676000Y205000D03*
D20*
X-676000Y223000D01*
X-666000Y233000D01*
X-608000Y233000D01*
X-566000Y191000D01*
X-565500Y191500D01*
D14*
X-565500Y191500D03*
X-236000Y600000D03*
D19*
X-187000Y551000D01*
X-187000Y364000D01*
X-223000Y328000D01*
D14*
X-223000Y328000D03*
X-402000Y530000D03*
D19*
X-384000Y548000D01*
X-235000Y548000D02*
X-224000Y537000D01*
X-203000Y537000D01*
D14*
X-203000Y537000D03*
D19*
X-235000Y548000D02*
X-384000Y548000D01*
D14*
X-403000Y548000D03*
D19*
X-392000Y559000D02*
X-230000Y559000D01*
X-392000Y559000D02*
X-403000Y548000D01*
X-230000Y559000D02*
X-223000Y552000D01*
D14*
X-223000Y552000D03*
X-402000Y514000D03*
D19*
X-379000Y537000D01*
X-243000Y537000D01*
D14*
X-243000Y537000D03*
M02*
