G04 EAGLE Gerber RS-274X export*
G75*
%MOMM*%
%FSLAX34Y34*%
%LPD*%
%INSilkscreen Top*%
%IPPOS*%
%AMOC8*
5,1,8,0,0,1.08239X$1,22.5*%
G01*
%ADD10R,13.000000X10.000000*%
%ADD11C,0.304800*%
%ADD12C,0.127000*%
%ADD13C,0.076200*%
%ADD14C,0.177800*%
%ADD15C,0.152400*%
%ADD16C,0.203200*%
%ADD17C,0.400000*%
%ADD18C,0.447200*%
%ADD19C,0.254000*%


D10*
X-865000Y50000D03*
X-50000Y50000D03*
X-50000Y820000D03*
X-870000Y820000D03*
D11*
X-905000Y130000D02*
X-785000Y130000D01*
X-785000Y250000D01*
X-905000Y250000D01*
X-905000Y130000D01*
D12*
X-902142Y272389D02*
X-899558Y274973D01*
X-902142Y272389D02*
X-902142Y267220D01*
X-899558Y264635D01*
X-889220Y264635D01*
X-886635Y267220D01*
X-886635Y272389D01*
X-889220Y274973D01*
X-902142Y282656D02*
X-902142Y287825D01*
X-902142Y282656D02*
X-899558Y280071D01*
X-889220Y280071D01*
X-886635Y282656D01*
X-886635Y287825D01*
X-889220Y290409D01*
X-899558Y290409D01*
X-902142Y287825D01*
X-902142Y295507D02*
X-886635Y295507D01*
X-896973Y300676D02*
X-902142Y295507D01*
X-896973Y300676D02*
X-902142Y305845D01*
X-886635Y305845D01*
X-886635Y310943D02*
X-886635Y316112D01*
X-886635Y313528D02*
X-902142Y313528D01*
X-902142Y316112D02*
X-902142Y310943D01*
X-902142Y321234D02*
X-886635Y321234D01*
X-886635Y331572D02*
X-902142Y321234D01*
X-902142Y331572D02*
X-886635Y331572D01*
X-902142Y336670D02*
X-902142Y347008D01*
X-902142Y336670D02*
X-886635Y336670D01*
X-886635Y347008D01*
X-894389Y341839D02*
X-894389Y336670D01*
X-902142Y352106D02*
X-886635Y352106D01*
X-902142Y352106D02*
X-902142Y359860D01*
X-899558Y362444D01*
X-894389Y362444D01*
X-891804Y359860D01*
X-891804Y352106D01*
X-891804Y357275D02*
X-886635Y362444D01*
X-894389Y367542D02*
X-894389Y377880D01*
X-896973Y382978D02*
X-886635Y382978D01*
X-896973Y382978D02*
X-902142Y388147D01*
X-896973Y393316D01*
X-886635Y393316D01*
X-894389Y393316D02*
X-894389Y382978D01*
X-902142Y398414D02*
X-886635Y398414D01*
X-896973Y403583D02*
X-902142Y398414D01*
X-896973Y403583D02*
X-902142Y408752D01*
X-886635Y408752D01*
X-886635Y413850D02*
X-902142Y413850D01*
X-902142Y421604D01*
X-899558Y424188D01*
X-894389Y424188D01*
X-891804Y421604D01*
X-891804Y413850D01*
X-840635Y271804D02*
X-850973Y266635D01*
X-850973Y276973D02*
X-840635Y271804D01*
X-850973Y282071D02*
X-856142Y287240D01*
X-840635Y287240D01*
X-840635Y282071D02*
X-840635Y292409D01*
X-840635Y297507D02*
X-843220Y297507D01*
X-843220Y300092D01*
X-840635Y300092D01*
X-840635Y297507D01*
X-843220Y305225D02*
X-853558Y305225D01*
X-856142Y307810D01*
X-856142Y312979D01*
X-853558Y315563D01*
X-843220Y315563D01*
X-840635Y312979D01*
X-840635Y307810D01*
X-843220Y305225D01*
X-853558Y315563D01*
X-840635Y320661D02*
X-840635Y330999D01*
X-840635Y320661D02*
X-850973Y330999D01*
X-853558Y330999D01*
X-856142Y328415D01*
X-856142Y323246D01*
X-853558Y320661D01*
D13*
X-301381Y851247D02*
X-301381Y858619D01*
X-301381Y851247D02*
X-305067Y851247D01*
X-306296Y852475D01*
X-306296Y854933D01*
X-305067Y856162D01*
X-301381Y856162D01*
X-303838Y856162D02*
X-306296Y858619D01*
X-308865Y851247D02*
X-313780Y851247D01*
X-308865Y851247D02*
X-308865Y858619D01*
X-313780Y858619D01*
X-311323Y854933D02*
X-308865Y854933D01*
X-320035Y851247D02*
X-321264Y852475D01*
X-320035Y851247D02*
X-317578Y851247D01*
X-316349Y852475D01*
X-316349Y853704D01*
X-317578Y854933D01*
X-320035Y854933D01*
X-321264Y856162D01*
X-321264Y857390D01*
X-320035Y858619D01*
X-317578Y858619D01*
X-316349Y857390D01*
X-323833Y851247D02*
X-328748Y851247D01*
X-323833Y851247D02*
X-323833Y858619D01*
X-328748Y858619D01*
X-326291Y854933D02*
X-323833Y854933D01*
X-333775Y858619D02*
X-333775Y851247D01*
X-331318Y851247D02*
X-336232Y851247D01*
X-366381Y849247D02*
X-366381Y856619D01*
X-366381Y849247D02*
X-371296Y849247D01*
X-368838Y852933D02*
X-366381Y852933D01*
X-373865Y849247D02*
X-373865Y856619D01*
X-378780Y856619D01*
X-381349Y856619D02*
X-381349Y851704D01*
X-383807Y849247D01*
X-386264Y851704D01*
X-386264Y856619D01*
X-386264Y852933D02*
X-381349Y852933D01*
X-392520Y849247D02*
X-393748Y850475D01*
X-392520Y849247D02*
X-390062Y849247D01*
X-388833Y850475D01*
X-388833Y851704D01*
X-390062Y852933D01*
X-392520Y852933D01*
X-393748Y854162D01*
X-393748Y855390D01*
X-392520Y856619D01*
X-390062Y856619D01*
X-388833Y855390D01*
X-396318Y856619D02*
X-396318Y849247D01*
X-396318Y852933D02*
X-401232Y852933D01*
X-401232Y849247D02*
X-401232Y856619D01*
X-427381Y855390D02*
X-427381Y849247D01*
X-427381Y855390D02*
X-428610Y856619D01*
X-431067Y856619D01*
X-432296Y855390D01*
X-432296Y849247D01*
X-434865Y851704D02*
X-434865Y856619D01*
X-434865Y851704D02*
X-437323Y849247D01*
X-439780Y851704D01*
X-439780Y856619D01*
X-439780Y852933D02*
X-434865Y852933D01*
X-442349Y856619D02*
X-442349Y849247D01*
X-446035Y849247D01*
X-447264Y850475D01*
X-447264Y852933D01*
X-446035Y854162D01*
X-442349Y854162D01*
X-444807Y854162D02*
X-447264Y856619D01*
X-452291Y856619D02*
X-452291Y849247D01*
X-454748Y849247D02*
X-449833Y849247D01*
D14*
X-623417Y28972D02*
X-630111Y22278D01*
X-623417Y28972D02*
X-623417Y8889D01*
X-630111Y8889D02*
X-616722Y8889D01*
X-469111Y7889D02*
X-455722Y7889D01*
X-469111Y7889D02*
X-455722Y21278D01*
X-455722Y24625D01*
X-459069Y27972D01*
X-465764Y27972D01*
X-469111Y24625D01*
X-306111Y25625D02*
X-302764Y28972D01*
X-296069Y28972D01*
X-292722Y25625D01*
X-292722Y22278D01*
X-296069Y18931D01*
X-299417Y18931D01*
X-296069Y18931D02*
X-292722Y15583D01*
X-292722Y12236D01*
X-296069Y8889D01*
X-302764Y8889D01*
X-306111Y12236D01*
X-135069Y9889D02*
X-135069Y29972D01*
X-145111Y19931D01*
X-131722Y19931D01*
D12*
X-786635Y264635D02*
X-802142Y264635D01*
X-796973Y269804D01*
X-802142Y274973D01*
X-786635Y274973D01*
X-796973Y280071D02*
X-796973Y282656D01*
X-786635Y282656D01*
X-786635Y285240D02*
X-786635Y280071D01*
X-802142Y282656D02*
X-804727Y282656D01*
X-796973Y290362D02*
X-786635Y290362D01*
X-796973Y290362D02*
X-796973Y298115D01*
X-794389Y300700D01*
X-786635Y300700D01*
X-786635Y308382D02*
X-786635Y313551D01*
X-786635Y308382D02*
X-789220Y305798D01*
X-794389Y305798D01*
X-796973Y308382D01*
X-796973Y313551D01*
X-794389Y316136D01*
X-791804Y316136D01*
X-791804Y305798D01*
X-786635Y321234D02*
X-796973Y321234D01*
X-791804Y321234D02*
X-796973Y326403D01*
X-796973Y328988D01*
X-796973Y334097D02*
X-781466Y334097D01*
X-796973Y334097D02*
X-796973Y341851D01*
X-794389Y344435D01*
X-789220Y344435D01*
X-786635Y341851D01*
X-786635Y334097D01*
X-789220Y349533D02*
X-796973Y349533D01*
X-789220Y349533D02*
X-786635Y352118D01*
X-786635Y359871D01*
X-796973Y359871D01*
X-796973Y364969D02*
X-786635Y364969D01*
X-796973Y364969D02*
X-796973Y372723D01*
X-794389Y375308D01*
X-786635Y375308D01*
X-786635Y380405D02*
X-802142Y380405D01*
X-791804Y380405D02*
X-786635Y388159D01*
X-791804Y380405D02*
X-796973Y388159D01*
X-789220Y393269D02*
X-786635Y393269D01*
X-789220Y393269D02*
X-789220Y395853D01*
X-786635Y395853D01*
X-786635Y393269D01*
X-796973Y403571D02*
X-796973Y411325D01*
X-796973Y403571D02*
X-794389Y400987D01*
X-789220Y400987D01*
X-786635Y403571D01*
X-786635Y411325D01*
X-786635Y419007D02*
X-786635Y424177D01*
X-789220Y426761D01*
X-794389Y426761D01*
X-796973Y424177D01*
X-796973Y419007D01*
X-794389Y416423D01*
X-789220Y416423D01*
X-786635Y419007D01*
X-786635Y431859D02*
X-796973Y431859D01*
X-796973Y434444D01*
X-794389Y437028D01*
X-786635Y437028D01*
X-794389Y437028D02*
X-796973Y439613D01*
X-794389Y442197D01*
X-786635Y442197D01*
D15*
X-161454Y559078D02*
X-154844Y559078D01*
X-161454Y559078D02*
X-161454Y562383D01*
X-160352Y563484D01*
X-158149Y563484D01*
X-157047Y562383D01*
X-157047Y559078D01*
X-157047Y561281D02*
X-154844Y563484D01*
X-159250Y566562D02*
X-161454Y568765D01*
X-154844Y568765D01*
X-154844Y566562D02*
X-154844Y570968D01*
X-195044Y559178D02*
X-201654Y559178D01*
X-201654Y562483D01*
X-200552Y563584D01*
X-198349Y563584D01*
X-197247Y562483D01*
X-197247Y559178D01*
X-197247Y561381D02*
X-195044Y563584D01*
X-195044Y566662D02*
X-195044Y571068D01*
X-195044Y566662D02*
X-199450Y571068D01*
X-200552Y571068D01*
X-201654Y569967D01*
X-201654Y567764D01*
X-200552Y566662D01*
D12*
X-298000Y514600D02*
X-298000Y354600D01*
X-128000Y354600D01*
X-128000Y514600D01*
X-298000Y514600D01*
D16*
X-663366Y623490D02*
X-663366Y656510D01*
X-597834Y656510D01*
X-597834Y623490D01*
X-663366Y623490D01*
D13*
X-662540Y601068D02*
X-656397Y601068D01*
X-655168Y602296D01*
X-655168Y604754D01*
X-656397Y605983D01*
X-662540Y605983D01*
X-661312Y608552D02*
X-662540Y609781D01*
X-662540Y612238D01*
X-661312Y613467D01*
X-660083Y613467D01*
X-658854Y612238D01*
X-658854Y611009D01*
X-658854Y612238D02*
X-657625Y613467D01*
X-656397Y613467D01*
X-655168Y612238D01*
X-655168Y609781D01*
X-656397Y608552D01*
D15*
X-342562Y431983D02*
X-341460Y433084D01*
X-342562Y431983D02*
X-342562Y429779D01*
X-341460Y428678D01*
X-337054Y428678D01*
X-335952Y429779D01*
X-335952Y431983D01*
X-337054Y433084D01*
X-335952Y439467D02*
X-342562Y439467D01*
X-339257Y436162D01*
X-339257Y440568D01*
X-273354Y562583D02*
X-272252Y563684D01*
X-273354Y562583D02*
X-273354Y560379D01*
X-272252Y559278D01*
X-267846Y559278D01*
X-266744Y560379D01*
X-266744Y562583D01*
X-267846Y563684D01*
X-273354Y566762D02*
X-273354Y571168D01*
X-273354Y566762D02*
X-270049Y566762D01*
X-271150Y568965D01*
X-271150Y570067D01*
X-270049Y571168D01*
X-267846Y571168D01*
X-266744Y570067D01*
X-266744Y567864D01*
X-267846Y566762D01*
X-562252Y659684D02*
X-563354Y658583D01*
X-563354Y656379D01*
X-562252Y655278D01*
X-557846Y655278D01*
X-556744Y656379D01*
X-556744Y658583D01*
X-557846Y659684D01*
X-562252Y664965D02*
X-563354Y667168D01*
X-562252Y664965D02*
X-560049Y662762D01*
X-557846Y662762D01*
X-556744Y663864D01*
X-556744Y666067D01*
X-557846Y667168D01*
X-558947Y667168D01*
X-560049Y666067D01*
X-560049Y662762D01*
D16*
X-520300Y702300D02*
X-497300Y702300D01*
X-520300Y702300D02*
X-520300Y750300D01*
X-503300Y767300D01*
X-497300Y767300D01*
X-478300Y767300D02*
X-472300Y767300D01*
X-455300Y750300D01*
X-455300Y702300D01*
X-478300Y702300D01*
X-497300Y705300D02*
X-498018Y705541D01*
X-498731Y705800D01*
X-499436Y706076D01*
X-500135Y706369D01*
X-500827Y706679D01*
X-501510Y707006D01*
X-502186Y707349D01*
X-502853Y707709D01*
X-503511Y708085D01*
X-504159Y708477D01*
X-504798Y708885D01*
X-505426Y709308D01*
X-506044Y709747D01*
X-506651Y710200D01*
X-507247Y710669D01*
X-507831Y711151D01*
X-508403Y711648D01*
X-508963Y712159D01*
X-509510Y712683D01*
X-510045Y713220D01*
X-510566Y713771D01*
X-511073Y714334D01*
X-511566Y714909D01*
X-512046Y715496D01*
X-512510Y716094D01*
X-512960Y716704D01*
X-513395Y717325D01*
X-513815Y717956D01*
X-514219Y718597D01*
X-514607Y719247D01*
X-514979Y719908D01*
X-515335Y720576D01*
X-515675Y721254D01*
X-515998Y721940D01*
X-516304Y722633D01*
X-516593Y723333D01*
X-516864Y724041D01*
X-517119Y724754D01*
X-517356Y725474D01*
X-517575Y726200D01*
X-517776Y726930D01*
X-517960Y727665D01*
X-518125Y728405D01*
X-518272Y729148D01*
X-518401Y729895D01*
X-518512Y730645D01*
X-518605Y731397D01*
X-518679Y732151D01*
X-518734Y732907D01*
X-518771Y733664D01*
X-518790Y734421D01*
X-518790Y735179D01*
X-518771Y735936D01*
X-518734Y736693D01*
X-518679Y737449D01*
X-518605Y738203D01*
X-518512Y738955D01*
X-518401Y739705D01*
X-518272Y740452D01*
X-518125Y741195D01*
X-517960Y741935D01*
X-517776Y742670D01*
X-517575Y743400D01*
X-517356Y744126D01*
X-517119Y744846D01*
X-516864Y745559D01*
X-516593Y746267D01*
X-516304Y746967D01*
X-515998Y747660D01*
X-515675Y748346D01*
X-515335Y749024D01*
X-514979Y749692D01*
X-514607Y750353D01*
X-514219Y751003D01*
X-513815Y751644D01*
X-513395Y752275D01*
X-512960Y752896D01*
X-512510Y753506D01*
X-512046Y754104D01*
X-511566Y754691D01*
X-511073Y755266D01*
X-510566Y755829D01*
X-510045Y756380D01*
X-509510Y756917D01*
X-508963Y757441D01*
X-508403Y757952D01*
X-507831Y758449D01*
X-507247Y758931D01*
X-506651Y759400D01*
X-506044Y759853D01*
X-505426Y760292D01*
X-504798Y760715D01*
X-504159Y761123D01*
X-503511Y761515D01*
X-502853Y761891D01*
X-502186Y762251D01*
X-501510Y762594D01*
X-500827Y762921D01*
X-500135Y763231D01*
X-499436Y763524D01*
X-498731Y763800D01*
X-498018Y764059D01*
X-497300Y764300D01*
X-478300Y764300D02*
X-477582Y764059D01*
X-476869Y763800D01*
X-476164Y763524D01*
X-475465Y763231D01*
X-474773Y762921D01*
X-474090Y762594D01*
X-473414Y762251D01*
X-472747Y761891D01*
X-472089Y761515D01*
X-471441Y761123D01*
X-470802Y760715D01*
X-470174Y760292D01*
X-469556Y759853D01*
X-468949Y759400D01*
X-468353Y758931D01*
X-467769Y758449D01*
X-467197Y757952D01*
X-466637Y757441D01*
X-466090Y756917D01*
X-465555Y756380D01*
X-465034Y755829D01*
X-464527Y755266D01*
X-464034Y754691D01*
X-463554Y754104D01*
X-463090Y753506D01*
X-462640Y752896D01*
X-462205Y752275D01*
X-461785Y751644D01*
X-461381Y751003D01*
X-460993Y750353D01*
X-460621Y749692D01*
X-460265Y749024D01*
X-459925Y748346D01*
X-459602Y747660D01*
X-459296Y746967D01*
X-459007Y746267D01*
X-458736Y745559D01*
X-458481Y744846D01*
X-458244Y744126D01*
X-458025Y743400D01*
X-457824Y742670D01*
X-457640Y741935D01*
X-457475Y741195D01*
X-457328Y740452D01*
X-457199Y739705D01*
X-457088Y738955D01*
X-456995Y738203D01*
X-456921Y737449D01*
X-456866Y736693D01*
X-456829Y735936D01*
X-456810Y735179D01*
X-456810Y734421D01*
X-456829Y733664D01*
X-456866Y732907D01*
X-456921Y732151D01*
X-456995Y731397D01*
X-457088Y730645D01*
X-457199Y729895D01*
X-457328Y729148D01*
X-457475Y728405D01*
X-457640Y727665D01*
X-457824Y726930D01*
X-458025Y726200D01*
X-458244Y725474D01*
X-458481Y724754D01*
X-458736Y724041D01*
X-459007Y723333D01*
X-459296Y722633D01*
X-459602Y721940D01*
X-459925Y721254D01*
X-460265Y720576D01*
X-460621Y719908D01*
X-460993Y719247D01*
X-461381Y718597D01*
X-461785Y717956D01*
X-462205Y717325D01*
X-462640Y716704D01*
X-463090Y716094D01*
X-463554Y715496D01*
X-464034Y714909D01*
X-464527Y714334D01*
X-465034Y713771D01*
X-465555Y713220D01*
X-466090Y712683D01*
X-466637Y712159D01*
X-467197Y711648D01*
X-467769Y711151D01*
X-468353Y710669D01*
X-468949Y710200D01*
X-469556Y709747D01*
X-470174Y709308D01*
X-470802Y708885D01*
X-471441Y708477D01*
X-472089Y708085D01*
X-472747Y707709D01*
X-473414Y707349D01*
X-474090Y707006D01*
X-474773Y706679D01*
X-475465Y706369D01*
X-476164Y706076D01*
X-476869Y705800D01*
X-477582Y705541D01*
X-478300Y705300D01*
D15*
X-530360Y728742D02*
X-531462Y727641D01*
X-531462Y725437D01*
X-530360Y724336D01*
X-525954Y724336D01*
X-524852Y725437D01*
X-524852Y727641D01*
X-525954Y728742D01*
X-529258Y731820D02*
X-531462Y734023D01*
X-524852Y734023D01*
X-524852Y731820D02*
X-524852Y736226D01*
X-524852Y739304D02*
X-524852Y743711D01*
X-529258Y743711D02*
X-524852Y739304D01*
X-529258Y743711D02*
X-530360Y743711D01*
X-531462Y742609D01*
X-531462Y740406D01*
X-530360Y739304D01*
D16*
X-277000Y110000D02*
X-157000Y110000D01*
X-277000Y70000D02*
X-277000Y0D01*
X-277000Y100000D02*
X-277000Y110000D01*
X-277000Y0D02*
X-157000Y0D01*
X-157000Y70000D01*
X-157000Y100000D02*
X-157000Y110000D01*
D15*
X-163836Y114082D02*
X-164938Y115184D01*
X-163836Y114082D02*
X-162735Y114082D01*
X-161633Y115184D01*
X-161633Y120692D01*
X-160532Y120692D02*
X-162735Y120692D01*
X-157454Y119590D02*
X-156352Y120692D01*
X-154149Y120692D01*
X-153047Y119590D01*
X-153047Y118488D01*
X-154149Y117387D01*
X-155251Y117387D01*
X-154149Y117387D02*
X-153047Y116285D01*
X-153047Y115184D01*
X-154149Y114082D01*
X-156352Y114082D01*
X-157454Y115184D01*
D16*
X-284500Y210750D02*
X-312500Y210750D01*
X-312500Y182250D02*
X-284500Y182250D01*
D17*
X-280500Y181500D03*
D15*
X-305222Y176694D02*
X-305222Y171186D01*
X-304121Y170084D01*
X-301917Y170084D01*
X-300816Y171186D01*
X-300816Y176694D01*
X-297738Y176694D02*
X-293332Y176694D01*
X-297738Y176694D02*
X-297738Y173389D01*
X-295535Y174490D01*
X-294433Y174490D01*
X-293332Y173389D01*
X-293332Y171186D01*
X-294433Y170084D01*
X-296636Y170084D01*
X-297738Y171186D01*
D16*
X-319000Y110000D02*
X-439000Y110000D01*
X-439000Y70000D02*
X-439000Y0D01*
X-439000Y100000D02*
X-439000Y110000D01*
X-439000Y0D02*
X-319000Y0D01*
X-319000Y70000D01*
X-319000Y100000D02*
X-319000Y110000D01*
D15*
X-436836Y114082D02*
X-437938Y115184D01*
X-436836Y114082D02*
X-435735Y114082D01*
X-434633Y115184D01*
X-434633Y120692D01*
X-433532Y120692D02*
X-435735Y120692D01*
X-427149Y120692D02*
X-427149Y114082D01*
X-430454Y117387D02*
X-427149Y120692D01*
X-426047Y117387D02*
X-430454Y117387D01*
D16*
X-157000Y225500D02*
X-151000Y225500D01*
X-151000Y233500D01*
X-173000Y225500D02*
X-179000Y225500D01*
X-179000Y233500D01*
D15*
X-146632Y225778D02*
X-142226Y225778D01*
X-146632Y225778D02*
X-147734Y226879D01*
X-147734Y229083D01*
X-146632Y230184D01*
X-142226Y230184D01*
X-141124Y229083D01*
X-141124Y226879D01*
X-142226Y225778D01*
X-143327Y227981D02*
X-141124Y230184D01*
X-141124Y233262D02*
X-141124Y237668D01*
X-141124Y233262D02*
X-145530Y237668D01*
X-146632Y237668D01*
X-147734Y236567D01*
X-147734Y234364D01*
X-146632Y233262D01*
X-177464Y270744D02*
X-177464Y277354D01*
X-174159Y277354D01*
X-173058Y276252D01*
X-173058Y274049D01*
X-174159Y272947D01*
X-177464Y272947D01*
X-175261Y272947D02*
X-173058Y270744D01*
X-169980Y275150D02*
X-167777Y277354D01*
X-167777Y270744D01*
X-169980Y270744D02*
X-165574Y270744D01*
X-162496Y270744D02*
X-158090Y270744D01*
X-162496Y270744D02*
X-158090Y275150D01*
X-158090Y276252D01*
X-159191Y277354D01*
X-161394Y277354D01*
X-162496Y276252D01*
X-175464Y175854D02*
X-175464Y169244D01*
X-175464Y175854D02*
X-172159Y175854D01*
X-171058Y174752D01*
X-171058Y172549D01*
X-172159Y171447D01*
X-175464Y171447D01*
X-173261Y171447D02*
X-171058Y169244D01*
X-167980Y173650D02*
X-165777Y175854D01*
X-165777Y169244D01*
X-167980Y169244D02*
X-163574Y169244D01*
X-160496Y174752D02*
X-159394Y175854D01*
X-157191Y175854D01*
X-156090Y174752D01*
X-156090Y173650D01*
X-157191Y172549D01*
X-158293Y172549D01*
X-157191Y172549D02*
X-156090Y171447D01*
X-156090Y170346D01*
X-157191Y169244D01*
X-159394Y169244D01*
X-160496Y170346D01*
D16*
X-187500Y225000D02*
X-193500Y225000D01*
X-187500Y225000D02*
X-187500Y233000D01*
X-209500Y225000D02*
X-215500Y225000D01*
X-215500Y233000D01*
D15*
X-221726Y226278D02*
X-226132Y226278D01*
X-227234Y227379D01*
X-227234Y229583D01*
X-226132Y230684D01*
X-221726Y230684D01*
X-220624Y229583D01*
X-220624Y227379D01*
X-221726Y226278D01*
X-222827Y228481D02*
X-220624Y230684D01*
X-225030Y233762D02*
X-227234Y235965D01*
X-220624Y235965D01*
X-220624Y233762D02*
X-220624Y238168D01*
X-211964Y176354D02*
X-211964Y169744D01*
X-211964Y176354D02*
X-208659Y176354D01*
X-207558Y175252D01*
X-207558Y173049D01*
X-208659Y171947D01*
X-211964Y171947D01*
X-209761Y171947D02*
X-207558Y169744D01*
X-204480Y174150D02*
X-202277Y176354D01*
X-202277Y169744D01*
X-204480Y169744D02*
X-200074Y169744D01*
X-193691Y169744D02*
X-193691Y176354D01*
X-196996Y173049D01*
X-192590Y173049D01*
X-211464Y271244D02*
X-211464Y277854D01*
X-208159Y277854D01*
X-207058Y276752D01*
X-207058Y274549D01*
X-208159Y273447D01*
X-211464Y273447D01*
X-209261Y273447D02*
X-207058Y271244D01*
X-203980Y275650D02*
X-201777Y277854D01*
X-201777Y271244D01*
X-203980Y271244D02*
X-199574Y271244D01*
X-196496Y277854D02*
X-192090Y277854D01*
X-196496Y277854D02*
X-196496Y274549D01*
X-194293Y275650D01*
X-193191Y275650D01*
X-192090Y274549D01*
X-192090Y272346D01*
X-193191Y271244D01*
X-195394Y271244D01*
X-196496Y272346D01*
D16*
X-481000Y110000D02*
X-601000Y110000D01*
X-601000Y70000D02*
X-601000Y0D01*
X-601000Y100000D02*
X-601000Y110000D01*
X-601000Y0D02*
X-481000Y0D01*
X-481000Y70000D01*
X-481000Y100000D02*
X-481000Y110000D01*
D15*
X-488836Y114082D02*
X-489938Y115184D01*
X-488836Y114082D02*
X-487735Y114082D01*
X-486633Y115184D01*
X-486633Y120692D01*
X-485532Y120692D02*
X-487735Y120692D01*
X-482454Y120692D02*
X-478047Y120692D01*
X-482454Y120692D02*
X-482454Y117387D01*
X-480251Y118488D01*
X-479149Y118488D01*
X-478047Y117387D01*
X-478047Y115184D01*
X-479149Y114082D01*
X-481352Y114082D01*
X-482454Y115184D01*
D16*
X-607700Y211350D02*
X-635700Y211350D01*
X-635700Y182850D02*
X-607700Y182850D01*
D17*
X-603700Y182100D03*
D15*
X-628422Y177294D02*
X-628422Y171786D01*
X-627321Y170684D01*
X-625117Y170684D01*
X-624016Y171786D01*
X-624016Y177294D01*
X-618735Y176192D02*
X-616532Y177294D01*
X-618735Y176192D02*
X-620938Y173989D01*
X-620938Y171786D01*
X-619836Y170684D01*
X-617633Y170684D01*
X-616532Y171786D01*
X-616532Y172887D01*
X-617633Y173989D01*
X-620938Y173989D01*
D16*
X-643000Y110000D02*
X-763000Y110000D01*
X-763000Y70000D02*
X-763000Y0D01*
X-763000Y100000D02*
X-763000Y110000D01*
X-763000Y0D02*
X-643000Y0D01*
X-643000Y70000D01*
X-643000Y100000D02*
X-643000Y110000D01*
D15*
X-760836Y115082D02*
X-761938Y116184D01*
X-760836Y115082D02*
X-759735Y115082D01*
X-758633Y116184D01*
X-758633Y121692D01*
X-757532Y121692D02*
X-759735Y121692D01*
X-752251Y120590D02*
X-750047Y121692D01*
X-752251Y120590D02*
X-754454Y118387D01*
X-754454Y116184D01*
X-753352Y115082D01*
X-751149Y115082D01*
X-750047Y116184D01*
X-750047Y117285D01*
X-751149Y118387D01*
X-754454Y118387D01*
D16*
X-520066Y623690D02*
X-520066Y656710D01*
X-454534Y656710D01*
X-454534Y623690D01*
X-520066Y623690D01*
D13*
X-519740Y602368D02*
X-513597Y602368D01*
X-512368Y603596D01*
X-512368Y606054D01*
X-513597Y607283D01*
X-519740Y607283D01*
X-519740Y613538D02*
X-512368Y613538D01*
X-516054Y609852D02*
X-519740Y613538D01*
X-516054Y614767D02*
X-516054Y609852D01*
D15*
X-422454Y624641D02*
X-421352Y625742D01*
X-422454Y624641D02*
X-422454Y622437D01*
X-421352Y621336D01*
X-416946Y621336D01*
X-415844Y622437D01*
X-415844Y624641D01*
X-416946Y625742D01*
X-420250Y628820D02*
X-422454Y631023D01*
X-415844Y631023D01*
X-415844Y628820D02*
X-415844Y633226D01*
X-422454Y636304D02*
X-422454Y640710D01*
X-421352Y640710D01*
X-416946Y636304D01*
X-415844Y636304D01*
X-601659Y228354D02*
X-600558Y227252D01*
X-601659Y228354D02*
X-603863Y228354D01*
X-604964Y227252D01*
X-604964Y222846D01*
X-603863Y221744D01*
X-601659Y221744D01*
X-600558Y222846D01*
X-597480Y226150D02*
X-595277Y228354D01*
X-595277Y221744D01*
X-597480Y221744D02*
X-593074Y221744D01*
X-589996Y227252D02*
X-588894Y228354D01*
X-586691Y228354D01*
X-585590Y227252D01*
X-585590Y226150D01*
X-586691Y225049D01*
X-585590Y223947D01*
X-585590Y222846D01*
X-586691Y221744D01*
X-588894Y221744D01*
X-589996Y222846D01*
X-589996Y223947D01*
X-588894Y225049D01*
X-589996Y226150D01*
X-589996Y227252D01*
X-588894Y225049D02*
X-586691Y225049D01*
X-333659Y227354D02*
X-332558Y226252D01*
X-333659Y227354D02*
X-335863Y227354D01*
X-336964Y226252D01*
X-336964Y221846D01*
X-335863Y220744D01*
X-333659Y220744D01*
X-332558Y221846D01*
X-329480Y225150D02*
X-327277Y227354D01*
X-327277Y220744D01*
X-329480Y220744D02*
X-325074Y220744D01*
X-321996Y221846D02*
X-320894Y220744D01*
X-318691Y220744D01*
X-317590Y221846D01*
X-317590Y226252D01*
X-318691Y227354D01*
X-320894Y227354D01*
X-321996Y226252D01*
X-321996Y225150D01*
X-320894Y224049D01*
X-317590Y224049D01*
X-577762Y712841D02*
X-576660Y713942D01*
X-577762Y712841D02*
X-577762Y710637D01*
X-576660Y709536D01*
X-572254Y709536D01*
X-571152Y710637D01*
X-571152Y712841D01*
X-572254Y713942D01*
X-571152Y717020D02*
X-571152Y721426D01*
X-571152Y717020D02*
X-575558Y721426D01*
X-576660Y721426D01*
X-577762Y720325D01*
X-577762Y718122D01*
X-576660Y717020D01*
X-576660Y724504D02*
X-572254Y724504D01*
X-576660Y724504D02*
X-577762Y725606D01*
X-577762Y727809D01*
X-576660Y728911D01*
X-572254Y728911D01*
X-571152Y727809D01*
X-571152Y725606D01*
X-572254Y724504D01*
X-576660Y728911D01*
D16*
X-640500Y702500D02*
X-663500Y702500D01*
X-663500Y750500D01*
X-646500Y767500D01*
X-640500Y767500D01*
X-621500Y767500D02*
X-615500Y767500D01*
X-598500Y750500D01*
X-598500Y702500D01*
X-621500Y702500D01*
X-640500Y705500D02*
X-641218Y705741D01*
X-641931Y706000D01*
X-642636Y706276D01*
X-643335Y706569D01*
X-644027Y706879D01*
X-644710Y707206D01*
X-645386Y707549D01*
X-646053Y707909D01*
X-646711Y708285D01*
X-647359Y708677D01*
X-647998Y709085D01*
X-648626Y709508D01*
X-649244Y709947D01*
X-649851Y710400D01*
X-650447Y710869D01*
X-651031Y711351D01*
X-651603Y711848D01*
X-652163Y712359D01*
X-652710Y712883D01*
X-653245Y713420D01*
X-653766Y713971D01*
X-654273Y714534D01*
X-654766Y715109D01*
X-655246Y715696D01*
X-655710Y716294D01*
X-656160Y716904D01*
X-656595Y717525D01*
X-657015Y718156D01*
X-657419Y718797D01*
X-657807Y719447D01*
X-658179Y720108D01*
X-658535Y720776D01*
X-658875Y721454D01*
X-659198Y722140D01*
X-659504Y722833D01*
X-659793Y723533D01*
X-660064Y724241D01*
X-660319Y724954D01*
X-660556Y725674D01*
X-660775Y726400D01*
X-660976Y727130D01*
X-661160Y727865D01*
X-661325Y728605D01*
X-661472Y729348D01*
X-661601Y730095D01*
X-661712Y730845D01*
X-661805Y731597D01*
X-661879Y732351D01*
X-661934Y733107D01*
X-661971Y733864D01*
X-661990Y734621D01*
X-661990Y735379D01*
X-661971Y736136D01*
X-661934Y736893D01*
X-661879Y737649D01*
X-661805Y738403D01*
X-661712Y739155D01*
X-661601Y739905D01*
X-661472Y740652D01*
X-661325Y741395D01*
X-661160Y742135D01*
X-660976Y742870D01*
X-660775Y743600D01*
X-660556Y744326D01*
X-660319Y745046D01*
X-660064Y745759D01*
X-659793Y746467D01*
X-659504Y747167D01*
X-659198Y747860D01*
X-658875Y748546D01*
X-658535Y749224D01*
X-658179Y749892D01*
X-657807Y750553D01*
X-657419Y751203D01*
X-657015Y751844D01*
X-656595Y752475D01*
X-656160Y753096D01*
X-655710Y753706D01*
X-655246Y754304D01*
X-654766Y754891D01*
X-654273Y755466D01*
X-653766Y756029D01*
X-653245Y756580D01*
X-652710Y757117D01*
X-652163Y757641D01*
X-651603Y758152D01*
X-651031Y758649D01*
X-650447Y759131D01*
X-649851Y759600D01*
X-649244Y760053D01*
X-648626Y760492D01*
X-647998Y760915D01*
X-647359Y761323D01*
X-646711Y761715D01*
X-646053Y762091D01*
X-645386Y762451D01*
X-644710Y762794D01*
X-644027Y763121D01*
X-643335Y763431D01*
X-642636Y763724D01*
X-641931Y764000D01*
X-641218Y764259D01*
X-640500Y764500D01*
X-621500Y764500D02*
X-620782Y764259D01*
X-620069Y764000D01*
X-619364Y763724D01*
X-618665Y763431D01*
X-617973Y763121D01*
X-617290Y762794D01*
X-616614Y762451D01*
X-615947Y762091D01*
X-615289Y761715D01*
X-614641Y761323D01*
X-614002Y760915D01*
X-613374Y760492D01*
X-612756Y760053D01*
X-612149Y759600D01*
X-611553Y759131D01*
X-610969Y758649D01*
X-610397Y758152D01*
X-609837Y757641D01*
X-609290Y757117D01*
X-608755Y756580D01*
X-608234Y756029D01*
X-607727Y755466D01*
X-607234Y754891D01*
X-606754Y754304D01*
X-606290Y753706D01*
X-605840Y753096D01*
X-605405Y752475D01*
X-604985Y751844D01*
X-604581Y751203D01*
X-604193Y750553D01*
X-603821Y749892D01*
X-603465Y749224D01*
X-603125Y748546D01*
X-602802Y747860D01*
X-602496Y747167D01*
X-602207Y746467D01*
X-601936Y745759D01*
X-601681Y745046D01*
X-601444Y744326D01*
X-601225Y743600D01*
X-601024Y742870D01*
X-600840Y742135D01*
X-600675Y741395D01*
X-600528Y740652D01*
X-600399Y739905D01*
X-600288Y739155D01*
X-600195Y738403D01*
X-600121Y737649D01*
X-600066Y736893D01*
X-600029Y736136D01*
X-600010Y735379D01*
X-600010Y734621D01*
X-600029Y733864D01*
X-600066Y733107D01*
X-600121Y732351D01*
X-600195Y731597D01*
X-600288Y730845D01*
X-600399Y730095D01*
X-600528Y729348D01*
X-600675Y728605D01*
X-600840Y727865D01*
X-601024Y727130D01*
X-601225Y726400D01*
X-601444Y725674D01*
X-601681Y724954D01*
X-601936Y724241D01*
X-602207Y723533D01*
X-602496Y722833D01*
X-602802Y722140D01*
X-603125Y721454D01*
X-603465Y720776D01*
X-603821Y720108D01*
X-604193Y719447D01*
X-604581Y718797D01*
X-604985Y718156D01*
X-605405Y717525D01*
X-605840Y716904D01*
X-606290Y716294D01*
X-606754Y715696D01*
X-607234Y715109D01*
X-607727Y714534D01*
X-608234Y713971D01*
X-608755Y713420D01*
X-609290Y712883D01*
X-609837Y712359D01*
X-610397Y711848D01*
X-610969Y711351D01*
X-611553Y710869D01*
X-612149Y710400D01*
X-612756Y709947D01*
X-613374Y709508D01*
X-614002Y709085D01*
X-614641Y708677D01*
X-615289Y708285D01*
X-615947Y707909D01*
X-616614Y707549D01*
X-617290Y707206D01*
X-617973Y706879D01*
X-618665Y706569D01*
X-619364Y706276D01*
X-620069Y706000D01*
X-620782Y705741D01*
X-621500Y705500D01*
D15*
X-673560Y728942D02*
X-674662Y727841D01*
X-674662Y725637D01*
X-673560Y724536D01*
X-669154Y724536D01*
X-668052Y725637D01*
X-668052Y727841D01*
X-669154Y728942D01*
X-668052Y732020D02*
X-668052Y736426D01*
X-668052Y732020D02*
X-672458Y736426D01*
X-673560Y736426D01*
X-674662Y735325D01*
X-674662Y733122D01*
X-673560Y732020D01*
X-673560Y739504D02*
X-674662Y740606D01*
X-674662Y742809D01*
X-673560Y743911D01*
X-672458Y743911D01*
X-671357Y742809D01*
X-671357Y741707D01*
X-671357Y742809D02*
X-670255Y743911D01*
X-669154Y743911D01*
X-668052Y742809D01*
X-668052Y740606D01*
X-669154Y739504D01*
D12*
X-699300Y869800D02*
X-459300Y869800D01*
X-459300Y812300D01*
X-486800Y784800D02*
X-671800Y784800D01*
X-699300Y812300D02*
X-699300Y869800D01*
X-699300Y812300D02*
X-671800Y784800D01*
X-486800Y784800D02*
X-459300Y812300D01*
D13*
X-579790Y773081D02*
X-581019Y774310D01*
X-579790Y773081D02*
X-578562Y773081D01*
X-577333Y774310D01*
X-577333Y780453D01*
X-578562Y780453D02*
X-576104Y780453D01*
X-573535Y780453D02*
X-568620Y780453D01*
X-568620Y779225D01*
X-573535Y774310D01*
X-573535Y773081D01*
D16*
X-767600Y733800D02*
X-812600Y733800D01*
X-727600Y743800D02*
X-727600Y786800D01*
X-727600Y805700D02*
X-727600Y839800D01*
X-812600Y839800D02*
X-812600Y733800D01*
X-812600Y839800D02*
X-727600Y839800D01*
X-812100Y839800D02*
X-812600Y839800D01*
D15*
X-816058Y718446D02*
X-814957Y717344D01*
X-813855Y717344D01*
X-812754Y718446D01*
X-812754Y723954D01*
X-813855Y723954D02*
X-811652Y723954D01*
X-808574Y722852D02*
X-807473Y723954D01*
X-805269Y723954D01*
X-804168Y722852D01*
X-804168Y721750D01*
X-805269Y720649D01*
X-804168Y719547D01*
X-804168Y718446D01*
X-805269Y717344D01*
X-807473Y717344D01*
X-808574Y718446D01*
X-808574Y719547D01*
X-807473Y720649D01*
X-808574Y721750D01*
X-808574Y722852D01*
X-807473Y720649D02*
X-805269Y720649D01*
X-599917Y250354D02*
X-598816Y249252D01*
X-599917Y250354D02*
X-602121Y250354D01*
X-603222Y249252D01*
X-603222Y244846D01*
X-602121Y243744D01*
X-599917Y243744D01*
X-598816Y244846D01*
X-595738Y249252D02*
X-594636Y250354D01*
X-592433Y250354D01*
X-591332Y249252D01*
X-591332Y248150D01*
X-592433Y247049D01*
X-591332Y245947D01*
X-591332Y244846D01*
X-592433Y243744D01*
X-594636Y243744D01*
X-595738Y244846D01*
X-595738Y245947D01*
X-594636Y247049D01*
X-595738Y248150D01*
X-595738Y249252D01*
X-594636Y247049D02*
X-592433Y247049D01*
X-332659Y251354D02*
X-331558Y250252D01*
X-332659Y251354D02*
X-334863Y251354D01*
X-335964Y250252D01*
X-335964Y245846D01*
X-334863Y244744D01*
X-332659Y244744D01*
X-331558Y245846D01*
X-328480Y249150D02*
X-326277Y251354D01*
X-326277Y244744D01*
X-328480Y244744D02*
X-324074Y244744D01*
X-320996Y245846D02*
X-320996Y250252D01*
X-319894Y251354D01*
X-317691Y251354D01*
X-316590Y250252D01*
X-316590Y245846D01*
X-317691Y244744D01*
X-319894Y244744D01*
X-320996Y245846D01*
X-316590Y250252D01*
X-260354Y215841D02*
X-259252Y216942D01*
X-260354Y215841D02*
X-260354Y213637D01*
X-259252Y212536D01*
X-254846Y212536D01*
X-253744Y213637D01*
X-253744Y215841D01*
X-254846Y216942D01*
X-258150Y220020D02*
X-260354Y222223D01*
X-253744Y222223D01*
X-253744Y220020D02*
X-253744Y224426D01*
X-259252Y227504D02*
X-260354Y228606D01*
X-260354Y230809D01*
X-259252Y231910D01*
X-258150Y231910D01*
X-257049Y230809D01*
X-257049Y229707D01*
X-257049Y230809D02*
X-255947Y231910D01*
X-254846Y231910D01*
X-253744Y230809D01*
X-253744Y228606D01*
X-254846Y227504D01*
X-604722Y132354D02*
X-604722Y125744D01*
X-604722Y132354D02*
X-601417Y132354D01*
X-600316Y131252D01*
X-600316Y129049D01*
X-601417Y127947D01*
X-604722Y127947D01*
X-602519Y127947D02*
X-600316Y125744D01*
X-597238Y131252D02*
X-596136Y132354D01*
X-593933Y132354D01*
X-592832Y131252D01*
X-592832Y130150D01*
X-593933Y129049D01*
X-595035Y129049D01*
X-593933Y129049D02*
X-592832Y127947D01*
X-592832Y126846D01*
X-593933Y125744D01*
X-596136Y125744D01*
X-597238Y126846D01*
X-278722Y125744D02*
X-278722Y132354D01*
X-275417Y132354D01*
X-274316Y131252D01*
X-274316Y129049D01*
X-275417Y127947D01*
X-278722Y127947D01*
X-276519Y127947D02*
X-274316Y125744D01*
X-267933Y125744D02*
X-267933Y132354D01*
X-271238Y129049D01*
X-266832Y129049D01*
X-332722Y125744D02*
X-332722Y132354D01*
X-329417Y132354D01*
X-328316Y131252D01*
X-328316Y129049D01*
X-329417Y127947D01*
X-332722Y127947D01*
X-330519Y127947D02*
X-328316Y125744D01*
X-325238Y132354D02*
X-320832Y132354D01*
X-325238Y132354D02*
X-325238Y129049D01*
X-323035Y130150D01*
X-321933Y130150D01*
X-320832Y129049D01*
X-320832Y126846D01*
X-321933Y125744D01*
X-324136Y125744D01*
X-325238Y126846D01*
X-652722Y125744D02*
X-652722Y132354D01*
X-649417Y132354D01*
X-648316Y131252D01*
X-648316Y129049D01*
X-649417Y127947D01*
X-652722Y127947D01*
X-650519Y127947D02*
X-648316Y125744D01*
X-643035Y131252D02*
X-640832Y132354D01*
X-643035Y131252D02*
X-645238Y129049D01*
X-645238Y126846D01*
X-644136Y125744D01*
X-641933Y125744D01*
X-640832Y126846D01*
X-640832Y127947D01*
X-641933Y129049D01*
X-645238Y129049D01*
D16*
X-271600Y870000D02*
X-120400Y870000D01*
X-120400Y780000D02*
X-174000Y780000D01*
X-218000Y780000D01*
X-271600Y780000D01*
X-271600Y869000D01*
X-120400Y870000D02*
X-120400Y780000D01*
X-218000Y780000D02*
X-218000Y795000D01*
X-174000Y795000D01*
X-174000Y780000D01*
X-215050Y798520D02*
X-227750Y798520D01*
D15*
X-276502Y783764D02*
X-277604Y782662D01*
X-276502Y783764D02*
X-276502Y784865D01*
X-277604Y785967D01*
X-283112Y785967D01*
X-283112Y787068D02*
X-283112Y784865D01*
X-280908Y790146D02*
X-283112Y792349D01*
X-276502Y792349D01*
X-276502Y790146D02*
X-276502Y794553D01*
D16*
X-444770Y825730D02*
X-444770Y834270D01*
X-375230Y834270D02*
X-375230Y825730D01*
X-383000Y844270D02*
X-437000Y844270D01*
X-411270Y815730D02*
X-393730Y815730D01*
D15*
X-374797Y808274D02*
X-373696Y807172D01*
X-374797Y808274D02*
X-377001Y808274D01*
X-378102Y807172D01*
X-378102Y806070D01*
X-377001Y804969D01*
X-374797Y804969D01*
X-373696Y803867D01*
X-373696Y802766D01*
X-374797Y801664D01*
X-377001Y801664D01*
X-378102Y802766D01*
X-370618Y806070D02*
X-368415Y808274D01*
X-368415Y801664D01*
X-370618Y801664D02*
X-366212Y801664D01*
D16*
X-350000Y845000D02*
X-349998Y845098D01*
X-349992Y845196D01*
X-349983Y845294D01*
X-349969Y845391D01*
X-349952Y845488D01*
X-349931Y845584D01*
X-349906Y845679D01*
X-349878Y845773D01*
X-349845Y845865D01*
X-349810Y845957D01*
X-349770Y846047D01*
X-349728Y846135D01*
X-349681Y846222D01*
X-349632Y846306D01*
X-349579Y846389D01*
X-349523Y846469D01*
X-349463Y846548D01*
X-349401Y846624D01*
X-349336Y846697D01*
X-349268Y846768D01*
X-349197Y846836D01*
X-349124Y846901D01*
X-349048Y846963D01*
X-348969Y847023D01*
X-348889Y847079D01*
X-348806Y847132D01*
X-348722Y847181D01*
X-348635Y847228D01*
X-348547Y847270D01*
X-348457Y847310D01*
X-348365Y847345D01*
X-348273Y847378D01*
X-348179Y847406D01*
X-348084Y847431D01*
X-347988Y847452D01*
X-347891Y847469D01*
X-347794Y847483D01*
X-347696Y847492D01*
X-347598Y847498D01*
X-347500Y847500D01*
X-292500Y847500D01*
X-292402Y847498D01*
X-292304Y847492D01*
X-292206Y847483D01*
X-292109Y847469D01*
X-292012Y847452D01*
X-291916Y847431D01*
X-291821Y847406D01*
X-291727Y847378D01*
X-291635Y847345D01*
X-291543Y847310D01*
X-291453Y847270D01*
X-291365Y847228D01*
X-291278Y847181D01*
X-291194Y847132D01*
X-291111Y847079D01*
X-291031Y847023D01*
X-290952Y846963D01*
X-290876Y846901D01*
X-290803Y846836D01*
X-290732Y846768D01*
X-290664Y846697D01*
X-290599Y846624D01*
X-290537Y846548D01*
X-290477Y846469D01*
X-290421Y846389D01*
X-290368Y846306D01*
X-290319Y846222D01*
X-290272Y846135D01*
X-290230Y846047D01*
X-290190Y845957D01*
X-290155Y845865D01*
X-290122Y845773D01*
X-290094Y845679D01*
X-290069Y845584D01*
X-290048Y845488D01*
X-290031Y845391D01*
X-290017Y845294D01*
X-290008Y845196D01*
X-290002Y845098D01*
X-290000Y845000D01*
X-290000Y815000D02*
X-290002Y814902D01*
X-290008Y814804D01*
X-290017Y814706D01*
X-290031Y814609D01*
X-290048Y814512D01*
X-290069Y814416D01*
X-290094Y814321D01*
X-290122Y814227D01*
X-290155Y814135D01*
X-290190Y814043D01*
X-290230Y813953D01*
X-290272Y813865D01*
X-290319Y813778D01*
X-290368Y813694D01*
X-290421Y813611D01*
X-290477Y813531D01*
X-290537Y813452D01*
X-290599Y813376D01*
X-290664Y813303D01*
X-290732Y813232D01*
X-290803Y813164D01*
X-290876Y813099D01*
X-290952Y813037D01*
X-291031Y812977D01*
X-291111Y812921D01*
X-291194Y812868D01*
X-291278Y812819D01*
X-291365Y812772D01*
X-291453Y812730D01*
X-291543Y812690D01*
X-291635Y812655D01*
X-291727Y812622D01*
X-291821Y812594D01*
X-291916Y812569D01*
X-292012Y812548D01*
X-292109Y812531D01*
X-292206Y812517D01*
X-292304Y812508D01*
X-292402Y812502D01*
X-292500Y812500D01*
X-347500Y812500D01*
X-347598Y812502D01*
X-347696Y812508D01*
X-347794Y812517D01*
X-347891Y812531D01*
X-347988Y812548D01*
X-348084Y812569D01*
X-348179Y812594D01*
X-348273Y812622D01*
X-348365Y812655D01*
X-348457Y812690D01*
X-348547Y812730D01*
X-348635Y812772D01*
X-348722Y812819D01*
X-348806Y812868D01*
X-348889Y812921D01*
X-348969Y812977D01*
X-349048Y813037D01*
X-349124Y813099D01*
X-349197Y813164D01*
X-349268Y813232D01*
X-349336Y813303D01*
X-349401Y813376D01*
X-349463Y813452D01*
X-349523Y813531D01*
X-349579Y813611D01*
X-349632Y813694D01*
X-349681Y813778D01*
X-349728Y813865D01*
X-349770Y813953D01*
X-349810Y814043D01*
X-349845Y814135D01*
X-349878Y814227D01*
X-349906Y814321D01*
X-349931Y814416D01*
X-349952Y814512D01*
X-349969Y814609D01*
X-349983Y814706D01*
X-349992Y814804D01*
X-349998Y814902D01*
X-350000Y815000D01*
X-350000Y819000D01*
X-350000Y841000D02*
X-350000Y845000D01*
X-290000Y845000D02*
X-290000Y841000D01*
X-290000Y819000D02*
X-290000Y815000D01*
X-305000Y837500D02*
X-335000Y837500D01*
X-335000Y822500D02*
X-305000Y822500D01*
X-335000Y822500D02*
X-335000Y837500D01*
X-305000Y837500D02*
X-305000Y822500D01*
D15*
X-301417Y808422D02*
X-300316Y807320D01*
X-301417Y808422D02*
X-303621Y808422D01*
X-304722Y807320D01*
X-304722Y806218D01*
X-303621Y805117D01*
X-301417Y805117D01*
X-300316Y804015D01*
X-300316Y802914D01*
X-301417Y801812D01*
X-303621Y801812D01*
X-304722Y802914D01*
X-297238Y801812D02*
X-292832Y801812D01*
X-297238Y801812D02*
X-292832Y806218D01*
X-292832Y807320D01*
X-293933Y808422D01*
X-296136Y808422D01*
X-297238Y807320D01*
X-212354Y296278D02*
X-205744Y296278D01*
X-212354Y296278D02*
X-212354Y299583D01*
X-211252Y300684D01*
X-209049Y300684D01*
X-207947Y299583D01*
X-207947Y296278D01*
X-207947Y298481D02*
X-205744Y300684D01*
X-212354Y303762D02*
X-212354Y308168D01*
X-211252Y308168D01*
X-206846Y303762D01*
X-205744Y303762D01*
X-254652Y297278D02*
X-261262Y297278D01*
X-261262Y300583D01*
X-260160Y301684D01*
X-257957Y301684D01*
X-256855Y300583D01*
X-256855Y297278D01*
X-256855Y299481D02*
X-254652Y301684D01*
X-260160Y304762D02*
X-261262Y305864D01*
X-261262Y308067D01*
X-260160Y309168D01*
X-259058Y309168D01*
X-257957Y308067D01*
X-256855Y309168D01*
X-255754Y309168D01*
X-254652Y308067D01*
X-254652Y305864D01*
X-255754Y304762D01*
X-256855Y304762D01*
X-257957Y305864D01*
X-259058Y304762D01*
X-260160Y304762D01*
X-257957Y305864D02*
X-257957Y308067D01*
X-135722Y754652D02*
X-135722Y761262D01*
X-132417Y761262D01*
X-131316Y760160D01*
X-131316Y757957D01*
X-132417Y756855D01*
X-135722Y756855D01*
X-133519Y756855D02*
X-131316Y754652D01*
X-128238Y755754D02*
X-127136Y754652D01*
X-124933Y754652D01*
X-123832Y755754D01*
X-123832Y760160D01*
X-124933Y761262D01*
X-127136Y761262D01*
X-128238Y760160D01*
X-128238Y759058D01*
X-127136Y757957D01*
X-123832Y757957D01*
D18*
X-475000Y551000D03*
D16*
X-478000Y556000D02*
X-458000Y556000D01*
X-458000Y506000D02*
X-478000Y506000D01*
X-493000Y538000D02*
X-493000Y540000D01*
X-493000Y524000D02*
X-493000Y522000D01*
X-443000Y522000D02*
X-443000Y524000D01*
X-443000Y538000D02*
X-443000Y540000D01*
X-465460Y532270D02*
X-465460Y529730D01*
X-465460Y532270D02*
X-462920Y532270D01*
X-462920Y529730D01*
X-465460Y529730D01*
D19*
X-492145Y557350D02*
X-492143Y557421D01*
X-492137Y557492D01*
X-492127Y557563D01*
X-492113Y557633D01*
X-492095Y557702D01*
X-492074Y557769D01*
X-492048Y557836D01*
X-492019Y557901D01*
X-491987Y557964D01*
X-491950Y558026D01*
X-491911Y558085D01*
X-491868Y558142D01*
X-491822Y558196D01*
X-491773Y558248D01*
X-491721Y558297D01*
X-491667Y558343D01*
X-491610Y558386D01*
X-491551Y558425D01*
X-491489Y558462D01*
X-491426Y558494D01*
X-491361Y558523D01*
X-491294Y558549D01*
X-491227Y558570D01*
X-491158Y558588D01*
X-491088Y558602D01*
X-491017Y558612D01*
X-490946Y558618D01*
X-490875Y558620D01*
X-490804Y558618D01*
X-490733Y558612D01*
X-490662Y558602D01*
X-490592Y558588D01*
X-490523Y558570D01*
X-490456Y558549D01*
X-490389Y558523D01*
X-490324Y558494D01*
X-490261Y558462D01*
X-490199Y558425D01*
X-490140Y558386D01*
X-490083Y558343D01*
X-490029Y558297D01*
X-489977Y558248D01*
X-489928Y558196D01*
X-489882Y558142D01*
X-489839Y558085D01*
X-489800Y558026D01*
X-489763Y557964D01*
X-489731Y557901D01*
X-489702Y557836D01*
X-489676Y557769D01*
X-489655Y557702D01*
X-489637Y557633D01*
X-489623Y557563D01*
X-489613Y557492D01*
X-489607Y557421D01*
X-489605Y557350D01*
X-489607Y557279D01*
X-489613Y557208D01*
X-489623Y557137D01*
X-489637Y557067D01*
X-489655Y556998D01*
X-489676Y556931D01*
X-489702Y556864D01*
X-489731Y556799D01*
X-489763Y556736D01*
X-489800Y556674D01*
X-489839Y556615D01*
X-489882Y556558D01*
X-489928Y556504D01*
X-489977Y556452D01*
X-490029Y556403D01*
X-490083Y556357D01*
X-490140Y556314D01*
X-490199Y556275D01*
X-490261Y556238D01*
X-490324Y556206D01*
X-490389Y556177D01*
X-490456Y556151D01*
X-490523Y556130D01*
X-490592Y556112D01*
X-490662Y556098D01*
X-490733Y556088D01*
X-490804Y556082D01*
X-490875Y556080D01*
X-490946Y556082D01*
X-491017Y556088D01*
X-491088Y556098D01*
X-491158Y556112D01*
X-491227Y556130D01*
X-491294Y556151D01*
X-491361Y556177D01*
X-491426Y556206D01*
X-491489Y556238D01*
X-491551Y556275D01*
X-491610Y556314D01*
X-491667Y556357D01*
X-491721Y556403D01*
X-491773Y556452D01*
X-491822Y556504D01*
X-491868Y556558D01*
X-491911Y556615D01*
X-491950Y556674D01*
X-491987Y556736D01*
X-492019Y556799D01*
X-492048Y556864D01*
X-492074Y556931D01*
X-492095Y556998D01*
X-492113Y557067D01*
X-492127Y557137D01*
X-492137Y557208D01*
X-492143Y557279D01*
X-492145Y557350D01*
D15*
X-474722Y560432D02*
X-474722Y567042D01*
X-474722Y560432D02*
X-471417Y560432D01*
X-470316Y561534D01*
X-470316Y565940D01*
X-471417Y567042D01*
X-474722Y567042D01*
X-467238Y564838D02*
X-465035Y567042D01*
X-465035Y560432D01*
X-467238Y560432D02*
X-462832Y560432D01*
X-568464Y517262D02*
X-568464Y510652D01*
X-568464Y517262D02*
X-565159Y517262D01*
X-564058Y516160D01*
X-564058Y513957D01*
X-565159Y512855D01*
X-568464Y512855D01*
X-566261Y512855D02*
X-564058Y510652D01*
X-560980Y515058D02*
X-558777Y517262D01*
X-558777Y510652D01*
X-560980Y510652D02*
X-556574Y510652D01*
X-553496Y511754D02*
X-553496Y516160D01*
X-552394Y517262D01*
X-550191Y517262D01*
X-549090Y516160D01*
X-549090Y511754D01*
X-550191Y510652D01*
X-552394Y510652D01*
X-553496Y511754D01*
X-549090Y516160D01*
X-568464Y544652D02*
X-568464Y551262D01*
X-565159Y551262D01*
X-564058Y550160D01*
X-564058Y547957D01*
X-565159Y546855D01*
X-568464Y546855D01*
X-566261Y546855D02*
X-564058Y544652D01*
X-560980Y549058D02*
X-558777Y551262D01*
X-558777Y544652D01*
X-560980Y544652D02*
X-556574Y544652D01*
X-553496Y549058D02*
X-551293Y551262D01*
X-551293Y544652D01*
X-553496Y544652D02*
X-549090Y544652D01*
X-568464Y534262D02*
X-568464Y527652D01*
X-568464Y534262D02*
X-565159Y534262D01*
X-564058Y533160D01*
X-564058Y530957D01*
X-565159Y529855D01*
X-568464Y529855D01*
X-566261Y529855D02*
X-564058Y527652D01*
X-560980Y532058D02*
X-558777Y534262D01*
X-558777Y527652D01*
X-560980Y527652D02*
X-556574Y527652D01*
X-551293Y533160D02*
X-549090Y534262D01*
X-551293Y533160D02*
X-553496Y530957D01*
X-553496Y528754D01*
X-552394Y527652D01*
X-550191Y527652D01*
X-549090Y528754D01*
X-549090Y529855D01*
X-550191Y530957D01*
X-553496Y530957D01*
X-719854Y656278D02*
X-726464Y656278D01*
X-726464Y660684D01*
X-723159Y658481D02*
X-723159Y656278D01*
X-724260Y663762D02*
X-726464Y665965D01*
X-719854Y665965D01*
X-719854Y663762D02*
X-719854Y668168D01*
M02*
