G04 EAGLE Gerber RS-274X export*
G75*
%MOMM*%
%FSLAX34Y34*%
%LPD*%
%INSolderpaste Top*%
%IPPOS*%
%AMOC8*
5,1,8,0,0,1.08239X$1,22.5*%
G01*
%ADD10R,1.200000X0.800000*%
%ADD11R,1.100000X2.600000*%
%ADD12R,1.219200X2.235200*%
%ADD13R,3.600000X2.200000*%
%ADD14R,1.400000X3.000000*%
%ADD15R,0.875000X0.250000*%
%ADD16R,0.800000X0.900000*%
%ADD17R,0.800000X1.200000*%
%ADD18R,0.700000X1.500000*%
%ADD19R,1.000000X0.600000*%
%ADD20R,1.000000X0.800000*%
%ADD21R,2.300000X1.600000*%
%ADD22C,1.100000*%
%ADD23R,2.895600X1.676400*%


D10*
X-143100Y574800D03*
X-143100Y556800D03*
X-183300Y574900D03*
X-183300Y556900D03*
D11*
X-283000Y514600D03*
X-263000Y514600D03*
X-243000Y514600D03*
X-223000Y514600D03*
X-203000Y514600D03*
X-183000Y514600D03*
X-163000Y514600D03*
X-143000Y514600D03*
X-283000Y354600D03*
X-263000Y354600D03*
X-243000Y354600D03*
X-223000Y354600D03*
X-203000Y354600D03*
X-183000Y354600D03*
X-163000Y354600D03*
X-143000Y354600D03*
D12*
X-607486Y670988D03*
X-630600Y670988D03*
X-653714Y670988D03*
D13*
X-630600Y609010D03*
D10*
X-324300Y426400D03*
X-324300Y444400D03*
X-283000Y575000D03*
X-283000Y557000D03*
X-577000Y671000D03*
X-577000Y653000D03*
D14*
X-487800Y758800D03*
X-487800Y710800D03*
D15*
X-277875Y186500D03*
X-277875Y191500D03*
X-277875Y196500D03*
X-277875Y201500D03*
X-277875Y206500D03*
X-319125Y206500D03*
X-319125Y201500D03*
X-319125Y196500D03*
X-319125Y191500D03*
X-319125Y186500D03*
D16*
X-155500Y242500D03*
X-174500Y242500D03*
X-165000Y221500D03*
D17*
X-156500Y260000D03*
X-174500Y260000D03*
D10*
X-165000Y186000D03*
X-165000Y204000D03*
D16*
X-192000Y242000D03*
X-211000Y242000D03*
X-201500Y221000D03*
D10*
X-201500Y186000D03*
X-201500Y204000D03*
D17*
X-192000Y260000D03*
X-210000Y260000D03*
D15*
X-601075Y187100D03*
X-601075Y192100D03*
X-601075Y197100D03*
X-601075Y202100D03*
X-601075Y207100D03*
X-642325Y207100D03*
X-642325Y202100D03*
X-642325Y197100D03*
X-642325Y192100D03*
X-642325Y187100D03*
D12*
X-464186Y671188D03*
X-487300Y671188D03*
X-510414Y671188D03*
D13*
X-487300Y609210D03*
D10*
X-419100Y667800D03*
X-419100Y649800D03*
D17*
X-613500Y227000D03*
X-631500Y227000D03*
X-289500Y224500D03*
X-307500Y224500D03*
D10*
X-558500Y711000D03*
X-558500Y729000D03*
D14*
X-631000Y759000D03*
X-631000Y711000D03*
D17*
X-613500Y248000D03*
X-631500Y248000D03*
X-289500Y248000D03*
X-307500Y248000D03*
D10*
X-256000Y204000D03*
X-256000Y186000D03*
D17*
X-589000Y142000D03*
X-607000Y142000D03*
X-263000Y142000D03*
X-281000Y142000D03*
X-317000Y142000D03*
X-335000Y142000D03*
X-637000Y142000D03*
X-655000Y142000D03*
D18*
X-432500Y812500D03*
X-417500Y812500D03*
X-387500Y812500D03*
D19*
X-446500Y840000D03*
D20*
X-446500Y819000D03*
D19*
X-373500Y840000D03*
D20*
X-373500Y819000D03*
D21*
X-351500Y830000D03*
X-288500Y830000D03*
D10*
X-223000Y294000D03*
X-223000Y312000D03*
X-243000Y294000D03*
X-243000Y312000D03*
D17*
X-163000Y757000D03*
X-145000Y757000D03*
D22*
X-487500Y548000D02*
X-496500Y548000D01*
X-496500Y531000D02*
X-487500Y531000D01*
X-487500Y514000D02*
X-496500Y514000D01*
X-448500Y514000D02*
X-439500Y514000D01*
X-439500Y531000D02*
X-448500Y531000D01*
X-448500Y548000D02*
X-439500Y548000D01*
D17*
X-540000Y514000D03*
X-522000Y514000D03*
X-540000Y548000D03*
X-522000Y548000D03*
X-540000Y531000D03*
X-522000Y531000D03*
D23*
X-745000Y686876D03*
X-745000Y639124D03*
M02*
