G04 EAGLE Gerber RS-274X export*
G75*
%MOMM*%
%FSLAX34Y34*%
%LPD*%
%INBottom Copper*%
%IPPOS*%
%AMOC8*
5,1,8,0,0,1.08239X$1,22.5*%
G01*
%ADD10C,1.879600*%
%ADD11C,0.756400*%
%ADD12C,0.406400*%
%ADD13C,0.806400*%
%ADD14C,0.609600*%

G36*
X162615Y11035D02*
X162615Y11035D01*
X162753Y11048D01*
X162772Y11055D01*
X162792Y11057D01*
X162922Y11108D01*
X163053Y11155D01*
X163069Y11167D01*
X163088Y11174D01*
X163200Y11256D01*
X163316Y11334D01*
X163329Y11349D01*
X163346Y11361D01*
X163434Y11468D01*
X163526Y11572D01*
X163535Y11590D01*
X163548Y11606D01*
X163608Y11732D01*
X163671Y11856D01*
X163675Y11875D01*
X163684Y11894D01*
X163710Y12030D01*
X163740Y12166D01*
X163740Y12186D01*
X163744Y12206D01*
X163735Y12344D01*
X163731Y12484D01*
X163725Y12503D01*
X163724Y12523D01*
X163681Y12655D01*
X163642Y12789D01*
X163632Y12807D01*
X163626Y12826D01*
X163551Y12944D01*
X163481Y13063D01*
X163462Y13084D01*
X163456Y13095D01*
X163441Y13109D01*
X163374Y13184D01*
X162308Y14250D01*
X158858Y22579D01*
X158858Y31594D01*
X162308Y39923D01*
X168683Y46297D01*
X177011Y49747D01*
X186027Y49747D01*
X194355Y46297D01*
X195422Y45231D01*
X195531Y45146D01*
X195638Y45057D01*
X195657Y45049D01*
X195673Y45036D01*
X195800Y44981D01*
X195926Y44922D01*
X195946Y44918D01*
X195965Y44910D01*
X196103Y44888D01*
X196239Y44862D01*
X196259Y44863D01*
X196279Y44860D01*
X196418Y44873D01*
X196556Y44882D01*
X196575Y44888D01*
X196595Y44890D01*
X196727Y44937D01*
X196858Y44980D01*
X196876Y44991D01*
X196895Y44997D01*
X197010Y45076D01*
X197127Y45150D01*
X197141Y45165D01*
X197158Y45176D01*
X197250Y45280D01*
X197345Y45382D01*
X197355Y45399D01*
X197368Y45414D01*
X197431Y45538D01*
X197499Y45660D01*
X197504Y45680D01*
X197513Y45698D01*
X197543Y45834D01*
X197578Y45968D01*
X197580Y45996D01*
X197583Y46008D01*
X197582Y46028D01*
X197588Y46129D01*
X197588Y339587D01*
X197586Y339607D01*
X197586Y339670D01*
X197352Y343233D01*
X197344Y343276D01*
X197343Y343321D01*
X197311Y343478D01*
X195467Y350362D01*
X195435Y350442D01*
X195412Y350524D01*
X195351Y350647D01*
X195347Y350657D01*
X195344Y350660D01*
X195340Y350668D01*
X191777Y356840D01*
X191725Y356909D01*
X191681Y356982D01*
X191591Y357085D01*
X191585Y357094D01*
X191581Y357096D01*
X191575Y357103D01*
X186536Y362143D01*
X186468Y362195D01*
X186407Y362255D01*
X186293Y362331D01*
X186284Y362338D01*
X186280Y362339D01*
X186273Y362344D01*
X180101Y365908D01*
X180022Y365941D01*
X179947Y365983D01*
X179818Y366027D01*
X179808Y366031D01*
X179803Y366032D01*
X179795Y366035D01*
X172911Y367879D01*
X172867Y367885D01*
X172825Y367899D01*
X172665Y367920D01*
X169102Y368153D01*
X169081Y368152D01*
X169019Y368156D01*
X39019Y368156D01*
X38998Y368153D01*
X38936Y368153D01*
X35373Y367920D01*
X35329Y367911D01*
X35285Y367911D01*
X35127Y367879D01*
X28243Y366035D01*
X28164Y366002D01*
X28081Y365979D01*
X27959Y365918D01*
X27949Y365914D01*
X27945Y365912D01*
X27937Y365908D01*
X21765Y362344D01*
X21697Y362293D01*
X21623Y362249D01*
X21520Y362158D01*
X21512Y362152D01*
X21509Y362149D01*
X21502Y362143D01*
X16463Y357103D01*
X16410Y357036D01*
X16350Y356974D01*
X16275Y356861D01*
X16268Y356852D01*
X16266Y356848D01*
X16261Y356840D01*
X12698Y350668D01*
X12665Y350590D01*
X12623Y350515D01*
X12579Y350385D01*
X12575Y350375D01*
X12574Y350371D01*
X12571Y350362D01*
X10727Y343478D01*
X10721Y343435D01*
X10707Y343393D01*
X10686Y343233D01*
X10452Y339670D01*
X10454Y339649D01*
X10450Y339587D01*
X10450Y46129D01*
X10467Y45991D01*
X10480Y45852D01*
X10487Y45833D01*
X10490Y45813D01*
X10541Y45684D01*
X10588Y45553D01*
X10599Y45536D01*
X10607Y45517D01*
X10688Y45405D01*
X10766Y45290D01*
X10782Y45277D01*
X10793Y45260D01*
X10901Y45171D01*
X11005Y45079D01*
X11023Y45070D01*
X11038Y45057D01*
X11164Y44998D01*
X11288Y44935D01*
X11308Y44930D01*
X11326Y44922D01*
X11463Y44896D01*
X11598Y44865D01*
X11619Y44866D01*
X11639Y44862D01*
X11777Y44871D01*
X11916Y44875D01*
X11936Y44880D01*
X11956Y44882D01*
X12088Y44924D01*
X12222Y44963D01*
X12239Y44974D01*
X12258Y44980D01*
X12376Y45054D01*
X12496Y45125D01*
X12517Y45143D01*
X12527Y45150D01*
X12541Y45165D01*
X12617Y45231D01*
X13683Y46297D01*
X22011Y49747D01*
X31027Y49747D01*
X39355Y46297D01*
X45730Y39923D01*
X49180Y31594D01*
X49180Y22579D01*
X45730Y14250D01*
X44664Y13184D01*
X44579Y13075D01*
X44490Y12967D01*
X44481Y12949D01*
X44469Y12933D01*
X44413Y12805D01*
X44354Y12679D01*
X44350Y12660D01*
X44342Y12641D01*
X44320Y12503D01*
X44294Y12367D01*
X44296Y12347D01*
X44292Y12327D01*
X44306Y12188D01*
X44314Y12050D01*
X44320Y12030D01*
X44322Y12010D01*
X44369Y11879D01*
X44412Y11747D01*
X44423Y11730D01*
X44430Y11711D01*
X44508Y11596D01*
X44582Y11478D01*
X44597Y11465D01*
X44608Y11448D01*
X44713Y11356D01*
X44814Y11261D01*
X44832Y11251D01*
X44847Y11237D01*
X44971Y11174D01*
X45092Y11107D01*
X45112Y11102D01*
X45130Y11093D01*
X45266Y11062D01*
X45400Y11028D01*
X45428Y11026D01*
X45440Y11023D01*
X45461Y11024D01*
X45561Y11017D01*
X162477Y11017D01*
X162615Y11035D01*
G37*
%LPC*%
G36*
X29963Y74280D02*
X29963Y74280D01*
X28013Y75088D01*
X26520Y76581D01*
X25712Y78531D01*
X25712Y80642D01*
X26520Y82593D01*
X28013Y84085D01*
X29963Y84893D01*
X30770Y84893D01*
X30868Y84906D01*
X30967Y84909D01*
X31025Y84926D01*
X31086Y84933D01*
X31178Y84970D01*
X31273Y84997D01*
X31325Y85028D01*
X31381Y85050D01*
X31461Y85108D01*
X31547Y85159D01*
X31622Y85225D01*
X31639Y85237D01*
X31646Y85246D01*
X31668Y85265D01*
X42546Y96143D01*
X142020Y96143D01*
X142118Y96156D01*
X142217Y96159D01*
X142275Y96176D01*
X142336Y96183D01*
X142428Y96220D01*
X142523Y96247D01*
X142575Y96278D01*
X142631Y96300D01*
X142711Y96358D01*
X142797Y96409D01*
X142872Y96475D01*
X142889Y96487D01*
X142896Y96496D01*
X142918Y96515D01*
X162652Y116250D01*
X162658Y116257D01*
X162665Y116263D01*
X162755Y116383D01*
X162847Y116501D01*
X162851Y116510D01*
X162857Y116517D01*
X162927Y116662D01*
X163520Y118093D01*
X165013Y119585D01*
X166444Y120178D01*
X166452Y120183D01*
X166461Y120185D01*
X166590Y120261D01*
X166720Y120336D01*
X166727Y120342D01*
X166735Y120347D01*
X166856Y120453D01*
X187091Y140688D01*
X187151Y140766D01*
X187219Y140838D01*
X187248Y140891D01*
X187285Y140939D01*
X187325Y141030D01*
X187373Y141117D01*
X187388Y141176D01*
X187412Y141231D01*
X187427Y141329D01*
X187452Y141425D01*
X187458Y141525D01*
X187462Y141545D01*
X187461Y141558D01*
X187462Y141586D01*
X187462Y263588D01*
X187450Y263686D01*
X187447Y263785D01*
X187430Y263843D01*
X187422Y263903D01*
X187386Y263995D01*
X187358Y264090D01*
X187333Y264134D01*
X187332Y264137D01*
X187327Y264145D01*
X187305Y264199D01*
X187247Y264279D01*
X187197Y264364D01*
X187165Y264401D01*
X187161Y264406D01*
X187154Y264413D01*
X187131Y264440D01*
X187119Y264456D01*
X187109Y264464D01*
X187091Y264485D01*
X163918Y287658D01*
X163839Y287719D01*
X163767Y287787D01*
X163714Y287816D01*
X163666Y287853D01*
X163575Y287892D01*
X163489Y287940D01*
X163430Y287955D01*
X163374Y287979D01*
X163276Y287995D01*
X163181Y288020D01*
X163081Y288026D01*
X163060Y288029D01*
X163048Y288028D01*
X163020Y288030D01*
X140493Y288030D01*
X140395Y288017D01*
X140296Y288014D01*
X140237Y287998D01*
X140177Y287990D01*
X140085Y287954D01*
X139990Y287926D01*
X139938Y287895D01*
X139882Y287873D01*
X139802Y287815D01*
X139716Y287765D01*
X139641Y287698D01*
X139624Y287686D01*
X139617Y287677D01*
X139595Y287658D01*
X139025Y287088D01*
X137075Y286280D01*
X134963Y286280D01*
X133013Y287088D01*
X132443Y287658D01*
X132364Y287719D01*
X132292Y287787D01*
X132239Y287816D01*
X132191Y287853D01*
X132100Y287892D01*
X132014Y287940D01*
X131955Y287955D01*
X131900Y287979D01*
X131802Y287995D01*
X131706Y288020D01*
X131606Y288026D01*
X131585Y288029D01*
X131573Y288028D01*
X131545Y288030D01*
X79018Y288030D01*
X78920Y288017D01*
X78821Y288014D01*
X78763Y287998D01*
X78702Y287990D01*
X78610Y287954D01*
X78515Y287926D01*
X78463Y287895D01*
X78407Y287873D01*
X78327Y287815D01*
X78241Y287765D01*
X78166Y287698D01*
X78149Y287686D01*
X78142Y287677D01*
X78121Y287658D01*
X72698Y282235D01*
X72637Y282157D01*
X72569Y282085D01*
X72540Y282032D01*
X72503Y281984D01*
X72463Y281893D01*
X72415Y281806D01*
X72400Y281748D01*
X72376Y281692D01*
X72361Y281594D01*
X72336Y281498D01*
X72330Y281398D01*
X72326Y281378D01*
X72328Y281366D01*
X72326Y281338D01*
X72326Y280531D01*
X71518Y278581D01*
X70025Y277088D01*
X68075Y276280D01*
X65963Y276280D01*
X64013Y277088D01*
X62520Y278581D01*
X61712Y280531D01*
X61712Y282642D01*
X62520Y284593D01*
X64013Y286085D01*
X65963Y286893D01*
X66770Y286893D01*
X66868Y286906D01*
X66967Y286909D01*
X67025Y286926D01*
X67086Y286933D01*
X67178Y286970D01*
X67273Y286997D01*
X67325Y287028D01*
X67381Y287050D01*
X67461Y287108D01*
X67547Y287159D01*
X67622Y287225D01*
X67639Y287237D01*
X67646Y287246D01*
X67668Y287265D01*
X75546Y295143D01*
X131193Y295143D01*
X131311Y295158D01*
X131430Y295166D01*
X131468Y295178D01*
X131509Y295183D01*
X131619Y295227D01*
X131732Y295264D01*
X131767Y295285D01*
X131804Y295300D01*
X131901Y295370D01*
X132001Y295434D01*
X132029Y295463D01*
X132062Y295487D01*
X132138Y295579D01*
X132219Y295665D01*
X132239Y295701D01*
X132264Y295732D01*
X132315Y295840D01*
X132373Y295944D01*
X132383Y295983D01*
X132400Y296020D01*
X132422Y296137D01*
X132452Y296252D01*
X132456Y296312D01*
X132460Y296332D01*
X132458Y296352D01*
X132462Y296413D01*
X132462Y300695D01*
X132447Y300813D01*
X132440Y300932D01*
X132428Y300970D01*
X132422Y301010D01*
X132379Y301121D01*
X132342Y301234D01*
X132320Y301268D01*
X132305Y301306D01*
X132236Y301402D01*
X132172Y301503D01*
X132142Y301530D01*
X132119Y301563D01*
X132027Y301639D01*
X131940Y301721D01*
X131905Y301740D01*
X131874Y301766D01*
X131766Y301817D01*
X131662Y301874D01*
X131622Y301884D01*
X131586Y301902D01*
X131469Y301924D01*
X131354Y301954D01*
X131294Y301957D01*
X131274Y301961D01*
X131253Y301960D01*
X131193Y301964D01*
X127246Y301964D01*
X123232Y303627D01*
X120159Y306699D01*
X118496Y310714D01*
X118496Y315059D01*
X120159Y319074D01*
X123232Y322146D01*
X127246Y323809D01*
X131592Y323809D01*
X135606Y322146D01*
X138679Y319074D01*
X140342Y315059D01*
X140342Y310714D01*
X139577Y308867D01*
X139569Y308838D01*
X139555Y308812D01*
X139527Y308685D01*
X139493Y308560D01*
X139492Y308531D01*
X139486Y308502D01*
X139490Y308372D01*
X139488Y308242D01*
X139495Y308213D01*
X139496Y308184D01*
X139532Y308059D01*
X139562Y307933D01*
X139576Y307907D01*
X139576Y296413D01*
X139591Y296294D01*
X139598Y296176D01*
X139611Y296137D01*
X139616Y296097D01*
X139659Y295986D01*
X139696Y295873D01*
X139718Y295839D01*
X139733Y295801D01*
X139803Y295705D01*
X139866Y295604D01*
X139896Y295577D01*
X139919Y295544D01*
X140011Y295468D01*
X140098Y295387D01*
X140133Y295367D01*
X140164Y295341D01*
X140272Y295290D01*
X140376Y295233D01*
X140416Y295223D01*
X140452Y295206D01*
X140569Y295183D01*
X140684Y295154D01*
X140745Y295150D01*
X140765Y295146D01*
X140785Y295147D01*
X140845Y295143D01*
X166492Y295143D01*
X194576Y267060D01*
X194576Y138113D01*
X173698Y117235D01*
X173637Y117157D01*
X173569Y117085D01*
X173540Y117032D01*
X173503Y116984D01*
X173463Y116893D01*
X173415Y116806D01*
X173400Y116748D01*
X173376Y116692D01*
X173361Y116594D01*
X173336Y116498D01*
X173330Y116398D01*
X173326Y116378D01*
X173328Y116366D01*
X173326Y116338D01*
X173326Y114031D01*
X172518Y112081D01*
X171025Y110588D01*
X169075Y109780D01*
X166768Y109780D01*
X166670Y109767D01*
X166571Y109764D01*
X166513Y109748D01*
X166452Y109740D01*
X166360Y109704D01*
X166265Y109676D01*
X166213Y109645D01*
X166157Y109623D01*
X166077Y109565D01*
X165991Y109515D01*
X165916Y109448D01*
X165899Y109436D01*
X165892Y109427D01*
X165871Y109408D01*
X145492Y89030D01*
X130951Y89030D01*
X130882Y89021D01*
X130812Y89022D01*
X130724Y89001D01*
X130635Y88990D01*
X130570Y88964D01*
X130502Y88948D01*
X130423Y88906D01*
X130340Y88873D01*
X130283Y88832D01*
X130221Y88799D01*
X130155Y88739D01*
X130082Y88686D01*
X130038Y88632D01*
X129986Y88585D01*
X129937Y88510D01*
X129879Y88441D01*
X129850Y88378D01*
X129811Y88320D01*
X129782Y88235D01*
X129744Y88153D01*
X129731Y88085D01*
X129708Y88019D01*
X129701Y87929D01*
X129684Y87841D01*
X129688Y87771D01*
X129683Y87702D01*
X129698Y87613D01*
X129704Y87524D01*
X129725Y87457D01*
X129737Y87389D01*
X129774Y87307D01*
X129802Y87221D01*
X129839Y87162D01*
X129868Y87099D01*
X129924Y87028D01*
X129972Y86952D01*
X130023Y86905D01*
X130066Y86850D01*
X130138Y86796D01*
X130204Y86735D01*
X130265Y86701D01*
X130321Y86659D01*
X130465Y86588D01*
X131167Y86297D01*
X132730Y84734D01*
X133576Y82692D01*
X133576Y80481D01*
X132730Y78439D01*
X131167Y76876D01*
X129124Y76030D01*
X126914Y76030D01*
X124771Y76917D01*
X124762Y76920D01*
X124754Y76924D01*
X124609Y76962D01*
X124465Y77001D01*
X124455Y77001D01*
X124446Y77004D01*
X124286Y77014D01*
X87070Y77014D01*
X87060Y77013D01*
X87051Y77014D01*
X86902Y76993D01*
X86754Y76974D01*
X86745Y76971D01*
X86736Y76969D01*
X86584Y76917D01*
X84924Y76230D01*
X82714Y76230D01*
X80671Y77076D01*
X79108Y78639D01*
X78262Y80681D01*
X78262Y82892D01*
X79108Y84934D01*
X80671Y86497D01*
X80890Y86588D01*
X80951Y86623D01*
X81016Y86648D01*
X81088Y86701D01*
X81166Y86746D01*
X81216Y86794D01*
X81273Y86835D01*
X81330Y86904D01*
X81395Y86967D01*
X81431Y87026D01*
X81476Y87080D01*
X81514Y87161D01*
X81561Y87238D01*
X81582Y87305D01*
X81611Y87368D01*
X81628Y87456D01*
X81655Y87542D01*
X81658Y87612D01*
X81671Y87680D01*
X81666Y87770D01*
X81670Y87859D01*
X81656Y87928D01*
X81651Y87998D01*
X81624Y88083D01*
X81606Y88171D01*
X81575Y88234D01*
X81553Y88300D01*
X81505Y88376D01*
X81466Y88457D01*
X81421Y88510D01*
X81383Y88569D01*
X81318Y88630D01*
X81260Y88699D01*
X81202Y88739D01*
X81152Y88787D01*
X81073Y88830D01*
X80999Y88882D01*
X80934Y88906D01*
X80873Y88940D01*
X80786Y88963D01*
X80702Y88994D01*
X80633Y89002D01*
X80565Y89020D01*
X80404Y89030D01*
X46018Y89030D01*
X45920Y89017D01*
X45821Y89014D01*
X45763Y88998D01*
X45702Y88990D01*
X45610Y88954D01*
X45515Y88926D01*
X45463Y88895D01*
X45407Y88873D01*
X45327Y88815D01*
X45241Y88765D01*
X45166Y88698D01*
X45149Y88686D01*
X45142Y88677D01*
X45121Y88658D01*
X36698Y80235D01*
X36637Y80157D01*
X36569Y80085D01*
X36540Y80032D01*
X36503Y79984D01*
X36463Y79893D01*
X36415Y79806D01*
X36400Y79748D01*
X36376Y79692D01*
X36361Y79594D01*
X36336Y79498D01*
X36330Y79398D01*
X36326Y79378D01*
X36328Y79366D01*
X36326Y79338D01*
X36326Y78531D01*
X35518Y76581D01*
X34025Y75088D01*
X32075Y74280D01*
X29963Y74280D01*
G37*
%LPD*%
%LPC*%
G36*
X130551Y41026D02*
X130551Y41026D01*
X125622Y43068D01*
X121850Y46840D01*
X119808Y51769D01*
X119808Y57104D01*
X121850Y62033D01*
X125622Y65806D01*
X130551Y67847D01*
X135887Y67847D01*
X140816Y65806D01*
X144588Y62033D01*
X146630Y57104D01*
X146630Y51769D01*
X144588Y46840D01*
X140816Y43068D01*
X135887Y41026D01*
X130551Y41026D01*
G37*
%LPD*%
%LPC*%
G36*
X72751Y41026D02*
X72751Y41026D01*
X67822Y43068D01*
X64050Y46840D01*
X62008Y51769D01*
X62008Y57104D01*
X64050Y62033D01*
X67822Y65806D01*
X72751Y67847D01*
X78087Y67847D01*
X83016Y65806D01*
X86788Y62033D01*
X88830Y57104D01*
X88830Y51769D01*
X86788Y46840D01*
X83016Y43068D01*
X78087Y41026D01*
X72751Y41026D01*
G37*
%LPD*%
%LPC*%
G36*
X101846Y301964D02*
X101846Y301964D01*
X97832Y303627D01*
X94759Y306699D01*
X93096Y310714D01*
X93096Y315059D01*
X94759Y319074D01*
X97832Y322146D01*
X101846Y323809D01*
X106192Y323809D01*
X110206Y322146D01*
X113279Y319074D01*
X114942Y315059D01*
X114942Y310714D01*
X113279Y306699D01*
X110206Y303627D01*
X106192Y301964D01*
X101846Y301964D01*
G37*
%LPD*%
%LPC*%
G36*
X76446Y301964D02*
X76446Y301964D01*
X72432Y303627D01*
X69359Y306699D01*
X67696Y310714D01*
X67696Y315059D01*
X69359Y319074D01*
X72432Y322146D01*
X76446Y323809D01*
X80792Y323809D01*
X84806Y322146D01*
X87879Y319074D01*
X89542Y315059D01*
X89542Y310714D01*
X87879Y306699D01*
X84806Y303627D01*
X80792Y301964D01*
X76446Y301964D01*
G37*
%LPD*%
%LPC*%
G36*
X106558Y340826D02*
X106558Y340826D01*
X106558Y349972D01*
X106815Y349931D01*
X108602Y349351D01*
X110276Y348498D01*
X111797Y347393D01*
X113125Y346064D01*
X114230Y344544D01*
X115083Y342869D01*
X115512Y341550D01*
X115546Y341478D01*
X115570Y341402D01*
X115613Y341334D01*
X115647Y341262D01*
X115698Y341201D01*
X115741Y341133D01*
X115799Y341079D01*
X115850Y341017D01*
X115914Y340970D01*
X115972Y340916D01*
X116042Y340877D01*
X116107Y340830D01*
X116118Y340826D01*
X106558Y340826D01*
G37*
%LPD*%
%LPC*%
G36*
X81158Y340826D02*
X81158Y340826D01*
X81158Y349972D01*
X81415Y349931D01*
X83202Y349351D01*
X84876Y348498D01*
X86397Y347393D01*
X87725Y346064D01*
X88830Y344544D01*
X89683Y342869D01*
X90112Y341550D01*
X90146Y341478D01*
X90170Y341402D01*
X90213Y341334D01*
X90247Y341262D01*
X90298Y341201D01*
X90341Y341133D01*
X90399Y341079D01*
X90450Y341017D01*
X90514Y340970D01*
X90572Y340915D01*
X90643Y340877D01*
X90707Y340830D01*
X90718Y340826D01*
X81158Y340826D01*
G37*
%LPD*%
%LPC*%
G36*
X126623Y326642D02*
X126623Y326642D01*
X124836Y327223D01*
X123162Y328076D01*
X121641Y329180D01*
X120313Y330509D01*
X119208Y332029D01*
X118355Y333704D01*
X117926Y335023D01*
X117892Y335095D01*
X117868Y335171D01*
X117825Y335239D01*
X117791Y335311D01*
X117740Y335373D01*
X117697Y335440D01*
X117639Y335495D01*
X117588Y335556D01*
X117524Y335603D01*
X117466Y335658D01*
X117396Y335696D01*
X117331Y335743D01*
X117321Y335747D01*
X126880Y335747D01*
X126880Y326601D01*
X126623Y326642D01*
G37*
%LPD*%
%LPC*%
G36*
X101223Y326642D02*
X101223Y326642D01*
X99436Y327223D01*
X97762Y328076D01*
X96241Y329180D01*
X94913Y330509D01*
X93808Y332029D01*
X92955Y333704D01*
X92526Y335023D01*
X92492Y335095D01*
X92468Y335171D01*
X92425Y335239D01*
X92391Y335311D01*
X92340Y335373D01*
X92297Y335440D01*
X92239Y335495D01*
X92188Y335556D01*
X92124Y335603D01*
X92066Y335658D01*
X91996Y335696D01*
X91931Y335743D01*
X91921Y335747D01*
X101480Y335747D01*
X101480Y326601D01*
X101223Y326642D01*
G37*
%LPD*%
%LPC*%
G36*
X117321Y340826D02*
X117321Y340826D01*
X117330Y340829D01*
X117394Y340876D01*
X117464Y340914D01*
X117522Y340969D01*
X117587Y341016D01*
X117638Y341077D01*
X117696Y341132D01*
X117739Y341199D01*
X117790Y341261D01*
X117824Y341333D01*
X117867Y341400D01*
X117925Y341547D01*
X117926Y341548D01*
X117926Y341549D01*
X117926Y341550D01*
X118355Y342870D01*
X119208Y344544D01*
X120313Y346064D01*
X121641Y347393D01*
X123162Y348498D01*
X124836Y349351D01*
X126623Y349931D01*
X126880Y349972D01*
X126880Y340826D01*
X117321Y340826D01*
G37*
%LPD*%
%LPC*%
G36*
X91921Y340826D02*
X91921Y340826D01*
X91930Y340829D01*
X91994Y340876D01*
X92064Y340914D01*
X92122Y340969D01*
X92187Y341016D01*
X92238Y341077D01*
X92296Y341132D01*
X92339Y341199D01*
X92390Y341261D01*
X92424Y341333D01*
X92467Y341400D01*
X92525Y341547D01*
X92526Y341548D01*
X92526Y341549D01*
X92526Y341550D01*
X92955Y342870D01*
X93808Y344544D01*
X94913Y346064D01*
X96241Y347393D01*
X97762Y348498D01*
X99436Y349351D01*
X101223Y349931D01*
X101480Y349972D01*
X101480Y340826D01*
X91921Y340826D01*
G37*
%LPD*%
%LPC*%
G36*
X81158Y335747D02*
X81158Y335747D01*
X90717Y335747D01*
X90708Y335744D01*
X90644Y335697D01*
X90574Y335659D01*
X90516Y335604D01*
X90451Y335557D01*
X90400Y335496D01*
X90342Y335441D01*
X90299Y335374D01*
X90248Y335312D01*
X90214Y335240D01*
X90171Y335173D01*
X90113Y335026D01*
X90112Y335025D01*
X90112Y335024D01*
X90112Y335023D01*
X89683Y333704D01*
X88830Y332029D01*
X87725Y330509D01*
X86397Y329180D01*
X84876Y328076D01*
X83202Y327223D01*
X81415Y326642D01*
X81158Y326601D01*
X81158Y335747D01*
G37*
%LPD*%
%LPC*%
G36*
X106558Y335747D02*
X106558Y335747D01*
X116117Y335747D01*
X116108Y335744D01*
X116044Y335697D01*
X115974Y335659D01*
X115916Y335604D01*
X115851Y335557D01*
X115800Y335496D01*
X115742Y335441D01*
X115699Y335374D01*
X115648Y335312D01*
X115614Y335240D01*
X115571Y335173D01*
X115513Y335026D01*
X115512Y335025D01*
X115512Y335024D01*
X115512Y335023D01*
X115083Y333704D01*
X114230Y332029D01*
X113125Y330509D01*
X111797Y329180D01*
X110276Y328076D01*
X108602Y327223D01*
X106815Y326642D01*
X106558Y326601D01*
X106558Y335747D01*
G37*
%LPD*%
%LPC*%
G36*
X131958Y340826D02*
X131958Y340826D01*
X131958Y349972D01*
X132215Y349931D01*
X134002Y349351D01*
X135676Y348498D01*
X137197Y347393D01*
X138525Y346064D01*
X139630Y344544D01*
X140483Y342870D01*
X141064Y341082D01*
X141104Y340826D01*
X131958Y340826D01*
G37*
%LPD*%
%LPC*%
G36*
X66934Y340826D02*
X66934Y340826D01*
X66974Y341082D01*
X67555Y342870D01*
X68408Y344544D01*
X69513Y346064D01*
X70841Y347393D01*
X72362Y348498D01*
X74036Y349351D01*
X75823Y349931D01*
X76080Y349972D01*
X76080Y340826D01*
X66934Y340826D01*
G37*
%LPD*%
%LPC*%
G36*
X131958Y335747D02*
X131958Y335747D01*
X141104Y335747D01*
X141064Y335491D01*
X140483Y333704D01*
X139630Y332029D01*
X138525Y330509D01*
X137197Y329180D01*
X135676Y328076D01*
X134002Y327223D01*
X132215Y326642D01*
X131958Y326601D01*
X131958Y335747D01*
G37*
%LPD*%
%LPC*%
G36*
X75823Y326642D02*
X75823Y326642D01*
X74036Y327223D01*
X72362Y328076D01*
X70841Y329180D01*
X69513Y330509D01*
X68408Y332029D01*
X67555Y333704D01*
X66974Y335491D01*
X66934Y335747D01*
X76080Y335747D01*
X76080Y326601D01*
X75823Y326642D01*
G37*
%LPD*%
%LPC*%
G36*
X129418Y338286D02*
X129418Y338286D01*
X129418Y338287D01*
X129420Y338287D01*
X129420Y338286D01*
X129418Y338286D01*
G37*
%LPD*%
%LPC*%
G36*
X104018Y338286D02*
X104018Y338286D01*
X104018Y338287D01*
X104020Y338287D01*
X104020Y338286D01*
X104018Y338286D01*
G37*
%LPD*%
%LPC*%
G36*
X78618Y338286D02*
X78618Y338286D01*
X78618Y338287D01*
X78620Y338287D01*
X78620Y338286D01*
X78618Y338286D01*
G37*
%LPD*%
D10*
X78619Y312887D03*
X78619Y338287D03*
X104019Y312887D03*
X104019Y338287D03*
X129419Y312887D03*
X129419Y338287D03*
D11*
X31019Y79587D03*
D12*
X44019Y92587D01*
X144019Y92587D01*
X168019Y116587D01*
X168019Y115087D01*
D11*
X168019Y115087D03*
X67019Y281587D03*
D12*
X77019Y291587D01*
X165019Y291587D02*
X191019Y265587D01*
X191019Y139587D01*
X168019Y116587D01*
X136019Y291587D02*
X77019Y291587D01*
X136019Y291587D02*
X165019Y291587D01*
D11*
X136019Y291587D03*
D12*
X136019Y306287D02*
X129419Y312887D01*
X136019Y306287D02*
X136019Y291587D01*
D13*
X128019Y81587D03*
D14*
X84019Y81587D01*
X83819Y81787D01*
D13*
X83819Y81787D03*
M02*
