G04 EAGLE Gerber RS-274X export*
G75*
%MOMM*%
%FSLAX34Y34*%
%LPD*%
%INSilkscreen Bottom*%
%IPPOS*%
%AMOC8*
5,1,8,0,0,1.08239X$1,22.5*%
G01*
%ADD10C,0.127000*%
%ADD11C,0.203200*%


D10*
X160068Y360475D02*
X160068Y366407D01*
X158585Y366407D01*
X157102Y364924D01*
X157102Y360475D01*
X157102Y364924D02*
X155619Y366407D01*
X154136Y364924D01*
X154136Y360475D01*
X150713Y366407D02*
X149230Y366407D01*
X149230Y360475D01*
X150713Y360475D02*
X147747Y360475D01*
X149230Y369373D02*
X149230Y370856D01*
X144476Y366407D02*
X144476Y360475D01*
X144476Y366407D02*
X140027Y366407D01*
X138544Y364924D01*
X138544Y360475D01*
X133638Y360475D02*
X130672Y360475D01*
X133638Y360475D02*
X135121Y361958D01*
X135121Y364924D01*
X133638Y366407D01*
X130672Y366407D01*
X129189Y364924D01*
X129189Y363441D01*
X135121Y363441D01*
X125766Y360475D02*
X125766Y366407D01*
X125766Y363441D02*
X122800Y366407D01*
X121317Y366407D01*
X117970Y366407D02*
X117970Y357509D01*
X117970Y366407D02*
X113521Y366407D01*
X112038Y364924D01*
X112038Y361958D01*
X113521Y360475D01*
X117970Y360475D01*
X108615Y361958D02*
X108615Y366407D01*
X108615Y361958D02*
X107132Y360475D01*
X102683Y360475D01*
X102683Y366407D01*
X99259Y366407D02*
X99259Y360475D01*
X99259Y366407D02*
X94811Y366407D01*
X93328Y364924D01*
X93328Y360475D01*
X89904Y360475D02*
X89904Y369373D01*
X89904Y363441D02*
X85455Y360475D01*
X89904Y363441D02*
X85455Y366407D01*
X82108Y361958D02*
X82108Y360475D01*
X82108Y361958D02*
X80625Y361958D01*
X80625Y360475D01*
X82108Y360475D01*
X75948Y366407D02*
X71499Y366407D01*
X75948Y366407D02*
X77431Y364924D01*
X77431Y361958D01*
X75948Y360475D01*
X71499Y360475D01*
X66593Y360475D02*
X63627Y360475D01*
X62144Y361958D01*
X62144Y364924D01*
X63627Y366407D01*
X66593Y366407D01*
X68076Y364924D01*
X68076Y361958D01*
X66593Y360475D01*
X58720Y360475D02*
X58720Y366407D01*
X57237Y366407D01*
X55754Y364924D01*
X55754Y360475D01*
X55754Y364924D02*
X54272Y366407D01*
X52789Y364924D01*
X52789Y360475D01*
D11*
X72269Y298727D02*
X84969Y298727D01*
M02*
