G04 EAGLE Gerber RS-274X export*
G75*
%MOMM*%
%FSLAX34Y34*%
%LPD*%
%INSilkscreen Top*%
%IPPOS*%
%AMOC8*
5,1,8,0,0,1.08239X$1,22.5*%
G01*
%ADD10C,0.076200*%
%ADD11C,0.127000*%
%ADD12C,0.203200*%
%ADD13C,0.152400*%


D10*
X111788Y160432D02*
X117932Y160432D01*
X119160Y161660D01*
X119160Y164118D01*
X117932Y165347D01*
X111788Y165347D01*
X119160Y167916D02*
X119160Y172831D01*
X114246Y172831D02*
X119160Y167916D01*
X114246Y172831D02*
X113017Y172831D01*
X111788Y171602D01*
X111788Y169145D01*
X113017Y167916D01*
D11*
X12635Y60567D02*
X15601Y54635D01*
X18567Y60567D01*
X21990Y60567D02*
X24956Y63533D01*
X24956Y54635D01*
X21990Y54635D02*
X27922Y54635D01*
X31345Y54635D02*
X31345Y56118D01*
X32828Y56118D01*
X32828Y54635D01*
X31345Y54635D01*
X36023Y54635D02*
X41955Y54635D01*
X36023Y54635D02*
X41955Y60567D01*
X41955Y62050D01*
X40472Y63533D01*
X37506Y63533D01*
X36023Y62050D01*
X188467Y232084D02*
X189950Y233567D01*
X188467Y232084D02*
X188467Y229118D01*
X189950Y227635D01*
X195882Y227635D01*
X197365Y229118D01*
X197365Y232084D01*
X195882Y233567D01*
X188467Y238473D02*
X188467Y241439D01*
X188467Y238473D02*
X189950Y236990D01*
X195882Y236990D01*
X197365Y238473D01*
X197365Y241439D01*
X195882Y242922D01*
X189950Y242922D01*
X188467Y241439D01*
X188467Y246345D02*
X197365Y246345D01*
X191433Y249311D02*
X188467Y246345D01*
X191433Y249311D02*
X188467Y252277D01*
X197365Y252277D01*
X197365Y255701D02*
X197365Y258666D01*
X197365Y257183D02*
X188467Y257183D01*
X188467Y255701D02*
X188467Y258666D01*
X188467Y261937D02*
X197365Y261937D01*
X197365Y267869D02*
X188467Y261937D01*
X188467Y267869D02*
X197365Y267869D01*
X188467Y271293D02*
X188467Y277224D01*
X188467Y271293D02*
X197365Y271293D01*
X197365Y277224D01*
X192916Y274258D02*
X192916Y271293D01*
X197365Y280648D02*
X188467Y280648D01*
X188467Y285097D01*
X189950Y286579D01*
X192916Y286579D01*
X194399Y285097D01*
X194399Y280648D01*
X194399Y283614D02*
X197365Y286579D01*
X192916Y290003D02*
X192916Y295935D01*
X188467Y303807D02*
X189950Y305290D01*
X188467Y303807D02*
X188467Y300841D01*
X189950Y299358D01*
X191433Y299358D01*
X192916Y300841D01*
X192916Y303807D01*
X194399Y305290D01*
X195882Y305290D01*
X197365Y303807D01*
X197365Y300841D01*
X195882Y299358D01*
X188467Y308713D02*
X188467Y314645D01*
X188467Y308713D02*
X197365Y308713D01*
X197365Y314645D01*
X192916Y311679D02*
X192916Y308713D01*
X197365Y318068D02*
X188467Y318068D01*
X188467Y322517D01*
X189950Y324000D01*
X192916Y324000D01*
X194399Y322517D01*
X194399Y318068D01*
X194399Y321034D02*
X197365Y324000D01*
X197365Y327424D02*
X197365Y330390D01*
X197365Y328907D02*
X188467Y328907D01*
X188467Y327424D02*
X188467Y330390D01*
X191433Y333660D02*
X197365Y333660D01*
X191433Y333660D02*
X188467Y336626D01*
X191433Y339592D01*
X197365Y339592D01*
X192916Y339592D02*
X192916Y333660D01*
X188467Y343016D02*
X197365Y343016D01*
X197365Y348947D01*
X57819Y165087D02*
X53819Y165087D01*
X53819Y169087D01*
X53819Y211087D02*
X53819Y215087D01*
X57819Y215087D01*
X99819Y215087D02*
X103819Y215087D01*
X103819Y211087D01*
X103819Y169087D02*
X99819Y165087D01*
X104657Y162908D02*
X104659Y162971D01*
X104665Y163033D01*
X104675Y163095D01*
X104688Y163157D01*
X104706Y163217D01*
X104727Y163276D01*
X104752Y163334D01*
X104781Y163390D01*
X104813Y163444D01*
X104848Y163496D01*
X104886Y163545D01*
X104928Y163593D01*
X104972Y163637D01*
X105020Y163679D01*
X105069Y163717D01*
X105121Y163752D01*
X105175Y163784D01*
X105231Y163813D01*
X105289Y163838D01*
X105348Y163859D01*
X105408Y163877D01*
X105470Y163890D01*
X105532Y163900D01*
X105594Y163906D01*
X105657Y163908D01*
X105720Y163906D01*
X105782Y163900D01*
X105844Y163890D01*
X105906Y163877D01*
X105966Y163859D01*
X106025Y163838D01*
X106083Y163813D01*
X106139Y163784D01*
X106193Y163752D01*
X106245Y163717D01*
X106294Y163679D01*
X106342Y163637D01*
X106386Y163593D01*
X106428Y163545D01*
X106466Y163496D01*
X106501Y163444D01*
X106533Y163390D01*
X106562Y163334D01*
X106587Y163276D01*
X106608Y163217D01*
X106626Y163157D01*
X106639Y163095D01*
X106649Y163033D01*
X106655Y162971D01*
X106657Y162908D01*
X106655Y162845D01*
X106649Y162783D01*
X106639Y162721D01*
X106626Y162659D01*
X106608Y162599D01*
X106587Y162540D01*
X106562Y162482D01*
X106533Y162426D01*
X106501Y162372D01*
X106466Y162320D01*
X106428Y162271D01*
X106386Y162223D01*
X106342Y162179D01*
X106294Y162137D01*
X106245Y162099D01*
X106193Y162064D01*
X106139Y162032D01*
X106083Y162003D01*
X106025Y161978D01*
X105966Y161957D01*
X105906Y161939D01*
X105844Y161926D01*
X105782Y161916D01*
X105720Y161910D01*
X105657Y161908D01*
X105594Y161910D01*
X105532Y161916D01*
X105470Y161926D01*
X105408Y161939D01*
X105348Y161957D01*
X105289Y161978D01*
X105231Y162003D01*
X105175Y162032D01*
X105121Y162064D01*
X105069Y162099D01*
X105020Y162137D01*
X104972Y162179D01*
X104928Y162223D01*
X104886Y162271D01*
X104848Y162320D01*
X104813Y162372D01*
X104781Y162426D01*
X104752Y162482D01*
X104727Y162540D01*
X104706Y162599D01*
X104688Y162659D01*
X104675Y162721D01*
X104665Y162783D01*
X104659Y162845D01*
X104657Y162908D01*
D12*
X137619Y185687D02*
X137619Y197687D01*
X151619Y217687D02*
X157619Y217687D01*
X171619Y197687D02*
X171619Y185687D01*
X157619Y165687D02*
X151619Y165687D01*
D13*
X126799Y184964D02*
X125697Y184964D01*
X126799Y184964D02*
X129002Y187168D01*
X126799Y189371D01*
X125697Y189371D01*
X129002Y187168D02*
X132307Y187168D01*
X127901Y192449D02*
X125697Y194652D01*
X132307Y194652D01*
X132307Y192449D02*
X132307Y196855D01*
X195657Y161264D02*
X202267Y161264D01*
X195657Y161264D02*
X195657Y164569D01*
X196759Y165671D01*
X198962Y165671D01*
X200064Y164569D01*
X200064Y161264D01*
X200064Y163468D02*
X202267Y165671D01*
X196759Y168749D02*
X195657Y169850D01*
X195657Y172053D01*
X196759Y173155D01*
X197861Y173155D01*
X198962Y172053D01*
X198962Y170952D01*
X198962Y172053D02*
X200064Y173155D01*
X201165Y173155D01*
X202267Y172053D01*
X202267Y169850D01*
X201165Y168749D01*
X154603Y135747D02*
X153502Y136848D01*
X151298Y136848D01*
X150197Y135747D01*
X150197Y131340D01*
X151298Y130239D01*
X153502Y130239D01*
X154603Y131340D01*
X157681Y134645D02*
X159884Y136848D01*
X159884Y130239D01*
X157681Y130239D02*
X162087Y130239D01*
X194857Y200069D02*
X195959Y201171D01*
X194857Y200069D02*
X194857Y197866D01*
X195959Y196764D01*
X200365Y196764D01*
X201467Y197866D01*
X201467Y200069D01*
X200365Y201171D01*
X201467Y204249D02*
X201467Y208655D01*
X201467Y204249D02*
X197061Y208655D01*
X195959Y208655D01*
X194857Y207553D01*
X194857Y205350D01*
X195959Y204249D01*
X22259Y178467D02*
X22259Y171857D01*
X22259Y178467D02*
X25564Y178467D01*
X26665Y177365D01*
X26665Y175162D01*
X25564Y174061D01*
X22259Y174061D01*
X24462Y174061D02*
X26665Y171857D01*
X33048Y171857D02*
X33048Y178467D01*
X29743Y175162D01*
X34149Y175162D01*
X60202Y156240D02*
X61303Y155139D01*
X60202Y156240D02*
X57998Y156240D01*
X56897Y155139D01*
X56897Y150732D01*
X57998Y149631D01*
X60202Y149631D01*
X61303Y150732D01*
X64381Y155139D02*
X65483Y156240D01*
X67686Y156240D01*
X68787Y155139D01*
X68787Y154037D01*
X67686Y152935D01*
X66584Y152935D01*
X67686Y152935D02*
X68787Y151834D01*
X68787Y150732D01*
X67686Y149631D01*
X65483Y149631D01*
X64381Y150732D01*
D12*
X61119Y46887D02*
X61119Y28887D01*
X147519Y28887D02*
X147519Y46887D01*
D10*
X159764Y31839D02*
X158535Y30610D01*
X159764Y31839D02*
X159764Y33068D01*
X158535Y34296D01*
X152392Y34296D01*
X152392Y33068D02*
X152392Y35525D01*
X154849Y38094D02*
X152392Y40552D01*
X159764Y40552D01*
X159764Y43009D02*
X159764Y38094D01*
D13*
X105697Y123939D02*
X105697Y130548D01*
X109002Y130548D01*
X110103Y129447D01*
X110103Y127243D01*
X109002Y126142D01*
X105697Y126142D01*
X107900Y126142D02*
X110103Y123939D01*
X113181Y130548D02*
X117587Y130548D01*
X113181Y130548D02*
X113181Y127243D01*
X115384Y128345D01*
X116486Y128345D01*
X117587Y127243D01*
X117587Y125040D01*
X116486Y123939D01*
X114283Y123939D01*
X113181Y125040D01*
X88697Y124039D02*
X88697Y130648D01*
X92002Y130648D01*
X93103Y129547D01*
X93103Y127343D01*
X92002Y126242D01*
X88697Y126242D01*
X90900Y126242D02*
X93103Y124039D01*
X98384Y129547D02*
X100587Y130648D01*
X98384Y129547D02*
X96181Y127343D01*
X96181Y125140D01*
X97283Y124039D01*
X99486Y124039D01*
X100587Y125140D01*
X100587Y126242D01*
X99486Y127343D01*
X96181Y127343D01*
X41297Y86050D02*
X41297Y79441D01*
X41297Y86050D02*
X45703Y86050D01*
X43500Y82745D02*
X41297Y82745D01*
X48781Y83847D02*
X50984Y86050D01*
X50984Y79441D01*
X48781Y79441D02*
X53187Y79441D01*
X123897Y123739D02*
X123897Y130348D01*
X127202Y130348D01*
X128303Y129247D01*
X128303Y127043D01*
X127202Y125942D01*
X123897Y125942D01*
X126100Y125942D02*
X128303Y123739D01*
X131381Y124840D02*
X132483Y123739D01*
X134686Y123739D01*
X135787Y124840D01*
X135787Y129247D01*
X134686Y130348D01*
X132483Y130348D01*
X131381Y129247D01*
X131381Y128145D01*
X132483Y127043D01*
X135787Y127043D01*
X121761Y240939D02*
X120660Y242040D01*
X118456Y242040D01*
X117355Y240939D01*
X117355Y236532D01*
X118456Y235431D01*
X120660Y235431D01*
X121761Y236532D01*
X124839Y239837D02*
X127042Y242040D01*
X127042Y235431D01*
X124839Y235431D02*
X129245Y235431D01*
X132323Y242040D02*
X136730Y242040D01*
X136730Y240939D01*
X132323Y236532D01*
X132323Y235431D01*
X176859Y72029D02*
X175757Y70927D01*
X175757Y68724D01*
X176859Y67622D01*
X181265Y67622D01*
X182367Y68724D01*
X182367Y70927D01*
X181265Y72029D01*
X177961Y75107D02*
X175757Y77310D01*
X182367Y77310D01*
X182367Y75107D02*
X182367Y79513D01*
X176859Y82591D02*
X175757Y83692D01*
X175757Y85896D01*
X176859Y86997D01*
X177961Y86997D01*
X179062Y85896D01*
X180164Y86997D01*
X181265Y86997D01*
X182367Y85896D01*
X182367Y83692D01*
X181265Y82591D01*
X180164Y82591D01*
X179062Y83692D01*
X177961Y82591D01*
X176859Y82591D01*
X179062Y83692D02*
X179062Y85896D01*
X23461Y130839D02*
X22360Y131940D01*
X20156Y131940D01*
X19055Y130839D01*
X19055Y126432D01*
X20156Y125331D01*
X22360Y125331D01*
X23461Y126432D01*
X26539Y129737D02*
X28742Y131940D01*
X28742Y125331D01*
X26539Y125331D02*
X30945Y125331D01*
X34023Y126432D02*
X35125Y125331D01*
X37328Y125331D01*
X38430Y126432D01*
X38430Y130839D01*
X37328Y131940D01*
X35125Y131940D01*
X34023Y130839D01*
X34023Y129737D01*
X35125Y128635D01*
X38430Y128635D01*
D12*
X28419Y370587D02*
X179619Y370587D01*
X179619Y280587D02*
X126019Y280587D01*
X82019Y280587D01*
X28419Y280587D01*
X28419Y369587D01*
X179619Y370587D02*
X179619Y280587D01*
X82019Y280587D02*
X82019Y295587D01*
X126019Y295587D01*
X126019Y280587D01*
X84969Y299107D02*
X72269Y299107D01*
D13*
X20517Y283350D02*
X19415Y282249D01*
X20517Y283350D02*
X20517Y284452D01*
X19415Y285553D01*
X13907Y285553D01*
X13907Y284452D02*
X13907Y286655D01*
X13907Y293038D02*
X20517Y293038D01*
X17212Y289733D02*
X13907Y293038D01*
X17212Y294139D02*
X17212Y289733D01*
X109297Y276940D02*
X109297Y270331D01*
X109297Y276940D02*
X112602Y276940D01*
X113703Y275839D01*
X113703Y273635D01*
X112602Y272534D01*
X109297Y272534D01*
X111500Y272534D02*
X113703Y270331D01*
X116781Y270331D02*
X121187Y270331D01*
X116781Y270331D02*
X121187Y274737D01*
X121187Y275839D01*
X120086Y276940D01*
X117883Y276940D01*
X116781Y275839D01*
X148259Y276767D02*
X148259Y270157D01*
X148259Y276767D02*
X151564Y276767D01*
X152665Y275665D01*
X152665Y273462D01*
X151564Y272361D01*
X148259Y272361D01*
X150462Y272361D02*
X152665Y270157D01*
X155743Y276767D02*
X160149Y276767D01*
X160149Y275665D01*
X155743Y271259D01*
X155743Y270157D01*
D12*
X57894Y246349D02*
X57894Y236824D01*
D13*
X23301Y235297D02*
X16692Y235297D01*
X23301Y235297D02*
X23301Y238602D01*
X22200Y239703D01*
X17793Y239703D01*
X16692Y238602D01*
X16692Y235297D01*
X17793Y242781D02*
X16692Y243883D01*
X16692Y246086D01*
X17793Y247187D01*
X18895Y247187D01*
X19997Y246086D01*
X19997Y244984D01*
X19997Y246086D02*
X21098Y247187D01*
X22200Y247187D01*
X23301Y246086D01*
X23301Y243883D01*
X22200Y242781D01*
D12*
X92894Y246349D02*
X92894Y236824D01*
D13*
X95692Y235297D02*
X102301Y235297D01*
X102301Y238602D01*
X101200Y239703D01*
X96793Y239703D01*
X95692Y238602D01*
X95692Y235297D01*
X95692Y246086D02*
X102301Y246086D01*
X98997Y242781D02*
X95692Y246086D01*
X98997Y247187D02*
X98997Y242781D01*
X32555Y269831D02*
X32555Y276440D01*
X35860Y276440D01*
X36961Y275339D01*
X36961Y273135D01*
X35860Y272034D01*
X32555Y272034D01*
X34758Y272034D02*
X36961Y269831D01*
X40039Y269831D02*
X44445Y269831D01*
X40039Y269831D02*
X44445Y274237D01*
X44445Y275339D01*
X43344Y276440D01*
X41141Y276440D01*
X40039Y275339D01*
X49726Y275339D02*
X51930Y276440D01*
X49726Y275339D02*
X47523Y273135D01*
X47523Y270932D01*
X48625Y269831D01*
X50828Y269831D01*
X51930Y270932D01*
X51930Y272034D01*
X50828Y273135D01*
X47523Y273135D01*
X66517Y270157D02*
X66517Y276767D01*
X69822Y276767D01*
X70923Y275665D01*
X70923Y273462D01*
X69822Y272361D01*
X66517Y272361D01*
X68720Y272361D02*
X70923Y270157D01*
X74001Y270157D02*
X78407Y270157D01*
X74001Y270157D02*
X78407Y274564D01*
X78407Y275665D01*
X77306Y276767D01*
X75102Y276767D01*
X74001Y275665D01*
X81485Y276767D02*
X85891Y276767D01*
X85891Y275665D01*
X81485Y271259D01*
X81485Y270157D01*
M02*
