G04 EAGLE Gerber RS-274X export*
G75*
%MOMM*%
%FSLAX34Y34*%
%LPD*%
%INSolderpaste Top*%
%IPPOS*%
%AMOC8*
5,1,8,0,0,1.08239X$1,22.5*%
G01*
%ADD10R,0.800000X0.284600*%
%ADD11R,0.284600X0.800000*%
%ADD12R,1.300000X1.300000*%
%ADD13R,1.100000X1.900000*%
%ADD14R,1.200000X0.800000*%
%ADD15R,0.800000X1.200000*%
%ADD16R,0.300000X1.000000*%
%ADD17R,0.600000X1.000000*%
%ADD18R,1.800000X1.350000*%
%ADD19R,1.676400X2.895600*%
%ADD20C,0.300000*%


D10*
X103819Y172587D03*
X103819Y177587D03*
X103819Y182587D03*
X103819Y187587D03*
X103819Y192587D03*
X103819Y197587D03*
X103819Y202587D03*
X103819Y207587D03*
D11*
X96319Y215087D03*
X91319Y215087D03*
X86319Y215087D03*
X81319Y215087D03*
X76319Y215087D03*
X71319Y215087D03*
X66319Y215087D03*
X61319Y215087D03*
D10*
X53819Y207587D03*
X53819Y202587D03*
X53819Y197587D03*
X53819Y192587D03*
X53819Y187587D03*
X53819Y182587D03*
X53819Y177587D03*
X53819Y172587D03*
D11*
X61319Y165087D03*
X66319Y165087D03*
X71319Y165087D03*
X76319Y165087D03*
X81319Y165087D03*
X86319Y165087D03*
X91319Y165087D03*
X96319Y165087D03*
D12*
X70819Y182087D03*
X70819Y198087D03*
X86819Y182087D03*
X86819Y198087D03*
D13*
X166119Y173187D03*
X143119Y210187D03*
X143119Y173187D03*
X166119Y210187D03*
D14*
X186419Y158987D03*
X186419Y176987D03*
D15*
X147419Y149087D03*
X165419Y149087D03*
D14*
X186419Y213187D03*
X186419Y195187D03*
D15*
X20019Y162887D03*
X38019Y162887D03*
X72619Y140887D03*
X54619Y140887D03*
D16*
X111819Y65487D03*
X106819Y65487D03*
D17*
X136569Y65487D03*
X128819Y65487D03*
D16*
X121819Y65487D03*
X116819Y65487D03*
X96819Y65487D03*
X101819Y65487D03*
D17*
X72069Y65487D03*
X79819Y65487D03*
D16*
X86819Y65487D03*
X91819Y65487D03*
D18*
X52319Y65887D03*
X156319Y65887D03*
X156319Y32887D03*
X52319Y32887D03*
D14*
X113319Y96987D03*
X113319Y114987D03*
X95219Y96987D03*
X95219Y114987D03*
D19*
X71895Y106587D03*
X24143Y106587D03*
D14*
X131519Y114987D03*
X131519Y96987D03*
D15*
X163819Y238687D03*
X145819Y238687D03*
D14*
X181019Y97087D03*
X181019Y115087D03*
D15*
X38519Y141087D03*
X20519Y141087D03*
X125019Y260587D03*
X107019Y260587D03*
X146019Y260587D03*
X164019Y260587D03*
D20*
X47289Y245087D02*
X47289Y238087D01*
X47289Y245087D02*
X54289Y245087D01*
X54289Y238087D01*
X47289Y238087D01*
X47289Y240937D02*
X54289Y240937D01*
X54289Y243787D02*
X47289Y243787D01*
X29749Y245087D02*
X29749Y238087D01*
X29749Y245087D02*
X36749Y245087D01*
X36749Y238087D01*
X29749Y238087D01*
X29749Y240937D02*
X36749Y240937D01*
X36749Y243787D02*
X29749Y243787D01*
X82289Y245087D02*
X82289Y238087D01*
X82289Y245087D02*
X89289Y245087D01*
X89289Y238087D01*
X82289Y238087D01*
X82289Y240937D02*
X89289Y240937D01*
X89289Y243787D02*
X82289Y243787D01*
X64749Y245087D02*
X64749Y238087D01*
X64749Y245087D02*
X71749Y245087D01*
X71749Y238087D01*
X64749Y238087D01*
X64749Y240937D02*
X71749Y240937D01*
X71749Y243787D02*
X64749Y243787D01*
D15*
X51019Y260587D03*
X33019Y260587D03*
X68019Y260587D03*
X86019Y260587D03*
M02*
